<svg version="1.1" xmlns="http://www.w3.org/2000/svg" xmlns:xlink="http://www.w3.org/1999/xlink" width="33.47958" height="32.02122" viewBox="0,0,33.47958,32.02122"><defs><radialGradient cx="239.36437" cy="168.13021" r="7.24443" gradientUnits="userSpaceOnUse" id="color-1"><stop offset="0" stop-color="#08725d"/><stop offset="1" stop-color="#03372c"/></radialGradient><radialGradient cx="248.63634" cy="176.03419" r="7.93324" gradientUnits="userSpaceOnUse" id="color-2"><stop offset="0" stop-color="#08725d"/><stop offset="1" stop-color="#03372c"/></radialGradient><radialGradient cx="248.33234" cy="185.30616" r="7.52507" gradientUnits="userSpaceOnUse" id="color-3"><stop offset="0" stop-color="#08725d"/><stop offset="1" stop-color="#03372c"/></radialGradient><radialGradient cx="240.12437" cy="189.71414" r="7.25232" gradientUnits="userSpaceOnUse" id="color-4"><stop offset="0" stop-color="#08725d"/><stop offset="1" stop-color="#03372c"/></radialGradient><radialGradient cx="230.8524" cy="185.61016" r="7.66984" gradientUnits="userSpaceOnUse" id="color-5"><stop offset="0" stop-color="#08725d"/><stop offset="1" stop-color="#03372c"/></radialGradient><radialGradient cx="230.5484" cy="172.8422" r="7.78992" gradientUnits="userSpaceOnUse" id="color-6"><stop offset="0" stop-color="#08725d"/><stop offset="1" stop-color="#03372c"/></radialGradient><radialGradient cx="239.51638" cy="180.29017" r="3.79706" gradientUnits="userSpaceOnUse" id="color-7"><stop offset="0" stop-color="#10e4b6"/><stop offset="1" stop-color="#021b16"/></radialGradient></defs><g transform="translate(-223.26023,-163.98939)"><g data-paper-data="{&quot;isPaintingLayer&quot;:true}" fill-rule="nonzero" stroke-width="0" stroke-linecap="butt" stroke-linejoin="miter" stroke-miterlimit="10" stroke-dasharray="" stroke-dashoffset="0" style="mix-blend-mode: normal"><path d="M237.69329,177.19574c0,0 -11.17574,-19.98483 11.76745,-10.78574c0,0 -4.74926,1.81401 -5.91383,3.49699c-1.83628,2.65371 -1.8858,7.60544 -1.8858,7.60544z" data-paper-data="{&quot;origPos&quot;:null,&quot;origRot&quot;:0}" fill="url(#color-1)" stroke="none"/><path d="M240.87333,177.88735c0,0 7.67518,-21.57272 15.86648,1.74928c0,0 -4.49322,-2.37847 -6.5266,-2.14611c-3.20622,0.36638 -6.96455,3.59083 -6.96455,3.59083z" data-paper-data="{&quot;origPos&quot;:null,&quot;origRot&quot;:0}" fill="url(#color-2)" stroke="none"/><path d="M242.39312,180.56365c0,0 22.61251,-3.60071 6.06761,14.76446c0,0 -0.06547,-5.08348 -1.24378,-6.75688c-1.85795,-2.63858 -6.48903,-4.3922 -6.48903,-4.3922z" data-paper-data="{&quot;origPos&quot;:null,&quot;origRot&quot;:0}" fill="url(#color-3)" stroke="none"/><path d="M241.68939,182.8209c0,0 11.02325,20.06934 -11.84924,10.69584c0,0 4.76293,-1.77781 5.94029,-3.45186c1.85644,-2.63965 1.94365,-7.59087 1.94365,-7.59087z" data-paper-data="{&quot;origPos&quot;:null,&quot;origRot&quot;:0}" fill="url(#color-4)" stroke="none"/><path d="M238.5999,183.09143c0,0 -11.22392,19.95781 -15.33967,-4.41582c0,0 4.02455,3.1063 6.06788,3.2223c3.2219,0.1829 7.47279,-2.35718 7.47279,-2.35718z" data-paper-data="{&quot;origPos&quot;:null,&quot;origRot&quot;:0}" fill="url(#color-5)" stroke="none"/><path d="M236.40173,179.96323c0,0 -22.89559,-0.2879 -3.47473,-15.57984c0,0 -0.79793,5.02089 0.07939,6.86993c1.38335,2.91555 5.64978,5.42945 5.64978,5.42945z" data-paper-data="{&quot;origPos&quot;:null,&quot;origRot&quot;:0}" fill="url(#color-6)" stroke="none"/><path d="M243.43968,179.50473c0.33298,1.85711 -0.36835,4.17015 -2.49738,4.5c-2.05737,0.31874 -3.91099,-0.77558 -4.57068,-2.66231c-0.62272,-1.781 0.55683,-4.87697 2.63874,-4.87697c2.08191,0 4.09947,1.19966 4.42932,3.03927z" data-paper-data="{&quot;origPos&quot;:null}" fill="url(#color-7)" stroke="#000000"/></g></g></svg>