<svg version="1.1" xmlns="http://www.w3.org/2000/svg" xmlns:xlink="http://www.w3.org/1999/xlink" width="182.84012" height="301.29997" viewBox="0,0,182.84012,301.29997"><g transform="translate(-148.57994,-29.35002)"><g data-paper-data="{&quot;isPaintingLayer&quot;:true}" fill-rule="evenodd" stroke="none" stroke-width="1" stroke-linecap="butt" stroke-linejoin="miter" stroke-miterlimit="10" stroke-dasharray="" stroke-dashoffset="0" style="mix-blend-mode: normal"><path d="M277.80094,89.05894c13.405,-5.664 14.223,-5.912 13.445,-4.07c-0.29,0.688 -8.454,21.725 -18.143,46.75c-31.391,81.08 -50.029,127.917 -50.618,127.201c-0.527,-0.641 -9.473,-33.343 -27.885,-101.927c-3.872,-14.424 -7.036,-27.024 -7.032,-28c0.006,-1.338 3.633,-3.289 14.75,-7.935c8.108,-3.388 14.84,-6.065 14.96,-5.949c0.119,0.117 3.609,13.464 7.755,29.661c4.147,16.197 7.666,29.838 7.821,30.314c0.156,0.476 7.574,-17.524 16.486,-40l16.203,-40.865l12.258,-5.18" fill="#f9fafa"/><path d="M240.55994,63.11294c68.832,-26.72 90.582,-34.78 90.841,-33.663c0.187,0.808 -1.019,4.916 -2.68,9.129c-1.662,4.213 -5.811,15.085 -9.221,24.16c-3.41,9.075 -7.301,18.975 -8.646,22c-1.345,3.025 -5.072,12.475 -8.281,21c-3.209,8.525 -17.175,44.525 -31.034,80c-13.859,35.475 -26.915,69 -29.013,74.5c-11.825,31.008 -26.944,68.878 -27.866,69.8c-0.587,0.587 -1.348,0.786 -1.691,0.443c-0.343,-0.344 -7.273,-23.489 -15.399,-51.434c-8.127,-27.945 -16.207,-55.534 -17.956,-61.309c-1.749,-5.775 -3.551,-11.85 -4.004,-13.5c-0.988,-3.598 -6.136,-22.226 -9.16,-33.15c-1.195,-4.318 -2.81,-10.1 -3.587,-12.85c-2.023,-7.156 -8.994,-34.042 -12.257,-47.273c-1.973,-8.001 -2.455,-11.484 -1.663,-11.997c0.614,-0.399 41.842,-16.534 91.617,-35.856M277.80094,89.05894c13.405,-5.664 14.223,-5.912 13.445,-4.07c-0.29,0.688 -8.454,21.725 -18.143,46.75c-31.391,81.08 -50.029,127.917 -50.618,127.201c-0.527,-0.641 -9.473,-33.343 -27.885,-101.927c-3.872,-14.424 -7.036,-27.024 -7.032,-28c0.006,-1.338 3.633,-3.289 14.75,-7.935c8.108,-3.388 14.84,-6.065 14.96,-5.949c0.119,0.117 3.609,13.464 7.755,29.661c4.147,16.197 7.666,29.838 7.821,30.314c0.156,0.476 7.574,-17.524 16.486,-40l16.203,-40.865l12.258,-5.18" fill="#15cbaa"/></g></g></svg>