<svg version="1.1" xmlns="http://www.w3.org/2000/svg" xmlns:xlink="http://www.w3.org/1999/xlink" width="33.47957" height="32.02122" viewBox="0,0,33.47957,32.02122"><defs><radialGradient cx="241.25298" cy="168.8797" r="7.24443" gradientUnits="userSpaceOnUse" id="color-1"><stop offset="0" stop-color="#08725d"/><stop offset="1" stop-color="#03372c"/></radialGradient><radialGradient cx="247.78895" cy="174.95968" r="7.93324" gradientUnits="userSpaceOnUse" id="color-2"><stop offset="0" stop-color="#08725d"/><stop offset="1" stop-color="#03372c"/></radialGradient><radialGradient cx="248.54895" cy="186.96764" r="7.52507" gradientUnits="userSpaceOnUse" id="color-3"><stop offset="0" stop-color="#08725d"/><stop offset="1" stop-color="#03372c"/></radialGradient><radialGradient cx="239.73298" cy="191.83162" r="7.25232" gradientUnits="userSpaceOnUse" id="color-4"><stop offset="0" stop-color="#08725d"/><stop offset="1" stop-color="#03372c"/></radialGradient><radialGradient cx="232.28501" cy="187.42364" r="7.66984" gradientUnits="userSpaceOnUse" id="color-5"><stop offset="0" stop-color="#08725d"/><stop offset="1" stop-color="#03372c"/></radialGradient><radialGradient cx="231.82901" cy="174.19968" r="7.78992" gradientUnits="userSpaceOnUse" id="color-6"><stop offset="0" stop-color="#08725d"/><stop offset="1" stop-color="#03372c"/></radialGradient><radialGradient cx="240.34098" cy="180.27966" r="3.79706" gradientUnits="userSpaceOnUse" id="color-7"><stop offset="0" stop-color="#10e4b6"/><stop offset="1" stop-color="#021b16"/></radialGradient></defs><g transform="translate(-223.47683,-163.82687)"><g data-paper-data="{&quot;isPaintingLayer&quot;:true}" fill-rule="nonzero" stroke-width="0" stroke-linecap="butt" stroke-linejoin="miter" stroke-miterlimit="10" stroke-dasharray="" stroke-dashoffset="0" style="mix-blend-mode: normal"><path d="M237.9099,177.03323c0,0 -11.17574,-19.98483 11.76745,-10.78574c0,0 -4.74926,1.81401 -5.91383,3.49699c-1.83628,2.65371 -1.8858,7.60544 -1.8858,7.60544z" data-paper-data="{&quot;origPos&quot;:null,&quot;origRot&quot;:0}" fill="url(#color-1)" stroke="none"/><path d="M241.08992,177.72484c0,0 7.67518,-21.57272 15.86648,1.74928c0,0 -4.49322,-2.37847 -6.5266,-2.14611c-3.20622,0.36638 -6.96455,3.59083 -6.96455,3.59083z" data-paper-data="{&quot;origPos&quot;:null,&quot;origRot&quot;:0}" fill="url(#color-2)" stroke="none"/><path d="M242.60971,180.40114c0,0 22.61251,-3.60071 6.06762,14.76446c0,0 -0.06547,-5.08349 -1.24378,-6.75688c-1.85795,-2.63858 -6.48903,-4.3922 -6.48903,-4.3922z" data-paper-data="{&quot;origPos&quot;:null,&quot;origRot&quot;:0}" fill="url(#color-3)" stroke="none"/><path d="M241.90599,182.65839c0,0 11.02325,20.06934 -11.84924,10.69584c0,0 4.76293,-1.77781 5.94029,-3.45187c1.85644,-2.63965 1.94365,-7.59086 1.94365,-7.59086z" data-paper-data="{&quot;origPos&quot;:null,&quot;origRot&quot;:0}" fill="url(#color-4)" stroke="none"/><path d="M238.8165,182.92891c0,0 -11.22392,19.95781 -15.33967,-4.41581c0,0 4.02455,3.1063 6.06788,3.2223c3.2219,0.1829 7.4728,-2.35718 7.4728,-2.35718z" data-paper-data="{&quot;origPos&quot;:null,&quot;origRot&quot;:0}" fill="url(#color-5)" stroke="none"/><path d="M236.61834,179.80072c0,0 -22.89559,-0.2879 -3.47474,-15.57984c0,0 -0.79793,5.02089 0.07939,6.86993c1.38335,2.91554 5.64978,5.42945 5.64978,5.42945z" data-paper-data="{&quot;origPos&quot;:null,&quot;origRot&quot;:0}" fill="url(#color-6)" stroke="none"/><path d="M243.65627,179.34219c0.33298,1.85711 -0.36835,4.17015 -2.49738,4.5c-2.05737,0.31874 -3.911,-0.77558 -4.57068,-2.66231c-0.62272,-1.781 0.55683,-4.87696 2.63874,-4.87696c2.08191,0 4.09947,1.19966 4.42932,3.03927z" data-paper-data="{&quot;origPos&quot;:null}" fill="url(#color-7)" stroke="#000000"/></g></g></svg>