<svg version="1.1" xmlns="http://www.w3.org/2000/svg" xmlns:xlink="http://www.w3.org/1999/xlink" width="173.06519" height="157.79394" viewBox="0,0,173.06519,157.79394"><defs><linearGradient x1="203.6104" y1="135.03418" x2="376.17559" y2="135.03418" gradientUnits="userSpaceOnUse" id="color-1"><stop offset="0" stop-color="#1d937a"/><stop offset="1" stop-color="#000000"/></linearGradient></defs><g transform="translate(-203.6104,-56.13721)"><g data-paper-data="{&quot;isPaintingLayer&quot;:true}" fill-rule="nonzero" stroke-linejoin="miter" stroke-miterlimit="10" stroke-dasharray="" stroke-dashoffset="0" style="mix-blend-mode: normal"><path d="M204.1104,147.44663l29.5414,-91.30942l143.02379,59.83781l-41.79336,97.95613z" data-paper-data="{&quot;origPos&quot;:null}" fill="#ab3e3e" stroke="none" stroke-width="0" stroke-linecap="butt"/><path d="M203.6104,147.44663l29.5414,-91.30942l143.02379,59.83781l-41.79336,97.95613z" data-paper-data="{&quot;origPos&quot;:null}" fill="url(#color-1)" stroke="none" stroke-width="0" stroke-linecap="butt"/><path d="M279.98175,124.10673c0,-1.49577 1.21256,-2.70833 2.70833,-2.70833c1.49577,0 2.70833,1.21256 2.70833,2.70833c0,1.49577 -1.21256,2.70833 -2.70833,2.70833c-1.49577,0 -2.70833,-1.21256 -2.70833,-2.70833z" data-paper-data="{&quot;origPos&quot;:null}" fill="#90f2dd" stroke="none" stroke-width="0.5" stroke-linecap="butt"/><path d="M283.98175,127.10673c0,-1.49577 1.21256,-2.70833 2.70833,-2.70833c1.49577,0 2.70833,1.21256 2.70833,2.70833c0,1.49577 -1.21256,2.70833 -2.70833,2.70833c-1.49577,0 -2.70833,-1.21256 -2.70833,-2.70833z" data-paper-data="{&quot;origPos&quot;:null}" fill="#90f2dd" stroke="none" stroke-width="0.5" stroke-linecap="butt"/><path d="M283.75324,132.701c0,0 -1.92511,1.37204 -3.97898,0.5057c-1.61909,-0.68295 -1.40718,-3.00443 -1.40718,-3.00443" data-paper-data="{&quot;origPos&quot;:null}" fill="none" stroke="#90f2dd" stroke-width="3.5" stroke-linecap="round"/></g></g></svg>