<svg version="1.1" xmlns="http://www.w3.org/2000/svg" xmlns:xlink="http://www.w3.org/1999/xlink" width="173.06519" height="157.79394" viewBox="0,0,173.06519,157.79394"><defs><linearGradient x1="203.6104" y1="135.03418" x2="376.17559" y2="135.03418" gradientUnits="userSpaceOnUse" id="color-1"><stop offset="0" stop-color="#1d937a"/><stop offset="1" stop-color="#000000"/></linearGradient></defs><g transform="translate(-203.6104,-56.13721)"><g data-paper-data="{&quot;isPaintingLayer&quot;:true}" stroke="none" stroke-linecap="butt" stroke-linejoin="miter" stroke-miterlimit="10" stroke-dasharray="" stroke-dashoffset="0" style="mix-blend-mode: normal"><path d="M204.1104,147.44663l29.5414,-91.30942l143.02379,59.83781l-41.79336,97.95613z" data-paper-data="{&quot;origPos&quot;:null}" fill="#ab3e3e" fill-rule="nonzero" stroke-width="0"/><path d="M203.6104,147.44663l29.5414,-91.30942l143.02379,59.83781l-41.79336,97.95613z" data-paper-data="{&quot;origPos&quot;:null}" fill="url(#color-1)" fill-rule="nonzero" stroke-width="0"/><g fill-rule="evenodd" stroke-width="1"><path d="M272.47911,104.98019c0.04739,0.02113 0.09492,0.04232 0.14231,0.06345c-0.06885,0.08363 -0.11638,0.06243 -0.14231,-0.06345z" fill="#2caa7c" opacity="0.008"/><path d="M294.47355,114.95694c0.02115,-0.04743 0.0423,-0.09488 0.06345,-0.14231c4.74358,2.11491 9.48731,4.22989 14.2309,6.3448c-0.06345,0.14231 -0.1269,0.28462 -0.19035,0.42693c-0.14094,-0.00454 -0.23077,0.06914 -0.2692,0.22116c-0.14094,-0.00454 -0.23077,0.06914 -0.2692,0.22117c-0.2301,-0.02188 -0.38846,0.0781 -0.47496,0.30003c-0.14094,-0.00454 -0.23077,0.06914 -0.2692,0.22117c-0.14094,-0.00454 -0.23077,0.06914 -0.2692,0.22117c-0.09492,-0.04232 -0.16346,-0.01601 -0.20576,0.07887c-0.14094,-0.00454 -0.23077,0.06915 -0.2692,0.22117c-0.14094,-0.00454 -0.23077,0.06914 -0.2692,0.22116c-0.16345,-0.01602 -0.30068,0.03655 -0.41152,0.15772c-1.59456,-0.7676 -3.2285,-1.43921 -4.90195,-2.01493c-0.02085,0.09421 0.0054,0.16277 0.07887,0.20576c0.16446,0.427 0.25349,0.86477 0.2674,1.3134c-0.01659,0.32114 0.00939,0.64548 0.07796,0.97304c-2.22614,-2.7113 -4.31629,-5.54818 -6.27071,-8.51078c-0.17221,-0.21486 -0.38829,-0.36806 -0.6481,-0.45955z" fill="#090a09" opacity="0.766"/><path d="M272.76373,105.10708c1.42309,0.63448 2.84618,1.26896 4.26927,1.90344c-0.09026,0.17297 -0.23805,0.24923 -0.44324,0.22888c0.02624,0.06857 0.05262,0.13719 0.07886,0.20576c-0.25315,0.05773 -0.50643,0.1154 -0.75958,0.17314c0.02624,0.06857 0.05262,0.13719 0.07886,0.20575c-0.25315,0.05773 -0.50643,0.1154 -0.75958,0.17314c0.02624,0.06856 0.05262,0.13719 0.07886,0.20575c-0.25315,0.05773 -0.50644,0.1154 -0.75958,0.17314c0.02624,0.06856 0.05262,0.13719 0.07886,0.20575c-0.25315,0.05773 -0.50643,0.11541 -0.75958,0.17314c0.02624,0.06856 0.05262,0.13719 0.07886,0.20575c-0.25315,0.05773 -0.50643,0.1154 -0.75958,0.17314c0.1474,0.17946 0.29494,0.35895 0.44234,0.53841c-0.05775,0.04229 -0.11585,0.0448 -0.17403,0.00771c-0.21191,-0.08298 -0.38045,-0.21498 -0.50579,-0.3961c0.0423,-0.09488 0.01606,-0.16344 -0.07886,-0.20576c0.0874,-0.1302 0.08216,-0.24627 -0.01542,-0.34806c0.10726,-0.21266 0.0758,-0.39728 -0.09427,-0.55382c0.0874,-0.1302 0.08216,-0.24627 -0.01541,-0.34807c0.0874,-0.1302 0.08216,-0.24627 -0.01542,-0.34807c0.01526,-0.19953 -0.01621,-0.38416 -0.09427,-0.55382c0.0874,-0.1302 0.08216,-0.24627 -0.01542,-0.34807c0.10727,-0.21267 0.0758,-0.39729 -0.09427,-0.55382c0.0874,-0.1302 0.08216,-0.24627 -0.01541,-0.34807c0.08459,-0.18975 0.1692,-0.37949 0.25379,-0.56924z" fill="#209ca6" opacity="0.773"/><path d="M277.033,107.01054c1.61279,0.71905 3.22571,1.43818 4.8385,2.15724c-0.20794,0.04206 -0.42936,0.02863 -0.66441,-0.04033c0.0996,0.41865 0.0833,0.83787 -0.04893,1.25766c-0.15263,-0.29551 -0.30512,-0.59097 -0.45775,-0.88648c0.13334,-0.38363 0.06218,-0.41535 -0.21346,-0.09517c-0.21608,-0.1532 -0.43202,-0.30635 -0.6481,-0.45955c-0.58351,-0.1242 -1.16085,-0.2963 -1.73172,-0.51619c-1.32716,0.71228 -2.56196,1.44123 -3.70452,2.18678c-0.37236,-0.27332 -0.68845,-0.58485 -0.94813,-0.93451c0.05818,0.03709 0.11628,0.03458 0.17403,-0.00771c-0.1474,-0.17946 -0.29494,-0.35895 -0.44234,-0.53841c0.25315,-0.05773 0.50643,-0.1154 0.75958,-0.17314c-0.02624,-0.06856 -0.05262,-0.13719 -0.07886,-0.20575c0.25315,-0.05773 0.50643,-0.11541 0.75958,-0.17314c-0.02624,-0.06856 -0.05262,-0.13719 -0.07886,-0.20575c0.25315,-0.05773 0.50644,-0.1154 0.75958,-0.17314c-0.02624,-0.06856 -0.05262,-0.13719 -0.07886,-0.20575c0.25315,-0.05773 0.50643,-0.1154 0.75958,-0.17314c-0.02624,-0.06857 -0.05262,-0.13719 -0.07886,-0.20575c0.25315,-0.05773 0.50643,-0.1154 0.75958,-0.17314c-0.02624,-0.06857 -0.05262,-0.13719 -0.07886,-0.20576c0.20519,0.02036 0.35298,-0.05591 0.44324,-0.22888z" fill="#24b1b1" opacity="0.769"/><path d="M281.8715,109.16777c0.85386,0.38069 1.70771,0.76138 2.56156,1.14207c-0.2153,0.01685 -0.4473,0.02714 -0.69614,0.03082c-0.0907,0.46477 0.00669,0.56506 0.29233,0.30093c0.07842,0.24998 0.02817,0.4266 -0.15091,0.5298c0.33724,0.26409 0.29494,0.35896 -0.12689,0.28462c0.29893,0.23368 0.34607,0.51059 0.14141,0.83074c0.03896,0.28492 -0.04302,0.5327 -0.24608,0.74327c-0.19907,-0.18562 -0.35155,-0.48107 -0.45775,-0.88648c-0.24806,0.17374 -0.49611,0.34746 -0.74417,0.5212c0.03645,-0.53022 -0.17675,-0.88118 -0.63949,-1.05281c0.07378,0.08975 0.14739,0.17946 0.22117,0.2692c-0.14958,0.04775 -0.24998,0.14514 -0.30093,0.29233c-0.18919,-0.59615 -0.37824,-1.19222 -0.56744,-1.78836c0.13223,-0.41979 0.14854,-0.83901 0.04893,-1.25766c0.23505,0.06896 0.45647,0.08239 0.66441,0.04033z" fill="#16a391" opacity="0.769"/><path d="M284.43307,110.30982c0.56923,0.25379 1.13847,0.50759 1.7077,0.76138c-0.15731,0.06087 -0.33133,0.06858 -0.52209,0.02312c0.29103,0.36773 0.44875,0.77925 0.47316,1.23454c-0.29199,0.22942 -0.29239,0.48514 -0.0009,0.76729c-0.03251,0.32775 -0.14883,0.58865 -0.34896,0.7827c-0.10287,0.03943 -0.20576,0.07886 -0.30864,0.11829c-0.24867,-0.79104 -0.45705,-0.7702 -0.62498,0.06256c-0.16992,-0.40291 -0.4069,-0.76447 -0.71064,-1.08453c0.11606,-0.00511 0.232,-0.0103 0.34807,-0.01541c-0.15512,-0.25588 -0.33948,-0.48023 -0.55293,-0.67301c0.20466,-0.32014 0.15752,-0.59705 -0.14141,-0.83074c0.42183,0.07434 0.46413,-0.02053 0.12689,-0.28462c0.17908,-0.10321 0.22934,-0.27983 0.15091,-0.5298c-0.28563,0.26413 -0.38303,0.16384 -0.29233,-0.30093c0.24883,-0.00368 0.48084,-0.01397 0.69614,-0.03082z" fill="#0d8b74" opacity="0.769"/><path d="M286.42539,111.19811c0.61662,0.27492 1.23339,0.5499 1.85001,0.82482c0.32166,0.2669 0.64817,0.55465 0.97985,0.86336c0.04788,0.90774 0.30522,1.7333 0.7723,2.47679c-0.17951,0.14742 -0.38527,0.22628 -0.61727,0.23658c-0.32182,0.08397 -0.64351,0.16803 -0.96534,0.252c-0.16649,-1.30865 -0.44447,-2.59834 -0.83395,-3.86906c-0.44322,-0.2284 -0.83843,-0.4899 -1.18561,-0.78449z" fill="#03674d" opacity="0.769"/><path d="M288.2754,112.02291c2.08724,0.93059 4.17435,1.86112 6.26159,2.79172c-0.02115,0.04743 -0.0423,0.09488 -0.06345,0.14231c-0.28958,-0.07864 -0.56912,-0.08953 -0.83844,-0.03262c-0.32522,-0.1024 -0.6259,-0.06586 -0.90189,0.10968c-0.58152,-0.04451 -1.13533,0.04977 -1.66147,0.28282c-0.34807,0.01542 -0.69613,0.03082 -1.0442,0.04624c-0.46708,-0.74349 -0.72442,-1.56905 -0.7723,-2.47679c-0.33168,-0.30871 -0.65819,-0.59646 -0.97985,-0.86336z" fill="#015039" opacity="0.769"/><path d="M294.47355,114.95694c0.2598,0.09149 0.47588,0.24469 0.6481,0.45955c1.95443,2.9626 4.04457,5.79948 6.27071,8.51078c-0.06857,-0.32757 -0.09456,-0.6519 -0.07796,-0.97304c0.39498,1.0311 0.72075,2.08619 0.97716,3.16522c-0.17838,0.05533 -0.33674,0.15532 -0.47496,0.30003c-1.0638,-1.13002 -1.95619,-2.38087 -2.67716,-3.75256c-0.08978,0.05482 -0.18208,0.07053 -0.27691,0.04714c-1.00405,-0.78346 -2.14761,-1.40703 -3.43083,-1.87082c0.60289,0.10103 1.19328,0.30738 1.77116,0.61907c0.55649,0.30342 1.14688,0.50978 1.77116,0.61907c-1.74893,-2.48987 -3.52861,-4.87559 -5.3389,-7.15705c0.26932,-0.05691 0.54886,-0.04602 0.83844,0.03262z" fill="#101814" opacity="0.769"/><path d="M308.71986,121.64981c0.02824,-0.11347 0.09431,-0.19774 0.19805,-0.25289c0.03904,0.17722 -0.02703,0.26149 -0.19805,0.25289z" fill="#2caa7c" opacity="0.008"/><path d="M272.36763,105.61288c-0.1207,-0.12147 -0.10217,-0.22693 0.05574,-0.31634c0.02832,0.11403 0.00979,0.2195 -0.05574,0.31634z" fill="#e4f7ef" opacity="0.004"/><path d="M308.57755,121.58638c0.04739,0.02113 0.09492,0.04232 0.14231,0.06345c-0.03844,0.15203 -0.12827,0.22571 -0.2692,0.22117c0.0423,-0.09487 0.08459,-0.18975 0.12689,-0.28462z" fill="#2caa7c" opacity="0.008"/><path d="M272.36763,105.61288c0.04739,0.02113 0.09492,0.04232 0.14231,0.06345c-0.06885,0.08363 -0.11638,0.06243 -0.14231,-0.06345z" fill="#2caa7c" opacity="0.008"/><path d="M286.14077,111.07119c0.09492,0.04232 0.1897,0.08458 0.28462,0.1269c0.34718,0.29459 0.74238,0.55609 1.18561,0.78449c0.38948,1.27071 0.66746,2.56041 0.83395,3.86906c-0.02114,0.04743 -0.0423,0.09488 -0.06345,0.14231c-0.39036,0.11029 -0.78073,0.22056 -1.1711,0.33085c-0.19061,-0.61974 -0.33489,-1.25273 -0.43283,-1.89895c-0.06853,0.0263 -0.13723,0.05256 -0.20576,0.07886c-0.05746,-0.50861 -0.21765,-0.97809 -0.48087,-1.40857c-0.29149,-0.28214 -0.29109,-0.53786 0.0009,-0.76729c-0.02441,-0.45529 -0.18214,-0.86681 -0.47316,-1.23454c0.19076,0.04546 0.36479,0.03775 0.52209,-0.02312z" fill="#05775b" opacity="0.769"/><path d="M293.63511,114.92432c1.81029,2.28146 3.58997,4.66718 5.3389,7.15705c-0.62428,-0.10929 -1.21466,-0.31565 -1.77116,-0.61907c0.07425,-0.11641 0.06916,-0.23241 -0.01542,-0.34807c-1.49566,-2.03861 -2.98039,-4.06535 -4.45422,-6.08023c0.27598,-0.17554 0.57666,-0.21208 0.90189,-0.10968z" fill="#15221d" opacity="0.769"/><path d="M308.30834,121.80755c0.04739,0.02113 0.09492,0.04232 0.14231,0.06345c-0.06885,0.08363 -0.11638,0.06243 -0.14231,-0.06345z" fill="#2caa7c" opacity="0.008"/><path d="M272.52535,106.0244c-0.13722,0.05255 -0.13722,0.05255 0,0z" fill="#2caa7c" opacity="0.008"/><path d="M308.03914,122.02872c0.1474,0.17945 0.1474,0.17945 0,0z" fill="#2caa7c" opacity="0.008"/><path d="M272.47731,106.51476c-0.01033,-0.23207 -0.01033,-0.23207 0,0z" fill="#2caa7c" opacity="0.008"/><path d="M292.73322,115.03401c1.47382,2.01488 2.95856,4.04162 4.45422,6.08023c0.08457,0.11566 0.08967,0.23166 0.01542,0.34807c-0.57788,-0.31169 -1.16827,-0.51804 -1.77116,-0.61907c-0.71155,-0.31724 -1.42309,-0.63449 -2.13464,-0.95173c0.6902,0.1669 1.38609,0.39186 2.0875,0.67481c-0.31086,-0.19545 -0.62186,-0.39099 -0.93272,-0.58644c-1.09062,-1.58336 -2.21722,-3.13767 -3.38009,-4.66305c0.52614,-0.23305 1.07995,-0.32733 1.66147,-0.28282z" fill="#1b3028" opacity="0.769"/><path d="M307.76993,122.24989c0.1474,0.17945 0.1474,0.17945 0,0z" fill="#2caa7c" opacity="0.008"/><path d="M272.47731,106.51476c0.04739,0.02113 0.09492,0.04232 0.14231,0.06345c-0.0423,0.09487 -0.08459,0.18975 -0.12689,0.28462c-0.09758,-0.10179 -0.10281,-0.21786 -0.01542,-0.34806z" fill="#aeddc8" opacity="0.004"/><path d="M307.56417,122.32875c0.04739,0.02113 0.09492,0.04232 0.14231,0.06345c-0.03843,0.15202 -0.12827,0.22571 -0.2692,0.22117c0.0423,-0.09488 0.0846,-0.18974 0.1269,-0.28462z" fill="#2caa7c" opacity="0.008"/><path d="M272.49273,106.86282c0.04739,0.02113 0.09492,0.04232 0.14231,0.06345c-0.06885,0.08362 -0.11638,0.06243 -0.14231,-0.06345z" fill="#2caa7c" opacity="0.008"/><path d="M279.78131,110.79482c-0.00558,0.33775 -0.06132,0.6541 -0.16723,0.94903c-1.08943,0.56437 -2.15528,1.16962 -3.19784,1.8156c-0.15967,-0.00575 -0.29937,-0.01117 -0.41922,-0.01631c-0.27889,-0.5224 -0.48922,-1.07111 -0.63089,-1.64606c1.13894,-0.51625 2.25232,-1.10031 3.34015,-1.75214c0.20888,-0.03688 0.41726,-0.05771 0.62498,-0.06255c0.09316,0.27738 0.24318,0.51487 0.45005,0.71244z" fill="#28d3c9" opacity="0.769"/><path d="M280.70041,109.49863c0.15263,0.29551 0.30512,0.59097 0.45775,0.88648c0.18919,0.59615 0.37824,1.19222 0.56744,1.78836c-0.0744,0.30119 -0.00102,0.64665 0.22027,1.03649c-0.11606,0.00511 -0.232,0.01031 -0.34807,0.01542c0.17373,0.51947 0.27857,1.04959 0.31455,1.59031c-1.18586,-0.52872 -2.37186,-1.05749 -3.55772,-1.5862c0.59475,0.12463 1.19571,0.30727 1.80288,0.54792c-0.07378,-0.08975 -0.1474,-0.17946 -0.22117,-0.2692c0.20576,-0.07886 0.41152,-0.15772 0.61728,-0.23658c-0.14673,-0.35045 -0.07794,-0.63254 0.20666,-0.84615c-0.14114,-0.4686 -0.27772,-0.92755 -0.40972,-1.37685c0.14883,-0.25614 0.14923,-0.51186 0.0009,-0.76729c0.20013,-0.19405 0.31645,-0.45495 0.34896,-0.7827z" fill="#18c1aa" opacity="0.769"/><path d="M307.29497,122.54992c0.04739,0.02113 0.09492,0.04232 0.14231,0.06345c-0.06885,0.08362 -0.11637,0.06243 -0.14231,-0.06345z" fill="#2caa7c" opacity="0.008"/><path d="M283.89286,112.28675c0.21344,0.19278 0.39781,0.41713 0.55293,0.67301c-0.11606,0.00511 -0.232,0.0103 -0.34807,0.01541c0.30375,0.32006 0.54073,0.68162 0.71064,1.08453c-0.05259,0.15545 -0.1266,0.32148 -0.22206,0.49808c0.18276,0.95303 0.3504,1.85234 0.50309,2.69796c-0.08969,0.07375 -0.17951,0.14742 -0.2692,0.22117c-0.18559,0.12086 -0.39135,0.19972 -0.61727,0.23658c-0.12052,-0.62238 -0.24117,-1.24484 -0.36168,-1.86723c-0.57355,-0.42395 -1.21656,-0.7675 -1.92888,-1.03058c-0.03597,-0.54072 -0.14082,-1.07084 -0.31455,-1.59031c0.11606,-0.00511 0.232,-0.01031 0.34807,-0.01542c-0.22129,-0.38984 -0.29467,-0.7353 -0.22027,-1.03649c0.05095,-0.14718 0.15135,-0.24458 0.30093,-0.29233c-0.07378,-0.08975 -0.14739,-0.17946 -0.22117,-0.2692c0.46274,0.17163 0.67594,0.52259 0.63949,1.05281c0.24806,-0.17374 0.49611,-0.34746 0.74417,-0.5212c0.1062,0.40541 0.25868,0.70086 0.45775,0.88648c0.20306,-0.21057 0.28504,-0.45835 0.24608,-0.74327z" fill="#0fa887" opacity="0.769"/><path d="M307.02576,122.77109c0.1474,0.17946 0.1474,0.17946 0,0z" fill="#2caa7c" opacity="0.008"/><path d="M272.72931,107.4801c-0.0423,0.09488 -0.08459,0.18975 -0.12689,0.28462c-0.1474,-0.17946 -0.10511,-0.27432 0.12689,-0.28462z" fill="#74c4a1" opacity="0.008"/><path d="M306.82,122.84993c0.04739,0.02113 0.09492,0.04232 0.14231,0.06345c-0.03843,0.15202 -0.12827,0.22571 -0.2692,0.22117c0.0423,-0.09488 0.08459,-0.18974 0.12689,-0.28462z" fill="#2caa7c" opacity="0.008"/><path d="M272.60242,107.76473c0.04739,0.02113 0.09492,0.04232 0.14231,0.06345c-0.06885,0.08362 -0.11638,0.06243 -0.14231,-0.06345z" fill="#2caa7c" opacity="0.008"/><path d="M286.09094,113.09615c0.26322,0.43049 0.42342,0.89996 0.48087,1.40857c0.06853,-0.0263 0.13723,-0.05256 0.20576,-0.07886c0.09794,0.64622 0.24222,1.27921 0.43283,1.89895c-0.42694,0.20342 -0.8596,0.40857 -1.29799,0.61548c-0.30626,0.03872 -0.58056,0.14391 -0.82303,0.31544c-0.15269,-0.84562 -0.32033,-1.74493 -0.50309,-2.69796c0.09546,-0.1766 0.16948,-0.34264 0.22206,-0.49808c0.16793,-0.83276 0.37631,-0.85359 0.62498,-0.06256c0.10287,-0.03943 0.20576,-0.07886 0.30864,-0.11829c0.20013,-0.19405 0.31645,-0.45494 0.34896,-0.7827z" fill="#048e6a" opacity="0.769"/><path d="M291.07175,115.31684c1.16287,1.52538 2.28947,3.07969 3.38009,4.66305c0.31086,0.19545 0.62186,0.39099 0.93272,0.58644c-0.70141,-0.28296 -1.39729,-0.50791 -2.0875,-0.67481c-0.02114,0.04743 -0.0423,0.09488 -0.06345,0.14231c-0.13822,0.14472 -0.29658,0.2447 -0.47496,0.30003c-1.00347,-1.22706 -1.97758,-2.48593 -2.92234,-3.77658c-0.24425,-0.2909 -0.38616,-0.61008 -0.42603,-0.95763c0.232,-0.0103 0.43776,-0.08916 0.61727,-0.23658c0.34807,-0.01542 0.69613,-0.03082 1.0442,-0.04624z" fill="#28473a" opacity="0.769"/><path d="M306.5508,123.0711c0.04739,0.02113 0.09492,0.04232 0.14231,0.06345c-0.06885,0.08362 -0.11638,0.06243 -0.14231,-0.06345z" fill="#2caa7c" opacity="0.008"/><path d="M272.76014,108.17622c-0.13722,0.05255 -0.13722,0.05255 0,0z" fill="#2caa7c" opacity="0.008"/><path d="M254.4177,100.33951c0.02114,-0.04743 0.0423,-0.09488 0.06345,-0.14231c22.55859,10.11455 22.53743,10.16199 -0.06345,0.14231z" fill="#fcfdfd" opacity="0.009"/><path d="M306.2816,123.29227c3.9955,1.75297 7.96959,3.55322 11.92223,5.4008c-4.06153,-1.66917 -8.0356,-3.46943 -11.92223,-5.4008z" fill="#fafcfb" opacity="0.009"/><path d="M271.57363,108.15901c0.27639,-0.06663 0.5242,0.01542 0.74327,0.24609c-0.26385,-0.03345 -0.51165,-0.11549 -0.74327,-0.24609z" fill="#fdfdfd" opacity="0.013"/><path d="M318.39327,129.03344c0.27639,-0.06663 0.5242,0.01541 0.74327,0.24608c-0.26385,-0.03345 -0.51165,-0.11549 -0.74327,-0.24608z" fill="#f5fbf9" opacity="0.013"/><path d="M272.85441,108.73004c-0.15825,0.08366 -0.32171,0.06764 -0.49037,-0.04803c0.2118,-0.24356 0.37526,-0.22755 0.49037,0.04803z" fill="#d3ebdf" opacity="0.012"/><path d="M289.41029,115.59964c0.03987,0.34755 0.18178,0.66673 0.42603,0.95763c0.94476,1.29065 1.91887,2.54952 2.92234,3.77658c-0.2692,0.22117 -0.53841,0.44233 -0.80761,0.66351c-1.02707,-1.76416 -2.21701,-3.43201 -3.56954,-5.00341c0.02114,-0.04743 0.0423,-0.09488 0.06345,-0.14231c0.32182,-0.08397 0.64351,-0.16803 0.96534,-0.252z" fill="#2f5545" opacity="0.769"/><path d="M305.87008,123.45001c-0.02114,0.04743 -0.0423,0.09488 -0.06344,0.14231c-1.57006,-0.75595 -3.15661,-1.40644 -4.75964,-1.95147c-0.07347,-0.04299 -0.09972,-0.11156 -0.07887,-0.20576c1.67345,0.57572 3.30739,1.24733 4.90195,2.01493z" fill="#bec0bf" opacity="0.933"/><path d="M305.80664,123.5923c2.07092,0.85664 4.0789,1.8372 6.02411,2.94173c-0.67399,0.43955 -1.21773,1.02168 -1.63154,1.74624c0.59763,0.21114 1.14572,0.51237 1.64426,0.90368c-0.41082,0.16573 -0.51656,0.4029 -0.31724,0.71154c-0.7442,0.38353 -1.46983,0.79926 -2.17676,1.24726c-0.25196,-0.08228 -0.49716,-0.10629 -0.73557,-0.07205c1.67434,0.77538 3.3028,1.58672 4.88565,2.43415c-2.93081,-1.33512 -5.88249,-2.62269 -8.85488,-3.86263c3.14618,1.48801 6.31379,2.92871 9.50298,4.32218c-3.79705,-1.49442 -7.55519,-3.14154 -11.27413,-4.94125c0.80124,0.24349 0.84352,0.14863 0.12689,-0.28462c-0.2745,-0.86858 -0.51083,-1.74163 -0.70885,-2.6191c-0.25641,-1.07903 -0.58218,-2.13412 -0.97716,-3.16522c-0.01391,-0.44863 -0.10294,-0.88639 -0.2674,-1.3134c1.60303,0.54503 3.18958,1.19552 4.75964,1.95147z" fill="#f4f4f4"/><path d="M319.68946,129.95252c0.17498,-0.10512 0.32786,-0.06538 0.45865,0.11919c-0.16554,0.00856 -0.31842,-0.03117 -0.45865,-0.11919z" fill="#fdfdfd" opacity="0.01"/><path d="M320.19525,130.34864c0.12153,-0.12068 0.22689,-0.10215 0.31634,0.05574c-0.11399,0.02838 -0.21949,0.00979 -0.31634,-0.05574z" fill="#fdfdfd" opacity="0.012"/><path d="M320.7799,130.95048c0.12153,-0.12068 0.22689,-0.10215 0.31634,0.05574c-0.11399,0.02838 -0.21949,0.00979 -0.31634,-0.05574z" fill="#fdfdfd" opacity="0.012"/><path d="M288.3815,115.99397c1.35253,1.5714 2.54247,3.23925 3.56954,5.00341c-0.2734,0.13416 -0.52146,0.30788 -0.74417,0.5212c-0.17735,-0.10807 -0.36457,-0.13467 -0.56152,-0.07976c-1.08078,-1.62687 -2.22057,-3.2155 -3.41953,-4.76593c-0.08457,-0.11566 -0.08966,-0.23166 -0.01541,-0.34807c0.39036,-0.11029 0.78073,-0.22056 1.1711,-0.33085z" fill="#366251" opacity="0.769"/><path d="M321.20682,131.14082c0.1474,0.17945 0.1474,0.17945 0,0z" fill="#fdfefd" opacity="0.016"/><path d="M321.428,131.41002c0.1474,0.17945 0.1474,0.17945 0,0z" fill="#fdfefd" opacity="0.016"/><path d="M321.64917,131.67923c0.1474,0.17945 0.1474,0.17945 0,0z" fill="#fdfefd" opacity="0.016"/><path d="M278.35463,113.22948c1.18586,0.52872 2.37186,1.05749 3.55772,1.5862c0.71232,0.26308 1.35532,0.60663 1.92888,1.03058c-1.80696,-0.86171 -3.63074,-1.61796 -5.47118,-2.26872c-0.09758,-0.10179 -0.10281,-0.21787 -0.01541,-0.34807z" fill="#c1ede3" opacity="0.918"/><path d="M287.2104,116.32482c-0.07425,0.11641 -0.06916,0.23241 0.01541,0.34807c1.19896,1.55044 2.33875,3.13906 3.41953,4.76593c0.19696,-0.05491 0.38418,-0.02831 0.56152,0.07976c-0.41071,0.27797 -0.81698,0.55177 -1.21912,0.82123c-1.42796,-1.73856 -2.78645,-3.53842 -4.07533,-5.39951c0.43839,-0.2069 0.87105,-0.41206 1.29799,-0.61548z" fill="#3f735f" opacity="0.769"/><path d="M293.23362,120.03383c0.02114,-0.04743 0.0423,-0.09488 0.06345,-0.14231c0.71155,0.31724 1.42309,0.63449 2.13464,0.95173c1.28321,0.46379 2.42678,1.08736 3.43083,1.87082c-0.04739,-0.02113 -0.09492,-0.04232 -0.14231,-0.06345c-1.76166,-0.95526 -3.59053,-1.82752 -5.4866,-2.61678z" fill="#c0c5c3" opacity="0.929"/><path d="M283.84123,115.84625c0.12052,0.62238 0.24117,1.24484 0.36168,1.86723c0.00574,0.65673 0.05772,1.30541 0.15593,1.94608c0.18507,2.01886 0.36737,4.03357 0.54663,6.04402c-0.05478,0.34555 -0.20282,0.6776 -0.44413,0.99616c-0.76085,-0.38075 -1.44863,-0.68739 -2.06348,-0.92c-0.35571,-2.77599 -0.6187,-5.56594 -0.78913,-8.36989c-0.13907,-0.35386 -0.37081,-0.59936 -0.69523,-0.73646c0.55676,4.95492 1.04395,9.92045 1.46176,14.89658c0.24203,-0.44721 0.57469,-0.81069 0.99796,-1.09043c1.26145,-0.91615 2.52283,-1.83217 3.78428,-2.74832c1.73953,-0.41504 3.42215,-0.7453 5.04786,-0.99077c-0.14319,0.32806 -0.315,0.64951 -0.51529,0.96444c-0.32155,0.23413 -0.61192,0.50275 -0.87107,0.80582c-0.54571,0.26741 -1.04182,0.61487 -1.48833,1.0424c-0.50408,0.20311 -0.93152,0.52434 -1.28258,0.96355c-1.17131,0.75111 -2.32193,1.54608 -3.45163,2.38483c-0.83387,0.59499 -1.66783,1.18978 -2.50171,1.78477c-0.39761,0.38672 -0.8488,0.69735 -1.35373,0.93182c-0.13741,-0.49151 -0.22925,-0.98727 -0.27512,-1.48744c-0.16164,-1.55063 -0.32334,-3.10112 -0.48498,-4.65175c-0.23005,-2.58185 -0.50651,-5.15026 -0.82946,-7.70548c-0.06835,-1.03133 -0.18313,-2.04922 -0.34447,-3.05374c-0.00059,-0.54089 -0.04733,-1.07352 -0.14051,-1.59802c-0.08344,-0.83333 -0.16676,-1.66658 -0.2502,-2.49991c-0.01848,-0.35229 -0.03389,-0.70036 -0.04624,-1.0442c1.84045,0.65075 3.66422,1.40701 5.47118,2.26872z" fill="#f8f9f9" opacity="0.999"/><path d="M285.91242,116.94028c1.28888,1.8611 2.64737,3.66096 4.07533,5.39951c-0.44999,0.43073 -0.9461,0.7782 -1.48834,1.0424c0.14883,-0.25614 0.14923,-0.51186 0.0009,-0.76729c-1.31273,-1.66948 -2.53949,-3.38217 -3.68013,-5.13801c0.08969,-0.07375 0.17951,-0.14742 0.2692,-0.22117c0.24247,-0.17154 0.51677,-0.27672 0.82303,-0.31544z" fill="#45826a" opacity="0.769"/><path d="M301.8166,126.41948c-0.02114,0.04743 -0.0423,0.09488 -0.06345,0.14231c-0.14094,-0.00454 -0.23077,0.06915 -0.2692,0.22117c-0.16345,-0.01602 -0.30068,0.03655 -0.41151,0.15772c-1.09908,-1.08266 -2.08377,-2.31779 -2.95407,-3.70543c0.13198,-0.16861 0.26412,-0.33718 0.3961,-0.50579c0.09492,0.04232 0.16345,0.01601 0.20576,-0.07886c0.04739,0.02113 0.09492,0.04232 0.14231,0.06345c0.09483,0.02339 0.18713,0.00768 0.27691,-0.04714c0.72097,1.37169 1.61336,2.62255 2.67716,3.75256z" fill="#172822" opacity="0.769"/><path d="M255.37765,104.69123c-0.13718,0.05258 -0.13718,0.05258 0,0z" fill="#fdfefd" opacity="0.016"/><path d="M284.82018,117.47689c1.14065,1.75584 2.36741,3.46853 3.68013,5.13801c0.14832,0.25543 0.14793,0.51114 -0.0009,0.76729c-0.2692,0.22117 -0.53841,0.44234 -0.80761,0.66351c-1.03003,-1.45641 -2.04866,-2.93415 -3.05605,-4.43328c-0.08978,0.05482 -0.18208,0.07053 -0.27691,0.04713c-0.09821,-0.64067 -0.15018,-1.28935 -0.15593,-1.94608c0.22593,-0.03686 0.43168,-0.11572 0.61727,-0.23658z" fill="#4d9177" opacity="0.769"/><path d="M255.25075,104.97583c0.14744,0.17947 0.14744,0.17947 0,0z" fill="#fcfdfc" opacity="0.008"/><path d="M298.11836,123.23527c0.8703,1.38764 1.85499,2.62277 2.95407,3.70543c-0.02114,0.04743 -0.0423,0.09488 -0.06345,0.14231c-0.14094,-0.00454 -0.23077,0.06915 -0.2692,0.22117c-0.14094,-0.00454 -0.23077,0.06914 -0.2692,0.22117c-0.2301,-0.02188 -0.38847,0.07811 -0.47496,0.30003c-0.14094,-0.00454 -0.23077,0.06914 -0.2692,0.22117c-0.14094,-0.00455 -0.23077,0.06914 -0.2692,0.22117c-0.16345,-0.01602 -0.30068,0.03654 -0.41151,0.15772c0.00165,-0.25164 0.04943,-0.48624 0.14321,-0.70384c-0.71613,-0.94481 -1.43212,-1.88955 -2.14825,-2.83436c-0.13255,-0.36428 -0.08999,-0.71494 0.12779,-1.0519c0.27222,-0.28493 0.5888,-0.48497 0.94993,-0.60006z" fill="#223d32" opacity="0.769"/><path d="M278.41628,114.62175c0.08344,0.83333 0.16676,1.66658 0.2502,2.49991c-0.09483,-0.02339 -0.18713,-0.00769 -0.27691,0.04713c-0.02347,-0.26762 -0.15782,-0.41282 -0.40291,-0.43553c0.02624,0.06856 0.05262,0.1372 0.07886,0.20576c-0.44934,0.24256 -0.92938,0.42659 -1.44029,0.55203c0.02624,0.06856 0.05262,0.1372 0.07886,0.20576c-0.65503,0.2681 -1.13548,0.70784 -1.4412,1.31932c0.4447,-0.95418 0.77291,-1.94516 0.98435,-2.97308c0.25252,-0.70297 0.78035,-1.12159 1.58351,-1.25586c-0.02624,-0.06856 -0.05262,-0.13719 -0.07886,-0.20575c0.30586,-0.22112 0.41397,-0.14449 0.32405,0.22977c0.09767,-0.11269 0.21112,-0.17584 0.34036,-0.18945z" fill="#1ac8aa" opacity="0.769"/><path d="M301.75315,126.56178c0.1474,0.17946 0.1474,0.17946 0,0z" fill="#2caa7c" opacity="0.008"/><path d="M323.03604,136.22131c0.02824,-0.11346 0.0943,-0.19774 0.19805,-0.25289c0.03904,0.17722 -0.02702,0.26149 -0.19805,0.25289z" fill="#f5fbf9" opacity="0.016"/><path d="M301.48394,126.78295c0.1474,0.17946 0.1474,0.17946 0,0z" fill="#2caa7c" opacity="0.008"/><path d="M301.21474,127.00412c0.1474,0.17946 0.1474,0.17946 0,0z" fill="#2caa7c" opacity="0.008"/><path d="M301.00898,127.08299c0.04739,0.02113 0.09492,0.04232 0.14231,0.06345c-0.06885,0.08362 -0.11638,0.06243 -0.14231,-0.06345z" fill="#2caa7c" opacity="0.008"/><path d="M297.16844,123.83532c-0.21779,0.33697 -0.26034,0.68762 -0.12779,1.0519c0.71613,0.94481 1.43212,1.88955 2.14825,2.83436c-0.09377,0.2176 -0.14156,0.45219 -0.14321,0.70384c-0.02114,0.04743 -0.0423,0.09488 -0.06345,0.14231c-0.14094,-0.00455 -0.23077,0.06914 -0.2692,0.22117c-0.2301,-0.02188 -0.38847,0.0781 -0.47496,0.30003c-0.04739,-0.02113 -0.09492,-0.04232 -0.14231,-0.06345c-0.85523,-1.04108 -1.68194,-2.1205 -2.48001,-3.23817c-0.17428,-0.20717 -0.24257,-0.43665 -0.20486,-0.68843c0.59019,-0.42531 1.17613,-0.84646 1.75754,-1.26357z" fill="#2d5142" opacity="0.769"/><path d="M300.73978,127.30416c0.1474,0.17946 0.1474,0.17946 0,0z" fill="#2caa7c" opacity="0.008"/><path d="M323.22459,137.32894c-0.08459,0.18974 -0.1692,0.3795 -0.25379,0.56924c-0.04739,-0.02113 -0.09492,-0.04232 -0.14231,-0.06345c0.06331,-0.24455 0.19545,-0.41312 0.3961,-0.50579z" fill="#f8fcfa" opacity="0.013"/><path d="M300.47057,127.52532c0.1474,0.17946 0.1474,0.17946 0,0z" fill="#2caa7c" opacity="0.008"/><path d="M256.29136,107.99874c-0.02114,0.04743 -0.0423,0.09488 -0.06345,0.14231c-0.06482,-0.11101 -0.04367,-0.15846 0.06345,-0.14231z" fill="#fcfdfc" opacity="0.008"/><path d="M278.66648,117.12166c0.09319,0.52451 0.13993,1.05714 0.14051,1.59802c-1.55408,0.70928 -3.07897,1.45104 -4.57469,2.22531c-0.04739,-0.02113 -0.09492,-0.04232 -0.14231,-0.06345c0.39101,-0.6218 0.78188,-1.24363 1.17289,-1.86543c0.30572,-0.61147 0.78616,-1.05122 1.4412,-1.31932c-0.02624,-0.06856 -0.05262,-0.1372 -0.07886,-0.20576c0.51091,-0.12543 0.99095,-0.30946 1.44029,-0.55203c-0.02624,-0.06856 -0.05262,-0.1372 -0.07886,-0.20576c0.24509,0.02271 0.37944,0.16791 0.40291,0.43553c0.08978,-0.05482 0.18208,-0.07053 0.27691,-0.04713z" fill="#15c39a" opacity="0.769"/><path d="M256.22791,108.14106c3.7109,1.62608 7.40036,3.29944 11.06837,5.02011c-3.77688,-1.5423 -7.46634,-3.21566 -11.06837,-5.02011z" fill="#fdfdfd" opacity="0.016"/><path d="M300.20137,127.74649c0.1474,0.17946 0.1474,0.17946 0,0z" fill="#2caa7c" opacity="0.008"/><path d="M299.99561,127.82537c0.04739,0.02113 0.09492,0.04232 0.14231,0.06345c-0.06885,0.08362 -0.11638,0.06243 -0.14231,-0.06345z" fill="#2caa7c" opacity="0.008"/><path d="M293.23362,120.03383c1.89607,0.78927 3.72494,1.66152 5.4866,2.61678c-0.0423,0.09488 -0.11084,0.12118 -0.20576,0.07886c-0.07322,-0.08449 -0.14698,-0.17426 -0.22117,-0.2692c-1.51373,0.06701 -3.02192,0.13384 -4.52486,0.20036c-2.1531,1.73946 -4.38313,3.36102 -6.6898,4.86484c-0.48238,-0.35103 -0.99626,-0.66544 -1.54138,-0.94311c-0.09292,-0.28175 -0.14006,-0.55866 -0.14141,-0.83074c0.76025,-0.56799 1.52557,-1.13662 2.29595,-1.70591c0.2692,-0.22117 0.53841,-0.44234 0.80761,-0.66351c0.54224,-0.2642 1.03835,-0.61167 1.48834,-1.0424c0.40214,-0.26946 0.80841,-0.54326 1.21912,-0.82123c0.22271,-0.21332 0.47077,-0.38705 0.74417,-0.5212c0.2692,-0.22117 0.53841,-0.44233 0.80761,-0.66351c0.17838,-0.05533 0.33674,-0.15532 0.47496,-0.30003z" fill="#f7f7f7"/><path d="M299.7264,128.04652c0.1474,0.17945 0.1474,0.17945 0,0z" fill="#2caa7c" opacity="0.008"/><path d="M295.4109,125.0989c-0.03771,0.25177 0.03058,0.48126 0.20486,0.68843c0.79806,1.11767 1.62477,2.19709 2.48001,3.23817c-0.0423,0.09488 -0.0846,0.18974 -0.1269,0.28462c-0.14094,-0.00455 -0.23077,0.06914 -0.2692,0.22117c-0.2301,-0.02188 -0.38847,0.0781 -0.47496,0.30003c-0.09492,-0.04232 -0.16345,-0.01601 -0.20576,0.07887c-0.93464,-1.06462 -1.79817,-2.18887 -2.59059,-3.37277c-0.10316,-0.2297 -0.11348,-0.46177 -0.03083,-0.69613c0.3166,-0.29073 0.65434,-0.53821 1.01337,-0.74237z" fill="#366352" opacity="0.769"/><path d="M287.6918,124.04572c-0.77038,0.56929 -1.5357,1.13792 -2.29595,1.70591c-0.12923,0.0136 -0.2427,0.07676 -0.34036,0.18945c-0.01923,-0.10343 -0.06923,-0.18258 -0.15001,-0.23748c-0.17926,-2.01045 -0.36157,-4.02517 -0.54663,-6.04402c0.09483,0.02339 0.18713,0.00769 0.27691,-0.04713c1.00739,1.49913 2.02603,2.97687 3.05605,4.43328z" fill="#5baa8b" opacity="0.769"/><path d="M299.4572,128.26769c0.1474,0.17945 0.1474,0.17945 0,0z" fill="#2caa7c" opacity="0.008"/><path d="M315.25349,135.31043c-0.13722,0.05256 -0.13722,0.05256 0,0z" fill="#fdfefd" opacity="0.016"/><path d="M268.65502,114.70522c-0.02824,0.11347 -0.0943,0.19775 -0.19805,0.2529c-0.03904,-0.17722 0.02702,-0.26149 0.19805,-0.2529z" fill="#fcfdfc" opacity="0.008"/><path d="M299.18799,128.48886c0.1474,0.17945 0.1474,0.17945 0,0z" fill="#2caa7c" opacity="0.008"/><path d="M298.98224,128.56774c0.04739,0.02113 0.09492,0.04232 0.14231,0.06345c-0.06885,0.08363 -0.11638,0.06243 -0.14231,-0.06345z" fill="#2caa7c" opacity="0.008"/><path d="M315.2689,135.65849c-0.02824,0.11346 -0.0943,0.19774 -0.19805,0.25289c-0.03904,-0.17722 0.02702,-0.26149 0.19805,-0.25289z" fill="#edf9f4" opacity="0.004"/><path d="M298.71303,128.78891c0.1474,0.17945 0.1474,0.17945 0,0z" fill="#2caa7c" opacity="0.008"/><path d="M294.39752,125.84125c-0.08265,0.23436 -0.07233,0.46643 0.03083,0.69613c0.79242,1.1839 1.65594,2.30815 2.59059,3.37277c-0.02114,0.04743 -0.0423,0.09488 -0.06345,0.1423c-0.14094,-0.00455 -0.23077,0.06914 -0.2692,0.22117c-0.2301,-0.02188 -0.38847,0.0781 -0.47496,0.30003c-0.14094,-0.00455 -0.23077,0.06914 -0.2692,0.22117c-0.04739,-0.02113 -0.09492,-0.04232 -0.14231,-0.06345c-0.73987,-1.15977 -1.53486,-2.31034 -2.38483,-3.45163c-0.10316,-0.2297 -0.11349,-0.46177 -0.03083,-0.69613c0.3166,-0.29073 0.65434,-0.5382 1.01337,-0.74237z" fill="#3f735f" opacity="0.769"/><path d="M298.44383,129.01008c0.1474,0.17945 0.1474,0.17945 0,0z" fill="#2caa7c" opacity="0.008"/><path d="M278.80699,118.71968c0.16134,1.00452 0.27612,2.0224 0.34447,3.05374c-0.50011,0.78114 -1.04934,1.50299 -1.64785,2.16546c-0.08078,-0.0549 -0.13079,-0.13406 -0.15001,-0.23748c-1.02407,0.60488 -1.9079,1.12062 -2.65172,1.54729c-0.08393,-0.3218 -0.16806,-0.64353 -0.25199,-0.96534c0.10236,-0.32524 0.06581,-0.62592 -0.10969,-0.90189c0.08742,-0.13026 0.08214,-0.24622 -0.01542,-0.34806c0.10236,-0.32524 0.06579,-0.62586 -0.10969,-0.90189c0.08211,-0.24539 0.07193,-0.47739 -0.03082,-0.69613c0.0423,-0.09488 0.01606,-0.16343 -0.07886,-0.20575c0.0423,-0.09488 0.08459,-0.18975 0.12689,-0.28462c1.49572,-0.77428 3.02061,-1.51604 4.57469,-2.22531z" fill="#07be86" opacity="0.769"/><path d="M298.23807,129.08892c0.04739,0.02113 0.09492,0.04232 0.14231,0.06345c-0.06885,0.08363 -0.11638,0.06243 -0.14231,-0.06345z" fill="#2caa7c" opacity="0.008"/><path d="M297.96886,129.31009c0.1474,0.17945 0.1474,0.17945 0,0z" fill="#2caa7c" opacity="0.008"/><path d="M297.69966,129.53126c0.1474,0.17945 0.1474,0.17945 0,0z" fill="#2caa7c" opacity="0.008"/><path d="M293.38415,126.58362c-0.08265,0.23436 -0.07232,0.46643 0.03083,0.69613c0.84997,1.14129 1.64495,2.29185 2.38483,3.45163c-0.0423,0.09488 -0.08459,0.18974 -0.12689,0.28462c-0.2301,-0.02188 -0.38847,0.07811 -0.47496,0.30003c-0.14094,-0.00455 -0.23077,0.06915 -0.2692,0.22117c-0.16345,-0.01602 -0.30068,0.03654 -0.41152,0.15772c-0.66215,-1.1539 -1.42032,-2.25962 -2.27425,-3.31703c-0.11365,-0.20463 -0.15831,-0.42358 -0.1337,-0.6567c-0.08978,0.05482 -0.18208,0.07053 -0.27691,0.04714c0.4404,-0.51253 0.95765,-0.90744 1.55178,-1.18471z" fill="#48876e" opacity="0.769"/><path d="M297.43046,129.75245c0.1474,0.17945 0.1474,0.17945 0,0z" fill="#2caa7c" opacity="0.008"/><path d="M297.2247,129.83129c0.04739,0.02113 0.09492,0.04232 0.14231,0.06345c-0.06885,0.08363 -0.11638,0.06243 -0.14231,-0.06345z" fill="#2caa7c" opacity="0.008"/><path d="M314.36521,137.30275c0.1207,0.12148 0.10218,0.22693 -0.05574,0.31634c-0.02832,-0.11403 -0.00979,-0.2195 0.05574,-0.31634z" fill="#f5fbf9" opacity="0.016"/><path d="M296.95549,130.05246c0.1474,0.17945 0.1474,0.17945 0,0z" fill="#2caa7c" opacity="0.008"/><path d="M321.43262,140.96553c0.04739,0.02113 0.09492,0.04232 0.14231,0.06345c-0.08459,0.18974 -0.1692,0.37949 -0.25379,0.56923c-0.06518,-0.21119 -0.02811,-0.42213 0.11148,-0.63268z" fill="#f4fbf8" opacity="0.016"/><path d="M294.51723,131.69493c-0.02114,0.04743 -0.0423,0.09488 -0.06345,0.1423c-0.14094,-0.00455 -0.23074,0.06909 -0.2692,0.22117c-0.14096,-0.0045 -0.23074,0.06909 -0.2692,0.22117c-0.04739,-0.02113 -0.09492,-0.04232 -0.14231,-0.06345c-0.98451,-1.18045 -1.87689,-2.43131 -2.67715,-3.75256c-0.08978,0.05482 -0.18209,0.07053 -0.27692,0.04714c0.25915,-0.30307 0.54951,-0.57169 0.87107,-0.80582c0.04739,0.02113 0.09492,0.04232 0.14231,0.06345c0.09483,0.02339 0.18713,0.00769 0.27691,-0.04714c-0.02461,0.23312 0.02005,0.45207 0.1337,0.6567c0.85393,1.05741 1.6121,2.16313 2.27425,3.31703z" fill="#509579" opacity="0.769"/><path d="M296.68629,130.27363c0.1474,0.17945 0.1474,0.17945 0,0z" fill="#2caa7c" opacity="0.008"/><path d="M296.41708,130.4948c0.1474,0.17945 0.1474,0.17945 0,0z" fill="#2caa7c" opacity="0.008"/><path d="M296.21133,130.57366c0.04739,0.02113 0.09492,0.04232 0.14231,0.06345c-0.06885,0.08363 -0.11637,0.06243 -0.14231,-0.06345z" fill="#2caa7c" opacity="0.008"/><path d="M320.97308,141.61363c0.1207,0.12148 0.10217,0.22693 -0.05575,0.31634c-0.02832,-0.11403 -0.00978,-0.2195 0.05575,-0.31634z" fill="#fdfefd" opacity="0.016"/><path d="M295.94212,130.79483c0.1474,0.17945 0.1474,0.17945 0,0z" fill="#2caa7c" opacity="0.008"/><path d="M253.47061,112.02962c0.14744,0.17947 0.14744,0.17947 0,0z" fill="#fdfefd" opacity="0.016"/><path d="M320.64043,141.97713c0.1474,0.17945 0.10511,0.27432 -0.12689,0.28462c0.0423,-0.09488 0.08459,-0.18974 0.12689,-0.28462z" fill="#fdfdfd" opacity="0.012"/><path d="M273.9631,121.16616c0.04739,0.02113 0.09492,0.04232 0.14231,0.06345c0.09492,0.04232 0.12116,0.11088 0.07886,0.20575c-0.08459,0.18974 -0.22181,0.24229 -0.41152,0.15772c0.06345,-0.14231 0.1269,-0.28462 0.19035,-0.42692z" fill="#70c19e" opacity="0.008"/><path d="M295.67292,131.016c0.1474,0.17945 0.1474,0.17945 0,0z" fill="#2caa7c" opacity="0.008"/><path d="M273.63044,121.52962c0.04739,0.02113 0.09492,0.04232 0.14231,0.06345c-0.03843,0.15202 -0.12827,0.22571 -0.2692,0.22117c0.0423,-0.09488 0.0846,-0.18974 0.1269,-0.28462z" fill="#fdfdfd" opacity="0.012"/><path d="M293.77306,132.21613c-0.14334,0.0881 -0.25417,0.20927 -0.33265,0.36347c-0.14096,-0.0045 -0.23074,0.06909 -0.2692,0.22117c-0.14096,-0.0045 -0.23075,0.06909 -0.26921,0.22117c-0.09492,-0.04232 -0.16343,-0.01606 -0.20576,0.07886c-0.09492,-0.04232 -0.16344,-0.01606 -0.20576,0.07886c-0.90897,-1.2347 -1.80135,-2.48555 -2.67715,-3.75256c-0.15662,0.08039 -0.31761,0.12234 -0.48266,0.12599c0.44651,-0.42753 0.94261,-0.77499 1.48833,-1.0424c0.09483,0.02339 0.18714,0.00769 0.27692,-0.04714c0.80027,1.32125 1.69265,2.57211 2.67715,3.75256z" fill="#58a788" opacity="0.769"/><path d="M295.40371,131.23717c0.1474,0.17945 0.1474,0.17945 0,0z" fill="#2caa7c" opacity="0.008"/><path d="M320.37122,142.19829c0.04739,0.02113 0.09492,0.04232 0.14231,0.06345c-0.21659,0.35836 -0.26412,0.33718 -0.14231,-0.06345z" fill="#f5fbf9" opacity="0.016"/><path d="M295.19795,131.31604c0.04739,0.02113 0.09492,0.04232 0.14231,0.06345c-0.06885,0.08363 -0.11638,0.06243 -0.14231,-0.06345z" fill="#2caa7c" opacity="0.008"/><path d="M273.36124,121.75079c0.04739,0.02113 0.09492,0.04232 0.14231,0.06345c-0.03843,0.15202 -0.12827,0.22571 -0.2692,0.22117c0.0423,-0.09488 0.0846,-0.18974 0.1269,-0.28462z" fill="#fdfdfd" opacity="0.012"/><path d="M274.21509,122.1315c-0.13722,0.05255 -0.13722,0.05255 0,0z" fill="#2caa7c" opacity="0.008"/><path d="M299.56149,133.77329c-0.10507,-0.1749 -0.06538,-0.3278 0.11919,-0.45865c0.00858,0.16556 -0.03125,0.31839 -0.11919,0.45865z" fill="#f7fbf9" opacity="0.008"/><path d="M320.03857,142.56175c0.1474,0.17945 0.1474,0.17945 0,0z" fill="#fdfefd" opacity="0.016"/><path d="M252.82072,113.10466c-0.10514,-0.17493 -0.0654,-0.32781 0.11919,-0.45865c0.00856,0.16554 -0.03117,0.31843 -0.11919,0.45865z" fill="#f7fbfa" opacity="0.012"/><path d="M277.50361,123.93885c-0.14805,0.33205 -0.29611,0.66416 -0.44414,0.99616c-0.31586,0.33463 -0.55359,0.74042 -0.71334,1.21733c-0.43329,0.71662 -0.8665,1.43343 -1.29979,2.15005c-0.07379,-0.08971 -0.14738,-0.1795 -0.22117,-0.2692c0.08742,-0.13026 0.08214,-0.24623 -0.01542,-0.34807c0.10236,-0.32524 0.06582,-0.62592 -0.10968,-0.90189c0.09722,-0.43961 0.05555,-0.85619 -0.1251,-1.24995c0.04232,-0.09492 0.08457,-0.1897 0.12689,-0.28462c0.74382,-0.42668 1.62766,-0.94241 2.65172,-1.54729c0.01923,0.10343 0.06923,0.18258 0.15001,0.23748z" fill="#10c886" opacity="0.769"/><path d="M294.92875,131.53721c0.1474,0.17945 0.1474,0.17945 0,0z" fill="#2caa7c" opacity="0.008"/><path d="M274.0882,122.4161c0.1474,0.17946 0.1474,0.17946 0,0z" fill="#2caa7c" opacity="0.008"/><path d="M319.76936,142.78292c0.1474,0.17945 0.1474,0.17945 0,0z" fill="#fdfefd" opacity="0.016"/><path d="M273.09204,121.97196c0.04739,0.02113 0.09491,0.04232 0.1423,0.06345c-0.03843,0.15202 -0.12826,0.22571 -0.2692,0.22117c0.0423,-0.09488 0.08459,-0.18974 0.12689,-0.28462z" fill="#edf9f4" opacity="0.004"/><path d="M294.65954,131.75838c0.1474,0.17945 0.1474,0.17945 0,0z" fill="#2caa7c" opacity="0.008"/><path d="M252.47265,113.12006c0.1207,0.12148 0.10215,0.22689 -0.05574,0.31635c-0.02838,-0.11399 -0.00979,-0.21949 0.05574,-0.31635z" fill="#fdfdfd" opacity="0.012"/><path d="M272.82283,122.19313c0.04739,0.02113 0.09492,0.04232 0.14231,0.06345c-0.06883,0.08361 -0.11637,0.06242 -0.14231,-0.06345z" fill="#fdfefd" opacity="0.016"/><path d="M294.45379,131.83725c0.04739,0.02113 0.09492,0.04232 0.14231,0.06345c-0.06883,0.08361 -0.11637,0.06242 -0.14231,-0.06345z" fill="#2caa7c" opacity="0.008"/><path d="M319.56361,142.8618c0.04739,0.02113 0.09492,0.04232 0.14231,0.06345c-0.03843,0.15203 -0.12825,0.22567 -0.2692,0.22117c0.0423,-0.09488 0.0846,-0.18974 0.1269,-0.28462z" fill="#edf9f4" opacity="0.004"/><path d="M274.32478,123.03338c-0.13724,0.0526 -0.13724,0.0526 0,0z" fill="#2caa7c" opacity="0.008"/><path d="M319.2944,143.08297c0.04739,0.02113 0.09492,0.04232 0.14231,0.06345c-0.06883,0.08361 -0.11637,0.06242 -0.14231,-0.06345z" fill="#fdfefd" opacity="0.016"/><path d="M272.61707,122.27201c0.04739,0.02113 0.09492,0.04232 0.14231,0.06345c-0.03846,0.15208 -0.12825,0.22567 -0.2692,0.22117c0.04232,-0.09492 0.08457,-0.1897 0.12689,-0.28462z" fill="#edf9f4" opacity="0.004"/><path d="M294.18458,132.05842c0.14738,0.1795 0.14738,0.1795 0,0z" fill="#2caa7c" opacity="0.008"/><path d="M272.34787,122.49318c0.04739,0.02113 0.09492,0.04232 0.14231,0.06345c-0.06883,0.08361 -0.11637,0.06242 -0.14231,-0.06345z" fill="#fdfefd" opacity="0.016"/><path d="M274.34019,123.38143c-0.13724,0.0526 -0.13724,0.0526 0,0z" fill="#2caa7c" opacity="0.008"/><path d="M279.15146,121.77341c0.32295,2.55522 0.59942,5.12363 0.82946,7.70548c-1.02835,-1.28913 -2.02868,-2.61659 -3.00121,-3.98233c-0.05496,-0.19698 -0.02832,-0.38418 0.07975,-0.56153c0.14803,-0.332 0.29609,-0.66411 0.44414,-0.99616c0.59851,-0.66246 1.14774,-1.38432 1.64785,-2.16546z" fill="#4cc696" opacity="0.769"/><path d="M319.08865,143.16181c0.04739,0.02113 0.09492,0.04232 0.14231,0.06345c-0.03846,0.15208 -0.12825,0.22567 -0.2692,0.22117c0.04232,-0.09492 0.08458,-0.1897 0.1269,-0.28462z" fill="#edf9f4" opacity="0.004"/><path d="M272.14211,122.57204c0.04739,0.02113 0.09492,0.04232 0.14231,0.06345c-0.06883,0.08361 -0.11637,0.06242 -0.14231,-0.06345z" fill="#fdfefd" opacity="0.016"/><path d="M293.91538,132.27959c0.14738,0.1795 0.14738,0.1795 0,0z" fill="#2caa7c" opacity="0.008"/><path d="M318.81944,143.383c0.04739,0.02113 0.09492,0.04232 0.14231,0.06345c-0.06883,0.08361 -0.11637,0.06242 -0.14231,-0.06345z" fill="#fdfefd" opacity="0.016"/><path d="M274.2133,123.66607c0.14738,0.1795 0.14738,0.1795 0,0z" fill="#2caa7c" opacity="0.008"/><path d="M292.49048,133.17967c-0.02113,0.04739 -0.04231,0.09492 -0.06345,0.14231c-0.14096,-0.0045 -0.23074,0.06908 -0.2692,0.22116c-0.14096,-0.0045 -0.23074,0.06909 -0.2692,0.22118c-0.09492,-0.04232 -0.16343,-0.01606 -0.20575,0.07886c-0.14096,-0.0045 -0.23074,0.06909 -0.2692,0.22117c-0.14096,-0.0045 -0.23074,0.06909 -0.2692,0.22117c-0.04739,-0.02113 -0.09492,-0.04232 -0.14231,-0.06345c-0.80446,-1.26898 -1.67309,-2.50923 -2.60601,-3.72083c-0.12023,0.00833 -0.23627,0.0134 -0.34806,0.01542c0.35106,-0.4392 0.7785,-0.76043 1.28258,-0.96355c0.16506,-0.00366 0.32605,-0.04561 0.48266,-0.12599c0.87581,1.26701 1.76818,2.51785 2.67715,3.75256z" fill="#64bc99" opacity="0.769"/><path d="M318.61368,143.46185c0.04739,0.02113 0.09492,0.04232 0.14231,0.06345c-0.06883,0.08361 -0.11637,0.06242 -0.14231,-0.06345z" fill="#fdfefd" opacity="0.016"/><path d="M271.93635,122.65088c0.04739,0.02113 0.09492,0.04232 0.14231,0.06345c-0.03846,0.15208 -0.12825,0.22567 -0.2692,0.22117c0.04232,-0.09492 0.08457,-0.1897 0.12689,-0.28462z" fill="#edf9f4" opacity="0.004"/><path d="M293.64617,132.50077c0.14738,0.1795 0.14738,0.1795 0,0z" fill="#2caa7c" opacity="0.008"/><path d="M298.50009,135.00605c-0.10505,-0.17496 -0.06536,-0.32786 0.11919,-0.45865c0.00858,0.16556 -0.03124,0.3184 -0.11919,0.45865z" fill="#f7fbf9" opacity="0.008"/><path d="M318.40792,143.54071c0.04739,0.02113 0.09492,0.04232 0.14231,0.06345c-0.06883,0.08361 -0.11637,0.06242 -0.14231,-0.06345z" fill="#fdfefd" opacity="0.016"/><path d="M251.75931,114.33739c-0.10512,-0.17499 -0.06538,-0.32787 0.11919,-0.45865c0.00856,0.16554 -0.03117,0.31843 -0.11919,0.45865z" fill="#f7fcfa" opacity="0.016"/><path d="M271.80946,122.93551c-0.13724,0.0526 -0.13724,0.0526 0,0z" fill="#e4f7ef" opacity="0.004"/><path d="M318.20216,143.61959c0.04739,0.02113 0.09492,0.04232 0.14231,0.06345c-0.06883,0.08361 -0.11637,0.06242 -0.14231,-0.06345z" fill="#fdfefd" opacity="0.016"/><path d="M271.6037,123.01438c-0.13724,0.0526 -0.13724,0.0526 0,0z" fill="#fcfdfc" opacity="0.008"/><path d="M274.44988,124.28334c-0.13724,0.0526 -0.13724,0.0526 0,0z" fill="#2caa7c" opacity="0.008"/><path d="M293.44041,132.5796c0.04739,0.02113 0.09492,0.04232 0.14231,0.06345c-0.03846,0.15208 -0.12825,0.22567 -0.26921,0.22117c0.04232,-0.09492 0.08458,-0.1897 0.1269,-0.28462z" fill="#aeddc8" opacity="0.004"/><path d="M317.99641,143.69842c0.04739,0.02113 0.09492,0.04232 0.14231,0.06345c-0.06883,0.08361 -0.11637,0.06242 -0.14231,-0.06345z" fill="#fdfefd" opacity="0.016"/><path d="M271.39794,123.09322c-0.13724,0.0526 -0.13724,0.0526 0,0z" fill="#fcfdfc" opacity="0.008"/><path d="M293.17121,132.80077c0.04739,0.02113 0.09492,0.04232 0.14231,0.06345c-0.06883,0.08361 -0.11637,0.06242 -0.14231,-0.06345z" fill="#2caa7c" opacity="0.008"/><path d="M317.79065,143.77729c0.04739,0.02113 0.09492,0.04232 0.14231,0.06345c-0.06883,0.08361 -0.11637,0.06242 -0.14231,-0.06345z" fill="#fdfefd" opacity="0.016"/><path d="M271.19219,123.17208c-0.13724,0.0526 -0.13724,0.0526 0,0z" fill="#fcfdfc" opacity="0.008"/><path d="M317.5849,143.85616c0.04739,0.02113 0.09492,0.04232 0.14231,0.06345c-0.06883,0.08361 -0.11637,0.06242 -0.14231,-0.06345z" fill="#fdfefd" opacity="0.016"/><path d="M270.98643,123.25097c-0.13724,0.0526 -0.13724,0.0526 0,0z" fill="#e4f7ef" opacity="0.004"/><path d="M292.902,133.02194c0.14738,0.1795 0.14738,0.1795 0,0z" fill="#2caa7c" opacity="0.008"/><path d="M317.37914,143.93503c0.04739,0.02113 0.09492,0.04232 0.14231,0.06345c-0.06883,0.08361 -0.11637,0.06242 -0.14231,-0.06345z" fill="#fdfefd" opacity="0.016"/><path d="M270.49605,123.20291c0.14738,0.1795 0.14738,0.1795 0,0z" fill="#fdfefd" opacity="0.016"/><path d="M317.17338,144.01387c0.04739,0.02113 0.09492,0.04232 0.14231,0.06345c-0.06883,0.08361 -0.11637,0.06242 -0.14231,-0.06345z" fill="#fdfefd" opacity="0.016"/><path d="M270.2903,123.28177c0.04739,0.02113 0.09492,0.04232 0.14231,0.06345c-0.06883,0.08361 -0.11637,0.06242 -0.14231,-0.06345z" fill="#fdfefd" opacity="0.016"/><path d="M292.69624,133.10081c0.04739,0.02113 0.09492,0.04232 0.14231,0.06345c-0.03846,0.15208 -0.12825,0.22567 -0.2692,0.22117c0.04232,-0.09492 0.08457,-0.1897 0.12689,-0.28462z" fill="#74c4a1" opacity="0.008"/><path d="M297.77133,135.87532c-0.10505,-0.17496 -0.06536,-0.32785 0.11919,-0.45864c0.00858,0.16556 -0.03124,0.31839 -0.11919,0.45864z" fill="#f7fbf9" opacity="0.008"/><path d="M317.10994,144.1562c-0.13724,0.0526 -0.13724,0.0526 0,0z" fill="#fcfdfc" opacity="0.008"/><path d="M270.08454,123.36065c0.04739,0.02113 0.09492,0.04232 0.14231,0.06345c-0.06883,0.08361 -0.11637,0.06242 -0.14231,-0.06345z" fill="#fdfefd" opacity="0.016"/><path d="M291.00216,134.22206c-0.14334,0.0881 -0.25418,0.20928 -0.33265,0.36348c-0.14096,-0.0045 -0.23074,0.06909 -0.2692,0.22117c-0.14096,-0.0045 -0.23074,0.06908 -0.26921,0.22117c-0.2301,-0.0219 -0.38846,0.07809 -0.47496,0.30003c-0.14096,-0.0045 -0.23074,0.06909 -0.2692,0.22117c-0.14096,-0.0045 -0.23074,0.06909 -0.2692,0.22117c-0.09492,-0.04232 -0.16344,-0.01606 -0.20576,0.07886c-0.14096,-0.0045 -0.23074,0.06909 -0.2692,0.22117c-0.14096,-0.0045 -0.23074,0.06909 -0.2692,0.22117c-0.2301,-0.0219 -0.38846,0.07809 -0.47496,0.30003c-0.04739,-0.02113 -0.09492,-0.04232 -0.14231,-0.06345c-1.0159,-1.05378 -1.92685,-2.19911 -2.7329,-3.43621c-0.22807,0.11856 -0.37037,0.05511 -0.42692,-0.19035c1.1297,-0.83875 2.28032,-1.63372 3.45163,-2.38483c0.11179,-0.00202 0.22783,-0.00709 0.34806,-0.01542c0.93291,1.2116 1.80154,2.45186 2.60601,3.72083z" fill="#69d0a8" opacity="0.769"/><path d="M316.61956,144.10815c0.14738,0.1795 0.14738,0.1795 0,0z" fill="#fdfefd" opacity="0.016"/><path d="M269.67303,123.51835c0.02113,-0.04739 0.04232,-0.09492 0.06345,-0.14231c0.09492,0.04232 0.1897,0.08457 0.28462,0.12689c-0.10184,0.09755 -0.21781,0.10283 -0.34807,0.01542z" fill="#edf9f4" opacity="0.004"/><path d="M274.57498,125.53329c-0.13724,0.0526 -0.13724,0.0526 0,0z" fill="#2caa7c" opacity="0.008"/><path d="M292.42704,133.32198c0.04739,0.02113 0.09492,0.04232 0.14231,0.06345c-0.03846,0.15208 -0.12825,0.22567 -0.2692,0.22117c0.04232,-0.09492 0.08457,-0.1897 0.12689,-0.28462z" fill="#aeddc8" opacity="0.004"/><path d="M316.4138,144.18701c0.04739,0.02113 0.09492,0.04232 0.14231,0.06345c-0.06883,0.08361 -0.11637,0.06242 -0.14231,-0.06345z" fill="#fdfefd" opacity="0.016"/><path d="M269.53072,123.45492c0.04739,0.02113 0.09492,0.04232 0.14231,0.06345c-0.06883,0.08361 -0.11637,0.06242 -0.14231,-0.06345z" fill="#fdfefd" opacity="0.016"/><path d="M292.15783,133.54314c0.04739,0.02113 0.09492,0.04232 0.14231,0.06345c-0.06883,0.08361 -0.11637,0.06241 -0.14231,-0.06345z" fill="#2caa7c" opacity="0.008"/><path d="M297.42327,135.89072c0.12068,0.12153 0.10218,0.22691 -0.05574,0.31635c-0.02834,-0.11397 -0.00979,-0.21949 0.05574,-0.31635z" fill="#fcfdfc" opacity="0.008"/><path d="M316.00229,144.34473c0.02113,-0.04739 0.04231,-0.09492 0.06345,-0.14231c0.09492,0.04232 0.1897,0.08458 0.28462,0.12689c-0.10184,0.09755 -0.21781,0.10284 -0.34806,0.01542z" fill="#edf9f4" opacity="0.004"/><path d="M250.6979,115.57016c-0.10512,-0.17499 -0.06538,-0.32786 0.11919,-0.45865c0.00856,0.16554 -0.03117,0.31842 -0.11919,0.45865z" fill="#f7fcfa" opacity="0.016"/><path d="M269.18265,123.47034c0.14738,0.1795 0.14738,0.1795 0,0z" fill="#fdfefd" opacity="0.016"/><path d="M316.00229,144.34473c-0.13724,0.0526 -0.13724,0.0526 0,0z" fill="#fdfefd" opacity="0.016"/><path d="M268.77114,123.62804c0.02113,-0.04739 0.04232,-0.09492 0.06345,-0.1423c0.09492,0.04232 0.18969,0.08457 0.28461,0.12689c-0.10184,0.09755 -0.21781,0.10283 -0.34806,0.01541z" fill="#fdfdfd" opacity="0.012"/><path d="M291.88863,133.76432c0.14738,0.1795 0.14738,0.1795 0,0z" fill="#2caa7c" opacity="0.008"/><path d="M315.51191,144.2967c0.14738,0.1795 0.14738,0.1795 0,0z" fill="#fdfefd" opacity="0.016"/><path d="M268.42307,123.64345c0.02113,-0.04739 0.04232,-0.09492 0.06345,-0.14231c0.09492,0.04232 0.1897,0.08457 0.28462,0.12689c-0.10184,0.09755 -0.21781,0.10283 -0.34807,0.01542z" fill="#fdfdfd" opacity="0.012"/><path d="M277.05947,124.93503c-0.10807,0.17735 -0.13472,0.36455 -0.07975,0.56153c0.97253,1.36574 1.97286,2.69321 3.00121,3.98233c0.16164,1.55063 0.32334,3.10112 0.48498,4.65175c-0.12927,0.01368 -0.24267,0.07673 -0.34035,0.18944c-1.37378,-2.16732 -2.85042,-4.27575 -4.43021,-6.32542c0.12079,-0.6398 0.33779,-1.25392 0.65079,-1.8423c0.15974,-0.47691 0.39747,-0.88271 0.71334,-1.21733z" fill="#33ba84" opacity="0.769"/><path d="M291.68288,133.84318c0.04739,0.02113 0.09492,0.04232 0.14231,0.06345c-0.03846,0.15208 -0.12825,0.22567 -0.2692,0.22117c0.04232,-0.09492 0.08458,-0.1897 0.1269,-0.28462z" fill="#e4f7ef" opacity="0.004"/><path d="M315.16384,144.31211c0.14738,0.1795 0.14738,0.1795 0,0z" fill="#fdfefd" opacity="0.016"/><path d="M268.075,123.65889c0.02113,-0.04739 0.04231,-0.09492 0.06345,-0.14231c0.09492,0.04232 0.1897,0.08458 0.28462,0.1269c-0.10184,0.09755 -0.21781,0.10283 -0.34807,0.01542z" fill="#fdfdfd" opacity="0.012"/><path d="M314.61003,144.40639c0.02113,-0.04739 0.04231,-0.09491 0.06345,-0.1423c0.35841,0.2166 0.33722,0.26413 -0.06345,0.1423z" fill="#f5fbf9" opacity="0.016"/><path d="M268.075,123.65889c-0.12153,0.12068 -0.22691,0.10218 -0.31634,-0.05575c0.11397,-0.02834 0.21949,-0.00978 0.31634,0.05575z" fill="#edf9f4" opacity="0.004"/><path d="M314.32541,144.2795c0.09492,0.04232 0.1897,0.08458 0.28462,0.12689c-0.17949,0.14738 -0.27428,0.10513 -0.28462,-0.12689z" fill="#fdfdfd" opacity="0.012"/><path d="M267.30001,123.48395c0.11347,0.02824 0.19781,0.09433 0.2529,0.19805c-0.17725,0.03902 -0.26144,-0.02699 -0.2529,-0.19805z" fill="#fdfdfd" opacity="0.012"/><path d="M274.70008,126.78323c-0.13724,0.0526 -0.13724,0.0526 0,0z" fill="#2caa7c" opacity="0.008"/><path d="M291.41367,134.06435c0.04739,0.02113 0.09492,0.04232 0.14231,0.06345c-0.03846,0.15208 -0.12825,0.22567 -0.2692,0.22117c0.04232,-0.09492 0.08458,-0.1897 0.1269,-0.28462z" fill="#aeddc8" opacity="0.004"/><path d="M313.77158,144.37375c0.02113,-0.04739 0.04232,-0.09492 0.06345,-0.14231c0.35841,0.2166 0.33721,0.26413 -0.06345,0.14231z" fill="#fdfefd" opacity="0.016"/><path d="M266.74619,123.57823c0.12153,-0.12068 0.2269,-0.10218 0.31634,0.05575c-0.11397,0.02834 -0.21948,0.00978 -0.31634,-0.05575z" fill="#fdfdfd" opacity="0.012"/><path d="M291.14447,134.28552c0.04739,0.02113 0.09492,0.04232 0.14231,0.06345c-0.06883,0.08361 -0.11637,0.06242 -0.14231,-0.06345z" fill="#2caa7c" opacity="0.008"/><path d="M296.70993,137.10806c-0.10505,-0.17496 -0.06536,-0.32787 0.11919,-0.45865c0.00858,0.16556 -0.03124,0.3184 -0.11919,0.45865z" fill="#f7fbf9" opacity="0.008"/><path d="M313.77158,144.37375c-0.17496,0.10505 -0.32786,0.06537 -0.45865,-0.11919c0.16555,-0.00859 0.31839,0.03124 0.45865,0.11919z" fill="#f7fcfa" opacity="0.016"/><path d="M265.9712,123.40328c0.02113,-0.04739 0.04232,-0.09492 0.06345,-0.14231c0.7378,0.38576 0.71661,0.43329 -0.06345,0.14231z" fill="#f4fbf8" opacity="0.016"/><path d="M274.57318,127.06786c0.14738,0.1795 0.14738,0.1795 0,0z" fill="#2caa7c" opacity="0.008"/><path d="M312.64853,144.21424c0.17496,-0.10505 0.32786,-0.06536 0.45865,0.11919c-0.16555,0.00859 -0.31839,-0.03124 -0.45865,-0.11919z" fill="#f7fcfa" opacity="0.016"/><path d="M265.25965,123.08604c0.23723,0.10577 0.47431,0.21147 0.71155,0.31724c-0.3218,0.08393 -0.55889,-0.02178 -0.71155,-0.31724z" fill="#f5fbf9" opacity="0.013"/><path d="M290.87526,134.50669c0.14738,0.1795 0.14738,0.1795 0,0z" fill="#2caa7c" opacity="0.008"/><path d="M311.73122,143.97587c0.2764,-0.06664 0.52423,0.01535 0.74327,0.24608c-0.26387,-0.03338 -0.51164,-0.11552 -0.74327,-0.24608z" fill="#f5fbf9" opacity="0.013"/><path d="M263.99428,122.86307c0.37446,-0.02565 0.71707,0.09861 1.02789,0.37298c-0.36027,-0.07583 -0.70281,-0.20024 -1.02789,-0.37298z" fill="#f7fcfa" opacity="0.014"/><path d="M296.36186,137.12347c0.12068,0.12153 0.10218,0.22691 -0.05575,0.31634c-0.02834,-0.11397 -0.00979,-0.21949 0.05575,-0.31634z" fill="#fcfdfc" opacity="0.008"/><path d="M310.24469,143.48369c0.47124,0.01596 0.90876,0.18254 1.3125,0.49988c-0.45596,-0.11833 -0.89348,-0.28491 -1.3125,-0.49988z" fill="#f8fcfa" opacity="0.012"/><path d="M249.6365,116.8029c-0.10512,-0.17499 -0.06538,-0.32787 0.11919,-0.45865c0.00856,0.16554 -0.03117,0.31843 -0.11919,0.45865z" fill="#f7fcfa" opacity="0.016"/><path d="M257.24232,120.02334c2.08886,0.73325 4.13916,1.61905 6.15101,2.65711c-2.07094,-0.83803 -4.12129,-1.72367 -6.15101,-2.65711z" fill="#e5f7f0" opacity="0.004"/><path d="M274.80976,127.68514c-0.13724,0.0526 -0.13724,0.0526 0,0z" fill="#2caa7c" opacity="0.008"/><path d="M290.6695,134.58556c0.04739,0.02113 0.09492,0.04232 0.14231,0.06345c-0.03846,0.15208 -0.12825,0.22567 -0.2692,0.22117c0.04232,-0.09492 0.08458,-0.1897 0.1269,-0.28462z" fill="#aeddc8" opacity="0.004"/><path d="M303.84079,140.62854c0.14738,0.1795 0.10512,0.27427 -0.12689,0.28462c0.04232,-0.09492 0.08457,-0.1897 0.12689,-0.28462z" fill="#fdfdfd" opacity="0.012"/><path d="M257.10001,119.95987c0.04743,0.02115 0.09488,0.0423 0.14231,0.06345c-0.06888,0.08359 -0.11633,0.06243 -0.14231,-0.06345z" fill="#fdfefd" opacity="0.016"/><path d="M290.4003,134.80673c0.04739,0.02113 0.09492,0.04232 0.14231,0.06345c-0.06883,0.08361 -0.11637,0.06242 -0.14231,-0.06345z" fill="#2caa7c" opacity="0.008"/><path d="M274.82518,128.03319c-0.13724,0.0526 -0.13724,0.0526 0,0z" fill="#2caa7c" opacity="0.008"/><path d="M303.57158,140.84971c0.04739,0.02113 0.09492,0.04232 0.14231,0.06345c-0.03846,0.15208 -0.12825,0.22567 -0.2692,0.22117c0.04232,-0.09492 0.08457,-0.1897 0.12689,-0.28462z" fill="#fdfdfd" opacity="0.012"/><path d="M256.8308,120.18104c0.14742,0.17951 0.14742,0.17951 0,0z" fill="#fdfefd" opacity="0.016"/><path d="M290.13109,135.0279c0.14738,0.1795 0.14738,0.1795 0,0z" fill="#2caa7c" opacity="0.008"/><path d="M274.69828,128.31782c0.14738,0.1795 0.14738,0.1795 0,0z" fill="#2caa7c" opacity="0.008"/><path d="M256.5616,120.40221c0.14742,0.17951 0.14742,0.17951 0,0z" fill="#fdfefd" opacity="0.016"/><path d="M276.34613,126.15237c-0.313,0.58839 -0.53,1.20251 -0.65079,1.8423c1.57978,2.04967 3.05642,4.1581 4.43021,6.32542c0.09768,-0.11272 0.21108,-0.17577 0.34035,-0.18944c0.04586,0.50017 0.13771,0.99593 0.27512,1.48744c0.50493,-0.23447 0.95612,-0.5451 1.35373,-0.93182c0.29874,0.10556 0.57276,0.25622 0.82213,0.45184c0.8539,1.05747 1.61208,2.16318 2.27425,3.31703c-0.02113,0.04739 -0.04231,0.09492 -0.06345,0.14231c-0.14096,-0.0045 -0.23074,0.06909 -0.2692,0.22117c-0.14096,-0.0045 -0.23074,0.06909 -0.2692,0.22117c-0.2301,-0.0219 -0.38847,0.07809 -0.47496,0.30003c-0.14096,-0.0045 -0.23074,0.06909 -0.2692,0.22117c-0.14096,-0.0045 -0.23074,0.06909 -0.2692,0.22117c-0.2301,-0.0219 -0.38846,0.07809 -0.47496,0.30003c-0.14096,-0.0045 -0.23074,0.06909 -0.2692,0.22117c-0.14096,-0.0045 -0.23074,0.06909 -0.2692,0.22117c-0.04739,-0.02113 -0.09492,-0.04232 -0.14231,-0.06345c-2.17657,-3.03447 -4.37991,-6.064 -6.61017,-9.08863c-0.17751,0.01741 -0.33838,0.05948 -0.48267,0.126c-0.04739,-0.02113 -0.09492,-0.04232 -0.14231,-0.06345c0.09722,-0.43961 0.05555,-0.8562 -0.1251,-1.24995c0.09722,-0.43961 0.05555,-0.8562 -0.1251,-1.24995c0.03719,-0.21082 0.07429,-0.42186 0.11148,-0.63269c0.43329,-0.71662 0.8665,-1.43343 1.29979,-2.15005z" fill="#22b379" opacity="0.768"/><path d="M289.86188,135.24906c0.14738,0.1795 0.14738,0.1795 0,0z" fill="#2caa7c" opacity="0.008"/><path d="M303.30238,141.07088c0.04739,0.02113 0.09492,0.04232 0.14231,0.06345c-0.03846,0.15208 -0.12825,0.22567 -0.2692,0.22117c0.04232,-0.09492 0.08457,-0.1897 0.12689,-0.28462z" fill="#edf9f4" opacity="0.004"/><path d="M295.64851,138.3408c-0.10505,-0.17496 -0.06536,-0.32786 0.1192,-0.45865c0.00858,0.16556 -0.03125,0.3184 -0.1192,0.45865z" fill="#f7fbf9" opacity="0.008"/><path d="M248.90774,117.67217c-0.10512,-0.17499 -0.06538,-0.32787 0.11919,-0.45865c0.00856,0.16554 -0.03117,0.31843 -0.11919,0.45865z" fill="#f7fcfa" opacity="0.016"/><path d="M256.29239,120.62338c0.14742,0.17951 0.14742,0.17951 0,0z" fill="#fdfefd" opacity="0.016"/><path d="M274.93486,128.93508c-0.13724,0.0526 -0.13724,0.0526 0,0z" fill="#2caa7c" opacity="0.008"/><path d="M289.65613,135.32791c0.04739,0.02113 0.09492,0.04232 0.14231,0.06345c-0.03846,0.15208 -0.12825,0.22567 -0.2692,0.22117c0.04232,-0.09492 0.08457,-0.1897 0.12689,-0.28462z" fill="#aeddc8" opacity="0.004"/><path d="M303.03317,141.29204c0.04739,0.02113 0.09492,0.04232 0.14231,0.06345c-0.03846,0.15208 -0.12825,0.22567 -0.26921,0.22117c0.04232,-0.09492 0.08458,-0.1897 0.1269,-0.28462z" fill="#edf9f4" opacity="0.004"/><path d="M289.38693,135.54911c0.04739,0.02113 0.09492,0.04232 0.14231,0.06345c-0.06883,0.08361 -0.11637,0.06241 -0.14231,-0.06345z" fill="#2caa7c" opacity="0.008"/><path d="M256.02319,120.84455c0.14742,0.17951 0.14742,0.17951 0,0z" fill="#fdfefd" opacity="0.016"/><path d="M295.30045,138.35623c0.12068,0.12153 0.10218,0.22691 -0.05574,0.31634c-0.02834,-0.11397 -0.00979,-0.21949 0.05574,-0.31634z" fill="#fcfdfc" opacity="0.008"/><path d="M302.76397,141.51321c0.04739,0.02113 0.09492,0.04232 0.14231,0.06345c-0.03846,0.15208 -0.12825,0.22567 -0.2692,0.22117c0.04232,-0.09492 0.08458,-0.1897 0.1269,-0.28462z" fill="#edf9f4" opacity="0.004"/><path d="M248.55968,117.68757c0.12068,0.12153 0.10215,0.22688 -0.05574,0.31634c-0.02838,-0.11399 -0.00979,-0.21948 0.05574,-0.31634z" fill="#fdfdfd" opacity="0.012"/><path d="M289.11772,135.77028c0.14738,0.1795 0.14738,0.1795 0,0z" fill="#2caa7c" opacity="0.008"/><path d="M255.75399,121.06572c0.14742,0.17951 0.14742,0.17951 0,0z" fill="#fdfefd" opacity="0.016"/><path d="M302.49476,141.73438c0.04739,0.02113 0.09492,0.04232 0.14231,0.06345c-0.03846,0.15208 -0.12825,0.22567 -0.2692,0.22117c0.04232,-0.09492 0.08458,-0.1897 0.1269,-0.28462z" fill="#edf9f4" opacity="0.004"/><path d="M288.91196,135.84912c0.04739,0.02113 0.09492,0.04232 0.14231,0.06345c-0.03846,0.15208 -0.12825,0.22567 -0.2692,0.22117c0.04232,-0.09492 0.08458,-0.1897 0.1269,-0.28462z" fill="#74c4a1" opacity="0.008"/><path d="M255.48478,121.28689c0.14742,0.17951 0.14742,0.17951 0,0z" fill="#fdfefd" opacity="0.016"/><path d="M302.22555,141.95555c0.04739,0.02113 0.09492,0.04232 0.14231,0.06345c-0.03846,0.15208 -0.12825,0.22567 -0.2692,0.22117c0.04232,-0.09492 0.08457,-0.1897 0.12689,-0.28462z" fill="#edf9f4" opacity="0.004"/><path d="M275.05996,130.18504c-0.13724,0.0526 -0.13724,0.0526 0,0z" fill="#2caa7c" opacity="0.008"/><path d="M288.64276,136.07029c0.04739,0.02113 0.09492,0.04232 0.14231,0.06345c-0.03846,0.15208 -0.12825,0.22567 -0.2692,0.22117c0.04232,-0.09492 0.08458,-0.1897 0.1269,-0.28462z" fill="#aeddc8" opacity="0.004"/><path d="M255.21557,121.50806c0.14742,0.17951 0.14742,0.17951 0,0z" fill="#fdfefd" opacity="0.016"/><path d="M288.37355,136.29146c0.04739,0.02113 0.09492,0.04232 0.14231,0.06345c-0.06883,0.08361 -0.11637,0.06242 -0.14231,-0.06345z" fill="#2caa7c" opacity="0.008"/><path d="M301.95635,142.17672c0.04739,0.02113 0.09492,0.04232 0.14231,0.06345c-0.03846,0.15208 -0.12824,0.22567 -0.2692,0.22117c0.04232,-0.09492 0.08457,-0.1897 0.12689,-0.28462z" fill="#edf9f4" opacity="0.004"/><path d="M274.93307,130.46965c0.14738,0.1795 0.14738,0.1795 0,0z" fill="#2caa7c" opacity="0.008"/><path d="M294.58711,139.57356c-0.10505,-0.17496 -0.06536,-0.32786 0.11919,-0.45865c0.00858,0.16556 -0.03124,0.3184 -0.11919,0.45865z" fill="#f7fbfa" opacity="0.012"/><path d="M247.84634,118.90489c-0.10512,-0.17499 -0.06539,-0.32786 0.11918,-0.45865c0.00856,0.16554 -0.03117,0.31842 -0.11918,0.45865z" fill="#f7fcfa" opacity="0.016"/><path d="M254.94637,121.72923c0.14742,0.17951 0.14742,0.17951 0,0z" fill="#fdfefd" opacity="0.016"/><path d="M288.10435,136.51263c0.14738,0.1795 0.14738,0.1795 0,0z" fill="#2caa7c" opacity="0.008"/><path d="M301.68715,142.39788c0.04739,0.02113 0.09492,0.04232 0.14231,0.06345c-0.03846,0.15208 -0.12825,0.22567 -0.2692,0.22117c0.04232,-0.09492 0.08457,-0.1897 0.12689,-0.28462z" fill="#edf9f4" opacity="0.004"/><path d="M254.67716,121.9504c0.14742,0.17951 0.14742,0.17951 0,0z" fill="#fdfefd" opacity="0.016"/><path d="M284.59646,132.90148c0.05656,0.24545 0.19886,0.30891 0.42692,0.19035c0.80606,1.2371 1.717,2.38243 2.7329,3.43621c-0.04232,0.09492 -0.08457,0.1897 -0.12689,0.28462c-0.14096,-0.0045 -0.23074,0.06909 -0.2692,0.22117c-0.2301,-0.0219 -0.38846,0.07809 -0.47496,0.30003c-0.14096,-0.0045 -0.23075,0.06909 -0.26921,0.22117c-0.14096,-0.0045 -0.23074,0.06909 -0.2692,0.22117c-0.09492,-0.04232 -0.16344,-0.01606 -0.20576,0.07886c-0.14096,-0.0045 -0.23074,0.06909 -0.2692,0.22117c-0.14096,-0.0045 -0.23074,0.06909 -0.2692,0.22117c-0.14096,-0.0045 -0.23074,0.06909 -0.2692,0.22117c-0.04739,-0.02113 -0.09492,-0.04232 -0.14231,-0.06345c-0.66217,-1.15384 -1.42034,-2.25956 -2.27425,-3.31703c-0.24937,-0.19563 -0.52339,-0.34629 -0.82213,-0.45184c0.83387,-0.59499 1.66783,-1.18978 2.50171,-1.78477z" fill="#43c28f" opacity="0.769"/><path d="M287.89859,136.59149c0.04739,0.02113 0.09492,0.04232 0.14231,0.06345c-0.03846,0.15208 -0.12825,0.22567 -0.2692,0.22117c0.04232,-0.09492 0.08457,-0.1897 0.12689,-0.28462z" fill="#aeddc8" opacity="0.004"/><path d="M294.23904,139.58896c0.12068,0.12153 0.10218,0.22691 -0.05575,0.31635c-0.02834,-0.11397 -0.00979,-0.21949 0.05575,-0.31635z" fill="#fcfdfc" opacity="0.008"/><path d="M301.41794,142.61905c0.04739,0.02113 0.09492,0.04232 0.14231,0.06345c-0.03846,0.15208 -0.12825,0.22567 -0.26921,0.22117c0.04232,-0.09492 0.08458,-0.1897 0.1269,-0.28462z" fill="#edf9f4" opacity="0.004"/><path d="M247.49827,118.92031c0.12068,0.12153 0.10214,0.22688 -0.05574,0.31634c-0.02839,-0.114 -0.00979,-0.21948 0.05574,-0.31634z" fill="#fdfdfd" opacity="0.012"/><path d="M254.40796,122.17157c0.14742,0.17951 0.14742,0.17951 0,0z" fill="#fdfefd" opacity="0.016"/><path d="M275.18506,131.43499c-0.13724,0.0526 -0.13724,0.0526 0,0z" fill="#2caa7c" opacity="0.008"/><path d="M287.62939,136.81266c0.04739,0.02113 0.09492,0.04232 0.14231,0.06345c-0.03846,0.15208 -0.12825,0.22567 -0.2692,0.22117c0.04232,-0.09492 0.08457,-0.1897 0.12689,-0.28462z" fill="#aeddc8" opacity="0.004"/><path d="M301.14874,142.84022c0.04739,0.02113 0.09492,0.04232 0.14231,0.06345c-0.03846,0.15208 -0.12825,0.22567 -0.2692,0.22117c0.04232,-0.09492 0.08458,-0.1897 0.1269,-0.28462z" fill="#edf9f4" opacity="0.004"/><path d="M287.36018,137.03383c0.04739,0.02113 0.09492,0.04232 0.14231,0.06345c-0.06883,0.08361 -0.11637,0.06242 -0.14231,-0.06345z" fill="#2caa7c" opacity="0.008"/><path d="M254.13875,122.39276c0.14742,0.17951 0.14742,0.17951 0,0z" fill="#fdfefd" opacity="0.016"/><path d="M275.05816,131.71961c0.14738,0.1795 0.14738,0.1795 0,0z" fill="#2caa7c" opacity="0.008"/><path d="M282.42022,140.46108c-0.02113,0.04739 -0.04231,0.09491 -0.06345,0.1423c-0.14096,-0.0045 -0.23074,0.06909 -0.2692,0.22117c-0.14096,-0.0045 -0.23075,0.06909 -0.26921,0.22118c-0.14096,-0.0045 -0.23074,0.06908 -0.2692,0.22116c-0.04739,-0.02113 -0.09492,-0.04232 -0.14231,-0.06345c-1.72053,-2.58992 -3.50794,-5.14961 -5.36202,-7.67915c-0.17751,0.01741 -0.33837,0.05948 -0.48267,0.12599c-0.04739,-0.02113 -0.09492,-0.04232 -0.14231,-0.06345c0.10236,-0.32524 0.06582,-0.62591 -0.10969,-0.90188c0.08742,-0.13026 0.08214,-0.24623 -0.01542,-0.34807c0.05726,-0.27882 0.0682,-0.55815 0.03262,-0.83844c0.14429,-0.06652 0.30516,-0.10858 0.48267,-0.126c2.23026,3.02463 4.4336,6.05416 6.61017,9.08863z" fill="#1ab878" opacity="0.769"/><path d="M300.87953,143.06139c0.04739,0.02113 0.09492,0.04232 0.14231,0.06345c-0.03846,0.15208 -0.12825,0.22567 -0.2692,0.22117c0.04232,-0.09492 0.08458,-0.1897 0.1269,-0.28462z" fill="#edf9f4" opacity="0.004"/><path d="M287.09098,137.255c0.14738,0.1795 0.14738,0.1795 0,0z" fill="#2caa7c" opacity="0.008"/><path d="M253.86955,122.61393c0.14742,0.17951 0.14742,0.17951 0,0z" fill="#fdfefd" opacity="0.016"/><path d="M300.61032,143.28256c0.04739,0.02113 0.09492,0.04232 0.14231,0.06345c-0.03846,0.15208 -0.12825,0.22566 -0.2692,0.22116c0.04232,-0.09492 0.08457,-0.1897 0.12689,-0.28462z" fill="#edf9f4" opacity="0.004"/><path d="M275.29474,132.33689c-0.13724,0.0526 -0.13724,0.0526 0,0z" fill="#2caa7c" opacity="0.008"/><path d="M286.88522,137.33386c0.04739,0.02113 0.09492,0.04232 0.14231,0.06345c-0.03846,0.15208 -0.12825,0.22567 -0.2692,0.22117c0.04232,-0.09492 0.08458,-0.1897 0.1269,-0.28462z" fill="#aeddc8" opacity="0.004"/><path d="M293.52571,140.80629c-0.10505,-0.17496 -0.06537,-0.32787 0.11918,-0.45865c0.00858,0.16556 -0.03123,0.3184 -0.11918,0.45865z" fill="#f7fcfa" opacity="0.016"/><path d="M246.78493,120.13766c-0.10512,-0.17499 -0.06538,-0.32787 0.11919,-0.45865c0.00856,0.16554 -0.03117,0.31843 -0.11919,0.45865z" fill="#f7fcfa" opacity="0.016"/><path d="M253.60034,122.8351c0.14742,0.17951 0.14742,0.17951 0,0z" fill="#fdfefd" opacity="0.016"/><path d="M286.61601,137.55503c0.04739,0.02113 0.09492,0.04232 0.14231,0.06345c-0.06883,0.08361 -0.11637,0.06242 -0.14231,-0.06345z" fill="#2caa7c" opacity="0.008"/><path d="M300.34112,143.50373c0.04739,0.02113 0.09492,0.04232 0.14231,0.06345c-0.03846,0.15208 -0.12825,0.22567 -0.2692,0.22117c0.04232,-0.09492 0.08457,-0.1897 0.12689,-0.28462z" fill="#edf9f4" opacity="0.004"/><path d="M275.31016,132.68495c-0.13724,0.0526 -0.13724,0.0526 0,0z" fill="#2caa7c" opacity="0.008"/><path d="M253.33114,123.05627c0.14742,0.17951 0.14742,0.17951 0,0z" fill="#fdfefd" opacity="0.016"/><path d="M286.34681,137.7762c0.14738,0.1795 0.14738,0.1795 0,0z" fill="#2caa7c" opacity="0.008"/><path d="M293.17764,140.8217c0.12068,0.12153 0.10218,0.22691 -0.05574,0.31635c-0.02834,-0.11397 -0.00979,-0.21949 0.05574,-0.31635z" fill="#fdfdfd" opacity="0.012"/><path d="M300.07192,143.7249c0.04739,0.02113 0.09492,0.04232 0.14231,0.06345c-0.03846,0.15208 -0.12824,0.22568 -0.2692,0.22118c0.04232,-0.09492 0.08457,-0.1897 0.12689,-0.28462z" fill="#edf9f4" opacity="0.004"/><path d="M246.43686,120.15307c0.12068,0.12153 0.10215,0.22689 -0.05574,0.31634c-0.02839,-0.114 -0.00979,-0.21949 0.05574,-0.31634z" fill="#fdfdfd" opacity="0.012"/><path d="M275.18327,132.96956c0.14738,0.1795 0.14738,0.1795 0,0z" fill="#2caa7c" opacity="0.008"/><path d="M253.06193,123.27744c0.14742,0.17951 0.14742,0.17951 0,0z" fill="#fdfefd" opacity="0.016"/><path d="M286.14105,137.85508c0.04739,0.02113 0.09492,0.04232 0.14231,0.06345c-0.03846,0.15208 -0.12825,0.22567 -0.2692,0.22117c0.04232,-0.09492 0.08457,-0.1897 0.12689,-0.28462z" fill="#74c4a1" opacity="0.008"/><path d="M299.80271,143.94607c0.04739,0.02113 0.09492,0.04232 0.14231,0.06345c-0.03846,0.15208 -0.12825,0.22566 -0.2692,0.22116c0.04232,-0.09492 0.08457,-0.1897 0.12689,-0.28462z" fill="#edf9f4" opacity="0.004"/><path d="M252.79273,123.49861c0.14742,0.17951 0.14742,0.17951 0,0z" fill="#fdfefd" opacity="0.016"/><path d="M275.41985,133.58683c-0.13724,0.0526 -0.13724,0.0526 0,0z" fill="#2caa7c" opacity="0.008"/><path d="M285.87185,138.07625c0.04739,0.02113 0.09492,0.04232 0.14231,0.06345c-0.03846,0.15208 -0.12825,0.22567 -0.2692,0.22117c0.04232,-0.09492 0.08457,-0.1897 0.12689,-0.28462z" fill="#aeddc8" opacity="0.004"/><path d="M299.53351,144.16724c0.04739,0.02113 0.09492,0.04232 0.14231,0.06345c-0.03846,0.15208 -0.12825,0.22567 -0.26921,0.22117c0.04232,-0.09492 0.08458,-0.1897 0.1269,-0.28462z" fill="#edf9f4" opacity="0.004"/><path d="M285.60264,138.29742c0.04739,0.02113 0.09492,0.04232 0.14231,0.06345c-0.06883,0.08361 -0.11637,0.06241 -0.14231,-0.06345z" fill="#2caa7c" opacity="0.008"/><path d="M252.52352,123.71978c0.14742,0.17951 0.14742,0.17951 0,0z" fill="#fdfefd" opacity="0.016"/><path d="M299.2643,144.38841c0.04739,0.02113 0.09492,0.04232 0.14231,0.06345c-0.03846,0.15208 -0.12825,0.22567 -0.2692,0.22117c0.04232,-0.09492 0.08458,-0.1897 0.1269,-0.28462z" fill="#edf9f4" opacity="0.004"/><path d="M285.33344,138.51858c0.14738,0.1795 0.14738,0.1795 0,0z" fill="#2caa7c" opacity="0.008"/><path d="M292.4643,142.03904c-0.10505,-0.17496 -0.06536,-0.32786 0.11919,-0.45865c0.00858,0.16556 -0.03124,0.3184 -0.11919,0.45865z" fill="#f7fcfa" opacity="0.016"/><path d="M298.9951,144.60958c0.04739,0.02113 0.09492,0.04232 0.14231,0.06345c-0.06883,0.08361 -0.11637,0.06242 -0.14231,-0.06345z" fill="#fcfdfc" opacity="0.008"/><path d="M245.72352,121.3704c-0.10512,-0.17499 -0.06538,-0.32786 0.11919,-0.45865c0.00856,0.16554 -0.03117,0.31842 -0.11919,0.45865z" fill="#f7fcfa" opacity="0.016"/><path d="M298.78934,144.68845c0.04739,0.02113 0.09492,0.04232 0.14231,0.06345c-0.06883,0.08361 -0.11637,0.06242 -0.14231,-0.06345z" fill="#e4f7ef" opacity="0.004"/><path d="M251.90625,123.95636c0.14742,0.17951 0.14742,0.17951 0,0z" fill="#e4f7ef" opacity="0.004"/><path d="M285.12768,138.59742c0.04739,0.02113 0.09492,0.04232 0.14231,0.06345c-0.03846,0.15208 -0.12824,0.22567 -0.2692,0.22117c0.04232,-0.09492 0.08457,-0.1897 0.12689,-0.28462z" fill="#74c4a1" opacity="0.008"/><path d="M298.58358,144.76732c0.04739,0.02113 0.09492,0.04232 0.14231,0.06345c-0.06883,0.08361 -0.11637,0.06242 -0.14231,-0.06345z" fill="#fcfdfc" opacity="0.008"/><path d="M251.49474,124.11406c0.02113,-0.04739 0.04232,-0.09492 0.06345,-0.14231c0.09488,0.0423 0.18974,0.0846 0.28462,0.1269c-0.1018,0.09758 -0.21787,0.10281 -0.34807,0.01541z" fill="#fdfdfd" opacity="0.012"/><path d="M292.11623,142.05444c0.12068,0.12153 0.10219,0.22691 -0.05574,0.31635c-0.02834,-0.11397 -0.00979,-0.21949 0.05574,-0.31635z" fill="#fdfdfd" opacity="0.012"/><path d="M298.02976,144.86157c0.02113,-0.04739 0.04232,-0.09492 0.06345,-0.14231c0.35841,0.2166 0.33722,0.26413 -0.06345,0.14231z" fill="#f5fbf9" opacity="0.016"/><path d="M245.37546,121.38582c0.12068,0.12153 0.10214,0.22688 -0.05575,0.31634c-0.02839,-0.114 -0.00978,-0.21948 0.05575,-0.31634z" fill="#fdfdfd" opacity="0.012"/><path d="M251.49474,124.11406c-0.12148,0.1207 -0.22693,0.10218 -0.31634,-0.05574c0.11403,-0.02832 0.2195,-0.00978 0.31634,0.05574z" fill="#edf9f4" opacity="0.004"/><path d="M275.54495,134.8368c-0.13724,0.0526 -0.13724,0.0526 0,0z" fill="#2caa7c" opacity="0.008"/><path d="M284.85848,138.81859c0.04739,0.02113 0.09492,0.04232 0.14231,0.06345c-0.03846,0.15208 -0.12825,0.22567 -0.26921,0.22117c0.04232,-0.09492 0.08458,-0.1897 0.1269,-0.28462z" fill="#aeddc8" opacity="0.004"/><path d="M297.68169,144.87698c0.02113,-0.04739 0.04232,-0.09492 0.06345,-0.14231c0.09492,0.04232 0.1897,0.08458 0.28462,0.1269c-0.10184,0.09755 -0.21781,0.10283 -0.34807,0.01541z" fill="#fdfdfd" opacity="0.012"/><path d="M250.6563,124.08146c0.02113,-0.04739 0.04232,-0.09492 0.06345,-0.14231c0.35836,0.21658 0.33718,0.26412 -0.06345,0.14231z" fill="#fdfdfd" opacity="0.012"/><path d="M284.58927,139.03976c0.04739,0.02113 0.09492,0.04232 0.14231,0.06345c-0.06883,0.08361 -0.11637,0.06241 -0.14231,-0.06345z" fill="#2caa7c" opacity="0.008"/><path d="M297.19131,144.82895c0.02113,-0.04739 0.04232,-0.09492 0.06345,-0.14231c0.14231,0.06345 0.28461,0.12689 0.42692,0.19034c-0.15825,0.08366 -0.32169,0.06761 -0.49038,-0.04803z" fill="#f1faf6" opacity="0.016"/><path d="M250.6563,124.08146c-0.12148,0.1207 -0.22693,0.10218 -0.31634,-0.05574c0.11403,-0.02832 0.2195,-0.00978 0.31634,0.05574z" fill="#edf9f4" opacity="0.004"/><path d="M275.41805,135.1214c0.14738,0.1795 0.14738,0.1795 0,0z" fill="#2caa7c" opacity="0.008"/><path d="M296.84325,144.84437c0.02113,-0.04739 0.04232,-0.09492 0.06345,-0.14231c0.09492,0.04232 0.18969,0.08458 0.28461,0.12689c-0.10184,0.09755 -0.21781,0.10284 -0.34806,0.01542z" fill="#fdfdfd" opacity="0.012"/><path d="M249.81786,124.04884c0.02113,-0.04739 0.04232,-0.09492 0.06345,-0.14231c0.35836,0.21658 0.33718,0.26412 -0.06345,0.14231z" fill="#fcfdfc" opacity="0.008"/><path d="M284.32007,139.26093c0.14738,0.1795 0.14738,0.1795 0,0z" fill="#2caa7c" opacity="0.008"/><path d="M296.84325,144.84437c-0.12153,0.12068 -0.22691,0.10218 -0.31634,-0.05575c0.11397,-0.02834 0.21949,-0.00978 0.31634,0.05575z" fill="#edf9f4" opacity="0.004"/><path d="M249.53324,123.92192c0.09488,0.0423 0.18974,0.0846 0.28462,0.1269c-0.17945,0.1474 -0.27432,0.1051 -0.28462,-0.1269z" fill="#edf9f4" opacity="0.004"/><path d="M284.11431,139.3398c0.04739,0.02113 0.09492,0.04232 0.14231,0.06345c-0.03846,0.15208 -0.12825,0.22567 -0.2692,0.22117c0.04232,-0.09492 0.08457,-0.1897 0.12689,-0.28462z" fill="#2caa7c" opacity="0.008"/><path d="M296.00481,144.81174c0.02113,-0.04739 0.04231,-0.09491 0.06345,-0.1423c0.35841,0.2166 0.33722,0.26413 -0.06345,0.1423z" fill="#fdfdfd" opacity="0.012"/><path d="M248.97942,124.0162c0.02113,-0.04739 0.04232,-0.09492 0.06345,-0.14231c0.35836,0.21658 0.33718,0.26412 -0.06345,0.14231z" fill="#fcfdfc" opacity="0.008"/><path d="M275.65463,135.73868c-0.13724,0.0526 -0.13724,0.0526 0,0z" fill="#2caa7c" opacity="0.008"/><path d="M296.00481,144.81174c-0.12153,0.12068 -0.22691,0.10219 -0.31634,-0.05574c0.11397,-0.02834 0.21949,-0.00979 0.31634,0.05574z" fill="#edf9f4" opacity="0.004"/><path d="M248.6948,123.88931c0.09488,0.0423 0.18974,0.08459 0.28462,0.12689c-0.17945,0.1474 -0.27432,0.10511 -0.28462,-0.12689z" fill="#edf9f4" opacity="0.004"/><path d="M283.8451,139.56097c0.04739,0.02113 0.09492,0.04232 0.14231,0.06345c-0.06883,0.08361 -0.11637,0.06242 -0.14231,-0.06345z" fill="#2caa7c" opacity="0.008"/><path d="M291.40289,143.2718c-0.10505,-0.17496 -0.06537,-0.32786 0.11918,-0.45865c0.00858,0.16556 -0.03123,0.3184 -0.11918,0.45865z" fill="#f7fcfa" opacity="0.016"/><path d="M295.16637,144.77914c0.02113,-0.04739 0.04231,-0.09492 0.06345,-0.14231c0.35841,0.2166 0.33722,0.26414 -0.06345,0.14231z" fill="#fdfdfd" opacity="0.012"/><path d="M244.71015,122.11278c0.08366,0.15825 0.06765,0.3217 -0.04803,0.49037c-0.04744,-0.02115 -0.09488,-0.04229 -0.14231,-0.06345c0.06345,-0.14231 0.1269,-0.28462 0.19035,-0.42692z" fill="#f7fcfa" opacity="0.016"/><path d="M248.14098,123.98359c0.02113,-0.04739 0.04232,-0.09492 0.06345,-0.14231c0.35836,0.21658 0.33718,0.26412 -0.06345,0.14231z" fill="#f5fbf8" opacity="0.008"/><path d="M275.67005,136.08674c-0.13724,0.0526 -0.13724,0.0526 0,0z" fill="#2caa7c" opacity="0.008"/><path d="M294.88175,144.65222c0.09492,0.04232 0.1897,0.08458 0.28462,0.1269c-0.17949,0.14738 -0.27427,0.10512 -0.28462,-0.1269z" fill="#edf9f4" opacity="0.004"/><path d="M247.79291,123.999c0.02113,-0.04739 0.04232,-0.09492 0.06345,-0.14231c0.09488,0.0423 0.18974,0.0846 0.28462,0.1269c-0.1018,0.09758 -0.21786,0.10281 -0.34806,0.01542z" fill="#fdfdfd" opacity="0.012"/><path d="M283.5759,139.78214c0.14738,0.1795 0.14738,0.1795 0,0z" fill="#2caa7c" opacity="0.008"/><path d="M294.32793,144.7465c0.02113,-0.04739 0.04231,-0.09492 0.06345,-0.14231c0.35841,0.2166 0.33722,0.26413 -0.06345,0.14231z" fill="#fdfdfd" opacity="0.012"/><path d="M247.30253,123.95097c0.02113,-0.04739 0.04232,-0.09492 0.06345,-0.14231c0.14231,0.06345 0.28462,0.1269 0.42693,0.19035c-0.15825,0.08366 -0.3217,0.06761 -0.49038,-0.04803z" fill="#f1faf6" opacity="0.016"/><path d="M275.62201,136.57713c-0.01034,-0.23202 -0.01034,-0.23202 0,0z" fill="#2caa7c" opacity="0.008"/><path d="M294.04331,144.6196c0.09492,0.04232 0.1897,0.08458 0.28462,0.1269c-0.17949,0.14738 -0.27427,0.10512 -0.28462,-0.1269z" fill="#fdfdfd" opacity="0.012"/><path d="M246.95447,123.96638c0.02113,-0.04739 0.04232,-0.09492 0.06345,-0.1423c0.09488,0.0423 0.18974,0.0846 0.28462,0.1269c-0.1018,0.09758 -0.21786,0.1028 -0.34806,0.01541z" fill="#fdfdfd" opacity="0.012"/><path d="M283.30669,140.00331c0.14738,0.1795 0.14738,0.1795 0,0z" fill="#2caa7c" opacity="0.008"/><path d="M293.48949,144.71388c0.02113,-0.04739 0.04232,-0.09492 0.06345,-0.14231c0.35841,0.2166 0.33722,0.26414 -0.06345,0.14231z" fill="#f5fbf9" opacity="0.016"/><path d="M246.95447,123.96638c-0.12148,0.1207 -0.22693,0.10218 -0.31634,-0.05574c0.11403,-0.02832 0.2195,-0.00978 0.31634,0.05574z" fill="#edf9f4" opacity="0.004"/><path d="M275.62201,136.57713c0.04739,0.02113 0.09492,0.04232 0.14231,0.06345c-0.04232,0.09492 -0.08458,0.1897 -0.1269,0.28462c-0.09755,-0.10184 -0.10283,-0.21781 -0.01541,-0.34806z" fill="#aeddc8" opacity="0.004"/><path d="M283.10094,140.08217c0.04739,0.02113 0.09492,0.04232 0.14231,0.06345c-0.03846,0.15208 -0.12825,0.22567 -0.26921,0.22117c0.04232,-0.09492 0.08458,-0.1897 0.1269,-0.28462z" fill="#2caa7c" opacity="0.008"/><path d="M293.14142,144.72929c0.02113,-0.04739 0.04232,-0.09492 0.06345,-0.14231c0.09492,0.04232 0.18969,0.08458 0.28461,0.12689c-0.10184,0.09755 -0.21781,0.10283 -0.34807,0.01541z" fill="#fdfdfd" opacity="0.012"/><path d="M246.11603,123.93374c0.02113,-0.04739 0.04232,-0.09492 0.06345,-0.14231c0.35836,0.21658 0.33718,0.26412 -0.06345,0.14231z" fill="#fdfdfd" opacity="0.012"/><path d="M275.63742,136.92519c0.04739,0.02113 0.09492,0.04232 0.14231,0.06345c-0.06883,0.08361 -0.11637,0.06241 -0.14231,-0.06345z" fill="#2caa7c" opacity="0.008"/><path d="M292.65105,144.68128c0.02113,-0.04739 0.04232,-0.09492 0.06345,-0.14231c0.14231,0.06345 0.28461,0.12689 0.42692,0.19034c-0.15825,0.08366 -0.32169,0.06761 -0.49037,-0.04803z" fill="#f1faf6" opacity="0.016"/><path d="M246.11603,123.93374c-0.12148,0.1207 -0.22693,0.10218 -0.31634,-0.05574c0.11403,-0.02832 0.2195,-0.00978 0.31634,0.05574z" fill="#edf9f4" opacity="0.004"/><path d="M282.83173,140.30334c0.04739,0.02113 0.09492,0.04232 0.14231,0.06345c-0.06883,0.08361 -0.11637,0.06242 -0.14231,-0.06345z" fill="#2caa7c" opacity="0.008"/><path d="M290.67413,144.14107c-0.10505,-0.17496 -0.06537,-0.32786 0.11919,-0.45865c0.00858,0.16556 -0.03124,0.31839 -0.11919,0.45865z" fill="#f7fbfa" opacity="0.012"/><path d="M292.30298,144.69668c0.02113,-0.04739 0.04231,-0.09492 0.06345,-0.14231c0.09492,0.04232 0.1897,0.08458 0.28462,0.1269c-0.10184,0.09755 -0.21781,0.10283 -0.34807,0.01541z" fill="#fdfdfd" opacity="0.012"/><path d="M245.27759,123.90113c0.02113,-0.04739 0.04232,-0.09492 0.06345,-0.14231c0.35836,0.21658 0.33717,0.26412 -0.06345,0.14231z" fill="#fdfefd" opacity="0.016"/><path d="M292.30298,144.69668c-0.12153,0.12068 -0.2269,0.10219 -0.31634,-0.05574c0.11397,-0.02834 0.21948,-0.00979 0.31634,0.05574z" fill="#edf9f4" opacity="0.004"/><path d="M244.99297,123.77424c0.09487,0.0423 0.18975,0.0846 0.28462,0.1269c-0.17945,0.1474 -0.27432,0.1051 -0.28462,-0.1269z" fill="#edf9f4" opacity="0.004"/><path d="M282.56253,140.52451c0.14738,0.1795 0.14738,0.1795 0,0z" fill="#2caa7c" opacity="0.008"/><path d="M291.46454,144.66404c0.02113,-0.04739 0.04231,-0.09491 0.06345,-0.1423c0.35841,0.2166 0.33722,0.26413 -0.06345,0.1423z" fill="#fdfdfd" opacity="0.012"/><path d="M244.43915,123.86852c0.02113,-0.04739 0.04232,-0.09492 0.06345,-0.14231c0.35836,0.21658 0.33717,0.26411 -0.06345,0.14231z" fill="#fdfdfd" opacity="0.012"/><path d="M275.87401,137.54244c-0.04232,0.09492 -0.08457,0.1897 -0.12689,0.28462c-0.14738,-0.1795 -0.10512,-0.27428 0.12689,-0.28462z" fill="#74c4a1" opacity="0.008"/><path d="M282.35677,140.60338c0.04739,0.02113 0.09492,0.04232 0.14231,0.06345c-0.03846,0.15208 -0.12825,0.22567 -0.26921,0.22117c0.04232,-0.09492 0.08458,-0.1897 0.1269,-0.28462z" fill="#2caa7c" opacity="0.008"/><path d="M291.46454,144.66404c-0.12153,0.12068 -0.22691,0.10219 -0.31635,-0.05574c0.11397,-0.02834 0.21949,-0.00979 0.31635,0.05574z" fill="#edf9f4" opacity="0.004"/><path d="M244.15453,123.74162c0.09487,0.0423 0.18975,0.08459 0.28462,0.12689c-0.17945,0.1474 -0.27432,0.1051 -0.28462,-0.12689z" fill="#fdfdfd" opacity="0.012"/><path d="M290.68955,144.48913c0.11347,0.02824 0.1978,0.09433 0.25289,0.19805c-0.17725,0.03903 -0.26143,-0.02699 -0.25289,-0.19805z" fill="#f5fbf9" opacity="0.016"/><path d="M275.74711,137.82707c0.04739,0.02113 0.09492,0.04232 0.14231,0.06345c-0.04232,0.09492 -0.08458,0.1897 -0.1269,0.28462c-0.09755,-0.10184 -0.10283,-0.21781 -0.01541,-0.34806z" fill="#aeddc8" opacity="0.004"/><path d="M279.85506,142.38814c-0.02113,0.04739 -0.04231,0.09492 -0.06345,0.14231c-0.2301,-0.0219 -0.38847,0.07809 -0.47496,0.30003c-0.14096,-0.0045 -0.23074,0.06909 -0.2692,0.22117c-0.14096,-0.0045 -0.23074,0.06909 -0.2692,0.22117c-0.09492,-0.04232 -0.16343,-0.01606 -0.20576,0.07886c-0.14096,-0.0045 -0.23074,0.06909 -0.2692,0.22117c-0.14096,-0.0045 -0.23074,0.06909 -0.2692,0.22117c-0.2301,-0.0219 -0.38847,0.07809 -0.47496,0.30003c-0.14096,-0.0045 -0.23074,0.06908 -0.2692,0.22116c-0.09492,-0.04232 -0.16343,-0.01605 -0.20575,0.07887c-0.1897,-0.08458 -0.37954,-0.16922 -0.56924,-0.25379c0.08742,-0.13026 0.08214,-0.24623 -0.01541,-0.34807c0.0359,-0.31393 -0.00064,-0.6146 -0.10969,-0.90189c0.08742,-0.13026 0.08214,-0.24622 -0.01542,-0.34806c0.08742,-0.13026 0.08215,-0.24623 -0.01541,-0.34807c0.01529,-0.1996 -0.01618,-0.38423 -0.09427,-0.55382c0.08742,-0.13026 0.08214,-0.24623 -0.01541,-0.34807c0.10728,-0.21267 0.0758,-0.3973 -0.09427,-0.55382c0.08742,-0.13026 0.08214,-0.24623 -0.01542,-0.34807c0.08742,-0.13026 0.08215,-0.24623 -0.01541,-0.34807c0.10728,-0.21267 0.0758,-0.3973 -0.09428,-0.55382c0.08742,-0.13026 0.08214,-0.24623 -0.01541,-0.34807c0.08742,-0.13026 0.08214,-0.24623 -0.01541,-0.34807c0.01529,-0.1996 -0.01618,-0.38423 -0.09427,-0.55382c0.08742,-0.13026 0.08214,-0.24623 -0.01541,-0.34807c0.08742,-0.13026 0.08214,-0.24623 -0.01541,-0.34807c0.02113,-0.04739 0.04232,-0.09491 0.06345,-0.1423c0.12927,-0.01368 0.24267,-0.07673 0.34035,-0.18945c1.13949,1.77029 2.33191,3.4961 3.57725,5.17745z" fill="#2fd794" opacity="0.769"/><path d="M282.08757,140.82455c0.04739,0.02113 0.09492,0.04232 0.14231,0.06345c-0.03846,0.15208 -0.12825,0.22567 -0.2692,0.22117c0.04232,-0.09492 0.08458,-0.1897 0.1269,-0.28462z" fill="#2caa7c" opacity="0.008"/><path d="M275.76252,138.17513c0.04739,0.02113 0.09492,0.04232 0.14231,0.06345c-0.06883,0.08361 -0.11637,0.06241 -0.14231,-0.06345z" fill="#2caa7c" opacity="0.008"/><path d="M281.81836,141.04572c0.04739,0.02113 0.09492,0.04231 0.14231,0.06344c-0.06883,0.08361 -0.11637,0.06242 -0.14231,-0.06344z" fill="#2caa7c" opacity="0.008"/><path d="M281.54916,141.26688c0.14738,0.1795 0.14738,0.1795 0,0z" fill="#2caa7c" opacity="0.008"/><path d="M275.99911,138.7924c-0.04232,0.09492 -0.08458,0.1897 -0.1269,0.28462c-0.14738,-0.1795 -0.10512,-0.27428 0.1269,-0.28462z" fill="#74c4a1" opacity="0.008"/><path d="M281.3434,141.34573c0.04739,0.02113 0.09492,0.04232 0.14231,0.06345c-0.03846,0.15208 -0.12825,0.22567 -0.2692,0.22117c0.04232,-0.09492 0.08457,-0.1897 0.12689,-0.28462z" fill="#2caa7c" opacity="0.008"/><path d="M275.87221,139.07704c0.04739,0.02113 0.09492,0.04232 0.14231,0.06345c-0.04232,0.09492 -0.08457,0.1897 -0.12689,0.28462c-0.09755,-0.10184 -0.10284,-0.21781 -0.01542,-0.34806z" fill="#aeddc8" opacity="0.004"/><path d="M281.07419,141.56693c0.04739,0.02113 0.09492,0.04232 0.14231,0.06345c-0.03846,0.15208 -0.12825,0.22567 -0.2692,0.22117c0.04232,-0.09492 0.08457,-0.1897 0.12689,-0.28462z" fill="#2caa7c" opacity="0.008"/><path d="M275.88762,139.4251c0.04739,0.02113 0.09492,0.04232 0.14231,0.06345c-0.06883,0.08361 -0.11637,0.06241 -0.14231,-0.06345z" fill="#2caa7c" opacity="0.008"/><path d="M280.80499,141.7881c0.04739,0.02113 0.09492,0.04232 0.14231,0.06345c-0.06883,0.08361 -0.11637,0.06241 -0.14231,-0.06345z" fill="#2caa7c" opacity="0.008"/><path d="M275.9819,139.97892c-0.01034,-0.23202 -0.01034,-0.23202 0,0z" fill="#2caa7c" opacity="0.008"/><path d="M280.53578,142.00927c0.14738,0.1795 0.14738,0.1795 0,0z" fill="#2caa7c" opacity="0.008"/><path d="M275.9819,139.97892c0.04739,0.02113 0.09492,0.04231 0.14231,0.06344c-0.04232,0.09492 -0.08457,0.1897 -0.12689,0.28462c-0.09755,-0.10184 -0.10284,-0.21781 -0.01542,-0.34806z" fill="#aeddc8" opacity="0.004"/><path d="M280.33002,142.08811c0.04739,0.02113 0.09492,0.04232 0.14231,0.06345c-0.03846,0.15208 -0.12825,0.22567 -0.2692,0.22117c0.04232,-0.09492 0.08457,-0.1897 0.12689,-0.28462z" fill="#2caa7c" opacity="0.008"/><path d="M275.99731,140.32698c0.04739,0.02113 0.09491,0.04232 0.1423,0.06345c-0.06883,0.08361 -0.11636,0.06242 -0.1423,-0.06345z" fill="#2caa7c" opacity="0.008"/><path d="M280.06082,142.30928c0.04739,0.02113 0.09492,0.04232 0.14231,0.06345c-0.06883,0.08361 -0.11637,0.06242 -0.14231,-0.06345z" fill="#2caa7c" opacity="0.008"/><path d="M276.15503,140.7385c-0.13724,0.0526 -0.13724,0.0526 0,0z" fill="#2caa7c" opacity="0.008"/><path d="M279.79161,142.53045c0.14738,0.1795 0.14738,0.1795 0,0z" fill="#2caa7c" opacity="0.008"/><path d="M276.107,141.22886c-0.01034,-0.23202 -0.01034,-0.23202 0,0z" fill="#2caa7c" opacity="0.008"/><path d="M279.52241,142.75161c0.14738,0.1795 0.14738,0.1795 0,0z" fill="#2caa7c" opacity="0.008"/><path d="M276.107,141.22886c0.04739,0.02113 0.09492,0.04232 0.14231,0.06345c-0.04232,0.09492 -0.08458,0.1897 -0.1269,0.28462c-0.09755,-0.10184 -0.10283,-0.21782 -0.01541,-0.34807z" fill="#aeddc8" opacity="0.004"/><path d="M276.12241,141.57695c0.04739,0.02113 0.09492,0.04232 0.14231,0.06345c-0.06883,0.08361 -0.11637,0.06242 -0.14231,-0.06345z" fill="#2caa7c" opacity="0.008"/><path d="M279.31665,142.83048c0.04739,0.02113 0.09492,0.04232 0.14231,0.06345c-0.03846,0.15208 -0.12825,0.22567 -0.2692,0.22117c0.04232,-0.09492 0.08457,-0.1897 0.12689,-0.28462z" fill="#aeddc8" opacity="0.004"/><path d="M279.04745,143.05165c0.04739,0.02113 0.09492,0.04232 0.14231,0.06345c-0.06883,0.08361 -0.11637,0.06242 -0.14231,-0.06345z" fill="#2caa7c" opacity="0.008"/><path d="M278.77824,143.27282c0.14738,0.1795 0.14738,0.1795 0,0z" fill="#2caa7c" opacity="0.008"/><path d="M276.35899,142.1942c-0.04232,0.09492 -0.08457,0.1897 -0.12689,0.28462c-0.14738,-0.1795 -0.10512,-0.27428 0.12689,-0.28462z" fill="#74c4a1" opacity="0.008"/><path d="M278.57248,143.35168c0.04739,0.02113 0.09492,0.04232 0.14231,0.06345c-0.03846,0.15208 -0.12825,0.22566 -0.2692,0.22116c0.04232,-0.09492 0.08457,-0.1897 0.12689,-0.28462z" fill="#74c4a1" opacity="0.008"/><path d="M276.2321,142.47883c0.04739,0.02113 0.09491,0.04232 0.1423,0.06345c-0.04232,0.09492 -0.08457,0.1897 -0.12689,0.28462c-0.09755,-0.10184 -0.10283,-0.21781 -0.01541,-0.34806z" fill="#aeddc8" opacity="0.004"/><path d="M276.24751,142.82689c0.04739,0.02113 0.09492,0.04232 0.14231,0.06345c-0.06883,0.08361 -0.11637,0.06242 -0.14231,-0.06345z" fill="#2caa7c" opacity="0.008"/><path d="M278.30328,143.57285c0.04739,0.02113 0.09492,0.04232 0.14231,0.06345c-0.03846,0.15208 -0.12825,0.22567 -0.2692,0.22117c0.04232,-0.09492 0.08457,-0.1897 0.12689,-0.28462z" fill="#aeddc8" opacity="0.004"/><path d="M278.03407,143.79402c0.04739,0.02113 0.09492,0.04232 0.14231,0.06345c-0.06883,0.08361 -0.11637,0.06242 -0.14231,-0.06345z" fill="#2caa7c" opacity="0.008"/><path d="M277.76487,144.01519c0.14738,0.1795 0.14738,0.1795 0,0z" fill="#2caa7c" opacity="0.008"/><path d="M277.55911,144.09407c0.04739,0.02113 0.09492,0.04232 0.14231,0.06345c-0.03846,0.15208 -0.12825,0.22567 -0.2692,0.22117c0.04232,-0.09492 0.08457,-0.1897 0.12689,-0.28462z" fill="#e4f7ef" opacity="0.004"/><path d="M276.4995,143.79222c-0.13724,0.0526 -0.13724,0.0526 0,0z" fill="#2caa7c" opacity="0.008"/><path d="M277.2899,144.31524c0.04739,0.02113 0.09492,0.04232 0.14231,0.06345c-0.02113,0.04739 -0.04231,0.09492 -0.06345,0.14231c-0.02626,-0.06851 -0.05261,-0.13725 -0.07887,-0.20576z" fill="#2caa7c" opacity="0.008"/></g></g></g></svg>