<svg version="1.1" xmlns="http://www.w3.org/2000/svg" xmlns:xlink="http://www.w3.org/1999/xlink" width="777.77778" height="540.54054" viewBox="0,0,777.77778,540.54054"><defs><radialGradient cx="163.10465" cy="110.50034" r="15.92489" gradientUnits="userSpaceOnUse" id="color-1"><stop offset="0" stop-color="#d45858"/><stop offset="1" stop-color="#753232"/></radialGradient><linearGradient x1="237.21953" y1="-93.132" x2="237.21953" y2="447.40854" gradientUnits="userSpaceOnUse" id="color-2"><stop offset="0" stop-color="#10e4b6" stop-opacity="0.16798"/><stop offset="1" stop-color="#10e4b6" stop-opacity="0"/></linearGradient></defs><g transform="translate(151.66941,93.132)"><g data-paper-data="{&quot;isPaintingLayer&quot;:true}" fill-rule="nonzero" stroke-linejoin="miter" stroke-miterlimit="10" stroke-dasharray="" stroke-dashoffset="0" style="mix-blend-mode: normal"><g data-paper-data="{&quot;origPos&quot;:null}" stroke="#000000" stroke-width="0" stroke-linecap="butt"><path d="M121.5,215.50005l-36.66666,-28.33333l65.66666,-33.16667l36.33334,16.83333z" data-paper-data="{&quot;origPos&quot;:null}" fill="#7a3030"/><path d="M151,154l15,-123l40,14l-20,126.83334z" data-paper-data="{&quot;origPos&quot;:null}" fill="#bd5252"/><path d="M95.5,59.00002l71,-29l-15,124l-66,33z" data-paper-data="{&quot;origPos&quot;:null}" fill="#993434"/></g><g data-paper-data="{&quot;origPos&quot;:null}" stroke-width="0" stroke-linecap="butt"><path d="M147.81951,171.81783l27.94712,-16.98389l-2.6279,11.24956l-25.69607,17.27468z" data-paper-data="{&quot;origPos&quot;:null}" fill="#ad3b3b" stroke="#3e1f1f"/><path d="M137,178.64771l0.34724,-11.33417l10.82369,4.33219l-0.58614,11.67842z" data-paper-data="{&quot;origPos&quot;:null}" fill="#e26161" stroke="#000000"/><path d="M148.38829,171.2077l-10.6135,-4.36811l25.93786,-14.58958l10.62069,3.09867z" data-paper-data="{&quot;origPos&quot;:null}" fill="#8a3737" stroke="#000000"/></g><g data-paper-data="{&quot;origPos&quot;:null}"><g data-paper-data="{&quot;origPos&quot;:null}" fill="none" stroke="#520000" stroke-width="2" stroke-linecap="round"><path d="M153.5,140.0934c0,0 4.75381,15.40004 -10.37207,14.20047c-11.18259,-0.88685 -14.62793,-18.20047 -14.62793,-18.20047" data-paper-data="{&quot;origPos&quot;:null}"/><path d="M156.5,138.5934c0,0 5.88708,12.53937 -2.50586,19.92515c-6.24192,5.49289 -41.99414,-8.42515 -41.99414,-8.42515" data-paper-data="{&quot;origPos&quot;:null}"/><path d="M167.5,135.0934c0,0 1.72128,5.87288 4.10309,11.23196c1.52082,3.42184 -1.10309,1.26804 -1.10309,1.26804" data-paper-data="{&quot;origPos&quot;:null}"/><path d="M160,137.5934c0,0 10.27872,17.87288 7.89691,23.23196c-1.52082,3.42184 -8.89691,8.26804 -8.89691,8.26804" data-paper-data="{&quot;origPos&quot;:null,&quot;index&quot;:null}"/><path d="M163.5,136.0934c0,0 7.56513,14.93393 8.24686,20.97213c0.68419,6.05995 -7.24686,11.02787 -7.24686,11.02787" data-paper-data="{&quot;origPos&quot;:null}"/></g><g data-paper-data="{&quot;origPos&quot;:null}" fill="none" stroke="#520000" stroke-width="5" stroke-linecap="round"><path d="M112,135.06667l28,-11" data-paper-data="{&quot;origPos&quot;:null}"/><path d="M110.2,144.66669l28,-11" data-paper-data="{&quot;origPos&quot;:null}"/><path d="M112,125.46667l28,-11" data-paper-data="{&quot;origPos&quot;:null}"/></g><g data-paper-data="{&quot;origPos&quot;:null}" fill="none" stroke="#520000" stroke-width="5" stroke-linecap="round"><path d="M158,90.66669v-39" data-paper-data="{&quot;origPos&quot;:null}"/><path d="M150,92.66671v-38" data-paper-data="{&quot;origPos&quot;:null}"/><path d="M165,55.66668v33" data-paper-data="{&quot;origPos&quot;:null}"/><path d="M167,79.66666l10,-5" data-paper-data="{&quot;origPos&quot;:null}"/></g><g data-paper-data="{&quot;origPos&quot;:null}" stroke-width="0" stroke-linecap="butt"><path d="M149.31951,100.2891l31.94712,-11.71363l-10.1279,47.91027l-27.69607,14.37244z" data-paper-data="{&quot;origPos&quot;:null}" fill="#882e2e" stroke="#3e1f1f"/><path d="M151,143.5934l1.5,-7l18,-7l-0.5,6.5z" data-paper-data="{&quot;origPos&quot;:null}" fill="#af4848" stroke="#520000"/><path d="M127.5,141.74504l4.34724,-48.19477l17.82369,6.16023l-6.08614,51.03331z" data-paper-data="{&quot;origPos&quot;:null}" fill="#753232" stroke="#000000"/><path d="M149.88829,99.91893l-18.1135,-6.28102l30.93786,-10.38785l18.62069,5.3751z" data-paper-data="{&quot;origPos&quot;:null}" fill="#562222" stroke="#000000"/><path d="M152.76578,103.09534l23.50086,-8.51987l-4.95026,25.07699l-21.37371,6.7728z" data-paper-data="{&quot;origPos&quot;:null}" fill="url(#color-1)" stroke="#3e1f1f"/></g></g><path d="M-151.66941,447.40854v-540.54054h777.77778v540.54054z" fill="url(#color-2)" stroke="none" stroke-width="0" stroke-linecap="butt"/></g></g></svg>