<svg version="1.1" xmlns="http://www.w3.org/2000/svg" xmlns:xlink="http://www.w3.org/1999/xlink" width="162.16216" height="71.02705" viewBox="0,0,162.16216,71.02705"><g transform="translate(-184.19519,-119.04952)"><g data-paper-data="{&quot;isPaintingLayer&quot;:true}" fill-rule="evenodd" stroke="none" stroke-width="1" stroke-linecap="butt" stroke-linejoin="miter" stroke-miterlimit="10" stroke-dasharray="" stroke-dashoffset="0" style="mix-blend-mode: normal"><path d="M222.46547,119.04955c0.108,0 0.21632,0 0.32432,0c-0.06,0.21734 -0.16832,0.21734 -0.32432,0z" fill="#2caa7c" opacity="0.008"/><path d="M272.73573,119.37387c0,-0.10811 0,-0.21622 0,-0.32432c10.8107,0 21.62173,0 32.43243,0c0,0.32432 0,0.64865 0,0.97297c-0.27178,0.11082 -0.38011,0.32704 -0.32432,0.64865c-0.27178,0.11082 -0.38011,0.32704 -0.32432,0.64865c-0.456,0.15342 -0.67232,0.47775 -0.64865,0.97297c-0.27178,0.11082 -0.38011,0.32705 -0.32432,0.64865c-0.27178,0.11082 -0.38011,0.32705 -0.32432,0.64865c-0.21632,0 -0.32432,0.1081 -0.32432,0.32432c-0.27178,0.11082 -0.38011,0.32705 -0.32432,0.64865c-0.27178,0.11082 -0.38011,0.32705 -0.32432,0.64865c-0.32432,0.1081 -0.54065,0.32432 -0.64865,0.64865c-3.68205,-0.10774 -7.35762,0.00039 -11.02703,0.32432c0.04022,0.19677 0.14822,0.30486 0.32432,0.32432c0.67459,0.67239 1.21492,1.42917 1.62162,2.27027c0.24065,0.62458 0.56497,1.21917 0.97297,1.78378c-6.53027,-3.2676 -12.90843,-6.8892 -19.13514,-10.86486c-0.50951,-0.2625 -1.05016,-0.37061 -1.62162,-0.32432z" fill="#090a09" opacity="0.766"/><path d="M223.11411,119.04955c3.24324,0 6.48649,0 9.72973,0c-0.02497,0.40533 -0.2413,0.6756 -0.64865,0.81081c0.108,0.10811 0.21632,0.21622 0.32432,0.32432c-0.43232,0.32432 -0.86497,0.64865 -1.2973,0.97297c0.108,0.10811 0.21632,0.21622 0.32432,0.32432c-0.43232,0.32432 -0.86497,0.64865 -1.2973,0.97297c0.108,0.1081 0.21632,0.21623 0.32432,0.32432c-0.43232,0.32432 -0.86497,0.64865 -1.2973,0.97297c0.108,0.1081 0.21632,0.21623 0.32432,0.32432c-0.43232,0.32432 -0.86497,0.64865 -1.2973,0.97297c0.108,0.1081 0.21632,0.21623 0.32432,0.32432c-0.43232,0.32432 -0.86497,0.64865 -1.2973,0.97297c0.43232,0.21623 0.86497,0.43242 1.2973,0.64865c-0.07395,0.12934 -0.18227,0.18337 -0.32432,0.16216c-0.47319,0.02186 -0.90551,-0.08624 -1.2973,-0.32432c0,-0.21623 -0.108,-0.32432 -0.32432,-0.32432c0.05578,-0.3216 -0.05254,-0.53783 -0.32432,-0.64865c0.02368,-0.49521 -0.19265,-0.81954 -0.64865,-0.97297c0.05578,-0.3216 -0.05254,-0.53783 -0.32432,-0.64865c0.05578,-0.3216 -0.05254,-0.53783 -0.32432,-0.64865c-0.14011,-0.39227 -0.35643,-0.71659 -0.64865,-0.97297c0.05578,-0.32161 -0.05254,-0.53782 -0.32432,-0.64865c0.02368,-0.49522 -0.19265,-0.81955 -0.64865,-0.97297c0.05578,-0.32161 -0.05254,-0.53782 -0.32432,-0.64865c0,-0.43243 0,-0.86486 0,-1.2973z" fill="#209ca6" opacity="0.773"/><path d="M232.84384,119.04955c3.67557,0 7.35146,0 11.02703,0c-0.35968,0.25621 -0.792,0.41837 -1.2973,0.48649c0.54422,0.71148 0.86854,1.52229 0.97297,2.43243c-0.54065,-0.43243 -1.08097,-0.86487 -1.62162,-1.2973c-0.07168,-0.84234 -0.23384,-0.84234 -0.48649,0c-0.54065,-0.10811 -1.08097,-0.21622 -1.62162,-0.32432c-1.21459,0.25847 -2.45805,0.42064 -3.72973,0.48649c-1.91935,2.47904 -3.64897,4.91147 -5.18919,7.2973c-0.93957,-0.204 -1.80454,-0.52832 -2.59459,-0.97297c0.14205,0.02121 0.25038,-0.03282 0.32432,-0.16216c-0.43232,-0.21623 -0.86497,-0.43242 -1.2973,-0.64865c0.43232,-0.32432 0.86497,-0.64865 1.2973,-0.97297c-0.108,-0.1081 -0.21632,-0.21623 -0.32432,-0.32432c0.43232,-0.32432 0.86497,-0.64865 1.2973,-0.97297c-0.108,-0.1081 -0.21632,-0.21623 -0.32432,-0.32432c0.43232,-0.32432 0.86497,-0.64865 1.2973,-0.97297c-0.108,-0.1081 -0.21632,-0.21623 -0.32432,-0.32432c0.43232,-0.32432 0.86497,-0.64865 1.2973,-0.97297c-0.108,-0.10811 -0.21632,-0.21622 -0.32432,-0.32432c0.43232,-0.32432 0.86497,-0.64865 1.2973,-0.97297c-0.108,-0.10811 -0.21632,-0.21622 -0.32432,-0.32432c0.40735,-0.13521 0.62368,-0.40549 0.64865,-0.81081z" fill="#24b1b1" opacity="0.769"/><path d="M243.87087,119.04955c1.94595,0 3.89189,0 5.83784,0c-0.39503,0.21452 -0.82735,0.43074 -1.2973,0.64865c0.22151,0.96045 0.49168,1.06856 0.81081,0.32432c0.36097,0.40876 0.41514,0.78714 0.16216,1.13514c0.86497,0.21622 0.86497,0.43243 0,0.64865c0.76638,0.19088 1.0907,0.67735 0.97297,1.45946c0.31557,0.50864 0.36973,1.04919 0.16216,1.62162c-0.53578,-0.18415 -1.07611,-0.61657 -1.62162,-1.2973c-0.32432,0.54055 -0.64865,1.08107 -0.97297,1.62162c-0.38011,-1.03891 -1.08292,-1.52539 -2.10811,-1.45946c0.21632,0.1081 0.43232,0.21623 0.64865,0.32432c-0.24389,0.21756 -0.35222,0.48782 -0.32432,0.81081c-0.86497,-0.97297 -1.72962,-1.94595 -2.59459,-2.91892c-0.10443,-0.91014 -0.42876,-1.72096 -0.97297,-2.43243c0.5053,-0.06812 0.93762,-0.23028 1.2973,-0.48649z" fill="#16a391" opacity="0.769"/><path d="M249.70871,119.04955c1.2973,0 2.59459,0 3.89189,0c-0.24746,0.24905 -0.57178,0.41121 -0.97297,0.48649c0.86497,0.45243 1.51362,1.10108 1.94595,1.94595c-0.36065,0.68365 -0.14465,1.17013 0.64865,1.45946c0.216,0.65066 0.216,1.24524 0,1.78378c-0.16216,0.16216 -0.32432,0.32432 -0.48649,0.48649c-1.14324,-1.29308 -1.52173,-1.07685 -1.13514,0.64865c-0.66454,-0.62196 -1.42151,-1.10844 -2.27027,-1.45946c0.21632,-0.1081 0.43232,-0.21623 0.64865,-0.32432c-0.51178,-0.35497 -1.05243,-0.62523 -1.62162,-0.81081c0.11773,-0.78211 -0.20659,-1.26858 -0.97297,-1.45946c0.86497,-0.21622 0.86497,-0.43243 0,-0.64865c0.25297,-0.34799 0.19881,-0.72637 -0.16216,-1.13514c-0.31914,0.74424 -0.5893,0.63613 -0.81081,-0.32432c0.46995,-0.21791 0.90227,-0.43413 1.2973,-0.64865z" fill="#0d8b74" opacity="0.769"/><path d="M254.24925,119.04955c1.4053,0 2.81092,0 4.21622,0c0.83773,0.23477 1.70238,0.50504 2.59459,0.81081c0.86043,1.68514 2.04941,3.03649 3.56757,4.05405c-0.21632,0.43242 -0.54065,0.75675 -0.97297,0.97297c-0.54065,0.43242 -1.08097,0.86488 -1.62162,1.2973c-1.42573,-2.34678 -3.04735,-4.563 -4.86486,-6.64865c-1.03622,-0.05855 -2.00919,-0.22071 -2.91892,-0.48649z" fill="#03674d" opacity="0.769"/><path d="M258.46547,119.04955c4.75686,0 9.51341,0 14.27027,0c0,0.10811 0,0.21622 0,0.32432c-0.61719,0.09596 -1.15784,0.31217 -1.62162,0.64865c-0.70508,0.08099 -1.24573,0.40532 -1.62162,0.97297c-1.14324,0.40829 -2.11622,1.05694 -2.91892,1.94595c-0.64865,0.32432 -1.2973,0.64865 -1.94595,0.97297c-1.51816,-1.01757 -2.70714,-2.36892 -3.56757,-4.05405c-0.89222,-0.30577 -1.75686,-0.57604 -2.59459,-0.81081z" fill="#015039" opacity="0.769"/><path d="M272.73573,119.37387c0.57146,-0.04628 1.11211,0.06183 1.62162,0.32432c6.2267,3.97566 12.60486,7.59726 19.13514,10.86486c-0.408,-0.56462 -0.73232,-1.1592 -0.97297,-1.78378c1.62486,1.62545 3.13849,3.35517 4.54054,5.18919c-0.29222,0.25638 -0.50854,0.5807 -0.64865,0.97297c-2.98022,-1.24661 -5.73697,-2.86823 -8.27027,-4.86486c-0.12422,0.18032 -0.28638,0.28842 -0.48649,0.32432c-2.57286,-0.6384 -5.27546,-0.85459 -8.10811,-0.64865c1.23178,-0.31894 2.52908,-0.42707 3.89189,-0.32432c1.31514,0.10515 2.61243,-0.00295 3.89189,-0.32432c-5.43535,-3.25112 -10.84086,-6.27817 -16.21622,-9.08108c0.46378,-0.33648 1.00443,-0.55269 1.62162,-0.64865z" fill="#101814" opacity="0.769"/><path d="M305.49249,120.02252c-0.04249,-0.23965 0.01168,-0.45586 0.16216,-0.64865c0.22443,0.30382 0.17027,0.52003 -0.16216,0.64865z" fill="#2caa7c" opacity="0.008"/><path d="M222.78979,120.34685c-0.33243,-0.12862 -0.38659,-0.34483 -0.16216,-0.64865c0.15049,0.19278 0.20465,0.409 0.16216,0.64865z" fill="#e4f7ef" opacity="0.004"/><path d="M305.16817,120.02252c0.108,0 0.21632,0 0.32432,0c0.05578,0.32161 -0.05254,0.53782 -0.32432,0.64865c0,-0.21622 0,-0.43243 0,-0.64865z" fill="#2caa7c" opacity="0.008"/><path d="M222.78979,120.34685c0.108,0 0.21632,0 0.32432,0c-0.06,0.21734 -0.16832,0.21734 -0.32432,0z" fill="#2caa7c" opacity="0.008"/><path d="M253.6006,119.04955c0.21632,0 0.43232,0 0.64865,0c0.90973,0.26578 1.8827,0.42794 2.91892,0.48649c1.81751,2.08565 3.43914,4.30187 4.86486,6.64865c0,0.1081 0,0.21623 0,0.32432c-0.64865,0.54055 -1.2973,1.08107 -1.94595,1.62162c-0.88768,-1.01663 -1.69849,-2.09773 -2.43243,-3.24324c-0.108,0.1081 -0.21632,0.21623 -0.32432,0.32432c-0.54032,-0.91823 -1.24281,-1.67497 -2.10811,-2.27027c-0.7933,-0.28933 -1.0093,-0.77581 -0.64865,-1.45946c-0.43232,-0.84486 -1.08097,-1.49351 -1.94595,-1.94595c0.40119,-0.07527 0.72551,-0.23743 0.97297,-0.48649z" fill="#05775b" opacity="0.769"/><path d="M271.11411,120.02252c5.37535,2.80291 10.78086,5.82996 16.21622,9.08108c-1.27946,0.32137 -2.57676,0.42947 -3.89189,0.32432c0.04249,-0.28424 -0.06551,-0.50046 -0.32432,-0.64865c-4.57135,-2.60789 -9.11189,-5.20249 -13.62162,-7.78378c0.37589,-0.56766 0.91654,-0.89198 1.62162,-0.97297z" fill="#15221d" opacity="0.769"/><path d="M304.84384,120.67117c0.108,0 0.21632,0 0.32432,0c-0.06,0.21734 -0.16832,0.21734 -0.32432,0z" fill="#2caa7c" opacity="0.008"/><path d="M223.43844,120.9955c-0.21632,0.21622 -0.21632,0.21622 0,0z" fill="#2caa7c" opacity="0.008"/><path d="M304.51952,121.31982c0.43232,0.21622 0.43232,0.21622 0,0z" fill="#2caa7c" opacity="0.008"/><path d="M223.76276,121.96847c-0.21632,-0.43243 -0.21632,-0.43243 0,0z" fill="#2caa7c" opacity="0.008"/><path d="M241.92492,120.67117c0.216,0.65065 0.216,1.24525 0,1.78378c0.49849,0.35987 0.71449,0.84636 0.64865,1.45946c-0.58832,0.31939 -1.02097,0.31939 -1.2973,0c-0.56076,-0.20027 -1.04724,-0.52459 -1.45946,-0.97297c-0.39081,0.18525 -0.7693,0.40148 -1.13514,0.64865c-1.51557,2.16126 -3.13719,4.21534 -4.86486,6.16216c-1.02778,-0.45944 -2.00076,-0.99996 -2.91892,-1.62162c1.54022,-2.38583 3.26984,-4.81826 5.18919,-7.2973c1.27168,-0.06585 2.51514,-0.22801 3.72973,-0.48649c0.54065,0.10811 1.08097,0.21622 1.62162,0.32432c0.25265,-0.84234 0.41481,-0.84234 0.48649,0z" fill="#26c6c1" opacity="0.769"/><path d="M269.49249,120.9955c4.50973,2.5813 9.05027,5.17589 13.62162,7.78378c0.25881,0.14818 0.36681,0.36441 0.32432,0.64865c-1.36281,-0.10275 -2.66011,0.00538 -3.89189,0.32432c-1.62162,0 -3.24324,0 -4.86486,0c1.45362,-0.26773 2.96724,-0.42989 4.54054,-0.48649c-0.75665,-0.1081 -1.51362,-0.21623 -2.27027,-0.32432c-3.41546,-2.08573 -6.8747,-4.08574 -10.37838,-6c0.8027,-0.88901 1.77568,-1.53766 2.91892,-1.94595z" fill="#1b3028" opacity="0.769"/><path d="M304.1952,121.96847c0.43232,0.21622 0.43232,0.21622 0,0z" fill="#2caa7c" opacity="0.008"/><path d="M223.76276,121.96847c0.108,0 0.21632,0 0.32432,0c0,0.21622 0,0.43243 0,0.64865c-0.27178,-0.11082 -0.38011,-0.32704 -0.32432,-0.64865z" fill="#aeddc8" opacity="0.004"/><path d="M303.87086,122.29279c0.108,0 0.21632,0 0.32432,0c0.05578,0.3216 -0.05254,0.53783 -0.32432,0.64865c0,-0.21623 0,-0.43242 0,-0.64865z" fill="#2caa7c" opacity="0.008"/><path d="M224.08709,122.61712c0.108,0 0.21632,0 0.32432,0c-0.06,0.21733 -0.16832,0.21733 -0.32432,0z" fill="#2caa7c" opacity="0.008"/><path d="M241.27628,123.91441c0.27568,0.64683 0.43784,1.29548 0.48649,1.94595c-1.59276,1.99635 -3.10605,4.05042 -4.54054,6.16216c-0.30843,0.12441 -0.57859,0.23251 -0.81081,0.32432c-0.97297,-0.75675 -1.83795,-1.62162 -2.59459,-2.59459c1.72768,-1.94682 3.3493,-4.0009 4.86486,-6.16216c0.36584,-0.24717 0.74432,-0.46339 1.13514,-0.64865c0.41222,0.44838 0.8987,0.7727 1.45946,0.97297z" fill="#28d3c9" opacity="0.769"/><path d="M241.92492,120.67117c0.54065,0.43243 1.08097,0.86487 1.62162,1.2973c0.86497,0.97297 1.72962,1.94595 2.59459,2.91892c0.11384,0.63564 0.54616,1.23023 1.2973,1.78378c-0.21632,0.1081 -0.43232,0.21623 -0.64865,0.32432c0.77059,0.84032 1.41924,1.75926 1.94595,2.75676c-2.70259,0 -5.40551,0 -8.10811,0c1.23632,-0.26718 2.53362,-0.42934 3.89189,-0.48649c-0.21632,-0.1081 -0.43232,-0.21623 -0.64865,-0.32432c0.32432,-0.32432 0.64865,-0.64865 0.97297,-0.97297c-0.576,-0.54188 -0.68432,-1.13646 -0.32432,-1.78378c-0.66551,-0.77124 -1.31416,-1.52799 -1.94595,-2.27027c0.06584,-0.6131 -0.15016,-1.09959 -0.64865,-1.45946c0.216,-0.53854 0.216,-1.13313 0,-1.78378z" fill="#18c1aa" opacity="0.769"/><path d="M303.54654,122.94144c0.108,0 0.21632,0 0.32432,0c-0.06,0.21733 -0.16832,0.21733 -0.32432,0z" fill="#2caa7c" opacity="0.008"/><path d="M242.57357,123.91441c0.63178,0.74228 1.28043,1.49903 1.94595,2.27027c-0.36,0.64732 -0.25168,1.2419 0.32432,1.78378c-0.32432,0.32432 -0.64865,0.64865 -0.97297,0.97297c0.21632,0.1081 0.43232,0.21623 0.64865,0.32432c-1.35827,0.05715 -2.65557,0.21931 -3.89189,0.48649c-0.05578,0.3216 0.05254,0.53783 0.32432,0.64865c0.31492,0.6432 0.63924,1.29185 0.97297,1.94595c-0.23416,0.13541 -0.39632,0.35163 -0.48649,0.64865c-0.14627,-0.78772 -0.41676,-0.84178 -0.81081,-0.16216c0.108,0.1081 0.21632,0.21623 0.32432,0.32432c-1.41308,0.93603 -2.06173,2.17926 -1.94595,3.72973c-0.69146,-1.59726 -1.55611,-3.11076 -2.59459,-4.54054c0.23222,-0.09182 0.50238,-0.19991 0.81081,-0.32432c1.43449,-2.11174 2.94778,-4.16582 4.54054,-6.16216c-0.04865,-0.65046 -0.21081,-1.29911 -0.48649,-1.94595c0.27632,0.31939 0.70897,0.31939 1.2973,0z" fill="#1fcebb" opacity="0.769"/><path d="M250.35736,123.26577c0.56919,0.18558 1.10984,0.45584 1.62162,0.81081c-0.21632,0.1081 -0.43232,0.21623 -0.64865,0.32432c0.84876,0.35102 1.60573,0.8375 2.27027,1.45946c0.03178,0.34009 0.03178,0.71848 0,1.13514c1.15524,1.65691 2.23622,3.2245 3.24324,4.7027c-0.108,0.21623 -0.21632,0.43242 -0.32432,0.64865c-0.25038,0.38708 -0.5747,0.71141 -0.97297,0.97297c-0.75665,-1.08107 -1.51362,-2.16217 -2.27027,-3.24324c-1.44973,-0.31982 -2.96335,-0.42795 -4.54054,-0.32432c-0.5267,-0.99749 -1.17535,-1.91643 -1.94595,-2.75676c0.21632,-0.1081 0.43232,-0.21623 0.64865,-0.32432c-0.75114,-0.55356 -1.18346,-1.14814 -1.2973,-1.78378c-0.02789,-0.32299 0.08043,-0.59325 0.32432,-0.81081c-0.21632,-0.1081 -0.43232,-0.21623 -0.64865,-0.32432c1.02519,-0.06594 1.728,0.42055 2.10811,1.45946c0.32432,-0.54055 0.64865,-1.08107 0.97297,-1.62162c0.54551,0.68072 1.08584,1.11315 1.62162,1.2973c0.20757,-0.57243 0.15341,-1.11298 -0.16216,-1.62162z" fill="#0fa887" opacity="0.769"/><path d="M303.22222,123.59009c0.43232,0.21623 0.43232,0.21623 0,0z" fill="#2caa7c" opacity="0.008"/><path d="M225.06006,123.59009c0,0.21623 0,0.43242 0,0.64865c-0.43232,-0.21623 -0.43232,-0.43242 0,-0.64865z" fill="#74c4a1" opacity="0.008"/><path d="M302.8979,123.91441c0.108,0 0.21632,0 0.32432,0c0.05578,0.3216 -0.05254,0.53783 -0.32432,0.64865c0,-0.21623 0,-0.43242 0,-0.64865z" fill="#2caa7c" opacity="0.008"/><path d="M225.06006,124.23874c0.108,0 0.21632,0 0.32432,0c-0.06,0.21733 -0.16832,0.21733 -0.32432,0z" fill="#2caa7c" opacity="0.008"/><path d="M255.22222,122.94144c0.8653,0.5953 1.56778,1.35204 2.10811,2.27027c0.108,-0.1081 0.21632,-0.21623 0.32432,-0.32432c0.73395,1.14551 1.54476,2.22662 2.43243,3.24324c-0.63924,0.74861 -1.28789,1.50535 -1.94595,2.27027c-0.54941,0.33321 -0.98173,0.76566 -1.2973,1.2973c-1.00703,-1.47821 -2.088,-3.04579 -3.24324,-4.7027c0.03178,-0.41666 0.03178,-0.79505 0,-1.13514c-0.38659,-1.7255 -0.00811,-1.94173 1.13514,-0.64865c0.16216,-0.16216 0.32432,-0.32432 0.48649,-0.48649c0.216,-0.53854 0.216,-1.13312 0,-1.78378z" fill="#048e6a" opacity="0.769"/><path d="M266.57356,122.94144c3.50368,1.91426 6.96292,3.91427 10.37838,6c0.75665,0.1081 1.51362,0.21623 2.27027,0.32432c-1.5733,0.05659 -3.08692,0.21876 -4.54054,0.48649c0,0.1081 0,0.21623 0,0.32432c-0.14011,0.39227 -0.35643,0.71659 -0.64865,0.97297c-2.94778,-1.48223 -5.8667,-3.04982 -8.75676,-4.7027c-0.71092,-0.34602 -1.25124,-0.83251 -1.62162,-1.45946c0.43232,-0.21623 0.75665,-0.54055 0.97297,-0.97297c0.64865,-0.32432 1.2973,-0.64865 1.94595,-0.97297z" fill="#28473a" opacity="0.769"/><path d="M302.57356,124.56306c0.108,0 0.21632,0 0.32432,0c-0.06,0.21733 -0.16832,0.21733 -0.32432,0z" fill="#2caa7c" opacity="0.008"/><path d="M225.70871,124.88739c-0.21632,0.21623 -0.21632,0.21623 0,0z" fill="#2caa7c" opacity="0.008"/><path d="M184.1952,125.53604c0,-0.1081 0,-0.21623 0,-0.32432c51.45957,0.1081 51.45957,0.21623 0,0.32432z" fill="#fcfdfd" opacity="0.009"/><path d="M302.24924,125.21171c9.08173,-0.05403 18.16281,0 27.24324,0.16216c-9.13622,0.26929 -18.2173,0.21525 -27.24324,-0.16216z" fill="#fafcfb" opacity="0.009"/><path d="M223.43844,125.86036c0.46897,-0.36094 1.00962,-0.41501 1.62162,-0.16216c-0.52995,0.16005 -1.07059,0.21412 -1.62162,0.16216z" fill="#fdfdfd" opacity="0.013"/><path d="M330.14114,125.86036c0.46897,-0.36094 1.00962,-0.41501 1.62162,-0.16216c-0.52995,0.16005 -1.07059,0.21412 -1.62162,0.16216z" fill="#f5fbf9" opacity="0.013"/><path d="M184.1952,125.86036c0.21622,0 0.43243,0 0.64865,0c3.02095,1.22614 6.04797,2.52344 9.08108,3.89189c1.06041,1.79672 2.03338,3.63454 2.91892,5.51351c-0.5856,0.96389 -1.23425,1.8828 -1.94595,2.75676c2.49632,0.1847 4.98282,0.07661 7.45946,-0.32432c-0.21623,-0.1081 -0.43242,-0.21623 -0.64865,-0.32432c6.47851,-1.76789 12.91093,-3.65977 19.2973,-5.67568c0.34443,0.92147 0.77708,1.78635 1.2973,2.59459c0.40703,0.23046 0.78519,0.50076 1.13514,0.81081c-0.108,0.1081 -0.21632,0.21623 -0.32432,0.32432c1.2973,1.40539 2.59459,2.81082 3.89189,4.21622c-0.108,0.1081 -0.21632,0.21623 -0.32432,0.32432c0.4813,0.51039 1.02195,0.94281 1.62162,1.2973c-0.108,0.1081 -0.21632,0.21623 -0.32432,0.32432c1.2973,1.40539 2.59459,2.81082 3.89189,4.21622c-0.108,0.1081 -0.21632,0.21623 -0.32432,0.32432c0.59027,0.31764 0.96876,0.80413 1.13514,1.45946c2.11719,-5.30611 1.19805,-10.00881 -2.75676,-14.10811c-1.39946,-0.89948 -2.91308,-1.54813 -4.54054,-1.94595c-7.13578,-0.19151 -14.27102,-0.40774 -21.40541,-0.64865c0.77854,-0.06026 1.53529,-0.22242 2.27027,-0.48649c0.87795,-1.80318 1.85092,-3.3167 2.91892,-4.54054c5.41148,-0.07275 10.81686,0.03535 16.21622,0.32432c0.34638,0.30308 0.7787,0.41118 1.2973,0.32432c0.21632,0 0.32432,0.1081 0.32432,0.32432c0.39178,0.23809 0.82411,0.34618 1.2973,0.32432c0.79005,0.44465 1.65503,0.76897 2.59459,0.97297c0.91816,0.62166 1.89114,1.16218 2.91892,1.62162c0.75665,0.97297 1.62162,1.83785 2.59459,2.59459c1.03849,1.42978 1.90314,2.94328 2.59459,4.54054c0.4693,2.13341 0.6853,4.29555 0.64865,6.48649c-0.21632,1.51352 -0.43232,3.02702 -0.64865,4.54054c0,0.21623 0,0.43242 0,0.64865c-0.29319,0.22995 -0.40119,0.55427 -0.32432,0.97297c-0.27178,0.11082 -0.38011,0.32705 -0.32432,0.64865c-0.27178,0.11082 -0.38011,0.32705 -0.32432,0.64865c-0.27178,0.11082 -0.38011,0.32705 -0.32432,0.64865c-0.21632,0 -0.32432,0.1081 -0.32432,0.32432c-0.27178,0.11092 -0.38011,0.32692 -0.32432,0.64865c-0.21632,0 -0.32432,0.108 -0.32432,0.32432c-0.21632,0 -0.32432,0.108 -0.32432,0.32432c-0.86497,0.64865 -1.62162,1.4053 -2.27027,2.27027c-0.21632,0 -0.32432,0.108 -0.32432,0.32432c-0.21632,0 -0.32432,0.108 -0.32432,0.32432c-0.32173,-0.05578 -0.53773,0.05254 -0.64865,0.32432c-0.21632,0 -0.32432,0.108 -0.32432,0.32432c-0.32173,-0.05578 -0.53773,0.05254 -0.64865,0.32432c-0.32173,-0.05578 -0.53773,0.05254 -0.64865,0.32432c-0.32173,-0.05578 -0.53773,0.05254 -0.64865,0.32432c-0.32173,-0.05578 -0.53773,0.05254 -0.64865,0.32432c-0.66584,-0.03178 -1.20649,0.18454 -1.62162,0.64865c-0.94962,0.02108 -1.81459,0.23741 -2.59459,0.64865c-0.62108,-0.09211 -1.16141,0.01589 -1.62162,0.32432c-6.16832,0.06584 -12.22226,0.39016 -18.16216,0.97297c-0.27185,0.11092 -0.37998,0.32692 -0.32432,0.64865c-0.27185,0.11092 -0.37998,0.32692 -0.32432,0.64865c-0.27185,0.11092 -0.37998,0.32692 -0.32432,0.64865c-0.27185,0.11092 -0.37998,0.32692 -0.32432,0.64865c-0.27185,0.11092 -0.37998,0.32692 -0.32432,0.64865c-0.27185,0.11092 -0.37998,0.32692 -0.32432,0.64865c-0.27185,0.11092 -0.37998,0.32692 -0.32432,0.64865c-0.27185,0.11092 -0.37998,0.32692 -0.32432,0.64865c-0.27185,0.11092 -0.37998,0.32692 -0.32432,0.64865c-0.27185,0.11092 -0.37998,0.32692 -0.32432,0.64865c-0.27185,0.11092 -0.37998,0.32692 -0.32432,0.64865c-0.27185,0.11092 -0.37998,0.32692 -0.32432,0.64865c-0.27185,0.11092 -0.37998,0.32692 -0.32432,0.64865c-0.27185,0.11092 -0.37998,0.32692 -0.32432,0.64865c-0.72483,0.90519 -1.37348,1.87816 -1.94595,2.91892c-0.3216,-0.05578 -0.53783,0.05254 -0.64865,0.32432c-0.66581,-0.03178 -1.20636,0.18454 -1.62162,0.64865c-0.66581,-0.03178 -1.20636,0.18454 -1.62162,0.64865c-0.3216,-0.05578 -0.53783,0.05254 -0.64865,0.32432c-0.4187,-0.07686 -0.74303,0.03114 -0.97297,0.32432c-0.3216,-0.05578 -0.53783,0.05254 -0.64865,0.32432c-0.4187,-0.07686 -0.74303,0.03114 -0.97297,0.32432c-0.3216,-0.05578 -0.53783,0.05254 -0.64865,0.32432c-0.4187,-0.07686 -0.74303,0.03114 -0.97297,0.32432c-0.3216,-0.05578 -0.53783,0.05254 -0.64865,0.32432c-0.66581,-0.03178 -1.20636,0.18454 -1.62162,0.64865c-0.66581,-0.03178 -1.20635,0.18454 -1.62162,0.64865c-0.32161,-0.05578 -0.53782,0.05254 -0.64865,0.32432c-0.41872,-0.07686 -0.74304,0.03114 -0.97297,0.32432c-0.32161,-0.05578 -0.53782,0.05254 -0.64865,0.32432c-0.10811,0 -0.21622,0 -0.32432,0c0,-0.43232 0,-0.86497 0,-1.2973c0.30307,-0.34638 0.41118,-0.7787 0.32432,-1.2973c0.57619,-0.97459 0.90052,-2.05557 0.97297,-3.24324c0.57619,-0.97459 0.90052,-2.05557 0.97297,-3.24324c0.57619,-0.97459 0.90052,-2.05557 0.97297,-3.24324c0.57619,-0.97459 0.90052,-2.05557 0.97297,-3.24324c0.46177,-0.65351 0.678,-1.41016 0.64865,-2.27027c0.57619,-0.97459 0.90052,-2.05557 0.97297,-3.24324c0.57619,-0.97459 0.90052,-2.05557 0.97297,-3.24324c0.57619,-0.97459 0.90052,-2.05557 0.97297,-3.24324c0.39532,-0.90512 0.82774,-1.82403 1.2973,-2.75676c9.08108,-0.1081 18.16216,-0.21623 27.24324,-0.32432c3.2147,-1.07692 4.34984,-3.29316 3.40541,-6.64865c-0.09016,-0.29702 -0.25232,-0.51324 -0.48649,-0.64865c-0.87146,-1.19426 -2.06076,-1.89697 -3.56757,-2.10811c-8.53985,-0.16216 -17.08041,-0.21619 -25.62162,-0.16216c-1.28452,-2.02985 -2.79804,-3.86766 -4.54054,-5.51351c-1.68726,-2.2957 -3.5251,-4.45787 -5.51351,-6.48649c0,-0.21623 0,-0.43242 0,-0.64865z" fill="#fcfdfd" opacity="0.96"/><path d="M226.35736,125.86036c-0.22995,0.29319 -0.55427,0.40129 -0.97297,0.32432c0.19622,-0.64255 0.52054,-0.75068 0.97297,-0.32432z" fill="#d3ebdf" opacity="0.012"/><path d="M263.65465,124.88739c0.37038,0.62695 0.9107,1.11344 1.62162,1.45946c2.89005,1.65289 5.80897,3.22048 8.75676,4.7027c-0.32432,0.64865 -0.64865,1.2973 -0.97297,1.94595c-3.44789,-2.48332 -7.12378,-4.64549 -11.02703,-6.48649c0,-0.1081 0,-0.21623 0,-0.32432c0.54065,-0.43242 1.08097,-0.86488 1.62162,-1.2973z" fill="#2f5545" opacity="0.769"/><path d="M301.6006,125.86036c0,0.1081 0,0.21623 0,0.32432c-3.62562,-0.10635 -7.19319,0.00175 -10.7027,0.32432c-0.17611,-0.01946 -0.28411,-0.12756 -0.32432,-0.32432c3.66941,-0.32394 7.34497,-0.43206 11.02703,-0.32432z" fill="#bec0bf" opacity="0.933"/><path d="M301.6006,126.18468c0,-0.1081 0,-0.21623 0,-0.32432c9.40605,-0.05403 18.81146,0 28.21622,0.16216c1.19027,0.17779 2.37957,0.33996 3.56757,0.48649c0.34638,0.30308 0.7787,0.41118 1.2973,0.32432c0.46378,0.33649 1.00443,0.55268 1.62162,0.64865c0.41514,0.46421 0.95578,0.6804 1.62162,0.64865c3.04314,1.85381 5.42141,4.3403 7.13514,7.45946c0.20432,1.15061 0.52865,2.23171 0.97297,3.24324c0,2.37837 0,4.75677 0,7.13514c-0.41124,0.78006 -0.62757,1.64491 -0.64865,2.59459c-0.27178,0.11082 -0.38011,0.32705 -0.32432,0.64865c-0.48908,0.54535 -0.81341,1.194 -0.97297,1.94595c-0.27178,0.11082 -0.38011,0.32705 -0.32432,0.64865c-0.21632,0 -0.32432,0.108 -0.32432,0.32432c-0.27178,0.11092 -0.38011,0.32692 -0.32432,0.64865c-0.21632,0 -0.32432,0.108 -0.32432,0.32432c-0.21632,0 -0.32432,0.108 -0.32432,0.32432c-0.21632,0 -0.32432,0.108 -0.32432,0.32432c-0.21632,0 -0.32432,0.108 -0.32432,0.32432c-0.21632,0 -0.32432,0.108 -0.32432,0.32432c-0.21632,0 -0.32432,0.108 -0.32432,0.32432c-0.21632,0 -0.32432,0.108 -0.32432,0.32432c-0.21632,0 -0.32432,0.108 -0.32432,0.32432c-0.49524,-0.02368 -0.81957,0.19265 -0.97297,0.64865c-0.21632,0 -0.32432,0.108 -0.32432,0.32432c-0.32173,-0.05578 -0.53773,0.05254 -0.64865,0.32432c-0.49524,-0.02368 -0.81957,0.19265 -0.97297,0.64865c-0.32173,-0.05578 -0.53773,0.05254 -0.64865,0.32432c-0.4187,-0.07686 -0.74303,0.03114 -0.97297,0.32432c-0.32173,-0.05578 -0.53773,0.05254 -0.64865,0.32432c-0.4187,-0.07686 -0.74303,0.03114 -0.97297,0.32432c-7.26551,1.27816 -14.56281,1.60249 -21.89189,0.97297c-0.15049,0.19265 -0.20465,0.40897 -0.16216,0.64865c-0.27178,0.11092 -0.38011,0.32692 -0.32432,0.64865c-0.27178,0.11092 -0.38011,0.32692 -0.32432,0.64865c-0.27178,0.11092 -0.38011,0.32692 -0.32432,0.64865c-0.27178,0.11092 -0.38011,0.32692 -0.32432,0.64865c-0.27178,0.11092 -0.38011,0.32692 -0.32432,0.64865c-0.27178,0.11092 -0.38011,0.32692 -0.32432,0.64865c-0.27178,0.11092 -0.38011,0.32692 -0.32432,0.64865c-0.27178,0.11092 -0.38011,0.32692 -0.32432,0.64865c-0.27178,0.11092 -0.38011,0.32692 -0.32432,0.64865c-0.27178,0.11092 -0.38011,0.32692 -0.32432,0.64865c-0.27178,0.11092 -0.38011,0.32692 -0.32432,0.64865c-0.27178,0.11092 -0.38011,0.32692 -0.32432,0.64865c-0.27178,0.11092 -0.38011,0.32692 -0.32432,0.64865c-0.27178,0.11092 -0.38011,0.32692 -0.32432,0.64865c-0.27178,0.11092 -0.38011,0.32692 -0.32432,0.64865c-0.27178,0.11092 -0.38011,0.32692 -0.32432,0.64865c-0.27178,0.11092 -0.38011,0.32692 -0.32432,0.64865c-0.27178,0.11092 -0.38011,0.32692 -0.32432,0.64865c-0.21632,0 -0.32432,0.108 -0.32432,0.32432c-0.21632,0 -0.32432,0.108 -0.32432,0.32432c-0.4187,-0.07686 -0.74303,0.03114 -0.97297,0.32432c-0.32173,-0.05578 -0.53773,0.05254 -0.64865,0.32432c-0.4187,-0.07686 -0.74303,0.03114 -0.97297,0.32432c-0.32173,-0.05578 -0.53773,0.05254 -0.64865,0.32432c-0.66584,-0.03178 -1.20649,0.18454 -1.62162,0.64865c-0.66584,-0.03178 -1.20649,0.18454 -1.62162,0.64865c-0.32173,-0.05578 -0.53773,0.05254 -0.64865,0.32432c-0.4187,-0.07686 -0.74303,0.03114 -0.97297,0.32432c-0.32173,-0.05578 -0.53773,0.05254 -0.64865,0.32432c-0.4187,-0.07686 -0.74303,0.03114 -0.97297,0.32432c-0.32173,-0.05578 -0.53773,0.05254 -0.64865,0.32432c-0.4187,-0.07686 -0.74303,0.03114 -0.97297,0.32432c-0.32173,-0.05578 -0.53773,0.05254 -0.64865,0.32432c-0.66584,-0.03178 -1.20649,0.18454 -1.62162,0.64865c-0.66584,-0.03178 -1.20649,0.18454 -1.62162,0.64865c-0.27178,-0.11092 -0.38011,-0.32692 -0.32432,-0.64865c0.46184,-0.65351 0.67784,-1.41016 0.64865,-2.27027c0.57632,-0.97459 0.90065,-2.05557 0.97297,-3.24324c0.57632,-0.97459 0.90065,-2.05557 0.97297,-3.24324c0.57632,-0.97459 0.90065,-2.05557 0.97297,-3.24324c0.57632,-0.97459 0.90065,-2.05557 0.97297,-3.24324c0.57632,-0.97459 0.90065,-2.05557 0.97297,-3.24324c0.57632,-0.97459 0.90065,-2.05557 0.97297,-3.24324c0.46184,-0.65351 0.67784,-1.41016 0.64865,-2.27027c0.57632,-0.97459 0.90065,-2.05557 0.97297,-3.24324c0.37946,-0.69736 0.70378,-1.45414 0.97297,-2.27027c9.07914,-0.27023 18.16022,-0.43239 27.24324,-0.48649c3.68011,-1.15596 4.76108,-3.48029 3.24324,-6.97297c0.05578,-0.3216 -0.05254,-0.53783 -0.32432,-0.64865c-0.8053,-1.05126 -1.88627,-1.59182 -3.24324,-1.62162c-0.46022,-0.30846 -1.00054,-0.41659 -1.62162,-0.32432c-3.72746,-0.26942 -7.51103,-0.43158 -11.35135,-0.48649c0.42422,-0.26718 0.9107,-0.42934 1.45946,-0.48649c0.96422,-1.4509 1.99135,-2.85629 3.08108,-4.21622c-0.64054,-0.41783 -0.64054,-0.95835 0,-1.62162c-1.27946,-0.32137 -2.57676,-0.42947 -3.89189,-0.32432c0.17254,-1.72823 0.71286,-3.29578 1.62162,-4.7027c-4.63427,-0.45107 -9.28281,-0.61323 -13.94595,-0.48649z" fill="#fcfcfc" opacity="0.963"/><path d="M301.6006,126.18468c4.66314,-0.12675 9.31168,0.03542 13.94595,0.48649c-0.90876,1.40692 -1.44908,2.97448 -1.62162,4.7027c1.31514,-0.10515 2.61243,0.00295 3.89189,0.32432c-0.64054,0.66328 -0.64054,1.20379 0,1.62162c-1.08973,1.35992 -2.11686,2.76532 -3.08108,4.21622c-0.54876,0.05715 -1.03524,0.21931 -1.45946,0.48649c3.84032,0.05491 7.62389,0.21707 11.35135,0.48649c-6.70346,-0.05403 -13.40627,0 -20.10811,0.16216c7.24249,0.16216 14.48562,0.21619 21.72973,0.16216c-8.4853,0.37735 -17.02605,0.43142 -25.62162,0.16216c1.72962,-0.21623 1.72962,-0.43242 0,-0.64865c-1.25805,-1.41859 -2.44735,-2.87805 -3.56757,-4.37838c-1.40205,-1.83402 -2.91568,-3.56374 -4.54054,-5.18919c-0.4067,-0.8411 -0.94703,-1.59788 -1.62162,-2.27027c3.50951,-0.32257 7.07708,-0.43067 10.7027,-0.32432z" fill="#f4f4f4"/><path d="M333.38437,126.50901c0.24357,-0.34816 0.56789,-0.40219 0.97297,-0.16216c-0.30746,0.15658 -0.63178,0.21065 -0.97297,0.16216z" fill="#fdfdfd" opacity="0.01"/><path d="M334.68168,126.83333c0.12876,-0.33243 0.34476,-0.3865 0.64865,-0.16216c-0.19265,0.15058 -0.40897,0.20465 -0.64865,0.16216z" fill="#fdfdfd" opacity="0.012"/><path d="M336.3033,127.48198c0.12876,-0.33243 0.34476,-0.3865 0.64865,-0.16216c-0.19265,0.15058 -0.40897,0.20465 -0.64865,0.16216z" fill="#fdfdfd" opacity="0.012"/><path d="M262.03303,126.50901c3.90324,1.84099 7.57914,4.00317 11.02703,6.48649c-0.40605,0.48678 -0.73038,1.0273 -0.97297,1.62162c-0.42876,-0.05514 -0.80724,0.05299 -1.13514,0.32432c-3.43362,-2.1768 -6.94703,-4.23084 -10.54054,-6.16216c-0.25881,-0.14818 -0.36681,-0.36441 -0.32432,-0.64865c0.64865,-0.54055 1.2973,-1.08107 1.94595,-1.62162z" fill="#366251" opacity="0.769"/><path d="M337.27628,127.48198c0.43232,0.21623 0.43232,0.21623 0,0z" fill="#fdfefd" opacity="0.016"/><path d="M337.92492,127.80631c0.43232,0.21623 0.43232,0.21623 0,0z" fill="#fdfefd" opacity="0.016"/><path d="M338.57357,128.13063c0.43232,0.21623 0.43232,0.21623 0,0z" fill="#fdfefd" opacity="0.016"/><path d="M240.62763,129.75225c2.70259,0 5.40551,0 8.10811,0c1.57719,-0.10362 3.09081,0.00451 4.54054,0.32432c-4.16562,-0.10661 -8.27384,0.00149 -12.32432,0.32432c-0.27178,-0.11082 -0.38011,-0.32705 -0.32432,-0.64865z" fill="#c1ede3" opacity="0.918"/><path d="M260.08709,128.13063c-0.04249,0.28424 0.06551,0.50046 0.32432,0.64865c3.59351,1.93132 7.10692,3.98536 10.54054,6.16216c0.32789,-0.27133 0.70638,-0.37946 1.13514,-0.32432c-0.54519,0.87658 -1.08551,1.74146 -1.62162,2.59459c-4.18832,-2.09484 -8.29654,-4.36511 -12.32432,-6.81081c0.65805,-0.76492 1.3067,-1.52166 1.94595,-2.27027z" fill="#3f735f" opacity="0.769"/><path d="M274.68168,130.07658c0,-0.1081 0,-0.21623 0,-0.32432c1.62162,0 3.24324,0 4.86486,0c2.83265,-0.20595 5.53524,0.01025 8.10811,0.64865c-0.108,0 -0.21632,0 -0.32432,0c-4.15881,-0.32286 -8.37503,-0.43096 -12.64865,-0.32432z" fill="#c0c5c3" opacity="0.929"/><path d="M253.27628,130.07658c0.75665,1.08107 1.51362,2.16217 2.27027,3.24324c0.56757,1.24365 1.21622,2.43282 1.94595,3.56757c2.06303,3.68121 4.1173,7.35688 6.16216,11.02703c0.18876,0.70336 0.18876,1.46011 0,2.27027c-1.76919,-0.07894 -3.33665,-0.07894 -4.7027,0c-3.02919,-4.97598 -5.89395,-10.05707 -8.59459,-15.24324c-0.56432,-0.55485 -1.21297,-0.82515 -1.94595,-0.81081c5.25827,8.94795 10.3933,17.97503 15.40541,27.08108c0.08108,-1.05535 0.40541,-2.02832 0.97297,-2.91892c1.62162,-2.81092 3.24324,-5.62151 4.86486,-8.43243c2.95524,-2.26346 5.87416,-4.31754 8.75676,-6.16216c0.00584,0.74504 -0.04832,1.50178 -0.16216,2.27027c-0.41286,0.71766 -0.73719,1.47444 -0.97297,2.27027c-0.81081,0.97093 -1.45946,2.052 -1.94595,3.24324c-0.78616,0.81341 -1.32649,1.78638 -1.62162,2.91892c-1.59016,2.42076 -3.10378,4.90735 -4.54054,7.45946c-1.08097,1.83795 -2.16227,3.67557 -3.24324,5.51351c-0.42811,1.07222 -1.02259,2.04519 -1.78378,2.91892c-0.67784,-0.81795 -1.27265,-1.68259 -1.78378,-2.59459c-1.62162,-2.81092 -3.24324,-5.62151 -4.86486,-8.43243c-2.62573,-4.71341 -5.32832,-9.36191 -8.10811,-13.94595c-1.00411,-1.90275 -2.08508,-3.74056 -3.24324,-5.51351c-0.45957,-1.02778 -0.99989,-2.00076 -1.62162,-2.91892c-0.86497,-1.51352 -1.72962,-3.02702 -2.59459,-4.54054c-0.33373,-0.6541 -0.65805,-1.30275 -0.97297,-1.94595c4.05049,-0.32283 8.1587,-0.43093 12.32432,-0.32432z" fill="#f8f9f9" opacity="0.999"/><path d="M258.14114,130.4009c4.02778,2.4457 8.136,4.71597 12.32432,6.81081c-0.49038,1.20029 -1.13903,2.28136 -1.94595,3.24324c0.06584,-0.6131 -0.15016,-1.09959 -0.64865,-1.45946c-3.9107,-2.06121 -7.69459,-4.27742 -11.35135,-6.64865c0.108,-0.21623 0.21632,-0.43242 0.32432,-0.64865c0.31557,-0.53163 0.74789,-0.96409 1.2973,-1.2973z" fill="#45826a" opacity="0.769"/><path d="M287.00601,130.72523c-0.108,0.43242 -0.21632,0.86488 -0.32432,1.2973c-0.58897,0.52489 -1.0213,1.17354 -1.2973,1.94595c-0.75178,1.28578 -1.50876,2.58308 -2.27027,3.89189c-0.50951,0.69246 -0.94184,1.44921 -1.2973,2.27027c-0.50951,0.69246 -0.94184,1.44921 -1.2973,2.27027c-0.89449,1.0307 -1.54314,2.2199 -1.94595,3.56757c-0.108,0 -0.21632,0 -0.32432,0c0.11384,-0.76849 0.168,-1.52523 0.16216,-2.27027c-2.88259,1.84463 -5.80151,3.8987 -8.75676,6.16216c-1.62162,2.81092 -3.24324,5.62151 -4.86486,8.43243c-0.56757,0.89059 -0.89189,1.86357 -0.97297,2.91892c-5.01211,-9.10605 -10.14714,-18.13314 -15.40541,-27.08108c0.73297,-0.01434 1.38162,0.25596 1.94595,0.81081c2.70065,5.18617 5.56541,10.26726 8.59459,15.24324c1.36605,-0.07894 2.93351,-0.07894 4.7027,0c0.18876,-0.81016 0.18876,-1.56691 0,-2.27027c0.20011,0.0359 0.36227,0.144 0.48649,0.32432c0.09016,-0.29702 0.25232,-0.51324 0.48649,-0.64865c0.23319,0.5161 0.55751,1.00258 0.97297,1.45946c1.27168,0.06584 2.51514,0.228 3.72973,0.48649c3.11059,-4.81408 5.97568,-9.78704 8.59459,-14.91892c2.80086,-1.40037 5.61146,-2.80576 8.43243,-4.21622c0.22151,0.11763 0.43784,0.22576 0.64865,0.32432z" fill="#eeefef"/><path d="M296.41141,134.94144c0,0.1081 0,0.21623 0,0.32432c-0.27178,0.11082 -0.38011,0.32705 -0.32432,0.64865c-0.32432,0.1081 -0.54065,0.32432 -0.64865,0.64865c-3.00714,-1.12667 -5.92605,-2.64016 -8.75676,-4.54054c0.108,-0.43242 0.21632,-0.86488 0.32432,-1.2973c0.21632,0 0.32432,-0.1081 0.32432,-0.32432c0.108,0 0.21632,0 0.32432,0c0.20011,-0.0359 0.36227,-0.144 0.48649,-0.32432c2.5333,1.99664 5.29005,3.61826 8.27027,4.86486z" fill="#172822" opacity="0.769"/><path d="M184.84384,125.86036c8.10811,0 16.21622,0 24.32432,0c-1.068,1.22384 -2.04097,2.73736 -2.91892,4.54054c-0.73498,0.26406 -1.49173,0.42623 -2.27027,0.48649c7.13439,0.24091 14.26962,0.45714 21.40541,0.64865c1.62746,0.39782 3.14108,1.04646 4.54054,1.94595c3.95481,4.0993 4.87395,8.802 2.75676,14.10811c-0.16638,-0.65533 -0.54486,-1.14182 -1.13514,-1.45946c0.108,-0.1081 0.21632,-0.21623 0.32432,-0.32432c-1.2973,-1.40539 -2.59459,-2.81082 -3.89189,-4.21622c0.108,-0.1081 0.21632,-0.21623 0.32432,-0.32432c-0.59968,-0.35449 -1.14032,-0.78691 -1.62162,-1.2973c0.108,-0.1081 0.21632,-0.21623 0.32432,-0.32432c-1.2973,-1.40539 -2.59459,-2.81082 -3.89189,-4.21622c0.108,-0.1081 0.21632,-0.21623 0.32432,-0.32432c-0.34995,-0.31005 -0.72811,-0.58035 -1.13514,-0.81081c-0.52022,-0.80825 -0.95286,-1.67312 -1.2973,-2.59459c-6.38637,2.0159 -12.81879,3.90778 -19.2973,5.67568c0.21623,0.1081 0.43242,0.21623 0.64865,0.32432c-2.47664,0.40093 -4.96314,0.50903 -7.45946,0.32432c0.7117,-0.87396 1.36035,-1.79286 1.94595,-2.75676c-0.88554,-1.87897 -1.85851,-3.71679 -2.91892,-5.51351c-3.03311,-1.36845 -6.06013,-2.66575 -9.08108,-3.89189z" fill="#f4f4f4"/><path d="M189.70871,132.9955c-0.21623,0.21623 -0.21623,0.21623 0,0z" fill="#fdfefd" opacity="0.016"/><path d="M256.51952,132.34685c3.65676,2.37123 7.44065,4.58744 11.35135,6.64865c0.49849,0.35987 0.71449,0.84636 0.64865,1.45946c-0.32432,0.64865 -0.64865,1.2973 -0.97297,1.94595c-3.19265,-1.89574 -6.38173,-3.84169 -9.56757,-5.83784c-0.12422,0.18032 -0.28638,0.28842 -0.48649,0.32432c-0.72973,-1.13475 -1.37838,-2.32391 -1.94595,-3.56757c0.39827,-0.26157 0.72259,-0.58589 0.97297,-0.97297z" fill="#4d9177" opacity="0.769"/><path d="M189.70871,133.64414c0.43242,0.21623 0.43242,0.21623 0,0z" fill="#fcfdfc" opacity="0.008"/><path d="M286.68168,132.02252c2.8307,1.90038 5.74962,3.41387 8.75676,4.54054c0,0.1081 0,0.21623 0,0.32432c-0.27178,0.11082 -0.38011,0.32705 -0.32432,0.64865c-0.27178,0.11082 -0.38011,0.32705 -0.32432,0.64865c-0.456,0.15344 -0.67232,0.47776 -0.64865,0.97297c-0.27178,0.11082 -0.38011,0.32705 -0.32432,0.64865c-0.27178,0.11082 -0.38011,0.32705 -0.32432,0.64865c-0.32432,0.1081 -0.54065,0.32432 -0.64865,0.64865c-0.21016,-0.47981 -0.31816,-0.96629 -0.32432,-1.45946c-2.16227,-1.1892 -4.32422,-2.37837 -6.48649,-3.56757c-0.56076,-0.58018 -0.77708,-1.2829 -0.64865,-2.10811c0.276,-0.77241 0.70832,-1.42106 1.2973,-1.94595z" fill="#223d32" opacity="0.769"/><path d="M241.92492,132.34685c0.86497,1.51352 1.72962,3.02702 2.59459,4.54054c-0.20011,0.0359 -0.36227,0.144 -0.48649,0.32432c-0.27146,-0.48889 -0.64995,-0.65105 -1.13514,-0.48649c0.108,0.1081 0.21632,0.21623 0.32432,0.32432c-0.64865,0.84201 -1.4053,1.59876 -2.27027,2.27027c0.108,0.1081 0.21632,0.21623 0.32432,0.32432c-1.01805,1.06489 -1.5587,2.30812 -1.62162,3.72973c0.03665,-2.19094 -0.17935,-4.35308 -0.64865,-6.48649c-0.11578,-1.55046 0.53286,-2.7937 1.94595,-3.72973c-0.108,-0.1081 -0.21632,-0.21623 -0.32432,-0.32432c0.39405,-0.67962 0.66454,-0.62556 0.81081,0.16216c0.09016,-0.29702 0.25232,-0.51324 0.48649,-0.64865z" fill="#1ac8aa" opacity="0.769"/><path d="M296.41141,135.26577c0.43232,0.21623 0.43232,0.21623 0,0z" fill="#2caa7c" opacity="0.008"/><path d="M345.06006,135.59009c-0.04249,-0.23964 0.01168,-0.45587 0.16216,-0.64865c0.22443,0.30383 0.17027,0.52002 -0.16216,0.64865z" fill="#f5fbf9" opacity="0.016"/><path d="M296.08709,135.91441c0.43232,0.21623 0.43232,0.21623 0,0z" fill="#2caa7c" opacity="0.008"/><path d="M295.76276,136.56306c0.43232,0.21623 0.43232,0.21623 0,0z" fill="#2caa7c" opacity="0.008"/><path d="M295.43844,136.88739c0.108,0 0.21632,0 0.32432,0c-0.06,0.21733 -0.16832,0.21733 -0.32432,0z" fill="#2caa7c" opacity="0.008"/><path d="M285.38437,133.96847c-0.12843,0.82521 0.08789,1.52792 0.64865,2.10811c2.16227,1.1892 4.32422,2.37837 6.48649,3.56757c0.00616,0.49317 0.11416,0.97965 0.32432,1.45946c0,0.1081 0,0.21623 0,0.32432c-0.27178,0.11082 -0.38011,0.32705 -0.32432,0.64865c-0.456,0.15344 -0.67232,0.47776 -0.64865,0.97297c-0.108,0 -0.21632,0 -0.32432,0c-2.50832,-1.25432 -4.99492,-2.60569 -7.45946,-4.05405c-0.50692,-0.24613 -0.83124,-0.62452 -0.97297,-1.13514c0.76151,-1.30881 1.51849,-2.60611 2.27027,-3.89189z" fill="#2d5142" opacity="0.769"/><path d="M295.11411,137.53604c0.43232,0.21623 0.43232,0.21623 0,0z" fill="#2caa7c" opacity="0.008"/><path d="M346.35736,137.53604c0,0.43242 0,0.86488 0,1.2973c-0.108,0 -0.21632,0 -0.32432,0c-0.08692,-0.51859 0.02141,-0.95105 0.32432,-1.2973z" fill="#f8fcfa" opacity="0.013"/><path d="M294.78979,138.18468c0.43232,0.21623 0.43232,0.21623 0,0z" fill="#2caa7c" opacity="0.008"/><path d="M194.24925,138.50901c0,0.1081 0,0.21623 0,0.32432c-0.21733,-0.1561 -0.21733,-0.26423 0,-0.32432z" fill="#fcfdfc" opacity="0.008"/><path d="M244.51952,136.88739c0.62173,0.91816 1.16205,1.89114 1.62162,2.91892c-2.3533,2.66565 -4.62357,5.36835 -6.81081,8.10811c-0.108,0 -0.21632,0 -0.32432,0c0.21632,-1.51352 0.43232,-3.02702 0.64865,-4.54054c0.06292,-1.42161 0.60357,-2.66484 1.62162,-3.72973c-0.108,-0.1081 -0.21632,-0.21623 -0.32432,-0.32432c0.86497,-0.67151 1.62162,-1.42826 2.27027,-2.27027c-0.108,-0.1081 -0.21632,-0.21623 -0.32432,-0.32432c0.48519,-0.16456 0.86368,-0.0024 1.13514,0.48649c0.12422,-0.18032 0.28638,-0.28842 0.48649,-0.32432z" fill="#15c39a" opacity="0.769"/><path d="M194.24925,138.83333c8.43311,-0.05403 16.86555,0 25.2973,0.16216c-8.48754,0.26922 -16.91997,0.21519 -25.2973,-0.16216z" fill="#fdfdfd" opacity="0.016"/><path d="M294.46547,138.83333c0.43232,0.21623 0.43232,0.21623 0,0z" fill="#2caa7c" opacity="0.008"/><path d="M294.14114,139.15766c0.108,0 0.21632,0 0.32432,0c-0.06,0.21733 -0.16832,0.21733 -0.32432,0z" fill="#2caa7c" opacity="0.008"/><path d="M274.68168,130.07658c4.27362,-0.10664 8.48984,0.00146 12.64865,0.32432c0,0.21623 -0.108,0.32432 -0.32432,0.32432c-0.21081,-0.09856 -0.42714,-0.20669 -0.64865,-0.32432c-2.82097,1.41045 -5.63157,2.81585 -8.43243,4.21622c-2.61892,5.13188 -5.484,10.10484 -8.59459,14.91892c-1.21459,-0.25849 -2.45805,-0.42065 -3.72973,-0.48649c-0.41546,-0.45688 -0.73978,-0.94336 -0.97297,-1.45946c0.96389,-1.72421 1.93686,-3.45392 2.91892,-5.18919c0.32432,-0.64865 0.64865,-1.2973 0.97297,-1.94595c0.80692,-0.96188 1.45557,-2.04295 1.94595,-3.24324c0.53611,-0.85314 1.07643,-1.71801 1.62162,-2.59459c0.24259,-0.59432 0.56692,-1.13484 0.97297,-1.62162c0.32432,-0.64865 0.64865,-1.2973 0.97297,-1.94595c0.29222,-0.25638 0.50854,-0.5807 0.64865,-0.97297z" fill="#f7f7f7"/><path d="M293.81682,139.80631c0.43232,0.21623 0.43232,0.21623 0,0z" fill="#2caa7c" opacity="0.008"/><path d="M283.11411,137.86036c0.14173,0.51062 0.46605,0.88901 0.97297,1.13514c2.46454,1.44837 4.95114,2.79973 7.45946,4.05405c0,0.21623 0,0.43242 0,0.64865c-0.27178,0.11082 -0.38011,0.32705 -0.32432,0.64865c-0.456,0.15344 -0.67232,0.47776 -0.64865,0.97297c-0.21632,0 -0.32432,0.1081 -0.32432,0.32432c-2.67924,-1.23175 -5.27384,-2.63715 -7.78378,-4.21622c-0.39081,-0.34926 -0.60714,-0.78169 -0.64865,-1.2973c0.35546,-0.82106 0.78778,-1.57781 1.2973,-2.27027z" fill="#366352" opacity="0.769"/><path d="M267.54654,142.4009c-0.98205,1.73526 -1.95503,3.46498 -2.91892,5.18919c-0.23416,0.13541 -0.39632,0.35163 -0.48649,0.64865c-0.12422,-0.18032 -0.28638,-0.28842 -0.48649,-0.32432c-2.04486,-3.67015 -4.09914,-7.34582 -6.16216,-11.02703c0.20011,-0.0359 0.36227,-0.144 0.48649,-0.32432c3.18584,1.99615 6.37492,3.9421 9.56757,5.83784z" fill="#5baa8b" opacity="0.769"/><path d="M293.49249,140.45495c0.43232,0.21623 0.43232,0.21623 0,0z" fill="#2caa7c" opacity="0.008"/><path d="M329.49249,140.45495c-0.21632,0.21623 -0.21632,0.21623 0,0z" fill="#fdfefd" opacity="0.016"/><path d="M223.43844,140.77928c0.04249,0.23964 -0.01168,0.45587 -0.16216,0.64865c-0.22443,-0.30383 -0.17027,-0.52002 0.16216,-0.64865z" fill="#fcfdfc" opacity="0.008"/><path d="M293.16817,141.1036c0.43232,0.21623 0.43232,0.21623 0,0z" fill="#2caa7c" opacity="0.008"/><path d="M292.84384,141.42793c0.108,0 0.21632,0 0.32432,0c-0.06,0.21733 -0.16832,0.21733 -0.32432,0z" fill="#2caa7c" opacity="0.008"/><path d="M329.81682,141.1036c0.04249,0.23964 -0.01168,0.45587 -0.16216,0.64865c-0.22443,-0.30383 -0.17027,-0.52002 0.16216,-0.64865z" fill="#edf9f4" opacity="0.004"/><path d="M292.51952,142.07658c0.43232,0.21623 0.43232,0.21623 0,0z" fill="#2caa7c" opacity="0.008"/><path d="M281.81682,140.13063c0.04151,0.51561 0.25784,0.94803 0.64865,1.2973c2.50995,1.57907 5.10454,2.98446 7.78378,4.21622c0,0.1081 0,0.21623 0,0.32432c-0.27178,0.11082 -0.38011,0.32705 -0.32432,0.64865c-0.456,0.15344 -0.67232,0.47776 -0.64865,0.97297c-0.27178,0.11082 -0.38011,0.32705 -0.32432,0.64865c-0.108,0 -0.21632,0 -0.32432,0c-2.38962,-1.57774 -4.87622,-3.09126 -7.45946,-4.54054c-0.39081,-0.34926 -0.60714,-0.78169 -0.64865,-1.2973c0.35546,-0.82106 0.78778,-1.57781 1.2973,-2.27027z" fill="#3f735f" opacity="0.769"/><path d="M292.1952,142.72523c0.43232,0.21623 0.43232,0.21623 0,0z" fill="#2caa7c" opacity="0.008"/><path d="M246.14114,139.80631c1.15816,1.77295 2.23914,3.61077 3.24324,5.51351c-0.28865,1.90894 -0.72097,3.74679 -1.2973,5.51351c-0.20011,-0.0359 -0.36227,-0.144 -0.48649,-0.32432c-1.43416,2.01795 -2.6773,3.74757 -3.72973,5.18919c-0.43232,-0.54065 -0.86497,-1.08097 -1.2973,-1.62162c-0.08108,-0.70508 -0.40541,-1.24573 -0.97297,-1.62162c0.05578,-0.32173 -0.05254,-0.53773 -0.32432,-0.64865c-0.08108,-0.70508 -0.40541,-1.2456 -0.97297,-1.62162c-0.05189,-0.53611 -0.26789,-0.96853 -0.64865,-1.2973c0,-0.21623 -0.108,-0.32432 -0.32432,-0.32432c0,-0.21623 0,-0.43242 0,-0.64865c2.18724,-2.73976 4.45751,-5.44245 6.81081,-8.10811z" fill="#07be86" opacity="0.769"/><path d="M291.87086,143.04955c0.108,0 0.21632,0 0.32432,0c-0.06,0.21733 -0.16832,0.21733 -0.32432,0z" fill="#2caa7c" opacity="0.008"/><path d="M291.54654,143.6982c0.43232,0.21623 0.43232,0.21623 0,0z" fill="#2caa7c" opacity="0.008"/><path d="M291.22222,144.34685c0.43232,0.21623 0.43232,0.21623 0,0z" fill="#2caa7c" opacity="0.008"/><path d="M280.51952,142.4009c0.04151,0.51561 0.25784,0.94803 0.64865,1.2973c2.58324,1.44928 5.06984,2.9628 7.45946,4.54054c0,0.21623 0,0.43242 0,0.64865c-0.456,0.15344 -0.67232,0.47776 -0.64865,0.97297c-0.27178,0.11082 -0.38011,0.32705 -0.32432,0.64865c-0.32432,0.1081 -0.54065,0.32432 -0.64865,0.64865c-2.23686,-1.63245 -4.61546,-3.09191 -7.13514,-4.37838c-0.38951,-0.2927 -0.66,-0.67109 -0.81081,-1.13514c-0.12422,0.18032 -0.28638,0.28842 -0.48649,0.32432c0.40281,-1.34766 1.05146,-2.53686 1.94595,-3.56757z" fill="#48876e" opacity="0.769"/><path d="M290.8979,144.9955c0.43232,0.21623 0.43232,0.21623 0,0z" fill="#2caa7c" opacity="0.008"/><path d="M290.57356,145.31982c0.108,0 0.21632,0 0.32432,0c-0.06,0.21733 -0.16832,0.21733 -0.32432,0z" fill="#2caa7c" opacity="0.008"/><path d="M329.49249,144.9955c0.33243,0.12863 0.38659,0.34482 0.16216,0.64865c-0.15049,-0.19278 -0.20465,-0.40901 -0.16216,-0.64865z" fill="#f5fbf9" opacity="0.016"/><path d="M290.24924,145.96847c0.43232,0.21623 0.43232,0.21623 0,0z" fill="#2caa7c" opacity="0.008"/><path d="M346.03303,145.96847c0.108,0 0.21632,0 0.32432,0c0,0.43242 0,0.86488 0,1.2973c-0.30292,-0.34625 -0.41124,-0.7787 -0.32432,-1.2973z" fill="#f4fbf8" opacity="0.016"/><path d="M287.00601,151.15766c0,0.1081 0,0.21623 0,0.32432c-0.27178,0.11082 -0.38011,0.32692 -0.32432,0.64865c-0.27178,0.11092 -0.38011,0.32692 -0.32432,0.64865c-0.108,0 -0.21632,0 -0.32432,0c-2.87222,-1.40971 -5.62897,-3.03133 -8.27027,-4.86486c-0.12422,0.18032 -0.28638,0.28842 -0.48649,0.32432c0.23578,-0.79583 0.56011,-1.55261 0.97297,-2.27027c0.108,0 0.21632,0 0.32432,0c0.20011,-0.0359 0.36227,-0.144 0.48649,-0.32432c0.15081,0.46404 0.4213,0.84243 0.81081,1.13514c2.51968,1.28646 4.89827,2.74592 7.13514,4.37838z" fill="#509579" opacity="0.769"/><path d="M289.92492,146.61712c0.43232,0.21623 0.43232,0.21623 0,0z" fill="#2caa7c" opacity="0.008"/><path d="M289.6006,147.26577c0.43232,0.21623 0.43232,0.21623 0,0z" fill="#2caa7c" opacity="0.008"/><path d="M289.27628,147.59009c0.108,0 0.21632,0 0.32432,0c-0.06,0.21733 -0.16832,0.21733 -0.32432,0z" fill="#2caa7c" opacity="0.008"/><path d="M345.70871,147.59009c0.33243,0.12863 0.38659,0.34482 0.16216,0.64865c-0.15049,-0.19278 -0.20465,-0.40901 -0.16216,-0.64865z" fill="#fdfefd" opacity="0.016"/><path d="M288.95195,148.23874c0.43232,0.21623 0.43232,0.21623 0,0z" fill="#2caa7c" opacity="0.008"/><path d="M192.3033,148.56306c0.43242,0.21623 0.43242,0.21623 0,0z" fill="#fdfefd" opacity="0.016"/><path d="M345.38438,148.56306c0.43232,0.21623 0.43232,0.43242 0,0.64865c0,-0.21623 0,-0.43242 0,-0.64865z" fill="#fdfdfd" opacity="0.012"/><path d="M239.00601,148.56306c0.108,0 0.21632,0 0.32432,0c0.21632,0 0.32432,0.1081 0.32432,0.32432c0,0.43242 -0.21632,0.64865 -0.64865,0.64865c0,-0.32432 0,-0.64865 0,-0.97297z" fill="#70c19e" opacity="0.008"/><path d="M288.62763,148.88739c0.43232,0.21623 0.43232,0.21623 0,0z" fill="#2caa7c" opacity="0.008"/><path d="M238.68168,149.53604c0.108,0 0.21632,0 0.32432,0c0.05578,0.3216 -0.05254,0.53783 -0.32432,0.64865c0,-0.21623 0,-0.43242 0,-0.64865z" fill="#fdfdfd" opacity="0.012"/><path d="M286.03303,152.77928c-0.19784,0.28897 -0.30584,0.6133 -0.32432,0.97297c-0.27178,0.11092 -0.38011,0.32692 -0.32432,0.64865c-0.27178,0.11092 -0.38011,0.32692 -0.32432,0.64865c-0.21632,0 -0.32432,0.108 -0.32432,0.32432c-0.21632,0 -0.32432,0.108 -0.32432,0.32432c-2.77459,-1.57686 -5.53135,-3.19849 -8.27027,-4.86486c-0.22962,0.28557 -0.50011,0.50179 -0.81081,0.64865c0.48649,-1.19124 1.13514,-2.27231 1.94595,-3.24324c0.20011,-0.0359 0.36227,-0.144 0.48649,-0.32432c2.6413,1.83354 5.39805,3.45516 8.27027,4.86486z" fill="#58a788" opacity="0.769"/><path d="M288.3033,149.53604c0.43232,0.21623 0.43232,0.21623 0,0z" fill="#2caa7c" opacity="0.008"/><path d="M345.06006,149.21171c0.108,0 0.21632,0 0.32432,0c-0.108,0.86488 -0.21632,0.86488 -0.32432,0z" fill="#f5fbf9" opacity="0.016"/><path d="M287.97898,149.86036c0.108,0 0.21632,0 0.32432,0c-0.06,0.21733 -0.16832,0.21733 -0.32432,0z" fill="#2caa7c" opacity="0.008"/><path d="M238.35736,150.18468c0.108,0 0.21632,0 0.32432,0c0.05578,0.3216 -0.05254,0.53783 -0.32432,0.64865c0,-0.21623 0,-0.43242 0,-0.64865z" fill="#fdfdfd" opacity="0.012"/><path d="M240.3033,150.18468c-0.21632,0.21623 -0.21632,0.21623 0,0z" fill="#2caa7c" opacity="0.008"/><path d="M298.35736,150.83333c-0.348,-0.24344 -0.40216,-0.56776 -0.16216,-0.97297c0.15665,0.30746 0.21049,0.63178 0.16216,0.97297z" fill="#f7fbf9" opacity="0.008"/><path d="M344.73574,150.18468c0.43232,0.21623 0.43232,0.21623 0,0z" fill="#fdfefd" opacity="0.016"/><path d="M191.97898,151.15766c-0.34816,-0.24344 -0.40219,-0.56776 -0.16216,-0.97297c0.15658,0.30746 0.21065,0.63178 0.16216,0.97297z" fill="#f7fbfa" opacity="0.012"/><path d="M248.08709,150.83333c0,0.75675 0,1.51362 0,2.27027c-0.31686,0.90389 -0.42486,1.87686 -0.32432,2.91892c-0.21632,1.72962 -0.43232,3.45957 -0.64865,5.18919c-0.21632,-0.108 -0.43232,-0.21632 -0.64865,-0.32432c0.05578,-0.32173 -0.05254,-0.53773 -0.32432,-0.64865c-0.08108,-0.70508 -0.40541,-1.24573 -0.97297,-1.62162c-0.18778,-0.91816 -0.62011,-1.67481 -1.2973,-2.27027c0,-0.21632 0,-0.43232 0,-0.64865c1.05243,-1.44162 2.29557,-3.17124 3.72973,-5.18919c0.12422,0.18032 0.28638,0.28842 0.48649,0.32432z" fill="#10c886" opacity="0.769"/><path d="M287.65465,150.50901c0.43232,0.21623 0.43232,0.21623 0,0z" fill="#2caa7c" opacity="0.008"/><path d="M240.3033,150.83333c0.43232,0.21623 0.43232,0.21623 0,0z" fill="#2caa7c" opacity="0.008"/><path d="M344.41141,150.83333c0.43232,0.21623 0.43232,0.21623 0,0z" fill="#fdfefd" opacity="0.016"/><path d="M238.03303,150.83333c0.108,0 0.21632,0 0.32432,0c0.05578,0.3216 -0.05254,0.53783 -0.32432,0.64865c0,-0.21623 0,-0.43242 0,-0.64865z" fill="#edf9f4" opacity="0.004"/><path d="M287.33033,151.15766c0.43232,0.21623 0.43232,0.21623 0,0z" fill="#2caa7c" opacity="0.008"/><path d="M191.33033,151.48198c0.33243,0.12863 0.3865,0.34476 0.16216,0.64865c-0.15058,-0.19265 -0.20465,-0.40897 -0.16216,-0.64865z" fill="#fdfdfd" opacity="0.012"/><path d="M237.70871,151.48198c0.108,0 0.21632,0 0.32432,0c-0.06,0.2173 -0.16832,0.2173 -0.32432,0z" fill="#fdfefd" opacity="0.016"/><path d="M287.00601,151.48198c0.108,0 0.21632,0 0.32432,0c-0.06,0.2173 -0.16832,0.2173 -0.32432,0z" fill="#2caa7c" opacity="0.008"/><path d="M344.08709,151.15766c0.108,0 0.21632,0 0.32432,0c0.05578,0.3216 -0.05254,0.53773 -0.32432,0.64865c0,-0.21623 0,-0.43242 0,-0.64865z" fill="#edf9f4" opacity="0.004"/><path d="M241.27628,151.80631c-0.21632,0.21632 -0.21632,0.21632 0,0z" fill="#2caa7c" opacity="0.008"/><path d="M343.76276,151.80631c0.108,0 0.21632,0 0.32432,0c-0.06,0.2173 -0.16832,0.2173 -0.32432,0z" fill="#fdfefd" opacity="0.016"/><path d="M237.38438,151.80631c0.108,0 0.21632,0 0.32432,0c0.05578,0.32173 -0.05254,0.53773 -0.32432,0.64865c0,-0.21632 0,-0.43232 0,-0.64865z" fill="#edf9f4" opacity="0.004"/><path d="M286.68168,152.13063c0.43232,0.21632 0.43232,0.21632 0,0z" fill="#2caa7c" opacity="0.008"/><path d="M237.06006,152.45495c0.108,0 0.21632,0 0.32432,0c-0.06,0.2173 -0.16832,0.2173 -0.32432,0z" fill="#fdfefd" opacity="0.016"/><path d="M241.6006,152.45495c-0.21632,0.21632 -0.21632,0.21632 0,0z" fill="#2caa7c" opacity="0.008"/><path d="M249.38438,145.31982c2.77978,4.58403 5.48238,9.23254 8.10811,13.94595c-3.04768,-1.57914 -6.07459,-3.25492 -9.08108,-5.02703c-0.27146,-0.32789 -0.37946,-0.70638 -0.32432,-1.13514c0,-0.75665 0,-1.51352 0,-2.27027c0.57632,-1.76672 1.00865,-3.60457 1.2973,-5.51351z" fill="#4cc696" opacity="0.769"/><path d="M343.43844,152.13063c0.108,0 0.21632,0 0.32432,0c0.05578,0.32173 -0.05254,0.53773 -0.32432,0.64865c0,-0.21632 0,-0.43232 0,-0.64865z" fill="#edf9f4" opacity="0.004"/><path d="M236.73574,152.77928c0.108,0 0.21632,0 0.32432,0c-0.06,0.2173 -0.16832,0.2173 -0.32432,0z" fill="#fdfefd" opacity="0.016"/><path d="M286.35736,152.77928c0.43232,0.21632 0.43232,0.21632 0,0z" fill="#2caa7c" opacity="0.008"/><path d="M343.11411,152.77928c0.108,0 0.21632,0 0.32432,0c-0.06,0.2173 -0.16832,0.2173 -0.32432,0z" fill="#fdfefd" opacity="0.016"/><path d="M241.6006,153.1036c0.43232,0.21632 0.43232,0.21632 0,0z" fill="#2caa7c" opacity="0.008"/><path d="M284.41141,155.6982c0,0.108 0,0.21632 0,0.32432c-0.27178,0.11092 -0.38011,0.32692 -0.32432,0.64865c-0.27178,0.11092 -0.38011,0.32692 -0.32432,0.64865c-0.21632,0 -0.32432,0.108 -0.32432,0.32432c-0.27178,0.11092 -0.38011,0.32692 -0.32432,0.64865c-0.27178,0.11092 -0.38011,0.32692 -0.32432,0.64865c-0.108,0 -0.21632,0 -0.32432,0c-2.60497,-1.73059 -5.30757,-3.35222 -8.10811,-4.86486c-0.22151,0.11773 -0.43784,0.22573 -0.64865,0.32432c0.29514,-1.13254 0.83546,-2.10551 1.62162,-2.91892c0.3107,-0.14685 0.58119,-0.36308 0.81081,-0.64865c2.73892,1.66638 5.49568,3.288 8.27027,4.86486z" fill="#64bc99" opacity="0.769"/><path d="M342.78979,153.1036c0.108,0 0.21632,0 0.32432,0c-0.06,0.2173 -0.16832,0.2173 -0.32432,0z" fill="#fdfefd" opacity="0.016"/><path d="M236.41141,153.1036c0.108,0 0.21632,0 0.32432,0c0.05578,0.32173 -0.05254,0.53773 -0.32432,0.64865c0,-0.21632 0,-0.43232 0,-0.64865z" fill="#edf9f4" opacity="0.004"/><path d="M286.03303,153.42793c0.43232,0.21632 0.43232,0.21632 0,0z" fill="#2caa7c" opacity="0.008"/><path d="M297.38437,154.07658c-0.348,-0.24357 -0.40216,-0.56789 -0.16216,-0.97297c0.15665,0.30746 0.21049,0.63178 0.16216,0.97297z" fill="#f7fbf9" opacity="0.008"/><path d="M342.46547,153.42793c0.108,0 0.21632,0 0.32432,0c-0.06,0.2173 -0.16832,0.2173 -0.32432,0z" fill="#fdfefd" opacity="0.016"/><path d="M191.00601,154.4009c-0.34816,-0.24357 -0.40219,-0.56789 -0.16216,-0.97297c0.15658,0.30746 0.21065,0.63178 0.16216,0.97297z" fill="#f7fcfa" opacity="0.016"/><path d="M236.41141,153.75225c-0.21632,0.21632 -0.21632,0.21632 0,0z" fill="#e4f7ef" opacity="0.004"/><path d="M342.14114,153.75225c0.108,0 0.21632,0 0.32432,0c-0.06,0.2173 -0.16832,0.2173 -0.32432,0z" fill="#fdfefd" opacity="0.016"/><path d="M236.08709,154.07658c-0.21632,0.21632 -0.21632,0.21632 0,0z" fill="#fcfdfc" opacity="0.008"/><path d="M242.57357,154.07658c-0.21632,0.21632 -0.21632,0.21632 0,0z" fill="#2caa7c" opacity="0.008"/><path d="M285.70871,153.75225c0.108,0 0.21632,0 0.32432,0c0.05578,0.32173 -0.05254,0.53773 -0.32432,0.64865c0,-0.21632 0,-0.43232 0,-0.64865z" fill="#aeddc8" opacity="0.004"/><path d="M341.81682,154.07658c0.108,0 0.21632,0 0.32432,0c-0.06,0.2173 -0.16832,0.2173 -0.32432,0z" fill="#fdfefd" opacity="0.016"/><path d="M235.76276,154.4009c-0.21632,0.21632 -0.21632,0.21632 0,0z" fill="#fcfdfc" opacity="0.008"/><path d="M285.38437,154.4009c0.108,0 0.21632,0 0.32432,0c-0.06,0.2173 -0.16832,0.2173 -0.32432,0z" fill="#2caa7c" opacity="0.008"/><path d="M341.49249,154.4009c0.108,0 0.21632,0 0.32432,0c-0.06,0.2173 -0.16832,0.2173 -0.32432,0z" fill="#fdfefd" opacity="0.016"/><path d="M235.43844,154.72523c-0.21632,0.21632 -0.21632,0.21632 0,0z" fill="#fcfdfc" opacity="0.008"/><path d="M341.16817,154.72523c0.108,0 0.21632,0 0.32432,0c-0.06,0.2173 -0.16832,0.2173 -0.32432,0z" fill="#fdfefd" opacity="0.016"/><path d="M235.11411,155.04955c-0.21632,0.21632 -0.21632,0.21632 0,0z" fill="#e4f7ef" opacity="0.004"/><path d="M285.06005,155.04955c0.43232,0.21632 0.43232,0.21632 0,0z" fill="#2caa7c" opacity="0.008"/><path d="M340.84384,155.04955c0.108,0 0.21632,0 0.32432,0c-0.06,0.2173 -0.16832,0.2173 -0.32432,0z" fill="#fdfefd" opacity="0.016"/><path d="M234.14114,155.37387c0.43232,0.21632 0.43232,0.21632 0,0z" fill="#fdfefd" opacity="0.016"/><path d="M340.51952,155.37387c0.108,0 0.21632,0 0.32432,0c-0.06,0.2173 -0.16832,0.2173 -0.32432,0z" fill="#fdfefd" opacity="0.016"/><path d="M233.81682,155.6982c0.108,0 0.21632,0 0.32432,0c-0.06,0.2173 -0.16832,0.2173 -0.32432,0z" fill="#fdfefd" opacity="0.016"/><path d="M284.73573,155.37387c0.108,0 0.21632,0 0.32432,0c0.05578,0.32173 -0.05254,0.53773 -0.32432,0.64865c0,-0.21632 0,-0.43232 0,-0.64865z" fill="#74c4a1" opacity="0.008"/><path d="M296.73573,156.34685c-0.348,-0.24357 -0.40216,-0.56789 -0.16216,-0.97297c0.15665,0.30746 0.21049,0.63178 0.16216,0.97297z" fill="#f7fbf9" opacity="0.008"/><path d="M340.51952,155.6982c-0.21632,0.21632 -0.21632,0.21632 0,0z" fill="#fcfdfc" opacity="0.008"/><path d="M233.49249,156.02252c0.108,0 0.21632,0 0.32432,0c-0.06,0.2173 -0.16832,0.2173 -0.32432,0z" fill="#fdfefd" opacity="0.016"/><path d="M282.46547,158.94144c-0.19784,0.28897 -0.30584,0.6133 -0.32432,0.97297c-0.27178,0.11092 -0.38011,0.32692 -0.32432,0.64865c-0.27178,0.11092 -0.38011,0.32692 -0.32432,0.64865c-0.456,0.15341 -0.67232,0.47773 -0.64865,0.97297c-0.27178,0.11092 -0.38011,0.32692 -0.32432,0.64865c-0.27178,0.11092 -0.38011,0.32692 -0.32432,0.64865c-0.21632,0 -0.32432,0.108 -0.32432,0.32432c-0.27178,0.11092 -0.38011,0.32692 -0.32432,0.64865c-0.27178,0.11092 -0.38011,0.32692 -0.32432,0.64865c-0.456,0.15341 -0.67232,0.47773 -0.64865,0.97297c-0.108,0 -0.21632,0 -0.32432,0c-2.82454,-1.14227 -5.52714,-2.54757 -8.10811,-4.21622c-0.33308,0.4187 -0.65741,0.4187 -0.97297,0c1.43676,-2.55211 2.95038,-5.0387 4.54054,-7.45946c0.21081,-0.09859 0.42714,-0.20659 0.64865,-0.32432c2.80054,1.51265 5.50314,3.13427 8.10811,4.86486z" fill="#69d0a8" opacity="0.769"/><path d="M339.54655,156.02252c0.43232,0.21632 0.43232,0.21632 0,0z" fill="#fdfefd" opacity="0.016"/><path d="M232.84384,156.67117c0,-0.108 0,-0.21632 0,-0.32432c0.21632,0 0.43232,0 0.64865,0c-0.11092,0.27178 -0.32692,0.38011 -0.64865,0.32432z" fill="#edf9f4" opacity="0.004"/><path d="M243.87087,156.34685c-0.21632,0.21632 -0.21632,0.21632 0,0z" fill="#2caa7c" opacity="0.008"/><path d="M284.41141,156.02252c0.108,0 0.21632,0 0.32432,0c0.05578,0.32173 -0.05254,0.53773 -0.32432,0.64865c0,-0.21632 0,-0.43232 0,-0.64865z" fill="#aeddc8" opacity="0.004"/><path d="M339.22222,156.34685c0.108,0 0.21632,0 0.32432,0c-0.06,0.2173 -0.16832,0.2173 -0.32432,0z" fill="#fdfefd" opacity="0.016"/><path d="M232.51952,156.67117c0.108,0 0.21632,0 0.32432,0c-0.06,0.2173 -0.16832,0.2173 -0.32432,0z" fill="#fdfefd" opacity="0.016"/><path d="M284.08709,156.67117c0.108,0 0.21632,0 0.32432,0c-0.06,0.2173 -0.16832,0.2173 -0.32432,0z" fill="#2caa7c" opacity="0.008"/><path d="M296.08709,156.67117c0.33243,0.12876 0.38659,0.34476 0.16216,0.64865c-0.15049,-0.19265 -0.20465,-0.40897 -0.16216,-0.64865z" fill="#fcfdfc" opacity="0.008"/><path d="M338.57357,156.9955c0,-0.108 0,-0.21632 0,-0.32432c0.21632,0 0.43232,0 0.64865,0c-0.11092,0.27178 -0.32692,0.38011 -0.64865,0.32432z" fill="#edf9f4" opacity="0.004"/><path d="M190.03303,157.64414c-0.34816,-0.24357 -0.40219,-0.56789 -0.16216,-0.97297c0.15658,0.30746 0.21065,0.63178 0.16216,0.97297z" fill="#f7fcfa" opacity="0.016"/><path d="M231.87087,156.9955c0.43232,0.21632 0.43232,0.21632 0,0z" fill="#fdfefd" opacity="0.016"/><path d="M338.57357,156.9955c-0.21632,0.21632 -0.21632,0.21632 0,0z" fill="#fdfefd" opacity="0.016"/><path d="M231.22222,157.64414c0,-0.108 0,-0.21632 0,-0.32432c0.21632,0 0.43232,0 0.64865,0c-0.11092,0.27178 -0.32692,0.38011 -0.64865,0.32432z" fill="#fdfdfd" opacity="0.012"/><path d="M283.76276,157.31982c0.43232,0.21632 0.43232,0.21632 0,0z" fill="#2caa7c" opacity="0.008"/><path d="M337.6006,157.31982c0.43232,0.21632 0.43232,0.21632 0,0z" fill="#fdfefd" opacity="0.016"/><path d="M230.57357,157.96847c0,-0.108 0,-0.21632 0,-0.32432c0.21632,0 0.43232,0 0.64865,0c-0.11092,0.27178 -0.32692,0.38011 -0.64865,0.32432z" fill="#fdfdfd" opacity="0.012"/><path d="M248.08709,153.1036c-0.05514,0.42876 0.05286,0.80724 0.32432,1.13514c3.00649,1.77211 6.03341,3.44789 9.08108,5.02703c1.62162,2.81092 3.24324,5.62151 4.86486,8.43243c-0.23416,0.13557 -0.39632,0.35157 -0.48649,0.64865c-4.44876,-2.95589 -9.04314,-5.71265 -13.78378,-8.27027c-0.31265,-1.3187 -0.42065,-2.67016 -0.32432,-4.05405c-0.10054,-1.04205 0.00746,-2.01503 0.32432,-2.91892z" fill="#33ba84" opacity="0.769"/><path d="M283.43844,157.64414c0.108,0 0.21632,0 0.32432,0c0.05578,0.32173 -0.05254,0.53773 -0.32432,0.64865c0,-0.21632 0,-0.43232 0,-0.64865z" fill="#e4f7ef" opacity="0.004"/><path d="M336.95195,157.64414c0.43232,0.21632 0.43232,0.21632 0,0z" fill="#fdfefd" opacity="0.016"/><path d="M229.92492,158.29279c0,-0.108 0,-0.21632 0,-0.32432c0.21632,0 0.43232,0 0.64865,0c-0.11092,0.27178 -0.32692,0.38011 -0.64865,0.32432z" fill="#fdfdfd" opacity="0.012"/><path d="M335.97898,158.29279c0,-0.108 0,-0.21632 0,-0.32432c0.86497,0.108 0.86497,0.21632 0,0.32432z" fill="#f5fbf9" opacity="0.016"/><path d="M229.92492,158.29279c-0.12876,0.33243 -0.34476,0.38659 -0.64865,0.16216c0.19265,-0.15049 0.40897,-0.20465 0.64865,-0.16216z" fill="#edf9f4" opacity="0.004"/><path d="M335.33033,158.29279c0.21632,0 0.43232,0 0.64865,0c-0.21632,0.43232 -0.43232,0.43232 -0.64865,0z" fill="#fdfdfd" opacity="0.012"/><path d="M228.3033,158.61712c0.23968,-0.04249 0.456,0.01168 0.64865,0.16216c-0.30389,0.22443 -0.51989,0.17027 -0.64865,-0.16216z" fill="#fdfdfd" opacity="0.012"/><path d="M245.16817,158.61712c-0.21632,0.21632 -0.21632,0.21632 0,0z" fill="#2caa7c" opacity="0.008"/><path d="M283.11411,158.29279c0.108,0 0.21632,0 0.32432,0c0.05578,0.32173 -0.05254,0.53773 -0.32432,0.64865c0,-0.21632 0,-0.43232 0,-0.64865z" fill="#aeddc8" opacity="0.004"/><path d="M334.35736,158.94144c0,-0.108 0,-0.21632 0,-0.32432c0.86497,0.108 0.86497,0.21632 0,0.32432z" fill="#fdfefd" opacity="0.016"/><path d="M227.33033,159.26577c0.12876,-0.33243 0.34476,-0.38659 0.64865,-0.16216c-0.19265,0.15049 -0.40897,0.20465 -0.64865,0.16216z" fill="#fdfdfd" opacity="0.012"/><path d="M282.78979,158.94144c0.108,0 0.21632,0 0.32432,0c-0.06,0.2173 -0.16832,0.2173 -0.32432,0z" fill="#2caa7c" opacity="0.008"/><path d="M295.76276,159.59009c-0.348,-0.24357 -0.40216,-0.56789 -0.16216,-0.97297c0.15665,0.30746 0.21049,0.63178 0.16216,0.97297z" fill="#f7fbf9" opacity="0.008"/><path d="M334.35736,158.94144c-0.24357,0.348 -0.56789,0.40216 -0.97297,0.16216c0.30746,-0.15665 0.63178,-0.21049 0.97297,-0.16216z" fill="#f7fcfa" opacity="0.016"/><path d="M225.70871,159.59009c0,-0.108 0,-0.21632 0,-0.32432c1.72962,0.108 1.72962,0.21632 0,0.32432z" fill="#f4fbf8" opacity="0.016"/><path d="M245.16817,159.26577c0.43232,0.21632 0.43232,0.21632 0,0z" fill="#2caa7c" opacity="0.008"/><path d="M332.08709,159.59009c0.24357,-0.348 0.56789,-0.40216 0.97297,-0.16216c-0.30746,0.15665 -0.63178,0.21049 -0.97297,0.16216z" fill="#f7fcfa" opacity="0.016"/><path d="M224.08709,159.59009c0.54065,0 1.08097,0 1.62162,0c-0.54065,0.43232 -1.08097,0.43232 -1.62162,0z" fill="#f5fbf9" opacity="0.013"/><path d="M282.46547,159.59009c0.43232,0.21632 0.43232,0.21632 0,0z" fill="#2caa7c" opacity="0.008"/><path d="M330.14114,159.91441c0.46897,-0.36097 1.00962,-0.41514 1.62162,-0.16216c-0.52995,0.16022 -1.07059,0.21405 -1.62162,0.16216z" fill="#f5fbf9" opacity="0.013"/><path d="M221.49249,160.23874c0.69016,-0.36616 1.44681,-0.42032 2.27027,-0.16216c-0.74919,0.16119 -1.50584,0.21503 -2.27027,0.16216z" fill="#f7fcfa" opacity="0.014"/><path d="M295.11411,159.91441c0.33243,0.12876 0.38659,0.34476 0.16216,0.64865c-0.15049,-0.19265 -0.20465,-0.40897 -0.16216,-0.64865z" fill="#fcfdfc" opacity="0.008"/><path d="M326.8979,160.23874c0.90941,-0.36908 1.88238,-0.42324 2.91892,-0.16216c-0.96714,0.16151 -1.94011,0.21568 -2.91892,0.16216z" fill="#f8fcfa" opacity="0.012"/><path d="M189.06006,160.88739c-0.34816,-0.24357 -0.40219,-0.56789 -0.16216,-0.97297c0.15658,0.30746 0.21065,0.63178 0.16216,0.97297z" fill="#f7fcfa" opacity="0.016"/><path d="M206.24925,160.56306c4.59266,-0.37654 9.24133,-0.43038 13.94595,-0.16216c-4.64741,0.16216 -9.29604,0.21632 -13.94595,0.16216z" fill="#e5f7f0" opacity="0.004"/><path d="M246.14114,160.23874c-0.21632,0.21632 -0.21632,0.21632 0,0z" fill="#2caa7c" opacity="0.008"/><path d="M282.14114,159.91441c0.108,0 0.21632,0 0.32432,0c0.05578,0.32173 -0.05254,0.53773 -0.32432,0.64865c0,-0.21632 0,-0.43232 0,-0.64865z" fill="#aeddc8" opacity="0.004"/><path d="M312.3033,160.23874c0.43232,0.21632 0.43232,0.43232 0,0.64865c0,-0.21632 0,-0.43232 0,-0.64865z" fill="#fdfdfd" opacity="0.012"/><path d="M205.92492,160.56306c0.1081,0 0.21623,0 0.32432,0c-0.0601,0.2173 -0.16823,0.2173 -0.32432,0z" fill="#fdfefd" opacity="0.016"/><path d="M281.81682,160.56306c0.108,0 0.21632,0 0.32432,0c-0.06,0.2173 -0.16832,0.2173 -0.32432,0z" fill="#2caa7c" opacity="0.008"/><path d="M246.46547,160.88739c-0.21632,0.21632 -0.21632,0.21632 0,0z" fill="#2caa7c" opacity="0.008"/><path d="M311.97898,160.88739c0.108,0 0.21632,0 0.32432,0c0.05578,0.32173 -0.05254,0.53773 -0.32432,0.64865c0,-0.21632 0,-0.43232 0,-0.64865z" fill="#fdfdfd" opacity="0.012"/><path d="M205.6006,161.21171c0.43242,0.21632 0.43242,0.21632 0,0z" fill="#fdfefd" opacity="0.016"/><path d="M281.49249,161.21171c0.43232,0.21632 0.43232,0.21632 0,0z" fill="#2caa7c" opacity="0.008"/><path d="M246.46547,161.53604c0.43232,0.21632 0.43232,0.21632 0,0z" fill="#2caa7c" opacity="0.008"/><path d="M205.27628,161.86036c0.43242,0.21632 0.43242,0.21632 0,0z" fill="#fdfefd" opacity="0.016"/><path d="M247.76276,156.02252c-0.09632,1.38389 0.01168,2.73535 0.32432,4.05405c4.74065,2.55762 9.33503,5.31438 13.78378,8.27027c0.09016,-0.29708 0.25232,-0.51308 0.48649,-0.64865c0.51114,0.912 1.10595,1.77665 1.78378,2.59459c0.76119,-0.87373 1.35568,-1.8467 1.78378,-2.91892c0.65741,-0.05254 1.30605,0.00162 1.94595,0.16216c2.51968,1.28659 4.89827,2.74605 7.13514,4.37838c0,0.108 0,0.21632 0,0.32432c-0.27178,0.11092 -0.38011,0.32692 -0.32432,0.64865c-0.27178,0.11092 -0.38011,0.32692 -0.32432,0.64865c-0.456,0.15341 -0.67232,0.47773 -0.64865,0.97297c-0.27178,0.11092 -0.38011,0.32692 -0.32432,0.64865c-0.27178,0.11092 -0.38011,0.32692 -0.32432,0.64865c-0.456,0.15341 -0.67232,0.47773 -0.64865,0.97297c-0.27178,0.11092 -0.38011,0.32692 -0.32432,0.64865c-0.27178,0.11092 -0.38011,0.32692 -0.32432,0.64865c-0.108,0 -0.21632,0 -0.32432,0c-6.70995,-3.924 -13.46659,-7.81589 -20.27027,-11.67568c-0.3227,0.18357 -0.59286,0.39989 -0.81081,0.64865c-0.108,0 -0.21632,0 -0.32432,0c-0.18778,-0.91816 -0.62011,-1.67481 -1.2973,-2.27027c-0.18778,-0.91816 -0.62011,-1.67481 -1.2973,-2.27027c-0.108,-0.43232 -0.21632,-0.86497 -0.32432,-1.2973c0.21632,-1.72962 0.43232,-3.45957 0.64865,-5.18919z" fill="#22b379" opacity="0.768"/><path d="M281.16817,161.86036c0.43232,0.21632 0.43232,0.21632 0,0z" fill="#2caa7c" opacity="0.008"/><path d="M311.65465,161.53604c0.108,0 0.21632,0 0.32432,0c0.05578,0.32173 -0.05254,0.53773 -0.32432,0.64865c0,-0.21632 0,-0.43232 0,-0.64865z" fill="#edf9f4" opacity="0.004"/><path d="M294.78979,162.83333c-0.348,-0.24357 -0.40216,-0.56789 -0.16216,-0.97297c0.15665,0.30746 0.21049,0.63178 0.16216,0.97297z" fill="#f7fbf9" opacity="0.008"/><path d="M188.41141,163.15766c-0.34816,-0.24357 -0.40219,-0.56789 -0.16216,-0.97297c0.15658,0.30746 0.21065,0.63178 0.16216,0.97297z" fill="#f7fcfa" opacity="0.016"/><path d="M204.95195,162.50901c0.43242,0.21632 0.43242,0.21632 0,0z" fill="#fdfefd" opacity="0.016"/><path d="M247.43844,162.50901c-0.21632,0.21632 -0.21632,0.21632 0,0z" fill="#2caa7c" opacity="0.008"/><path d="M280.84384,162.18468c0.108,0 0.21632,0 0.32432,0c0.05578,0.32173 -0.05254,0.53773 -0.32432,0.64865c0,-0.21632 0,-0.43232 0,-0.64865z" fill="#aeddc8" opacity="0.004"/><path d="M311.33033,162.18468c0.108,0 0.21632,0 0.32432,0c0.05578,0.32173 -0.05254,0.53773 -0.32432,0.64865c0,-0.21632 0,-0.43232 0,-0.64865z" fill="#edf9f4" opacity="0.004"/><path d="M280.51952,162.83333c0.108,0 0.21632,0 0.32432,0c-0.06,0.2173 -0.16832,0.2173 -0.32432,0z" fill="#2caa7c" opacity="0.008"/><path d="M204.62763,163.15766c0.43242,0.21632 0.43242,0.21632 0,0z" fill="#fdfefd" opacity="0.016"/><path d="M294.14114,163.15766c0.33243,0.12876 0.38659,0.34476 0.16216,0.64865c-0.15049,-0.19265 -0.20465,-0.40897 -0.16216,-0.64865z" fill="#fcfdfc" opacity="0.008"/><path d="M311.00601,162.83333c0.108,0 0.21632,0 0.32432,0c0.05578,0.32173 -0.05254,0.53773 -0.32432,0.64865c0,-0.21632 0,-0.43232 0,-0.64865z" fill="#edf9f4" opacity="0.004"/><path d="M187.76276,163.48198c0.33243,0.12876 0.3865,0.34476 0.16216,0.64865c-0.15058,-0.19265 -0.20465,-0.40897 -0.16216,-0.64865z" fill="#fdfdfd" opacity="0.012"/><path d="M280.1952,163.48198c0.43232,0.21632 0.43232,0.21632 0,0z" fill="#2caa7c" opacity="0.008"/><path d="M204.3033,163.80631c0.43242,0.21632 0.43242,0.21632 0,0z" fill="#fdfefd" opacity="0.016"/><path d="M310.68168,163.48198c0.108,0 0.21632,0 0.32432,0c0.05578,0.32173 -0.05254,0.53773 -0.32432,0.64865c0,-0.21632 0,-0.43232 0,-0.64865z" fill="#edf9f4" opacity="0.004"/><path d="M279.87086,163.80631c0.108,0 0.21632,0 0.32432,0c0.05578,0.32173 -0.05254,0.53773 -0.32432,0.64865c0,-0.21632 0,-0.43232 0,-0.64865z" fill="#74c4a1" opacity="0.008"/><path d="M203.97898,164.45495c0.43242,0.21632 0.43242,0.21632 0,0z" fill="#fdfefd" opacity="0.016"/><path d="M310.35736,164.13063c0.108,0 0.21632,0 0.32432,0c0.05578,0.32173 -0.05254,0.53773 -0.32432,0.64865c0,-0.21632 0,-0.43232 0,-0.64865z" fill="#edf9f4" opacity="0.004"/><path d="M248.73574,164.77928c-0.21632,0.21632 -0.21632,0.21632 0,0z" fill="#2caa7c" opacity="0.008"/><path d="M279.54654,164.45495c0.108,0 0.21632,0 0.32432,0c0.05578,0.32173 -0.05254,0.53773 -0.32432,0.64865c0,-0.21632 0,-0.43232 0,-0.64865z" fill="#aeddc8" opacity="0.004"/><path d="M203.65465,165.1036c0.43242,0.21632 0.43242,0.21632 0,0z" fill="#fdfefd" opacity="0.016"/><path d="M279.22222,165.1036c0.108,0 0.21632,0 0.32432,0c-0.06,0.2173 -0.16832,0.2173 -0.32432,0z" fill="#2caa7c" opacity="0.008"/><path d="M310.03303,164.77928c0.108,0 0.21632,0 0.32432,0c0.05578,0.32173 -0.05254,0.53773 -0.32432,0.64865c0,-0.21632 0,-0.43232 0,-0.64865z" fill="#edf9f4" opacity="0.004"/><path d="M248.73574,165.42793c0.43232,0.21632 0.43232,0.21632 0,0z" fill="#2caa7c" opacity="0.008"/><path d="M293.81682,166.07658c-0.348,-0.24357 -0.40216,-0.56789 -0.16216,-0.97297c0.15665,0.30746 0.21049,0.63178 0.16216,0.97297z" fill="#f7fbfa" opacity="0.012"/><path d="M187.43844,166.4009c-0.34815,-0.24357 -0.4022,-0.56789 -0.16216,-0.97297c0.15658,0.30746 0.21063,0.63178 0.16216,0.97297z" fill="#f7fcfa" opacity="0.016"/><path d="M203.33033,165.75225c0.43242,0.21632 0.43242,0.21632 0,0z" fill="#fdfefd" opacity="0.016"/><path d="M278.8979,165.75225c0.43232,0.21632 0.43232,0.21632 0,0z" fill="#2caa7c" opacity="0.008"/><path d="M309.70871,165.42793c0.108,0 0.21632,0 0.32432,0c0.05578,0.32173 -0.05254,0.53773 -0.32432,0.64865c0,-0.21632 0,-0.43232 0,-0.64865z" fill="#edf9f4" opacity="0.004"/><path d="M203.00601,166.4009c0.43242,0.21632 0.43242,0.21632 0,0z" fill="#fdfefd" opacity="0.016"/><path d="M269.16817,161.86036c0.31557,0.4187 0.63989,0.4187 0.97297,0c2.58097,1.66865 5.28357,3.07395 8.10811,4.21622c0,0.21632 0,0.43232 0,0.64865c-0.27178,0.11092 -0.38011,0.32692 -0.32432,0.64865c-0.456,0.15341 -0.67232,0.47773 -0.64865,0.97297c-0.27178,0.11092 -0.38011,0.32692 -0.32432,0.64865c-0.27178,0.11092 -0.38011,0.32692 -0.32432,0.64865c-0.21632,0 -0.32432,0.108 -0.32432,0.32432c-0.27178,0.11092 -0.38011,0.32692 -0.32432,0.64865c-0.27178,0.11092 -0.38011,0.32692 -0.32432,0.64865c-0.27178,0.11092 -0.38011,0.32692 -0.32432,0.64865c-0.108,0 -0.21632,0 -0.32432,0c-2.23686,-1.63232 -4.61546,-3.09178 -7.13514,-4.37838c-0.63989,-0.16054 -1.28854,-0.2147 -1.94595,-0.16216c1.08097,-1.83795 2.16227,-3.67557 3.24324,-5.51351z" fill="#43c28f" opacity="0.769"/><path d="M278.57356,166.07658c0.108,0 0.21632,0 0.32432,0c0.05578,0.32173 -0.05254,0.53773 -0.32432,0.64865c0,-0.21632 0,-0.43232 0,-0.64865z" fill="#aeddc8" opacity="0.004"/><path d="M293.16817,166.4009c0.33243,0.12876 0.38659,0.34476 0.16216,0.64865c-0.15049,-0.19265 -0.20465,-0.40897 -0.16216,-0.64865z" fill="#fcfdfc" opacity="0.008"/><path d="M309.38437,166.07658c0.108,0 0.21632,0 0.32432,0c0.05578,0.32173 -0.05254,0.53773 -0.32432,0.64865c0,-0.21632 0,-0.43232 0,-0.64865z" fill="#edf9f4" opacity="0.004"/><path d="M186.78979,166.72523c0.33244,0.12876 0.38649,0.34476 0.16216,0.64865c-0.1506,-0.19265 -0.20465,-0.40897 -0.16216,-0.64865z" fill="#fdfdfd" opacity="0.012"/><path d="M202.68168,167.04955c0.43242,0.21632 0.43242,0.21632 0,0z" fill="#fdfefd" opacity="0.016"/><path d="M250.03303,167.04955c-0.21632,0.21632 -0.21632,0.21632 0,0z" fill="#2caa7c" opacity="0.008"/><path d="M278.24924,166.72523c0.108,0 0.21632,0 0.32432,0c0.05578,0.32173 -0.05254,0.53773 -0.32432,0.64865c0,-0.21632 0,-0.43232 0,-0.64865z" fill="#aeddc8" opacity="0.004"/><path d="M309.06005,166.72523c0.108,0 0.21632,0 0.32432,0c0.05578,0.32173 -0.05254,0.53773 -0.32432,0.64865c0,-0.21632 0,-0.43232 0,-0.64865z" fill="#edf9f4" opacity="0.004"/><path d="M277.92492,167.37387c0.108,0 0.21632,0 0.32432,0c-0.06,0.2173 -0.16832,0.2173 -0.32432,0z" fill="#2caa7c" opacity="0.008"/><path d="M202.35736,167.6982c0.43242,0.21632 0.43242,0.21632 0,0z" fill="#fdfefd" opacity="0.016"/><path d="M250.03303,167.6982c0.43232,0.21632 0.43232,0.21632 0,0z" fill="#2caa7c" opacity="0.008"/><path d="M271.43844,178.07658c0,0.108 0,0.21632 0,0.32432c-0.27178,0.11092 -0.38011,0.32692 -0.32432,0.64865c-0.27178,0.11092 -0.38011,0.32692 -0.32432,0.64865c-0.27178,0.11092 -0.38011,0.32692 -0.32432,0.64865c-0.108,0 -0.21632,0 -0.32432,0c-5.46616,-3.46541 -11.03384,-6.81665 -16.7027,-10.05405c-0.3227,0.18357 -0.59286,0.39989 -0.81081,0.64865c-0.108,0 -0.21632,0 -0.32432,0c-0.08108,-0.70508 -0.40541,-1.24573 -0.97297,-1.62162c0.05578,-0.32173 -0.05254,-0.53773 -0.32432,-0.64865c-0.12746,-0.57859 -0.34346,-1.11892 -0.64865,-1.62162c0.21795,-0.24876 0.48811,-0.46508 0.81081,-0.64865c6.80368,3.85978 13.56032,7.75168 20.27027,11.67568z" fill="#1ab878" opacity="0.769"/><path d="M308.73573,167.37387c0.108,0 0.21632,0 0.32432,0c0.05578,0.32173 -0.05254,0.53773 -0.32432,0.64865c0,-0.21632 0,-0.43232 0,-0.64865z" fill="#edf9f4" opacity="0.004"/><path d="M277.6006,168.02252c0.43232,0.21632 0.43232,0.21632 0,0z" fill="#2caa7c" opacity="0.008"/><path d="M202.03303,168.34685c0.43242,0.21632 0.43242,0.21632 0,0z" fill="#fdfefd" opacity="0.016"/><path d="M308.41141,168.02252c0.108,0 0.21632,0 0.32432,0c0.05578,0.32173 -0.05254,0.53773 -0.32432,0.64865c0,-0.21632 0,-0.43232 0,-0.64865z" fill="#edf9f4" opacity="0.004"/><path d="M251.00601,168.67117c-0.21632,0.21632 -0.21632,0.21632 0,0z" fill="#2caa7c" opacity="0.008"/><path d="M277.27628,168.34685c0.108,0 0.21632,0 0.32432,0c0.05578,0.32173 -0.05254,0.53773 -0.32432,0.64865c0,-0.21632 0,-0.43232 0,-0.64865z" fill="#aeddc8" opacity="0.004"/><path d="M292.84384,169.31982c-0.348,-0.24357 -0.40216,-0.56789 -0.16216,-0.97297c0.15665,0.30746 0.21049,0.63178 0.16216,0.97297z" fill="#f7fcfa" opacity="0.016"/><path d="M186.46547,169.64414c-0.34815,-0.24357 -0.4022,-0.56789 -0.16216,-0.97297c0.15658,0.30746 0.21063,0.63178 0.16216,0.97297z" fill="#f7fcfa" opacity="0.016"/><path d="M201.70871,168.9955c0.43242,0.21632 0.43242,0.21632 0,0z" fill="#fdfefd" opacity="0.016"/><path d="M276.95195,168.9955c0.108,0 0.21632,0 0.32432,0c-0.06,0.2173 -0.16832,0.2173 -0.32432,0z" fill="#2caa7c" opacity="0.008"/><path d="M308.08709,168.67117c0.108,0 0.21632,0 0.32432,0c0.05578,0.32173 -0.05254,0.53773 -0.32432,0.64865c0,-0.21632 0,-0.43232 0,-0.64865z" fill="#edf9f4" opacity="0.004"/><path d="M251.33033,169.31982c-0.21632,0.21632 -0.21632,0.21632 0,0z" fill="#2caa7c" opacity="0.008"/><path d="M201.38438,169.64414c0.43242,0.21632 0.43242,0.21632 0,0z" fill="#fdfefd" opacity="0.016"/><path d="M276.62763,169.64414c0.43232,0.21632 0.43232,0.21632 0,0z" fill="#2caa7c" opacity="0.008"/><path d="M292.1952,169.64414c0.33243,0.12876 0.38659,0.34476 0.16216,0.64865c-0.15049,-0.19265 -0.20465,-0.40897 -0.16216,-0.64865z" fill="#fdfdfd" opacity="0.012"/><path d="M307.76276,169.31982c0.108,0 0.21632,0 0.32432,0c0.05578,0.32173 -0.05254,0.53773 -0.32432,0.64865c0,-0.21632 0,-0.43232 0,-0.64865z" fill="#edf9f4" opacity="0.004"/><path d="M185.81682,169.96847c0.33244,0.12876 0.38649,0.34476 0.16216,0.64865c-0.1506,-0.19265 -0.20465,-0.40897 -0.16216,-0.64865z" fill="#fdfdfd" opacity="0.012"/><path d="M251.33033,169.96847c0.43232,0.21632 0.43232,0.21632 0,0z" fill="#2caa7c" opacity="0.008"/><path d="M201.06006,170.29279c0.43242,0.21632 0.43242,0.21632 0,0z" fill="#fdfefd" opacity="0.016"/><path d="M276.3033,169.96847c0.108,0 0.21632,0 0.32432,0c0.05578,0.32173 -0.05254,0.53773 -0.32432,0.64865c0,-0.21632 0,-0.43232 0,-0.64865z" fill="#74c4a1" opacity="0.008"/><path d="M307.43844,169.96847c0.108,0 0.21632,0 0.32432,0c0.05578,0.32173 -0.05254,0.53773 -0.32432,0.64865c0,-0.21632 0,-0.43232 0,-0.64865z" fill="#edf9f4" opacity="0.004"/><path d="M200.73574,170.94144c0.43242,0.21632 0.43242,0.21632 0,0z" fill="#fdfefd" opacity="0.016"/><path d="M252.3033,170.94144c-0.21632,0.21632 -0.21632,0.21632 0,0z" fill="#2caa7c" opacity="0.008"/><path d="M275.97898,170.61712c0.108,0 0.21632,0 0.32432,0c0.05578,0.32173 -0.05254,0.53773 -0.32432,0.64865c0,-0.21632 0,-0.43232 0,-0.64865z" fill="#aeddc8" opacity="0.004"/><path d="M307.11411,170.61712c0.108,0 0.21632,0 0.32432,0c0.05578,0.32173 -0.05254,0.53773 -0.32432,0.64865c0,-0.21632 0,-0.43232 0,-0.64865z" fill="#edf9f4" opacity="0.004"/><path d="M275.65465,171.26577c0.108,0 0.21632,0 0.32432,0c-0.06,0.2173 -0.16832,0.2173 -0.32432,0z" fill="#2caa7c" opacity="0.008"/><path d="M200.41141,171.59009c0.43242,0.21632 0.43242,0.21632 0,0z" fill="#fdfefd" opacity="0.016"/><path d="M306.78979,171.26577c0.108,0 0.21632,0 0.32432,0c0.05578,0.32173 -0.05254,0.53773 -0.32432,0.64865c0,-0.21632 0,-0.43232 0,-0.64865z" fill="#edf9f4" opacity="0.004"/><path d="M270.14114,180.34685c0,0.108 0,0.21632 0,0.32432c-0.27178,0.11092 -0.38011,0.32692 -0.32432,0.64865c-0.27178,0.11092 -0.38011,0.32692 -0.32432,0.64865c-0.456,0.15341 -0.67232,0.47773 -0.64865,0.97297c-0.27178,0.11092 -0.38011,0.32692 -0.32432,0.64865c-0.21632,0 -0.32432,0.108 -0.32432,0.32432c-3.79265,-2.14086 -7.52238,-4.41114 -11.18919,-6.81081c-0.09016,0.29708 -0.25232,0.51308 -0.48649,0.64865c-0.21632,-0.21632 -0.43232,-0.43232 -0.64865,-0.64865c0.05578,-0.32173 -0.05254,-0.53773 -0.32432,-0.64865c0.02368,-0.49524 -0.19265,-0.81957 -0.64865,-0.97297c0.05578,-0.32173 -0.05254,-0.53773 -0.32432,-0.64865c-0.08108,-0.70508 -0.40541,-1.24573 -0.97297,-1.62162c-0.24065,-0.80432 -0.56497,-1.56097 -0.97297,-2.27027c0.21795,-0.24876 0.48811,-0.46508 0.81081,-0.64865c5.66886,3.23741 11.23654,6.58865 16.7027,10.05405z" fill="#1bc481" opacity="0.77"/><path d="M275.33033,171.91441c0.43232,0.21632 0.43232,0.21632 0,0z" fill="#2caa7c" opacity="0.008"/><path d="M291.87086,172.56306c-0.348,-0.24357 -0.40216,-0.56789 -0.16216,-0.97297c0.15665,0.30746 0.21049,0.63178 0.16216,0.97297z" fill="#f7fcfa" opacity="0.016"/><path d="M306.46547,171.91441c0.108,0 0.21632,0 0.32432,0c-0.06,0.2173 -0.16832,0.2173 -0.32432,0z" fill="#fcfdfc" opacity="0.008"/><path d="M185.49249,172.88739c-0.34815,-0.24357 -0.4022,-0.56789 -0.16216,-0.97297c0.15658,0.30746 0.21063,0.63178 0.16216,0.97297z" fill="#f7fcfa" opacity="0.016"/><path d="M306.14114,172.23874c0.108,0 0.21632,0 0.32432,0c-0.06,0.2173 -0.16832,0.2173 -0.32432,0z" fill="#e4f7ef" opacity="0.004"/><path d="M199.43844,172.56306c0.43242,0.21632 0.43242,0.21632 0,0z" fill="#e4f7ef" opacity="0.004"/><path d="M275.00601,172.23874c0.108,0 0.21632,0 0.32432,0c0.05578,0.32173 -0.05254,0.53773 -0.32432,0.64865c0,-0.21632 0,-0.43232 0,-0.64865z" fill="#74c4a1" opacity="0.008"/><path d="M305.81682,172.56306c0.108,0 0.21632,0 0.32432,0c-0.06,0.2173 -0.16832,0.2173 -0.32432,0z" fill="#fcfdfc" opacity="0.008"/><path d="M198.78979,173.21171c0,-0.108 0,-0.21632 0,-0.32432c0.21623,0 0.43242,0 0.64865,0c-0.11082,0.27178 -0.32705,0.38011 -0.64865,0.32432z" fill="#fdfdfd" opacity="0.012"/><path d="M291.22222,172.88739c0.33243,0.12876 0.38659,0.34476 0.16216,0.64865c-0.15049,-0.19265 -0.20465,-0.40897 -0.16216,-0.64865z" fill="#fdfdfd" opacity="0.012"/><path d="M304.84384,173.21171c0,-0.108 0,-0.21632 0,-0.32432c0.86497,0.108 0.86497,0.21632 0,0.32432z" fill="#f5fbf9" opacity="0.016"/><path d="M184.84384,173.21171c0.33244,0.12876 0.38649,0.34476 0.16216,0.64865c-0.1506,-0.19265 -0.20465,-0.40897 -0.16216,-0.64865z" fill="#fdfdfd" opacity="0.012"/><path d="M198.78979,173.21171c-0.12863,0.33243 -0.34482,0.38659 -0.64865,0.16216c0.19278,-0.15049 0.40901,-0.20465 0.64865,-0.16216z" fill="#edf9f4" opacity="0.004"/><path d="M253.6006,173.21171c-0.21632,0.21632 -0.21632,0.21632 0,0z" fill="#2caa7c" opacity="0.008"/><path d="M274.68168,172.88739c0.108,0 0.21632,0 0.32432,0c0.05578,0.32173 -0.05254,0.53773 -0.32432,0.64865c0,-0.21632 0,-0.43232 0,-0.64865z" fill="#aeddc8" opacity="0.004"/><path d="M304.1952,173.53604c0,-0.108 0,-0.21632 0,-0.32432c0.21632,0 0.43232,0 0.64865,0c-0.11092,0.27178 -0.32692,0.38011 -0.64865,0.32432z" fill="#fdfdfd" opacity="0.012"/><path d="M197.16817,173.86036c0,-0.108 0,-0.21632 0,-0.32432c0.86488,0.108 0.86488,0.21632 0,0.32432z" fill="#fdfdfd" opacity="0.012"/><path d="M274.35736,173.53604c0.108,0 0.21632,0 0.32432,0c-0.06,0.2173 -0.16832,0.2173 -0.32432,0z" fill="#2caa7c" opacity="0.008"/><path d="M303.22222,173.86036c0,-0.108 0,-0.21632 0,-0.32432c0.32432,0 0.64865,0 0.97297,0c-0.22995,0.29319 -0.55427,0.40119 -0.97297,0.32432z" fill="#f1faf6" opacity="0.016"/><path d="M197.16817,173.86036c-0.12863,0.33243 -0.34482,0.38659 -0.64865,0.16216c0.19278,-0.15049 0.40901,-0.20465 0.64865,-0.16216z" fill="#edf9f4" opacity="0.004"/><path d="M253.6006,173.86036c0.43232,0.21632 0.43232,0.21632 0,0z" fill="#2caa7c" opacity="0.008"/><path d="M302.57356,174.18468c0,-0.108 0,-0.21632 0,-0.32432c0.21632,0 0.43232,0 0.64865,0c-0.11092,0.27178 -0.32692,0.38011 -0.64865,0.32432z" fill="#fdfdfd" opacity="0.012"/><path d="M195.54655,174.50901c0,-0.108 0,-0.21632 0,-0.32432c0.86488,0.108 0.86488,0.21632 0,0.32432z" fill="#fcfdfc" opacity="0.008"/><path d="M274.03303,174.18468c0.43232,0.21632 0.43232,0.21632 0,0z" fill="#2caa7c" opacity="0.008"/><path d="M302.57356,174.18468c-0.12876,0.33243 -0.34476,0.38659 -0.64865,0.16216c0.19265,-0.15049 0.40897,-0.20465 0.64865,-0.16216z" fill="#edf9f4" opacity="0.004"/><path d="M194.8979,174.50901c0.21623,0 0.43242,0 0.64865,0c-0.21623,0.43232 -0.43242,0.43232 -0.64865,0z" fill="#edf9f4" opacity="0.004"/><path d="M273.70871,174.50901c0.108,0 0.21632,0 0.32432,0c0.05578,0.32173 -0.05254,0.53773 -0.32432,0.64865c0,-0.21632 0,-0.43232 0,-0.64865z" fill="#2caa7c" opacity="0.008"/><path d="M300.95195,174.83333c0,-0.108 0,-0.21632 0,-0.32432c0.86497,0.108 0.86497,0.21632 0,0.32432z" fill="#fdfdfd" opacity="0.012"/><path d="M193.92492,175.15766c0,-0.108 0,-0.21632 0,-0.32432c0.86488,0.108 0.86488,0.21632 0,0.32432z" fill="#fcfdfc" opacity="0.008"/><path d="M254.57357,174.83333c-0.21632,0.21632 -0.21632,0.21632 0,0z" fill="#2caa7c" opacity="0.008"/><path d="M300.95195,174.83333c-0.12876,0.33243 -0.34476,0.38659 -0.64865,0.16216c0.19265,-0.15049 0.40897,-0.20465 0.64865,-0.16216z" fill="#edf9f4" opacity="0.004"/><path d="M193.27628,175.15766c0.21623,0 0.43242,0 0.64865,0c-0.21623,0.43232 -0.43242,0.43232 -0.64865,0z" fill="#edf9f4" opacity="0.004"/><path d="M273.38437,175.15766c0.108,0 0.21632,0 0.32432,0c-0.06,0.2173 -0.16832,0.2173 -0.32432,0z" fill="#2caa7c" opacity="0.008"/><path d="M290.8979,175.80631c-0.348,-0.24357 -0.40216,-0.56789 -0.16216,-0.97297c0.15665,0.30746 0.21049,0.63178 0.16216,0.97297z" fill="#f7fcfa" opacity="0.016"/><path d="M299.33033,175.48198c0,-0.108 0,-0.21632 0,-0.32432c0.86497,0.108 0.86497,0.21632 0,0.32432z" fill="#fdfdfd" opacity="0.012"/><path d="M184.1952,175.15766c0.29318,0.22995 0.40129,0.55427 0.32432,0.97297c-0.10811,0 -0.21622,0 -0.32432,0c0,-0.32432 0,-0.64865 0,-0.97297z" fill="#f7fcfa" opacity="0.016"/><path d="M192.3033,175.80631c0,-0.108 0,-0.21632 0,-0.32432c0.86488,0.108 0.86488,0.21632 0,0.32432z" fill="#f5fbf8" opacity="0.008"/><path d="M254.8979,175.48198c-0.21632,0.21632 -0.21632,0.21632 0,0z" fill="#2caa7c" opacity="0.008"/><path d="M298.68168,175.48198c0.21632,0 0.43232,0 0.64865,0c-0.21632,0.43232 -0.43232,0.43232 -0.64865,0z" fill="#edf9f4" opacity="0.004"/><path d="M191.65465,176.13063c0,-0.108 0,-0.21632 0,-0.32432c0.21623,0 0.43242,0 0.64865,0c-0.11082,0.27178 -0.32705,0.38011 -0.64865,0.32432z" fill="#fdfdfd" opacity="0.012"/><path d="M273.06005,175.80631c0.43232,0.21632 0.43232,0.21632 0,0z" fill="#2caa7c" opacity="0.008"/><path d="M297.70871,176.13063c0,-0.108 0,-0.21632 0,-0.32432c0.86497,0.108 0.86497,0.21632 0,0.32432z" fill="#fdfdfd" opacity="0.012"/><path d="M190.68168,176.45495c0,-0.108 0,-0.21632 0,-0.32432c0.32432,0 0.64865,0 0.97297,0c-0.22995,0.29319 -0.55427,0.40119 -0.97297,0.32432z" fill="#f1faf6" opacity="0.016"/><path d="M255.22222,176.45495c-0.21632,-0.43232 -0.21632,-0.43232 0,0z" fill="#2caa7c" opacity="0.008"/><path d="M297.06005,176.13063c0.21632,0 0.43232,0 0.64865,0c-0.21632,0.43232 -0.43232,0.43232 -0.64865,0z" fill="#fdfdfd" opacity="0.012"/><path d="M190.03303,176.77928c0,-0.108 0,-0.21632 0,-0.32432c0.21623,0 0.43242,0 0.64865,0c-0.11082,0.27178 -0.32705,0.38011 -0.64865,0.32432z" fill="#fdfdfd" opacity="0.012"/><path d="M272.73573,176.45495c0.43232,0.21632 0.43232,0.21632 0,0z" fill="#2caa7c" opacity="0.008"/><path d="M296.08709,176.77928c0,-0.108 0,-0.21632 0,-0.32432c0.86497,0.108 0.86497,0.21632 0,0.32432z" fill="#f5fbf9" opacity="0.016"/><path d="M190.03303,176.77928c-0.12863,0.33243 -0.34482,0.38659 -0.64865,0.16216c0.19278,-0.15049 0.40901,-0.20465 0.64865,-0.16216z" fill="#edf9f4" opacity="0.004"/><path d="M255.22222,176.45495c0.108,0 0.21632,0 0.32432,0c0,0.21632 0,0.43232 0,0.64865c-0.27178,-0.11092 -0.38011,-0.32692 -0.32432,-0.64865z" fill="#aeddc8" opacity="0.004"/><path d="M272.41141,176.77928c0.108,0 0.21632,0 0.32432,0c0.05578,0.32173 -0.05254,0.53773 -0.32432,0.64865c0,-0.21632 0,-0.43232 0,-0.64865z" fill="#2caa7c" opacity="0.008"/><path d="M295.43844,177.1036c0,-0.108 0,-0.21632 0,-0.32432c0.21632,0 0.43232,0 0.64865,0c-0.11092,0.27178 -0.32692,0.38011 -0.64865,0.32432z" fill="#fdfdfd" opacity="0.012"/><path d="M188.41141,177.42793c0,-0.108 0,-0.21632 0,-0.32432c0.86488,0.108 0.86488,0.21632 0,0.32432z" fill="#fdfdfd" opacity="0.012"/><path d="M255.54655,177.1036c0.108,0 0.21632,0 0.32432,0c-0.06,0.2173 -0.16832,0.2173 -0.32432,0z" fill="#2caa7c" opacity="0.008"/><path d="M294.46547,177.42793c0,-0.108 0,-0.21632 0,-0.32432c0.32432,0 0.64865,0 0.97297,0c-0.22995,0.29319 -0.55427,0.40119 -0.97297,0.32432z" fill="#f1faf6" opacity="0.016"/><path d="M188.41141,177.42793c-0.12863,0.33243 -0.34482,0.38659 -0.64865,0.16216c0.19278,-0.15049 0.40901,-0.20465 0.64865,-0.16216z" fill="#edf9f4" opacity="0.004"/><path d="M272.08709,177.42793c0.108,0 0.21632,0 0.32432,0c-0.06,0.2173 -0.16832,0.2173 -0.32432,0z" fill="#2caa7c" opacity="0.008"/><path d="M290.24924,178.07658c-0.348,-0.24357 -0.40216,-0.56789 -0.16216,-0.97297c0.15665,0.30746 0.21049,0.63178 0.16216,0.97297z" fill="#f7fbfa" opacity="0.012"/><path d="M293.81682,177.75225c0,-0.108 0,-0.21632 0,-0.32432c0.21632,0 0.43232,0 0.64865,0c-0.11092,0.27178 -0.32692,0.38011 -0.64865,0.32432z" fill="#fdfdfd" opacity="0.012"/><path d="M186.78979,178.07658c0,-0.108 0,-0.21632 0,-0.32432c0.86488,0.108 0.86488,0.21632 0,0.32432z" fill="#fdfefd" opacity="0.016"/><path d="M293.81682,177.75225c-0.12876,0.33243 -0.34476,0.38659 -0.64865,0.16216c0.19265,-0.15049 0.40897,-0.20465 0.64865,-0.16216z" fill="#edf9f4" opacity="0.004"/><path d="M186.14114,178.07658c0.21622,0 0.43243,0 0.64865,0c-0.21622,0.43232 -0.43243,0.43232 -0.64865,0z" fill="#edf9f4" opacity="0.004"/><path d="M271.76276,178.07658c0.43232,0.21632 0.43232,0.21632 0,0z" fill="#2caa7c" opacity="0.008"/><path d="M292.1952,178.4009c0,-0.108 0,-0.21632 0,-0.32432c0.86497,0.108 0.86497,0.21632 0,0.32432z" fill="#fdfdfd" opacity="0.012"/><path d="M185.16817,178.72523c0,-0.108 0,-0.21632 0,-0.32432c0.86487,0.108 0.86487,0.21632 0,0.32432z" fill="#fdfdfd" opacity="0.012"/><path d="M256.51952,178.07658c0,0.21632 0,0.43232 0,0.64865c-0.43232,-0.21632 -0.43232,-0.43232 0,-0.64865z" fill="#74c4a1" opacity="0.008"/><path d="M271.43844,178.4009c0.108,0 0.21632,0 0.32432,0c0.05578,0.32173 -0.05254,0.53773 -0.32432,0.64865c0,-0.21632 0,-0.43232 0,-0.64865z" fill="#2caa7c" opacity="0.008"/><path d="M292.1952,178.4009c-0.12876,0.33243 -0.34476,0.38659 -0.64865,0.16216c0.19265,-0.15049 0.40897,-0.20465 0.64865,-0.16216z" fill="#edf9f4" opacity="0.004"/><path d="M184.51952,178.72523c0.21622,0 0.43243,0 0.64865,0c-0.21622,0.43232 -0.43243,0.43232 -0.64865,0z" fill="#fdfdfd" opacity="0.012"/><path d="M290.57356,178.72523c0.23968,-0.04249 0.456,0.01168 0.64865,0.16216c-0.30389,0.22443 -0.51989,0.17027 -0.64865,-0.16216z" fill="#f5fbf9" opacity="0.016"/><path d="M256.51952,178.72523c0.108,0 0.21632,0 0.32432,0c0,0.21632 0,0.43232 0,0.64865c-0.27178,-0.11092 -0.38011,-0.32692 -0.32432,-0.64865z" fill="#aeddc8" opacity="0.004"/><path d="M268.1952,183.91441c0,0.108 0,0.21632 0,0.32432c-0.456,0.15341 -0.67232,0.47773 -0.64865,0.97297c-0.27178,0.11092 -0.38011,0.32692 -0.32432,0.64865c-0.27178,0.11092 -0.38011,0.32692 -0.32432,0.64865c-0.21632,0 -0.32432,0.108 -0.32432,0.32432c-0.27178,0.11092 -0.38011,0.32692 -0.32432,0.64865c-0.27178,0.11092 -0.38011,0.32692 -0.32432,0.64865c-0.456,0.15341 -0.67232,0.47773 -0.64865,0.97297c-0.27178,0.11092 -0.38011,0.32692 -0.32432,0.64865c-0.21632,0 -0.32432,0.108 -0.32432,0.32432c-0.43232,0 -0.86497,0 -1.2973,0c0.05578,-0.32173 -0.05254,-0.53773 -0.32432,-0.64865c-0.19784,-0.62724 -0.52216,-1.16789 -0.97297,-1.62162c0.05578,-0.32173 -0.05254,-0.53773 -0.32432,-0.64865c0.05578,-0.32173 -0.05254,-0.53773 -0.32432,-0.64865c-0.14011,-0.39243 -0.35643,-0.71676 -0.64865,-0.97297c0.05578,-0.32173 -0.05254,-0.53773 -0.32432,-0.64865c0.02368,-0.49524 -0.19265,-0.81957 -0.64865,-0.97297c0.05578,-0.32173 -0.05254,-0.53773 -0.32432,-0.64865c0.05578,-0.32173 -0.05254,-0.53773 -0.32432,-0.64865c0.02368,-0.49524 -0.19265,-0.81957 -0.64865,-0.97297c0.05578,-0.32173 -0.05254,-0.53773 -0.32432,-0.64865c0.05578,-0.32173 -0.05254,-0.53773 -0.32432,-0.64865c-0.14011,-0.39243 -0.35643,-0.71676 -0.64865,-0.97297c0.05578,-0.32173 -0.05254,-0.53773 -0.32432,-0.64865c0.05578,-0.32173 -0.05254,-0.53773 -0.32432,-0.64865c0,-0.108 0,-0.21632 0,-0.32432c0.23416,-0.13557 0.39632,-0.35157 0.48649,-0.64865c3.66681,2.39968 7.39654,4.66995 11.18919,6.81081z" fill="#2fd794" opacity="0.769"/><path d="M271.11411,179.04955c0.108,0 0.21632,0 0.32432,0c0.05578,0.32173 -0.05254,0.53773 -0.32432,0.64865c0,-0.21632 0,-0.43232 0,-0.64865z" fill="#2caa7c" opacity="0.008"/><path d="M256.84384,179.37387c0.108,0 0.21632,0 0.32432,0c-0.06,0.2173 -0.16832,0.2173 -0.32432,0z" fill="#2caa7c" opacity="0.008"/><path d="M270.78979,179.6982c0.108,0 0.21632,0 0.32432,0c-0.06,0.2173 -0.16832,0.2173 -0.32432,0z" fill="#2caa7c" opacity="0.008"/><path d="M270.46547,180.34685c0.43232,0.21632 0.43232,0.21632 0,0z" fill="#2caa7c" opacity="0.008"/><path d="M257.81682,180.34685c0,0.21632 0,0.43232 0,0.64865c-0.43232,-0.21632 -0.43232,-0.43232 0,-0.64865z" fill="#74c4a1" opacity="0.008"/><path d="M270.14114,180.67117c0.108,0 0.21632,0 0.32432,0c0.05578,0.32173 -0.05254,0.53773 -0.32432,0.64865c0,-0.21632 0,-0.43232 0,-0.64865z" fill="#2caa7c" opacity="0.008"/><path d="M257.81682,180.9955c0.108,0 0.21632,0 0.32432,0c0,0.21632 0,0.43232 0,0.64865c-0.27178,-0.11092 -0.38011,-0.32692 -0.32432,-0.64865z" fill="#aeddc8" opacity="0.004"/><path d="M269.81682,181.31982c0.108,0 0.21632,0 0.32432,0c0.05578,0.32173 -0.05254,0.53773 -0.32432,0.64865c0,-0.21632 0,-0.43232 0,-0.64865z" fill="#2caa7c" opacity="0.008"/><path d="M258.14114,181.64414c0.108,0 0.21632,0 0.32432,0c-0.06,0.2173 -0.16832,0.2173 -0.32432,0z" fill="#2caa7c" opacity="0.008"/><path d="M269.49249,181.96847c0.108,0 0.21632,0 0.32432,0c-0.06,0.2173 -0.16832,0.2173 -0.32432,0z" fill="#2caa7c" opacity="0.008"/><path d="M258.78979,182.61712c-0.21632,-0.43232 -0.21632,-0.43232 0,0z" fill="#2caa7c" opacity="0.008"/><path d="M269.16817,182.61712c0.43232,0.21632 0.43232,0.21632 0,0z" fill="#2caa7c" opacity="0.008"/><path d="M258.78979,182.61712c0.108,0 0.21632,0 0.32432,0c0,0.21632 0,0.43232 0,0.64865c-0.27178,-0.11092 -0.38011,-0.32692 -0.32432,-0.64865z" fill="#aeddc8" opacity="0.004"/><path d="M268.84384,182.94144c0.108,0 0.21632,0 0.32432,0c0.05578,0.32173 -0.05254,0.53773 -0.32432,0.64865c0,-0.21632 0,-0.43232 0,-0.64865z" fill="#2caa7c" opacity="0.008"/><path d="M259.11411,183.26577c0.108,0 0.21632,0 0.32432,0c-0.06,0.2173 -0.16832,0.2173 -0.32432,0z" fill="#2caa7c" opacity="0.008"/><path d="M268.51952,183.59009c0.108,0 0.21632,0 0.32432,0c-0.06,0.2173 -0.16832,0.2173 -0.32432,0z" fill="#2caa7c" opacity="0.008"/><path d="M259.76276,183.91441c-0.21632,0.21632 -0.21632,0.21632 0,0z" fill="#2caa7c" opacity="0.008"/><path d="M268.1952,184.23874c0.43232,0.21632 0.43232,0.21632 0,0z" fill="#2caa7c" opacity="0.008"/><path d="M260.08709,184.88739c-0.21632,-0.43232 -0.21632,-0.43232 0,0z" fill="#2caa7c" opacity="0.008"/><path d="M267.87086,184.88739c0.43232,0.21632 0.43232,0.21632 0,0z" fill="#2caa7c" opacity="0.008"/><path d="M260.08709,184.88739c0.108,0 0.21632,0 0.32432,0c0,0.21632 0,0.43232 0,0.64865c-0.27178,-0.11092 -0.38011,-0.32692 -0.32432,-0.64865z" fill="#aeddc8" opacity="0.004"/><path d="M260.41141,185.53604c0.108,0 0.21632,0 0.32432,0c-0.06,0.2173 -0.16832,0.2173 -0.32432,0z" fill="#2caa7c" opacity="0.008"/><path d="M267.54654,185.21171c0.108,0 0.21632,0 0.32432,0c0.05578,0.32173 -0.05254,0.53773 -0.32432,0.64865c0,-0.21632 0,-0.43232 0,-0.64865z" fill="#aeddc8" opacity="0.004"/><path d="M267.22222,185.86036c0.108,0 0.21632,0 0.32432,0c-0.06,0.2173 -0.16832,0.2173 -0.32432,0z" fill="#2caa7c" opacity="0.008"/><path d="M266.8979,186.50901c0.43232,0.21632 0.43232,0.21632 0,0z" fill="#2caa7c" opacity="0.008"/><path d="M261.38437,186.50901c0,0.21632 0,0.43232 0,0.64865c-0.43232,-0.21632 -0.43232,-0.43232 0,-0.64865z" fill="#74c4a1" opacity="0.008"/><path d="M266.57356,186.83333c0.108,0 0.21632,0 0.32432,0c0.05578,0.32173 -0.05254,0.53773 -0.32432,0.64865c0,-0.21632 0,-0.43232 0,-0.64865z" fill="#74c4a1" opacity="0.008"/><path d="M261.38437,187.15766c0.108,0 0.21632,0 0.32432,0c0,0.21632 0,0.43232 0,0.64865c-0.27178,-0.11092 -0.38011,-0.32692 -0.32432,-0.64865z" fill="#aeddc8" opacity="0.004"/><path d="M261.70871,187.80631c0.108,0 0.21632,0 0.32432,0c-0.06,0.2173 -0.16832,0.2173 -0.32432,0z" fill="#2caa7c" opacity="0.008"/><path d="M266.24924,187.48198c0.108,0 0.21632,0 0.32432,0c0.05578,0.32173 -0.05254,0.53773 -0.32432,0.64865c0,-0.21632 0,-0.43232 0,-0.64865z" fill="#aeddc8" opacity="0.004"/><path d="M265.92492,188.13063c0.108,0 0.21632,0 0.32432,0c-0.06,0.2173 -0.16832,0.2173 -0.32432,0z" fill="#2caa7c" opacity="0.008"/><path d="M265.6006,188.77928c0.43232,0.21632 0.43232,0.21632 0,0z" fill="#2caa7c" opacity="0.008"/><path d="M265.27628,189.1036c0.108,0 0.21632,0 0.32432,0c0.05578,0.32173 -0.05254,0.53773 -0.32432,0.64865c0,-0.21632 0,-0.43232 0,-0.64865z" fill="#e4f7ef" opacity="0.004"/><path d="M263.00601,189.42793c-0.21632,0.21632 -0.21632,0.21632 0,0z" fill="#2caa7c" opacity="0.008"/><path d="M264.95195,189.75225c0.108,0 0.21632,0 0.32432,0c0,0.108 0,0.21632 0,0.32432c-0.108,-0.108 -0.21632,-0.21632 -0.32432,-0.32432z" fill="#2caa7c" opacity="0.008"/></g></g></svg>