<svg version="1.1" xmlns="http://www.w3.org/2000/svg" xmlns:xlink="http://www.w3.org/1999/xlink" width="692.5" height="591.49314" viewBox="0,0,692.5,591.49314"><defs><linearGradient x1="156.29999" y1="215.42699" x2="156.29999" y2="442.74663" gradientUnits="userSpaceOnUse" id="color-1"><stop offset="0" stop-color="#154d44"/><stop offset="1" stop-color="#3b8812"/></linearGradient><linearGradient x1="254" y1="62.5868" x2="254" y2="423.25349" gradientUnits="userSpaceOnUse" id="color-2"><stop offset="0" stop-color="#c2d5be"/><stop offset="1" stop-color="#616a5f"/></linearGradient><linearGradient x1="433.09998" y1="249.42698" x2="433.09998" y2="441.74662" gradientUnits="userSpaceOnUse" id="color-3"><stop offset="0" stop-color="#1c6f62"/><stop offset="1" stop-color="#3b8812"/></linearGradient></defs><g transform="translate(155,148.74651)"><g data-paper-data="{&quot;isPaintingLayer&quot;:true}" fill-rule="nonzero" stroke="none" stroke-width="0" stroke-linecap="butt" stroke-linejoin="miter" stroke-miterlimit="10" stroke-dasharray="" stroke-dashoffset="0" style="mix-blend-mode: normal"><path d="M-155,441.13219v-507.59751h674v507.59751z" data-paper-data="{&quot;origPos&quot;:null}" fill="#19bea5"/><path d="M-21.08773,235.38695l-2.40002,-19.95996l359.57547,207.35967l-1.59998,19.95997z" data-paper-data="{&quot;origRot&quot;:0,&quot;origPos&quot;:null}" fill="url(#color-1)"/><g data-paper-data="{&quot;origPos&quot;:null}"><path d="M-24.5,214.5868l214,-152l343,186l-196,174.66669z" data-paper-data="{&quot;origPos&quot;:null}" fill="url(#color-2)"/><path d="M189.5,63.5868l1,-212.33331l347,160.33331l-8,238z" data-paper-data="{&quot;origPos&quot;:null}" fill="#149683"/><path d="M-22.5,216.5868l-12,-251l224,-113.33331l4,214.33331z" data-paper-data="{&quot;index&quot;:null}" fill="#0f7566"/></g><path d="M334.11224,441.74662l1.40002,-17.95997l196.57547,-174.35967l-3.40002,18.95996z" data-paper-data="{&quot;origRot&quot;:0,&quot;origPos&quot;:null,&quot;index&quot;:null}" fill="url(#color-3)"/></g></g></svg>