<svg version="1.1" xmlns="http://www.w3.org/2000/svg" xmlns:xlink="http://www.w3.org/1999/xlink" width="200.36158" height="185.12846" viewBox="0,0,200.36158,185.12846"><defs><linearGradient x1="163.67648" y1="50.52211" x2="163.67648" y2="207.50005" gradientUnits="userSpaceOnUse" id="color-1"><stop offset="0" stop-color="#10e4b6" stop-opacity="0"/><stop offset="1" stop-color="#10e4b6"/></linearGradient><radialGradient cx="106.97424" cy="178.41515" r="17.89706" gradientUnits="userSpaceOnUse" id="color-2"><stop offset="0" stop-color="#000000"/><stop offset="1" stop-color="#2b4b3e"/></radialGradient><radialGradient cx="110.97424" cy="162.46364" r="17.89706" gradientUnits="userSpaceOnUse" id="color-3"><stop offset="0" stop-color="#2b4b3e"/><stop offset="1" stop-color="#2b4b3e"/></radialGradient><radialGradient cx="107.77424" cy="138.92424" r="17.89706" gradientUnits="userSpaceOnUse" id="color-4"><stop offset="0" stop-color="#000000"/><stop offset="1" stop-color="#2b4b3e"/></radialGradient><radialGradient cx="111.97424" cy="121.57273" r="17.89706" gradientUnits="userSpaceOnUse" id="color-5"><stop offset="0" stop-color="#2b4b3e"/><stop offset="1" stop-color="#2b4b3e"/></radialGradient><radialGradient cx="113.17424" cy="95.41515" r="17.89706" gradientUnits="userSpaceOnUse" id="color-6"><stop offset="0" stop-color="#000000"/><stop offset="1" stop-color="#2b4b3e"/></radialGradient><radialGradient cx="113.97424" cy="79.80303" r="17.89706" gradientUnits="userSpaceOnUse" id="color-7"><stop offset="0" stop-color="#2b4b3e"/><stop offset="1" stop-color="#2b4b3e"/></radialGradient><linearGradient x1="171.56848" y1="107.34613" x2="171.56848" y2="124.16946" gradientUnits="userSpaceOnUse" id="color-8"><stop offset="0" stop-color="#ffffff"/><stop offset="1" stop-color="#99e3d3"/></linearGradient><linearGradient x1="168.72892" y1="106.88082" x2="168.72892" y2="132.83024" gradientUnits="userSpaceOnUse" id="color-9"><stop offset="0" stop-color="#ffffff"/><stop offset="1" stop-color="#99e3d3"/></linearGradient><linearGradient x1="165.17465" y1="113.14972" x2="165.17465" y2="138.73916" gradientUnits="userSpaceOnUse" id="color-10"><stop offset="0" stop-color="#ffffff"/><stop offset="1" stop-color="#99e3d3"/></linearGradient></defs><g transform="translate(-84.38842,-30.00002)"><g data-paper-data="{&quot;isPaintingLayer&quot;:true}" stroke-linejoin="miter" stroke-miterlimit="10" stroke-dasharray="" stroke-dashoffset="0" style="mix-blend-mode: normal"><path d="M282,175.6667c0,0 -23.41239,25.63654 -56.959,13.88298c-19.91941,-6.97906 -41.041,-34.88298 -41.041,-34.88298" data-paper-data="{&quot;origPos&quot;:null}" fill="none" fill-rule="nonzero" stroke="#000000" stroke-width="5.5" stroke-linecap="round"/><g data-paper-data="{&quot;origPos&quot;:null}" fill="none" fill-rule="nonzero" stroke="none" stroke-width="1" stroke-linecap="butt" font-family="sans-serif" font-weight="normal" font-size="12" text-anchor="start"><g data-paper-data="{&quot;origPos&quot;:null}"/><g data-paper-data="{&quot;origPos&quot;:null}"/><g data-paper-data="{&quot;origPos&quot;:null}"/><g data-paper-data="{&quot;origPos&quot;:null}"/></g><g data-paper-data="{&quot;origPos&quot;:null}" fill-rule="nonzero" stroke-linecap="butt"><path d="M137.68412,78.81464l64.32008,-28.29253l-19.38413,117.73346l-57.27131,39.24448z" data-paper-data="{&quot;origPos&quot;:null}" fill="url(#color-1)" stroke="#14221c" stroke-width="7.5"/><path d="M84.38842,195.63654l9.61158,-137.63648l41.5,17l-15,140.0264z" data-paper-data="{&quot;origPos&quot;:null}" fill="#2b4b3e" stroke="#000000" stroke-width="0"/><path d="M135,76.00002l-41.66666,-17.33333l71.16666,-28.66667l42.83334,14.83333z" data-paper-data="{&quot;origPos&quot;:null}" fill="#2b4b3e" stroke="#000000" stroke-width="0"/></g><g data-paper-data="{&quot;origPos&quot;:null}" fill-rule="nonzero" stroke-width="2" stroke-linecap="butt"><g data-paper-data="{&quot;origPos&quot;:null}" fill="url(#color-2)" stroke="url(#color-3)"><path d="M122.7297,174.78721c1.56947,8.75333 -1.73618,19.65563 -11.77116,21.21031c-9.6972,1.50235 -18.43408,-3.65558 -21.54345,-12.54851c-2.93512,-8.39459 2.62457,-22.98709 12.43746,-22.98709c9.81288,0 19.32248,5.65446 20.87716,14.32529z" data-paper-data="{&quot;origPos&quot;:null}"/></g><g data-paper-data="{&quot;origPos&quot;:null}" fill="url(#color-4)" stroke="url(#color-5)"><path d="M125.39637,134.78716c1.56947,8.75333 -1.73618,19.65563 -11.77116,21.21031c-9.69719,1.50235 -18.43409,-3.65558 -21.54345,-12.54851c-2.93512,-8.39459 2.62457,-22.98709 12.43746,-22.98709c9.81288,0 19.32248,5.65446 20.87716,14.32529z" data-paper-data="{&quot;origPos&quot;:null}"/></g><g data-paper-data="{&quot;origPos&quot;:null}" fill="url(#color-6)" stroke="url(#color-7)"><path d="M129.7297,93.12052c1.56947,8.75334 -1.73619,19.65563 -11.77117,21.21031c-9.6972,1.50235 -18.43408,-3.65558 -21.54345,-12.5485c-2.93512,-8.39459 2.62457,-22.98709 12.43746,-22.98709c9.81288,0 19.32248,5.65445 20.87716,14.32528z" data-paper-data="{&quot;origPos&quot;:null}"/></g></g><g fill-rule="evenodd" stroke="none" stroke-width="1" stroke-linecap="butt"><path d="M179.07333,108.6913c-0.00995,-0.17815 -0.01989,-0.3563 -0.02984,-0.53445c-0.3772,0.02678 -0.62461,-0.13811 -0.74245,-0.49467c-0.05197,-0.52751 -0.3391,-0.86889 -0.86138,-1.02416c-0.19175,-0.4257 -0.4227,-0.82973 -0.69317,-1.21226c-1.75571,-1.29106 -3.4947,-2.56413 -5.21711,-3.81899c3.79279,-1.80105 7.62927,-3.50446 11.50944,-5.11042c-1.04121,4.18525 -2.36309,8.25017 -3.96547,12.19495z" fill="#22ccbc" opacity="0.79"/><path d="M171.35122,101.61672c0.05933,-0.00332 0.11883,-0.00664 0.17815,-0.00995c1.72241,1.25486 3.4614,2.52792 5.21711,3.81899c0.27048,0.38253 0.50142,0.78656 0.69317,1.21226c0.52228,0.15526 0.80941,0.49664 0.86138,1.02416c-2.12618,-1.47357 -4.2924,-2.93132 -6.499,-4.37288c-0.28817,-0.22892 -0.54075,-0.48287 -0.75738,-0.7619c0.24377,-0.24951 0.34584,-0.55294 0.30656,-0.91067z" fill="#22ccbc" opacity="0.769"/><path d="M171.35122,101.61672c0.03928,0.35773 -0.06279,0.66116 -0.30657,0.91067c-0.48809,0.29389 -0.76184,0.72628 -0.82112,1.29682c-0.58794,0.40669 -0.97373,0.96436 -1.15754,1.67302c-0.05933,0.00332 -0.11883,0.00664 -0.17815,0.00995c-0.64273,-0.53616 -1.09834,-1.22555 -1.36646,-2.06821c1.2641,-0.60331 2.54083,-1.21074 3.82984,-1.82224z" fill="#22ccbc" opacity="0.682"/><path d="M171.04465,102.52739c0.21663,0.27903 0.46922,0.53298 0.75739,0.7619c2.2066,1.44156 4.37282,2.89931 6.499,4.37288c0.11784,0.35656 0.36526,0.52146 0.74245,0.49467c0.00995,0.17815 0.01989,0.3563 0.02984,0.53445c-0.05624,0.52908 -0.20786,1.01417 -0.45487,1.45508c0.00136,-0.38519 -0.10761,-0.73653 -0.32692,-1.05401c-0.62032,-0.44197 -1.2408,-0.88377 -1.86112,-1.32575c-0.09547,-0.16408 -0.135,-0.34058 -0.11893,-0.52948c-0.00663,-0.11883 -0.01326,-0.23748 -0.01989,-0.3563c-0.09133,-0.16324 -0.33544,-0.26881 -0.73251,-0.31651c-0.27489,0.19137 -0.57022,0.23753 -0.88579,0.13881c-1.45795,-1.00585 -2.94123,-1.96561 -4.44978,-2.87892c0.05928,-0.57054 0.33304,-1.00293 0.82112,-1.29682z" fill="#22ccbc" opacity="0.769"/><path d="M167.52137,103.43896c0.26811,0.84265 0.72371,1.53204 1.36646,2.0682c-0.38152,0.73971 -0.75736,1.47554 -1.1277,2.20749c-0.31917,0.4033 -0.59294,0.8357 -0.82114,1.29682c-0.26852,-1.41629 -0.73085,-2.76064 -1.3868,-4.03288c-0.39157,-0.1027 -0.77429,-0.02163 -1.14804,0.24282c-0.14672,-0.07348 -0.21267,-0.189 -0.19805,-0.34636c1.08847,-0.51274 2.1937,-0.99137 3.31528,-1.43609z" fill="#22ccbc" opacity="0.768"/><path d="M170.22352,103.82421c1.50854,0.91331 2.99182,1.87308 4.44978,2.87892c0.31557,0.09872 0.6109,0.05256 0.88579,-0.13881c0.39708,0.0477 0.64118,0.15328 0.73251,0.31652c-0.53963,0.07178 -1.00463,0.27645 -1.39539,0.61404c-0.53967,0.17346 -1.06418,0.38146 -1.57354,0.62399c-0.22364,-0.04291 -0.22861,-0.13199 -0.01492,-0.26723c-0.58709,0.1275 -1.1315,-0.02081 -1.63323,-0.44492c-0.90664,-0.61542 -1.77605,-1.25205 -2.60855,-1.9095c0.18382,-0.70866 0.5696,-1.26632 1.15754,-1.67301z" fill="#22ccbc" opacity="0.769"/><path d="M163.85973,105.0731c0.01314,0.27037 -0.09391,0.4849 -0.32149,0.64344c0.54585,0.38216 0.7522,0.87709 0.61902,1.48445c0.08649,0.60475 0.11964,1.19853 0.09948,1.78153c-0.3992,0.11254 -0.6236,0.3633 -0.67282,0.75241c0.01594,0.07738 -0.01031,0.13854 -0.07913,0.18312c-0.15096,-0.23265 -0.36715,-0.36944 -0.64841,-0.41057c0.10974,-0.18233 0.09813,-0.39024 -0.03482,-0.62354c-0.17659,-0.8358 -0.46215,-1.68354 -0.85686,-2.54344c0.33892,-0.09435 0.50547,-0.3122 0.49964,-0.65339c0.4643,-0.20445 0.92932,-0.40913 1.39539,-0.61404z" fill="#22ccbc" opacity="0.768"/><path d="M164.20609,104.87505c-0.01462,0.15737 0.05134,0.27289 0.19805,0.34636c0.37375,-0.26445 0.75648,-0.34552 1.14804,-0.24282c0.65595,1.27224 1.11829,2.61658 1.3868,4.03288c-0.10224,0.30362 -0.20433,0.60704 -0.30657,0.91066c-0.26565,0.28003 -0.48654,0.59028 -0.66286,0.93056c-0.02295,-0.74697 -0.21115,-1.4513 -0.56477,-2.11298c-0.05602,0.06264 -0.1122,0.12547 -0.16821,0.1881c-0.32185,-0.61751 -0.68156,-1.19307 -1.07932,-1.72682c0.13317,-0.60736 -0.07317,-1.10231 -0.61902,-1.48445c0.22758,-0.15854 0.33462,-0.37307 0.32149,-0.64344c0.11551,-0.06597 0.23085,-0.13208 0.34636,-0.19805z" fill="#22ccbc" opacity="0.769"/><path d="M162.46435,105.68715c0.00583,0.34118 -0.16071,0.55904 -0.49964,0.65339c0.39471,0.85989 0.68026,1.70764 0.85685,2.54344c-0.13296,-0.01598 -0.25012,0.0204 -0.35133,0.10898c0.20158,0.23679 0.24607,0.50237 0.13384,0.79672c-0.13208,-0.23085 -0.25074,-0.22422 -0.35631,0.0199c-0.16244,-0.18233 -0.32078,-0.3522 -0.47523,-0.50959c-0.09024,-0.16617 -0.21719,-0.30812 -0.38118,-0.42549c0.41909,-0.1469 0.40914,-0.32505 -0.02984,-0.53446c0.06744,-0.52685 -0.07956,-1.02492 -0.44086,-1.49441c0.10259,-0.16961 0.15213,-0.35108 0.14831,-0.5444c0.4643,-0.20445 0.92932,-0.40913 1.39539,-0.61405z" fill="#22ccbc" opacity="0.769"/><path d="M161.06896,106.30119c0.00383,0.19333 -0.04573,0.3748 -0.1483,0.5444c0.3613,0.46949 0.5083,0.96757 0.44086,1.49441c0.43899,0.20942 0.44894,0.38757 0.02984,0.53445c0.164,0.11737 0.29095,0.25932 0.38118,0.42549c0.01326,0.23748 0.02653,0.47513 0.03979,0.71261c-0.25275,0.16548 -0.38806,0.41125 -0.40559,0.73748c-0.13872,-0.34967 -0.27728,-0.69934 -0.416,-1.04903c-0.37088,0.14938 -0.44835,0.36226 -0.23241,0.63846c-0.09094,0.1829 -0.20149,0.33792 -0.33144,0.46528c-0.18081,-0.53372 -0.3888,-1.05822 -0.62399,-1.57353c0.09262,-0.59117 0.00014,-1.18164 -0.27764,-1.77159c0.24578,-0.09825 0.35467,-0.28304 0.32647,-0.55435c0.38914,-0.23529 0.795,-0.43667 1.21723,-0.6041z" fill="#22ccbc" opacity="0.768"/><path d="M168.88783,105.50717c0.05933,-0.00332 0.11883,-0.00664 0.17815,-0.00995c0.8325,0.65745 1.70191,1.29408 2.60855,1.9095c0.50172,0.42412 1.04614,0.57242 1.63323,0.44492c-0.21369,0.13524 -0.20872,0.22432 0.01492,0.26723c-0.17151,0.12878 -0.34304,0.25737 -0.51456,0.38615c-0.43697,0.06997 -0.78333,0.26802 -1.03908,0.59414c-0.19906,0.19233 -0.30445,0.43643 -0.31651,0.73251c-0.24304,0.04162 -0.48235,0.02514 -0.71758,-0.04929c-1.0235,-0.66305 -2.01504,-1.35236 -2.97481,-2.06775c0.37034,-0.73194 0.74618,-1.46776 1.1277,-2.20749z" fill="#22ccbc" opacity="0.769"/><path d="M167.18048,122.93729c0.0802,-0.50969 0.23182,-0.9946 0.45487,-1.45508c0.2183,-0.80155 0.47201,-1.59006 0.76145,-2.36574c0.23429,-0.71684 0.43197,-1.44272 0.59323,-2.17763c0.30491,-0.63948 0.56524,-1.30933 0.78135,-2.00942c0.05227,-0.32174 0.15435,-0.62517 0.30657,-0.91067c0.16891,-0.62026 0.37323,-1.22731 0.61313,-1.82133c0.2183,-0.80155 0.472,-1.59006 0.76144,-2.36574c0.01206,-0.29609 0.11745,-0.54018 0.31652,-0.73251c0.43697,-0.06997 0.78332,-0.26802 1.03908,-0.59414c0.17151,-0.12878 0.34305,-0.25737 0.51456,-0.38615c0.50936,-0.24254 1.03387,-0.45053 1.57354,-0.62399c0.36771,-0.05592 0.72235,-0.10556 1.06395,-0.14876c-1.01754,1.44717 -2.10092,2.84799 -3.25017,4.20244c-1.24522,3.96271 -2.54397,7.90732 -3.89629,11.83366c-0.4459,0.23972 -0.87802,0.50205 -1.29636,0.78722c-0.34279,-0.29181 -0.32963,-0.59046 0.03933,-0.89575c-0.07354,-0.20963 -0.16261,-0.20466 -0.26723,0.01492c-0.08857,-0.10121 -0.12495,-0.21837 -0.10897,-0.35133z" fill="url(#color-8)" opacity="0.999"/><path d="M176.29161,106.88084c0.00663,0.11883 0.01326,0.23748 0.01989,0.3563c-0.35136,0.68138 -0.60837,1.41056 -0.77139,2.18758c-0.39864,0.926 -0.70188,1.89616 -0.90975,2.91015c-0.25882,0.37348 -0.41376,0.79923 -0.46482,1.27692c-0.45021,1.04556 -0.80634,2.13772 -1.06802,3.2764c-0.24701,0.44091 -0.39863,0.92599 -0.45487,1.45507c-0.12732,0.32182 -0.2889,0.62875 -0.48472,0.92062c-0.09937,-0.34562 -0.28083,-0.39499 -0.54441,-0.14831c-0.75527,1.3178 -1.54682,2.61297 -2.37431,3.88547c-1.24683,3.21687 -2.31484,6.49326 -3.20403,9.8292c-1.5345,-5.21518 -3.16411,-10.39611 -4.88886,-15.54277c0.25602,-0.30201 0.49681,-0.25596 0.72255,0.13836c0.81203,2.8383 1.77123,5.61425 2.87761,8.32799c0.67863,-0.41157 1.27563,-0.92152 1.79103,-1.52968c-0.07354,-0.20963 -0.16261,-0.20466 -0.26723,0.01492c-0.03639,-0.11716 -0.07258,-0.23417 -0.10897,-0.35133c0.15464,-0.66146 0.11816,-1.31475 -0.10943,-1.95969c0.2962,0.59983 0.54041,1.24152 0.73297,1.92487c0.1168,-0.33088 0.24863,-0.63597 0.39565,-0.91564c-0.01598,0.13296 0.02041,0.25012 0.10898,0.35133c0.10461,-0.21958 0.19369,-0.22455 0.26723,-0.01493c-0.36897,0.30528 -0.38214,0.60394 -0.03933,0.89575c0.41834,-0.28517 0.85046,-0.54751 1.29636,-0.78722c0.51123,-1.48431 1.0148,-2.97123 1.51072,-4.46075c0.8159,-2.45061 1.6111,-4.90826 2.38557,-7.37292c1.14925,-1.35445 2.23263,-2.75527 3.25017,-4.20244c-0.3416,0.04321 -0.69625,0.09284 -1.06395,0.14876c0.39075,-0.3376 0.85576,-0.54228 1.39539,-0.61405z" fill="url(#color-9)"/><path d="M155.49737,108.93552c0.01773,0.19255 0.08717,0.36738 0.208,0.52451c-0.22384,0.57115 -0.42981,1.14862 -0.61811,1.73225c0.20497,0.69768 0.48408,1.42659 0.83696,2.18713c-0.02165,0.60113 -0.04781,1.19841 -0.07867,1.79148c-0.24304,0.04162 -0.48236,0.02514 -0.71759,-0.04929c-0.37494,-0.3363 -0.80568,-0.58031 -1.29184,-0.73206c-0.1695,0.09471 -0.31126,0.22165 -0.42549,0.38117c-0.06264,-0.05602 -0.12546,-0.11219 -0.1881,-0.16821c-0.05282,0.26065 -0.19127,0.44709 -0.41554,0.55933c-0.03701,-0.18594 -0.01739,-0.36574 0.05923,-0.53943c0.36346,-0.69832 0.77237,-1.37631 1.22672,-2.0343c-0.04306,-0.10232 -0.10754,-0.18807 -0.19307,-0.25729c0.24028,-0.31847 0.45951,-0.65829 0.6579,-1.01963c-0.04306,-0.10232 -0.10754,-0.18806 -0.19307,-0.25728c0.31708,-0.72235 0.69458,-1.42843 1.13268,-2.11841z" fill="#22ccbc" opacity="0.881"/><path d="M159.85173,106.90529c0.0282,0.27131 -0.08069,0.4561 -0.32647,0.55435c-0.29522,0.08655 -0.58723,0.1922 -0.87585,0.31697c0.21948,0.16056 0.46194,0.23637 0.72754,0.22744c-0.24345,0.14637 -0.47263,0.30822 -0.68775,0.48518c-0.78654,0.29036 -1.59957,0.66351 -2.43943,1.11911c0.08969,1.02382 0.29447,2.02513 0.6145,3.00374c0.17852,1.06229 0.2382,2.1312 0.17906,3.20676c-0.39043,0.71448 -0.79934,1.39265 -1.22672,2.0343c-0.42898,0.04665 -0.84313,0.09944 -1.2421,0.15872c-0.52424,-0.69271 -1.01108,-1.4102 -1.4605,-2.15231c-0.08117,0.18807 -0.1603,0.3712 -0.23739,0.54938c-0.17815,0.00995 -0.3563,0.01989 -0.53445,0.02984c-0.00663,-0.11883 -0.01327,-0.23748 -0.0199,-0.3563c0.23973,-0.26751 0.4013,-0.57444 0.48472,-0.92061c0.22427,-0.11224 0.36272,-0.29869 0.41554,-0.55933c0.06264,0.05602 0.12546,0.11219 0.1881,0.16821c0.11423,-0.15954 0.25599,-0.28647 0.42549,-0.38117c0.48616,0.15174 0.9169,0.39575 1.29184,0.73205c0.23523,0.07443 0.47455,0.09091 0.71759,0.04929c0.03086,-0.59307 0.05702,-1.19035 0.07867,-1.79148c-0.35289,-0.76054 -0.63199,-1.48945 -0.83696,-2.18712c0.1883,-0.58364 0.39427,-1.16111 0.61811,-1.73226c-0.12083,-0.15713 -0.19027,-0.33196 -0.208,-0.52451c-0.00663,-0.11883 0.04938,-0.18147 0.1682,-0.1881c0.09551,-0.09155 0.1938,-0.17915 0.29489,-0.2628c0.26375,-0.06999 0.50234,-0.19842 0.70206,-0.36992c0.23751,-0.03891 0.45827,-0.12428 0.65325,-0.24605c0.16714,-0.04637 0.32394,-0.11628 0.46687,-0.20577c0.04971,0.0215 0.09944,0.04299 0.14919,0.06445c0.62162,-0.32511 1.26146,-0.59924 1.91989,-0.82203z" fill="#22ccbc" opacity="0.918"/><path d="M176.3115,107.23714c-0.01609,0.1889 0.02344,0.3654 0.11893,0.52948c0.62032,0.44197 1.2408,0.88378 1.86112,1.32575c0.21931,0.31748 0.32829,0.66881 0.32692,1.05401c-0.0605,0.72483 -0.26168,1.39121 -0.60318,1.99947c-0.30314,-0.81372 -0.87075,-1.37765 -1.70286,-1.692c-0.40145,-0.2444 -0.659,-0.58743 -0.7723,-1.02913c0.16303,-0.77702 0.42003,-1.5062 0.77139,-2.18758z" fill="#22ccbc" opacity="0.768"/><path d="M172.80811,108.50503c-0.25575,0.32613 -0.60211,0.52417 -1.03908,0.59414c0.25575,-0.32613 0.60211,-0.52417 1.03908,-0.59414z" fill="#22ccbc" opacity="0.941"/><path d="M155.66557,108.74742c-0.11882,0.00664 -0.17484,0.06927 -0.16821,0.1881c-0.43809,0.68998 -0.8156,1.39605 -1.13268,2.11841c0.08553,0.06921 0.15001,0.15496 0.19307,0.25728c-0.19838,0.36135 -0.41762,0.70116 -0.6579,1.01963c0.08553,0.06921 0.15002,0.15497 0.19308,0.25729c-0.45435,0.65801 -0.86327,1.33599 -1.22672,2.0343c-0.07662,0.17369 -0.09624,0.35351 -0.05924,0.53943c-0.08343,0.34617 -0.245,0.65309 -0.48472,0.9206c-0.06626,-0.03536 -0.13415,-0.06428 -0.20367,-0.08676c-0.0129,-0.05597 -0.0284,-0.11087 -0.04639,-0.1646c-0.0443,-0.36899 -0.20002,-0.70092 -0.43107,-0.96348c-0.01412,-0.52476 -0.07767,-1.0567 -0.19066,-1.59582c0.32537,-0.98999 0.81174,-1.88103 1.45914,-2.67276c-0.22791,-0.06179 -0.35502,-0.20356 -0.38118,-0.42549c0.16401,-0.22344 0.34006,-0.43167 0.52815,-0.62468c0.1298,-0.03093 0.25381,-0.07594 0.37045,-0.13323c0.25382,-0.05455 0.48647,-0.16264 0.68639,-0.31131c0.15587,-0.04958 0.30204,-0.11988 0.43552,-0.20748c0.21238,-0.07181 0.41846,-0.13764 0.61348,-0.18419c0.12768,-0.03047 0.24876,-0.07706 0.36239,-0.13711c0.05121,0.05268 0.09813,0.10997 0.14075,0.17184z" fill="#22ccbc" opacity="0.758"/><path d="M164.15726,107.201c0.39776,0.53375 0.75747,1.1093 1.07932,1.72682c0.05602,-0.06264 0.1122,-0.12547 0.16821,-0.1881c0.35362,0.66168 0.54182,1.366 0.56477,2.11298c-0.11875,0.2225 -0.16482,0.4633 -0.13836,0.72256c-0.25193,0.31448 -0.41019,0.68073 -0.47477,1.09877c-0.29545,0.32906 -0.51301,0.69863 -0.65292,1.10872c-0.26868,-0.87515 -0.61374,-1.71957 -1.03502,-2.53348c0.20541,-0.53633 0.17722,-1.04105 -0.08456,-1.5143c0.04922,-0.38912 0.27362,-0.63987 0.67282,-0.7524c0.02016,-0.583 -0.01299,-1.17679 -0.09948,-1.78154z" fill="#22ccbc" opacity="0.769"/><path d="M152.52845,110.17356c0.02615,0.22192 0.15326,0.36369 0.38117,0.42549c-0.64739,0.79174 -1.13377,1.68278 -1.45914,2.67276c-0.1437,-0.17622 -0.27396,-0.3775 -0.39112,-0.60365c0.12829,-0.19892 0.08693,-0.40516 -0.1239,-0.61857c-0.13872,-0.34967 -0.15862,-0.70597 -0.05969,-1.06892c0.54114,-0.29417 1.09192,-0.56332 1.65268,-0.80712z" fill="#22ccbc" opacity="0.489"/><path d="M167.76012,107.71465c0.95976,0.7154 1.95131,1.4047 2.97481,2.06775c0.23523,0.07443 0.47455,0.09091 0.71758,0.04929c-0.28945,0.77568 -0.54314,1.56419 -0.76144,2.36575c-0.27811,0.01214 -0.54866,-0.03227 -0.81164,-0.13339c-1.11447,-0.68888 -2.19674,-1.4028 -3.24701,-2.14191c0.10224,-0.30362 0.20432,-0.60704 0.30656,-0.91065c0.22819,-0.46112 0.50196,-0.89352 0.82113,-1.29682z" fill="#22ccbc" opacity="0.769"/><path d="M159.8029,109.23124c0.23519,0.51531 0.44318,1.03982 0.62399,1.57354c0.48507,0.7242 0.64535,1.45994 0.48066,2.20703c0.31054,0.24859 0.50693,0.56518 0.58918,0.95c-0.63802,0.42503 -1.33407,0.76164 -2.0881,1.01015c-0.07738,0.01594 -0.13854,-0.01032 -0.18313,-0.07914c0.3838,-0.10043 0.49251,-0.2852 0.32646,-0.55435c0.10502,-0.30841 0.26825,-0.58559 0.48969,-0.83154c-0.15999,-0.93858 -0.44738,-1.81608 -0.86183,-2.63251c-0.12557,-0.43422 -0.14879,-0.84986 -0.06964,-1.24708c-0.0454,-0.30109 -0.03242,-0.59973 0.03933,-0.89575c0.15077,0.2709 0.36862,0.43745 0.65338,0.49964z" fill="#22ccbc" opacity="0.769"/><path d="M162.82157,108.88397c0.13295,0.2333 0.14455,0.4412 0.03482,0.62353c0.28126,0.04112 0.49745,0.17792 0.64841,0.41057c0.06881,-0.04458 0.09506,-0.10574 0.07913,-0.18313c0.26179,0.47326 0.28997,0.97797 0.08456,1.5143c0.42128,0.81391 0.76633,1.65833 1.03501,2.53348c0.00663,0.11883 0.01327,0.23748 0.0199,0.35631c-0.25118,0.34714 -0.46877,0.71671 -0.65293,1.10871c-0.22293,-0.71812 -0.50037,-1.41746 -0.83199,-2.09806c-0.15713,0.12083 -0.33196,0.19027 -0.52451,0.208c-0.13035,0.03069 -0.25084,0.00756 -0.36128,-0.06919c-0.02458,-0.8466 -0.07432,-1.73736 -0.14922,-2.6723c-0.26949,-0.11183 -0.39991,-0.31293 -0.39113,-0.60365c-0.01326,-0.23748 -0.02653,-0.47513 -0.03979,-0.71261c0.15444,0.15739 0.31278,0.32726 0.47523,0.50959c0.10557,-0.24411 0.22422,-0.25074 0.35631,-0.0199c0.11223,-0.29435 0.06774,-0.55993 -0.13384,-0.79672c0.10121,-0.08857 0.21837,-0.12496 0.35133,-0.10898z" fill="#22ccbc" opacity="0.769"/><path d="M161.81233,110.01258c-0.00878,0.29071 0.12163,0.4918 0.39112,0.60365c0.0749,0.93493 0.12465,1.8257 0.14923,2.67231c0.11044,0.07675 0.23093,0.09987 0.36128,0.06918c-0.37056,0.24157 -0.77624,0.44294 -1.21723,0.6041c-0.08225,-0.38482 -0.27865,-0.70141 -0.58918,-0.95c0.16469,-0.74708 0.0044,-1.48281 -0.48066,-2.20703c0.12996,-0.12735 0.2405,-0.28238 0.33144,-0.46528c-0.21594,-0.2762 -0.13847,-0.48908 0.23241,-0.63846c0.13872,0.34967 0.27728,0.69934 0.416,1.04903c0.01753,-0.32622 0.15285,-0.572 0.4056,-0.73748z" fill="#22ccbc" opacity="0.769"/><path d="M166.63242,109.92212c1.05026,0.73911 2.13254,1.45302 3.24702,2.14191c0.26298,0.10111 0.53354,0.14552 0.81164,0.13339c-0.23989,0.59402 -0.44422,1.20106 -0.61313,1.82133c-1.45522,-0.7358 -2.87085,-1.55029 -4.24675,-2.4435c-0.02644,-0.25926 0.01961,-0.50006 0.13836,-0.72256c0.17632,-0.34028 0.39721,-0.65052 0.66286,-0.93056z" fill="#22ccbc" opacity="0.769"/><path d="M159.11019,109.62733c-0.07915,0.39722 -0.05594,0.81285 0.06964,1.24707c-0.3852,-0.00137 -0.73653,0.10762 -1.054,0.32693c0.56525,1.03676 0.56395,2.07924 -0.00406,3.12764c0.08166,0.38056 0.10487,0.79637 0.06964,1.24708c0.01658,0.29699 0.03316,0.59378 0.04974,0.89076c-0.13531,0.37713 -0.32315,0.74504 -0.56385,1.10375c-0.12546,-0.11219 -0.25074,-0.22422 -0.3762,-0.33641c-0.31917,0.4033 -0.59293,0.83568 -0.82112,1.29681c-0.06264,-0.05602 -0.12547,-0.11219 -0.1881,-0.1682c-0.16603,0.47016 -0.47601,0.78538 -0.93011,0.94548c-0.06138,-0.26071 -0.01531,-0.5015 0.13836,-0.72256c1.05348,-0.89 1.79549,-2.00369 2.22601,-3.34107c-0.12959,-1.54949 -0.36421,-3.08527 -0.70404,-4.60712c0.56914,-0.35292 1.05064,-0.79674 1.44467,-1.33164c0.2063,0.13235 0.42065,0.23957 0.64343,0.32149z" fill="#22ccbc" opacity="0.794"/><path d="M159.52527,107.45965c0.27777,0.58995 0.37025,1.18044 0.27763,1.77159c-0.28476,-0.0622 -0.50261,-0.22875 -0.65338,-0.49964c-0.07175,0.29602 -0.08474,0.59465 -0.03933,0.89575c-0.22278,-0.08191 -0.43714,-0.18915 -0.64343,-0.32149c-0.39403,0.5349 -0.87554,0.97872 -1.44467,1.33164c0.33981,1.52185 0.57444,3.05763 0.70404,4.60712c-0.43052,1.33737 -1.17253,2.45106 -2.22601,3.34107c-0.15367,0.22106 -0.19974,0.46185 -0.13836,0.72256c-1.36443,-0.51176 -2.19275,-1.47826 -2.48512,-2.89929c0.07709,-0.17818 0.15621,-0.36131 0.23739,-0.54938c0.44943,0.7421 0.93627,1.4596 1.4605,2.15231c0.39897,-0.05927 0.81312,-0.11207 1.24211,-0.15872c0.42738,-0.64167 0.83629,-1.31982 1.22672,-2.0343c0.05913,-1.07556 -0.00055,-2.14447 -0.17907,-3.20676c-0.32003,-0.97861 -0.52481,-1.97992 -0.61451,-3.00374c0.83987,-0.45561 1.65289,-0.82876 2.43943,-1.11912c0.21511,-0.17696 0.4443,-0.3388 0.68775,-0.48518c-0.26559,0.00893 -0.50805,-0.06688 -0.72754,-0.22744c0.28861,-0.12477 0.58063,-0.23043 0.87585,-0.31697z" fill="#22ccbc" opacity="0.844"/><path d="M165.8312,111.57526c1.3759,0.89321 2.79154,1.7077 4.24675,2.4435c-0.15222,0.2855 -0.2543,0.58892 -0.30656,0.91067c-0.24304,0.04162 -0.48236,0.02514 -0.7176,-0.04929c-1.21352,-0.77592 -2.44603,-1.51129 -3.69736,-2.20611c0.06458,-0.41803 0.22284,-0.78428 0.47477,-1.09877z" fill="#22ccbc" opacity="0.769"/><path d="M175.54011,109.42472c0.1133,0.4417 0.37086,0.78473 0.7723,1.02913c0.83211,0.31435 1.39972,0.8783 1.70286,1.692c-0.07258,0.62381 -0.21757,1.22754 -0.43498,1.81137c-1.10917,-0.3155 -2.0926,-0.85622 -2.94994,-1.62237c0.20787,-1.01399 0.51111,-1.98415 0.90976,-2.91014z" fill="#22ccbc" opacity="0.769"/><path d="M159.17983,110.87441c0.41445,0.81643 0.70184,1.69393 0.86183,2.63251c-0.22144,0.24594 -0.38468,0.52312 -0.48969,0.83154c0.16603,0.26916 0.05734,0.45394 -0.32646,0.55436c0.04459,0.06881 0.10575,0.09507 0.18313,0.07914c-0.34234,0.29879 -0.74821,0.50017 -1.21723,0.6041c0.03524,-0.4507 0.01202,-0.86652 -0.06964,-1.24708c0.56802,-1.04839 0.56931,-2.09087 0.00406,-3.12764c0.31748,-0.21931 0.66881,-0.32828 1.054,-0.32692z" fill="#22ccbc" opacity="0.782"/><path d="M174.63035,112.33487c0.85734,0.76614 1.84077,1.30687 2.94994,1.62237c-0.21742,0.4398 -0.37236,0.86538 -0.46482,1.27693c-0.28999,0.22814 -0.58864,0.21497 -0.89574,-0.03934c-0.55435,-0.32646 -1.10872,-0.65292 -1.66307,-0.97939c-0.24381,-0.13221 -0.37407,-0.33349 -0.39112,-0.60365c0.05106,-0.47768 0.206,-0.90344 0.46482,-1.27692z" fill="#22ccbc" opacity="0.765"/><path d="M164.07046,115.24775c0.27183,0.68179 0.48977,1.38445 0.65383,2.108c0.41718,1.15029 0.78048,2.32128 1.08973,3.51332c0.13505,0.33826 0.21427,0.69126 0.23784,1.05898c0.22759,0.64495 0.26407,1.29822 0.10943,1.95968c0.03639,0.11716 0.07259,0.23417 0.10898,0.35133c0.10461,-0.21958 0.19369,-0.22455 0.26723,-0.01492c-0.5154,0.60815 -1.1124,1.11811 -1.79103,1.52969c-1.10638,-2.71375 -2.06558,-5.4897 -2.87761,-8.328c-0.22574,-0.39432 -0.46653,-0.44038 -0.72255,-0.13836c1.72475,5.14665 3.35437,10.32757 4.88886,15.54277c0.8892,-3.33594 1.9572,-6.61234 3.20403,-9.8292c0.82749,-1.2725 1.61905,-2.56767 2.37431,-3.88547c0.26359,-0.24668 0.44505,-0.19731 0.54441,0.14831c-0.14366,0.60188 -0.28867,1.20561 -0.43498,1.81138c-0.29862,0.55995 -0.50295,1.167 -0.61313,1.82133c-0.3415,0.60828 -0.54269,1.27466 -0.60318,1.99948c-0.25668,0.71916 -0.51387,1.44836 -0.7714,2.18758c-0.47432,1.23813 -0.87981,2.51174 -1.21632,3.8208c-0.375,0.87249 -0.68157,1.78315 -0.9197,2.732c-0.3584,0.74093 -0.61227,1.52963 -0.76145,2.36575c-0.35073,0.88775 -0.68688,1.80007 -1.00878,2.73697c-0.07377,-0.09525 -0.16615,-0.14959 -0.27718,-0.16323c-0.41972,-1.66948 -0.92839,-3.30915 -1.52562,-4.91866c-1.00687,-2.99596 -2.00725,-5.97815 -3.0015,-8.94656c-0.36608,-1.32649 -0.79533,-2.61299 -1.28778,-3.85968c-0.25432,-0.94761 -0.54485,-1.88444 -0.87179,-2.81066c-0.17947,-0.55452 -0.38747,-1.07904 -0.62399,-1.57354c-0.01658,-0.29699 -0.03316,-0.59378 -0.04974,-0.89076c0.46902,-0.10393 0.87489,-0.30531 1.21724,-0.6041c0.75403,-0.24851 1.45007,-0.58512 2.0881,-1.01015c0.44099,-0.16115 0.84667,-0.36252 1.21723,-0.6041c0.19255,-0.01772 0.36738,-0.08718 0.52451,-0.20799c0.33162,0.68059 0.60907,1.37994 0.83199,2.09806z" fill="url(#color-10)" opacity="0.999"/><path d="M165.35643,112.67402c1.25134,0.69482 2.48385,1.43019 3.69736,2.20611c0.23523,0.07443 0.47455,0.09091 0.7176,0.04929c-0.2161,0.7001 -0.47644,1.36996 -0.78135,2.00942c-1.31882,-0.77344 -2.67016,-1.50217 -4.05368,-2.18622c-0.15918,-0.17178 -0.2301,-0.37638 -0.21297,-0.61359c-0.00663,-0.11883 -0.01327,-0.23748 -0.0199,-0.35631c0.1399,-0.41009 0.35749,-0.77965 0.65293,-1.10872z" fill="#22ccbc" opacity="0.769"/><path d="M174.16553,113.61179c0.01705,0.27015 0.14731,0.47143 0.39112,0.60364c0.55435,0.32646 1.10872,0.65292 1.66308,0.97939c0.30711,0.25432 0.60575,0.26748 0.89574,0.03934c-0.34408,1.19584 -0.75603,2.35059 -1.23622,3.4645c-0.41306,-0.14188 -0.83697,-0.26708 -1.27195,-0.37575c-0.53312,-0.44863 -1.03644,-0.92681 -1.50979,-1.43471c0.26166,-1.13869 0.61779,-2.23083 1.06801,-3.2764z" fill="#22ccbc" opacity="0.754"/><path d="M164.72339,114.13904c-0.01713,0.23722 0.0538,0.4418 0.21297,0.61359c1.38352,0.68405 2.73485,1.41278 4.05368,2.18622c-0.16126,0.73493 -0.35894,1.4608 -0.59323,2.17763c-1.16909,-0.57879 -2.30738,-1.23006 -3.41522,-1.9538c-0.0627,0.10286 -0.14846,0.16715 -0.25728,0.19307c-0.16406,-0.72355 -0.38202,-1.42621 -0.65383,-2.108c0.18416,-0.392 0.40175,-0.76157 0.65293,-1.10871z" fill="#22ccbc" opacity="0.769"/><path d="M173.09752,116.88819c0.47334,0.50791 0.97667,0.98608 1.50979,1.43472c0.43497,0.10867 0.85889,0.23387 1.27195,0.37575c0.00582,0.4082 -0.09311,0.77114 -0.29662,1.08882c-1.0258,-0.39378 -2.00573,-0.8752 -2.93999,-1.44421c0.05624,-0.52908 0.20786,-1.01417 0.45487,-1.45507z" fill="#22ccbc" opacity="0.768"/><path d="M168.3968,119.11649c-0.28945,0.77568 -0.54314,1.56418 -0.76145,2.36574c-0.28268,-0.12736 -0.5828,-0.17011 -0.90072,-0.12841c-0.00995,-0.17815 -0.01989,-0.35631 -0.02984,-0.53446c-0.28793,0.04109 -0.50229,-0.06612 -0.64344,-0.32148c-0.04041,0.16595 -0.12287,0.28958 -0.24734,0.37122c-0.30925,-1.19205 -0.67256,-2.36304 -1.08974,-3.51332c0.10881,-0.02591 0.19459,-0.09021 0.25729,-0.19308c1.10784,0.72374 2.24614,1.37502 3.41522,1.9538z" fill="#22ccbc" opacity="0.769"/><path d="M159.73692,120.85101c0.49245,1.2467 0.92169,2.5332 1.28778,3.85968c-0.21364,-0.30563 -0.38213,-0.65364 -0.50508,-1.04406c-0.15477,0.15661 -0.26347,0.34139 -0.32646,0.55436c-0.06597,-0.11551 -0.13209,-0.23084 -0.19805,-0.34636c-0.21759,0.36956 -0.43534,0.73914 -0.65292,1.10872c-0.15816,-0.87381 -0.11717,-1.73999 0.12299,-2.59815c-0.17371,-0.43528 -0.31723,-0.87404 -0.43092,-1.31625c-0.46651,0.18081 -0.93152,0.38549 -1.39538,0.61404c-0.73451,1.75984 -0.75386,3.54801 -0.05786,5.3645c0.06148,0.78091 -0.20235,1.39128 -0.7913,1.83127c-0.33859,-2.65851 -0.51738,-5.32916 -0.53673,-8.01193c0.17665,-0.41464 0.30182,-0.83874 0.37574,-1.27195c0.6336,-0.34419 1.20444,-0.25704 1.71236,0.2618c0.14248,-0.35447 0.39975,-0.54755 0.77185,-0.57922c0.10893,0.58098 0.31692,1.10549 0.62399,1.57354z" fill="#22ccbc" opacity="0.955"/><path d="M172.64265,118.34326c0.93426,0.56902 1.91419,1.05043 2.93999,1.44421c-0.19518,0.92124 -0.44242,1.82859 -0.74155,2.72205c-0.32201,0.01959 -0.62397,-0.0529 -0.90569,-0.21749c-0.72252,-0.45128 -1.46,-0.85687 -2.21246,-1.21677c0.14631,-0.60577 0.29131,-1.2095 0.43498,-1.81138c0.19583,-0.29186 0.35741,-0.59879 0.48472,-0.92061z" fill="#22ccbc" opacity="0.765"/><path d="M152.34217,116.43878c0.17815,-0.00995 0.3563,-0.01989 0.53445,-0.02984c0.29237,1.42103 1.12069,2.38752 2.48512,2.89929c0.4541,-0.16011 0.76407,-0.47532 0.9301,-0.94548c0.06264,0.05602 0.12547,0.11219 0.1881,0.16821c0.22819,-0.46112 0.50195,-0.89352 0.82112,-1.29682c0.12546,0.11219 0.25074,0.22422 0.3762,0.33641c0.2407,-0.35871 0.42854,-0.72661 0.56385,-1.10374c0.23653,0.4945 0.44452,1.01902 0.62399,1.57354c-0.11882,-0.04769 -0.24096,-0.10039 -0.36625,-0.15826c-0.10474,0.32288 -0.23657,0.62815 -0.39565,0.91563c-0.63282,-0.73955 -1.10464,-0.65369 -1.41528,0.25773c-0.06264,-0.05602 -0.12546,-0.1122 -0.1881,-0.16821c-0.08157,0.82751 -0.49546,1.41642 -1.24164,1.76708c0.26779,1.67527 0.54045,3.35779 0.81798,5.04753c0.03134,0.56762 0.00185,1.10539 -0.08862,1.61334c-1.2878,-3.58483 -2.50299,-7.21036 -3.64539,-10.87641z" fill="#22ccbc" opacity="0.989"/><path d="M167.63536,121.48222c-0.22305,0.46048 -0.37468,0.94538 -0.45487,1.45508c-0.14701,0.27967 -0.27883,0.58476 -0.39565,0.91564c-0.19257,-0.68336 -0.43677,-1.32503 -0.73297,-1.92486c-0.02357,-0.36772 -0.10279,-0.72071 -0.23784,-1.05898c0.12447,-0.08164 0.20692,-0.20528 0.24734,-0.37122c0.14113,0.25536 0.35551,0.36258 0.64343,0.32148c0.00995,0.17815 0.01989,0.35631 0.02984,0.53446c0.31792,-0.0417 0.61804,0.00105 0.90072,0.12841z" fill="#22ccbc" opacity="0.769"/><path d="M171.72294,121.07526c0.75244,0.3599 1.48994,0.76549 2.21246,1.21677c0.28172,0.16459 0.58367,0.23708 0.90569,0.21749c-0.26254,0.73253 -0.51973,1.46173 -0.77138,2.18759c-0.11551,0.06597 -0.23085,0.13208 -0.34636,0.19805c-0.64209,-0.5982 -1.38289,-1.0633 -2.22241,-1.39493c-0.24381,-0.13221 -0.37407,-0.33349 -0.39112,-0.60364c0.11018,-0.65433 0.3145,-1.26138 0.61313,-1.82133z" fill="#22ccbc" opacity="0.768"/><path d="M161.02469,124.7107c0.05595,0.47707 0.05272,0.95387 -0.0095,1.43021c-0.31204,1.33433 -0.56582,2.65899 -0.76098,3.9741c0.00037,-0.33581 -0.09202,-0.39016 -0.27719,-0.16323c-0.1635,0.49308 -0.34488,0.97982 -0.54395,1.46005c0.18363,0.31536 0.07806,0.55947 -0.31651,0.73251c-0.08675,0.28346 -0.19048,0.5573 -0.31154,0.82158c0.20145,0.19588 0.15041,0.34759 -0.15328,0.45533c-0.15489,-0.08231 -0.23735,0.04131 -0.24734,0.37123c-0.1552,-0.52317 -0.38944,-0.98653 -0.70312,-1.39041c-0.25054,-0.36792 -0.42233,-0.77525 -0.51503,-1.22221c-0.06187,-0.02095 -0.12295,-0.04343 -0.18326,-0.06743c-0.00863,-0.0327 -0.01816,-0.06502 -0.02856,-0.09692c-0.00027,-0.00564 -0.00055,-0.01129 -0.00087,-0.01693c-0.02048,-0.36673 -0.15032,-0.7014 -0.35611,-0.9741c0.06301,-0.32217 0.06437,-0.64137 0.00403,-0.95759c-0.00663,-0.11882 0.04938,-0.18147 0.16821,-0.1881c0.58893,-0.43999 0.85277,-1.05036 0.79129,-1.83128c-0.696,-1.81649 -0.67665,-3.60466 0.05786,-5.3645c0.46385,-0.22856 0.92886,-0.43324 1.39539,-0.61405c0.11369,0.44221 0.2572,0.88097 0.43091,1.31625c-0.24016,0.85816 -0.28115,1.72433 -0.12299,2.59815c0.21759,-0.36956 0.43534,-0.73914 0.65292,-1.10872c0.06597,0.11551 0.13209,0.23084 0.19805,0.34636c0.06298,-0.21296 0.17169,-0.39774 0.32647,-0.55435c0.12294,0.39041 0.29142,0.73841 0.50507,1.04406z" fill="#22ccbc" opacity="0.806"/><path d="M158.86513,118.04034c0.32694,0.92623 0.61746,1.86305 0.87179,2.81067c-0.30706,-0.46805 -0.51507,-0.99256 -0.62399,-1.57354c-0.3721,0.03168 -0.62937,0.22476 -0.77185,0.57922c-0.50791,-0.51885 -1.07875,-0.60599 -1.71236,-0.2618c-0.07393,0.43321 -0.1991,0.8573 -0.37575,1.27195c0.01934,2.68278 0.19814,5.35343 0.53673,8.01193c-0.11882,0.00663 -0.17484,0.06928 -0.16821,0.18811c-0.31556,-0.52743 -0.52689,-1.11147 -0.63394,-1.75169c0.09048,-0.50795 0.11996,-1.04572 0.08862,-1.61333c-0.27753,-1.68975 -0.55019,-3.37226 -0.81798,-5.04753c0.74619,-0.35066 1.16009,-0.93956 1.24165,-1.76708c0.06264,0.05602 0.12546,0.1122 0.1881,0.16821c0.31064,-0.91142 0.78245,-0.99728 1.41528,-0.25773c0.15908,-0.2875 0.29091,-0.59276 0.39565,-0.91563c0.12529,0.05787 0.24743,0.11057 0.36625,0.15826z" fill="#22ccbc"/><path d="M171.10981,122.89659c0.01705,0.27015 0.14731,0.47143 0.39112,0.60364c0.83951,0.33163 1.58032,0.79672 2.22241,1.39493c-0.0774,0.50203 -0.29184,0.93111 -0.64297,1.28687c-0.86291,-0.43058 -1.72086,-0.8591 -2.57374,-1.28596c0.0605,-0.72483 0.26168,-1.39121 0.60318,-1.99948z" fill="#22ccbc" opacity="0.768"/><path d="M170.50662,124.89607c0.85287,0.42685 1.71083,0.85537 2.57374,1.28596c0.35113,-0.35576 0.56557,-0.78484 0.64297,-1.28687c0.11551,-0.06597 0.23085,-0.13208 0.34636,-0.19805c-0.41019,1.50977 -0.92457,2.96815 -1.54278,4.37517c0.02176,-0.29501 -0.05265,-0.55891 -0.22292,-0.79174c-0.83859,-0.44016 -1.69491,-0.83911 -2.56876,-1.19688c0.25752,-0.73923 0.51471,-1.46842 0.77139,-2.18758z" fill="#22ccbc" opacity="0.765"/><path d="M160.25421,130.11501c0.01326,0.23748 0.02653,0.47513 0.03979,0.71261c-0.28991,1.945 -0.50704,3.92292 -0.65156,5.93379c-0.46101,-1.08387 -0.79124,-2.19719 -0.9907,-3.34015c0.30369,-0.10774 0.35473,-0.25946 0.15328,-0.45533c0.12106,-0.26428 0.22479,-0.53814 0.31154,-0.82159c0.39458,-0.17304 0.50015,-0.41716 0.31651,-0.73251c0.19907,-0.48022 0.38045,-0.96697 0.54395,-1.46005c0.18516,-0.22693 0.27755,-0.17258 0.27718,0.16323z" fill="#22ccbc" opacity="0.769"/><path d="M161.02469,124.7107c0.99426,2.96841 1.99464,5.95061 3.0015,8.94656c-0.95573,-1.1102 -2.18309,-1.75651 -3.68245,-1.93889c-0.01658,-0.29699 -0.03316,-0.59378 -0.04974,-0.89076c-0.01326,-0.23748 -0.02653,-0.47513 -0.03979,-0.71261c0.19516,-1.31511 0.44894,-2.63976 0.76098,-3.9741c0.06222,-0.47634 0.06544,-0.95314 0.0095,-1.43021z" fill="#22ccbc" opacity="0.769"/><path d="M169.73524,127.08366c0.87385,0.35777 1.73016,0.75673 2.56877,1.19688c0.17027,0.23282 0.24468,0.49674 0.22292,0.79174c-0.27057,0.99533 -0.57381,1.9655 -0.90976,2.91015c-0.25051,-0.24568 -0.39558,-0.17788 -0.43544,0.20302c-0.86632,-0.46309 -1.75405,-0.89014 -2.66281,-1.28098c0.3365,-1.30907 0.742,-2.58267 1.21632,-3.82081z" fill="#22ccbc" opacity="0.769"/><path d="M168.51892,130.90446c0.90876,0.39084 1.79649,0.81789 2.66281,1.28098c0.03985,-0.38091 0.18493,-0.4487 0.43544,-0.20302c-0.19899,1.01921 -0.50224,1.98938 -0.90976,2.91015c-0.09351,-0.27606 -0.28328,-0.47402 -0.56928,-0.59369c-0.61037,-0.26383 -1.2209,-0.52747 -1.83127,-0.7913c-0.26017,-0.08894 -0.49616,-0.04591 -0.70764,0.12888c0.23814,-0.94885 0.5447,-1.8595 0.9197,-2.732z" fill="#22ccbc" opacity="0.765"/><path d="M160.29401,130.82762c0.01658,0.29699 0.03316,0.59378 0.04974,0.89076c1.49937,0.18237 2.72673,0.82867 3.68245,1.93889c0.59724,1.60952 1.1059,3.24919 1.52562,4.91866c-0.2742,-0.33085 -0.58942,-0.64082 -0.94548,-0.9301c-1.56931,-0.65098 -3.15152,-1.24779 -4.7464,-1.79012c0.08649,0.95037 0.19887,1.89715 0.33733,2.84051c0.45053,1.03387 0.86652,2.0829 1.24799,3.14708c0.14753,0.62582 0.35883,1.20966 0.63394,1.7517c0.30543,0.95388 0.59596,1.8907 0.87178,2.81067c0.03172,0.54239 0.12088,1.07354 0.26769,1.59343c-0.74669,-1.80258 -1.44162,-3.58071 -2.08495,-5.3342c-0.14921,-0.30709 -0.16911,-0.6634 -0.05969,-1.06893c-0.12214,-0.05269 -0.24411,-0.10556 -0.36625,-0.15825c-0.14921,-0.30709 -0.16911,-0.6634 -0.05969,-1.06893c-0.52525,-0.28198 -0.66728,-0.69098 -0.42594,-1.22718c-0.21288,-0.07747 -0.36957,-0.21759 -0.47026,-0.42052c-0.58649,-2.00917 -1.32773,-4.08245 -2.22377,-6.21999c0.03665,-0.07334 0.0945,-0.10625 0.17318,-0.09903c0.31367,0.40388 0.54791,0.86724 0.70312,1.39041c0.00999,-0.32992 0.09244,-0.45353 0.24734,-0.37122c0.19947,1.14297 0.5297,2.25628 0.9907,3.34015c0.14452,-2.01086 0.36165,-3.98879 0.65156,-5.93378z" fill="#22ccbc" opacity="0.768"/><path d="M170.70741,134.89257c-0.15674,0.72305 -0.41707,1.3929 -0.78134,2.00942c-0.11277,0.06062 -0.22829,0.12659 -0.34636,0.19805c-0.81014,-0.60884 -1.72411,-0.97491 -2.74194,-1.09785c0.14918,-0.83611 0.40304,-1.62481 0.76145,-2.36575c0.21149,-0.17479 0.44747,-0.21782 0.70764,-0.12887c0.61037,0.26383 1.2209,0.52746 1.83127,0.79129c0.286,0.11967 0.47577,0.31763 0.56928,0.59369z" fill="#22ccbc" opacity="0.765"/><path d="M165.55182,138.57593c0.11103,0.01364 0.20341,0.06798 0.27718,0.16323c0.3219,-0.93689 0.65805,-1.84921 1.00878,-2.73696c1.01782,0.12294 1.93181,0.48901 2.74194,1.09785c0.11807,-0.07146 0.23358,-0.13743 0.34636,-0.19805c-0.40794,2.01396 -1.01443,3.9541 -1.8195,5.82029c-0.04343,-0.23383 0.00428,-0.44504 0.14334,-0.63348c-2.50949,-0.85886 -4.97592,-1.82323 -7.39926,-2.89295c-0.05602,0.06264 -0.11219,0.12546 -0.1682,0.1881c-0.04101,-0.34387 -0.20266,-0.57306 -0.48518,-0.68774c-0.13846,-0.94336 -0.25083,-1.89013 -0.33732,-2.84051c1.59489,0.54233 3.17709,1.13914 4.7464,1.79012c0.35605,0.28929 0.67128,0.59925 0.94549,0.9301z" fill="#22ccbc" opacity="0.768"/><path d="M160.19726,138.69622c0.28251,0.11469 0.44417,0.34387 0.48517,0.68774c0.05602,-0.06264 0.11219,-0.12546 0.16821,-0.1881c2.42334,1.06972 4.88977,2.0341 7.39926,2.89295c-0.13906,0.18843 -0.18677,0.39965 -0.14334,0.63348c-0.09975,0.65553 -0.30425,1.2626 -0.61313,1.82133c-0.04343,-0.23383 0.00428,-0.44505 0.14334,-0.63349c-0.12877,-0.17151 -0.25737,-0.34305 -0.38615,-0.51456c-1.89669,-0.64413 -3.78231,-1.34303 -5.65706,-2.09668c-0.00689,0.17409 -0.05627,0.35556 -0.1483,0.5444c-0.38145,-1.06418 -0.79746,-2.1132 -1.24799,-3.14708z" fill="#22ccbc" opacity="0.766"/><path d="M167.49343,144.54362c-0.10475,0.57236 -0.25306,1.11676 -0.44492,1.63322c0.02301,-0.35281 -0.05455,-0.67623 -0.23287,-0.96989c-1.56849,-0.5849 -3.12093,-1.1832 -4.65733,-1.7951c-0.06881,0.04459 -0.09506,0.10574 -0.07912,0.18312c-0.2751,-0.54203 -0.48641,-1.12587 -0.63394,-1.75169c0.09204,-0.18885 0.14141,-0.37032 0.1483,-0.5444c1.87474,0.75365 3.76038,1.45256 5.65706,2.09668c0.12877,0.17151 0.25737,0.34305 0.38615,0.51456c-0.13906,0.18843 -0.18677,0.39967 -0.14334,0.63349z" fill="#22ccbc" opacity="0.769"/><path d="M167.0485,146.17684c0.04051,0.17502 -0.01236,0.297 -0.15825,0.36626c-0.29179,0.13835 -0.39735,0.38263 -0.31652,0.73251c-0.24304,0.04163 -0.48236,0.02514 -0.71759,-0.04929c-0.8655,-0.48994 -1.78114,-0.88558 -2.74692,-1.18693c-0.13762,0.08935 -0.1903,0.2115 -0.15825,0.36625c-0.27583,-0.91996 -0.56636,-1.85679 -0.87178,-2.81066c-0.01594,-0.07738 0.01031,-0.13854 0.07913,-0.18313c1.53639,0.61189 3.08883,1.21019 4.65732,1.7951c0.17831,0.29367 0.25587,0.6171 0.23287,0.9699z" fill="#22ccbc" opacity="0.761"/><path d="M166.89024,146.5431c-0.16628,0.97128 -0.47286,1.88194 -0.9197,2.73199c-0.13644,0.7507 -0.36387,1.47823 -0.68232,2.1826c-0.18482,0.31609 -0.44708,0.42009 -0.78677,0.312c-0.57447,-1.26266 -1.00207,-2.5196 -1.28281,-3.77061c-0.14681,-0.51989 -0.23596,-1.05103 -0.26769,-1.59343c-0.03205,-0.15476 0.02063,-0.2769 0.15825,-0.36625c0.96578,0.30134 1.88142,0.69699 2.74692,1.18693c0.23523,0.07443 0.47455,0.09091 0.71759,0.04929c-0.08083,-0.34987 0.02473,-0.59415 0.31652,-0.7325z" fill="#22ccbc" opacity="0.767"/><path d="M165.97054,149.2751c-0.44249,0.58567 -0.70299,1.25554 -0.78134,2.00942c-0.17815,0.00995 -0.35631,0.0199 -0.53446,0.02985c-0.42192,-1.25117 -0.84953,-2.50811 -1.28281,-3.77062c0.05435,-0.0924 0.10888,-0.18478 0.16323,-0.27718c0.78832,0.28213 1.57702,0.53599 2.36575,0.76145c0.26069,0.40237 0.2839,0.81818 0.06963,1.24708z" fill="#22ccbc" opacity="0.767"/></g></g></g></svg>