<svg version="1.1" xmlns="http://www.w3.org/2000/svg" xmlns:xlink="http://www.w3.org/1999/xlink" width="59.73641" height="109.72214" viewBox="0,0,59.73641,109.72214"><defs><radialGradient cx="349.65065" cy="279.98536" r="17.42762" gradientUnits="userSpaceOnUse" id="color-1"><stop offset="0" stop-color="#08a280"/><stop offset="1" stop-color="#076451"/></radialGradient><radialGradient cx="341.08966" cy="287.03507" r="6.29224" gradientUnits="userSpaceOnUse" id="color-2"><stop offset="0" stop-color="#0ef1c0"/><stop offset="1" stop-color="#6cf10e"/></radialGradient><radialGradient cx="329.52329" cy="303.20923" r="17.7" gradientUnits="userSpaceOnUse" id="color-3"><stop offset="0" stop-color="#08a280"/><stop offset="1" stop-color="#076451"/></radialGradient><radialGradient cx="309.39592" cy="311.98269" r="15.96943" gradientUnits="userSpaceOnUse" id="color-4"><stop offset="0" stop-color="#08a280"/><stop offset="1" stop-color="#076451"/></radialGradient></defs><g transform="translate(-302.29625,-213.83339)"><g data-paper-data="{&quot;isPaintingLayer&quot;:true}" fill-rule="nonzero" stroke-linejoin="miter" stroke-miterlimit="10" stroke-dasharray="" stroke-dashoffset="0" style="mix-blend-mode: normal"><path d="M335.50001,214.8334c0,0 22.01085,22.02066 24.57799,33.87483c4.06732,18.78146 -6.17799,37.42517 -6.17799,37.42517" data-paper-data="{&quot;origPos&quot;:null}" fill="none" stroke="#000000" stroke-width="2" stroke-linecap="round"/><path d="M302.83824,310.20554c0,-12.56448 6.27792,-20.51419 18.75,-25.45c18.81916,-7.44766 30.69714,-1.94585 37.35242,4.93349c9.24631,7.40611 -20.98793,33.8665 -33.55241,33.8665c-12.56448,0 -22.55,-0.78552 -22.55,-13.35z" data-paper-data="{&quot;origPos&quot;:null}" fill="#044738" stroke="none" stroke-width="0" stroke-linecap="butt"/><g data-paper-data="{&quot;origPos&quot;:null}" stroke="#000000" stroke-width="0" stroke-linecap="butt"><path d="M317.06667,288.29724l7.30117,-4.53906c0,0 5.47135,-1.70097 8.63433,-2.25654c9.787,-1.71906 18.45617,0.7456 18.45617,0.7456l-6.99167,3.25833l-11.92495,6.89875l-9.98623,3.94378z" data-paper-data="{&quot;origPos&quot;:null}" fill="#0bb691"/><path d="M324.49502,283.25667c0,0 5.18941,-2.13715 8.70716,-2.75504c9.787,-1.71906 18.33117,0.9956 18.33117,0.9956l-6.86667,3.13333l-11.21303,6.88172l-11.27316,4.51081l-5.50237,-7.73345z" data-paper-data="{&quot;origPos&quot;:null}" fill="url(#color-1)"/></g><path d="M343.7623,295.57051c-1.79811,0.45838 -6.47212,-2.80707 -7.11221,-4.49554c-0.61055,-1.61053 2.87383,-3.85889 6.01452,-5.26543c3.14069,-1.40654 5.60627,0.06866 5.94637,1.75713c0.3401,1.68846 2.4883,5.18472 -4.84868,8.00384z" data-paper-data="{&quot;origPos&quot;:null,&quot;origRot&quot;:0}" fill="url(#color-2)" stroke="none" stroke-width="0" stroke-linecap="butt"/><path d="M349.03117,288.31604c0.3401,1.68846 4.59753,2.67511 -4.93467,7.44078c-6.87727,3.43831 -6.09867,-0.65879 -6.43877,-2.34726c-0.54093,-2.68556 4.72526,-5.44919 5.07092,-5.604c3.14069,-1.40654 5.96242,-1.178 6.30252,0.51047z" data-paper-data="{&quot;origPos&quot;:null,&quot;origRot&quot;:0}" fill="#000000" stroke="none" stroke-width="0" stroke-linecap="butt"/><g data-paper-data="{&quot;origPos&quot;:null}" stroke="#000000" stroke-width="0" stroke-linecap="butt"><path d="M325.66668,301.89725c0,0 10.53913,-7.7646 18.7355,-11.7956c7.67433,-3.77426 15.73117,-1.6044 15.73117,-1.6044l0.93333,9.93333l-9.42872,9.38973l-21.10178,1.04233z" data-paper-data="{&quot;origPos&quot;:null}" fill="#0bb691"/><path d="M325.66668,302.49728l9.63687,-7.44442c0,0 5.47035,-3.16678 9.09863,-4.95118c7.67433,-3.77426 15.73117,-1.6044 15.73117,-1.6044l0.93333,9.93333l-9.42872,9.38973l-21.10178,1.04233z" data-paper-data="{&quot;origPos&quot;:null}" fill="url(#color-3)"/></g><g data-paper-data="{&quot;origPos&quot;:null}" stroke="none" stroke-width="0" stroke-linecap="butt"><path d="M306.80502,319.94955c-5.98715,-5.83119 -1.69044,-20.75988 -1.60263,-21.11404c0.11802,-0.47599 4.16363,-1.76839 6.08259,-3.06378c1.81968,-1.22836 4.46869,-4.13867 4.46869,-4.13867c0,0 8.53603,11.00722 13.7579,17.8837c0,0 -2.99187,3.45132 -3.88752,6.1708c-1.07439,3.26223 -0.49266,7.75119 -0.57388,7.74147c0,0 -14.32922,-0.40507 -18.24515,-3.47948z" data-paper-data="{&quot;origPos&quot;:null}" fill="#0bb691"/><path d="M305.20502,318.74958c-5.98715,-5.83119 -0.89044,-19.95988 -0.80263,-20.31404c0.11802,-0.47599 4.16362,-1.76839 6.08259,-3.06378c1.81968,-1.22836 4.46869,-4.13868 4.46869,-4.13868c0,0 8.53603,11.00722 13.7579,17.88371c0,0 -2.99187,3.45131 -3.88752,6.1708c-1.07439,3.26223 -0.20696,7.89406 -0.28818,7.88434c0,0 -4.83622,-0.00272 -6.64479,-0.24362c-5.4257,-0.72271 -8.77014,-1.10431 -12.68607,-4.17872z" data-paper-data="{&quot;origPos&quot;:null}" fill="url(#color-4)"/></g></g></g></svg>