<svg version="1.1" xmlns="http://www.w3.org/2000/svg" xmlns:xlink="http://www.w3.org/1999/xlink" width="54.87697" height="107.94471" viewBox="0,0,54.87697,107.94471"><defs><radialGradient cx="332.70982" cy="315.64563" r="6.03345" gradientUnits="userSpaceOnUse" id="color-1"><stop offset="0" stop-color="#0ef1c0"/><stop offset="1" stop-color="#3f8a0a"/></radialGradient><radialGradient cx="324.66131" cy="301.56075" r="7.85" gradientUnits="userSpaceOnUse" id="color-2"><stop offset="0" stop-color="#0ee9b9"/><stop offset="1" stop-color="#3f8a0a"/></radialGradient><radialGradient cx="331.50254" cy="294.92073" r="3.35001" gradientUnits="userSpaceOnUse" id="color-3"><stop offset="0" stop-color="#099677"/><stop offset="1" stop-color="#3f8a0a"/></radialGradient><radialGradient cx="329.08799" cy="295.52437" r="2.0375" gradientUnits="userSpaceOnUse" id="color-4"><stop offset="0" stop-color="#099677"/><stop offset="1" stop-color="#3f8a0a"/></radialGradient><radialGradient cx="325.26495" cy="297.13406" r="3.06875" gradientUnits="userSpaceOnUse" id="color-5"><stop offset="0" stop-color="#099677"/><stop offset="1" stop-color="#3f8a0a"/></radialGradient><radialGradient cx="309.36914" cy="292.70739" r="3.18873" gradientUnits="userSpaceOnUse" id="color-6"><stop offset="0" stop-color="#0ef1c0"/><stop offset="1" stop-color="#3f8a0a"/></radialGradient><radialGradient cx="349.41047" cy="309.40805" r="7.18385" gradientUnits="userSpaceOnUse" id="color-7"><stop offset="0" stop-color="#0ee9b9"/><stop offset="1" stop-color="#3f8a0a"/></radialGradient><radialGradient cx="309.5245" cy="312.0635" r="9.90048" gradientUnits="userSpaceOnUse" id="color-8"><stop offset="0" stop-color="#26d5cb"/><stop offset="1" stop-color="#355f4e"/></radialGradient></defs><g transform="translate(-307.15569,-213.83341)"><g data-paper-data="{&quot;isPaintingLayer&quot;:true}" stroke-linejoin="miter" stroke-miterlimit="10" stroke-dasharray="" stroke-dashoffset="0" style="mix-blend-mode: normal"><path d="M335.50001,214.83341c0,0 22.01085,22.02066 24.57799,33.87483c4.06732,18.78146 -6.17799,37.42517 -6.17799,37.42517" data-paper-data="{&quot;origPos&quot;:null}" fill="none" fill-rule="nonzero" stroke="#000000" stroke-width="2" stroke-linecap="round"/><g data-paper-data="{&quot;origPos&quot;:null}" fill-rule="nonzero" stroke="none" stroke-width="0" stroke-linecap="butt"><path d="M338.97645,315.47812c0,2.37482 -8.68041,6.3 -11,6.3c-1.77427,0 -0.8,-4.76367 -0.8,-5.3c0,-2.37482 3.0804,-5.7 5.4,-5.7c2.31959,0 6.4,2.32518 6.4,4.7z" data-paper-data="{&quot;origPos&quot;:null}" fill="url(#color-1)"/><g data-paper-data="{&quot;origPos&quot;:null}"><path d="M324.67156,301.55719l-3.2,-4.2l11.80664,-5.17436l2.79336,-1.72564l1.1,1.6l-2.90372,1.85208z" data-paper-data="{&quot;origPos&quot;:null}" fill="url(#color-2)"/><path d="M331.26153,295.82629l-1.47747,-1.81027l3.3951,-1.37173l2.57632,-1.49962l0.72859,0.95749l-2.54323,1.66742z" data-paper-data="{&quot;origPos&quot;:null}" fill="url(#color-3)"/><path d="M328.60906,297.86969l-2.0125,-2.45l2.6,-1.0875l1.475,1.7875z" data-paper-data="{&quot;origPos&quot;:null}" fill="url(#color-4)"/><path d="M324.73406,300.93219l-2.6375,-3.45l4.0375,-1.7125l2.1,2.475z" data-paper-data="{&quot;origPos&quot;:null}" fill="url(#color-5)"/></g><path d="M307.64312,296.61145c-1.77427,0 3.11374,-5.91667 5.43334,-5.91667c2.31959,0 -3.11374,5.91667 -5.43333,5.91667z" data-paper-data="{&quot;origPos&quot;:null}" fill="url(#color-6)"/><path d="M340.24299,315.41432c0,0 -0.53751,-1.78305 -1.2473,-2.55855c-1.09658,-1.19811 -3.38128,-2.49859 -3.38128,-2.49859l14.36771,-1.59078z" data-paper-data="{&quot;origPos&quot;:null}" fill="url(#color-7)"/></g><g fill-rule="evenodd" stroke="none" stroke-width="1" stroke-linecap="butt"><path d="M313.36731,301.70689l0.21487,-0.56108l0.56726,0.6755c1.34824,1.60499 1.33108,1.40453 0.3302,3.86396l-0.91027,2.23769l0.73819,-0.13135c0.40594,-0.07208 1.51048,-0.19107 2.45439,-0.26406l1.7162,-0.13295l0.86817,1.03383c0.85055,1.01278 0.85741,1.0359 0.34324,1.15214c-3.54154,0.79929 -9.84776,1.94685 -9.99398,1.81871c-0.25491,-0.22379 0.85718,-3.52163 2.07088,-6.141c0.76222,-1.6448 1.48257,-3.24292 1.60087,-3.55138" fill="#f1f5f3"/><path d="M312.70829,298.09898c0.65628,-1.1629 1.24482,-2.11527 1.30774,-2.11641c0.06293,-0.00114 0.57779,0.89402 1.14413,1.98918c2.31503,4.47675 5.02296,7.98809 7.98351,10.35209c1.14665,0.91553 2.08483,1.74159 2.08483,1.83541c0,0.24873 -3.01227,1.28944 -5.263,1.81825c-1.06976,0.25125 -3.84725,0.87388 -6.17213,1.38348c-3.23148,0.70844 -4.44312,1.07434 -5.14424,1.55281c-1.64045,1.11942 -1.57455,1.10775 -1.41826,0.254c0.0778,-0.4247 0.2524,-1.80201 0.38809,-3.06055c0.13569,-1.25854 0.39312,-3.00083 0.57183,-3.87197c0.35125,-1.71162 2.56216,-6.67257 4.51749,-10.13631M313.36731,301.70689l0.21487,-0.56108l0.56726,0.6755c1.34824,1.60499 1.33108,1.40453 0.3302,3.86396l-0.91027,2.23769l0.73819,-0.13135c0.40594,-0.07208 1.51048,-0.19107 2.45439,-0.26406l1.7162,-0.13295l0.86817,1.03383c0.85055,1.01278 0.85741,1.0359 0.34324,1.15214c-3.54154,0.79929 -9.84776,1.94685 -9.99398,1.81871c-0.25491,-0.22379 0.85718,-3.52163 2.07088,-6.141c0.76222,-1.6448 1.48257,-3.24292 1.60087,-3.55138" fill="url(#color-8)"/></g></g></g></svg>