<svg version="1.1" xmlns="http://www.w3.org/2000/svg" xmlns:xlink="http://www.w3.org/1999/xlink" width="173.06519" height="157.79394" viewBox="0,0,173.06519,157.79394"><defs><linearGradient x1="203.6104" y1="135.03418" x2="376.17559" y2="135.03418" gradientUnits="userSpaceOnUse" id="color-1"><stop offset="0" stop-color="#1d937a"/><stop offset="1" stop-color="#000000"/></linearGradient></defs><g transform="translate(-203.6104,-56.13721)"><g data-paper-data="{&quot;isPaintingLayer&quot;:true}" fill-rule="nonzero" stroke-linejoin="miter" stroke-miterlimit="10" stroke-dasharray="" stroke-dashoffset="0" style="mix-blend-mode: normal"><path d="M204.1104,147.44663l29.5414,-91.30942l143.02379,59.83781l-41.79336,97.95613z" data-paper-data="{&quot;origPos&quot;:null}" fill="#ab3e3e" stroke="none" stroke-width="0" stroke-linecap="butt"/><path d="M203.6104,147.44663l29.5414,-91.30942l143.02379,59.83781l-41.79336,97.95613z" data-paper-data="{&quot;origPos&quot;:null}" fill="url(#color-1)" stroke="none" stroke-width="0" stroke-linecap="butt"/><path d="M278.94008,119.85673c0,-1.38071 1.11929,-2.5 2.5,-2.5c1.38071,0 2.5,1.11929 2.5,2.5c0,1.38071 -1.11929,2.5 -2.5,2.5c-1.38071,0 -2.5,-1.11929 -2.5,-2.5z" data-paper-data="{&quot;origPos&quot;:null}" fill="#90f2dd" stroke="none" stroke-width="0.5" stroke-linecap="butt"/><path d="M289.48175,124.60673c0,-1.49577 1.21256,-2.70833 2.70833,-2.70833c1.49577,0 2.70833,1.21256 2.70833,2.70833c0,1.49577 -1.21256,2.70833 -2.70833,2.70833c-1.49577,0 -2.70833,-1.21256 -2.70833,-2.70833z" data-paper-data="{&quot;origPos&quot;:null}" fill="#90f2dd" stroke="none" stroke-width="0.5" stroke-linecap="butt"/><path d="M292.25324,136.07091c0,0 -7.0989,5.05944 -14.67263,1.86477c-5.97044,-2.51839 -5.18902,-11.07894 -5.18902,-11.07894" data-paper-data="{&quot;origPos&quot;:null}" fill="none" stroke="#90f2dd" stroke-width="3.5" stroke-linecap="round"/></g></g></svg>