<svg version="1.1" xmlns="http://www.w3.org/2000/svg" xmlns:xlink="http://www.w3.org/1999/xlink" width="47.2634" height="51.78285" viewBox="0,0,47.2634,51.78285"><defs><radialGradient cx="227.45454" cy="216.28788" r="25.89143" gradientUnits="userSpaceOnUse" id="color-1"><stop offset="0" stop-color="#26d5cb"/><stop offset="1" stop-color="#355f4e"/></radialGradient></defs><g transform="translate(-221.25975,-174.23358)"><g data-paper-data="{&quot;isPaintingLayer&quot;:true}" fill-rule="evenodd" stroke="none" stroke-width="1" stroke-linecap="butt" stroke-linejoin="miter" stroke-miterlimit="10" stroke-dasharray="" stroke-dashoffset="0" style="mix-blend-mode: normal"><g><path d="M237.50412,189.20361l0.56191,-1.46732l1.48348,1.76654c3.52588,4.19731 3.481,3.67309 0.86352,10.10489l-2.3805,5.85193l1.93049,-0.34349c1.0616,-0.1885 3.95016,-0.49968 6.41864,-0.69057l4.48814,-0.34768l2.2704,2.70365c2.22432,2.6486 2.24227,2.70904 0.89762,3.01304c-9.26172,2.09027 -25.75353,5.09134 -26.13592,4.75623c-0.66664,-0.58525 2.24168,-9.20966 5.41569,-16.05975c1.99333,-4.30143 3.87716,-8.48078 4.18653,-9.28745" fill="#f1f5f3"/><path d="M235.78067,179.76835c1.71627,-3.04117 3.2554,-5.53178 3.41996,-5.53477c0.16456,-0.00299 1.51101,2.33802 2.9921,5.20205c6.0542,11.70746 13.13588,20.89019 20.87822,27.07245c2.99867,2.39427 5.45219,4.55456 5.45219,4.79991c0,0.65048 -7.87758,3.37209 -13.76362,4.75504c-2.7976,0.65706 -10.06121,2.28535 -16.14114,3.61803c-8.45086,1.8527 -11.61949,2.80957 -13.45305,4.06087c-4.29006,2.92747 -4.11772,2.89694 -3.709,0.66424c0.20346,-1.11067 0.66006,-4.71255 1.01492,-8.00385c0.35486,-3.2913 1.02808,-7.84766 1.49544,-10.12584c0.91857,-4.47617 6.70049,-17.44988 11.81398,-26.50814M237.50412,189.20361l0.56191,-1.46732l1.48348,1.76654c3.52588,4.19731 3.481,3.67309 0.86352,10.10489l-2.3805,5.85193l1.93049,-0.34349c1.0616,-0.1885 3.95016,-0.49968 6.41864,-0.69057l4.48814,-0.34768l2.2704,2.70365c2.22432,2.6486 2.24227,2.70904 0.89763,3.01304c-9.26172,2.09027 -25.75354,5.09134 -26.13593,4.75623c-0.66664,-0.58525 2.24168,-9.20966 5.41569,-16.05975c1.99333,-4.30143 3.87716,-8.48078 4.18653,-9.28745" fill="url(#color-1)"/></g></g></g></svg>