<svg version="1.1" xmlns="http://www.w3.org/2000/svg" xmlns:xlink="http://www.w3.org/1999/xlink" width="149.5403" height="84.81085" viewBox="0,0,149.5403,84.81085"><g transform="translate(-161.21948,-200.41287)"><g data-paper-data="{&quot;isPaintingLayer&quot;:true}" fill="#ab3e3e" fill-rule="nonzero" stroke="none" stroke-width="0" stroke-linecap="butt" stroke-linejoin="miter" stroke-miterlimit="10" stroke-dasharray="" stroke-dashoffset="0" font-family="none" font-weight="none" font-size="none" text-anchor="none" style="mix-blend-mode: normal"><g data-paper-data="{&quot;origPos&quot;:null}"><path d="M175.96251,221.7083c-0.10405,-0.54933 0.37168,-0.75185 0.67191,-1.01143c0.90072,-0.77875 2.67352,-1.74524 3.41079,-2.12054c0.45873,-0.23351 0.61744,-0.4381 1.27981,-0.46949c0.66237,-0.03142 0.86061,0.10653 1.25034,0.34264c1.33305,0.80762 2.30349,1.18554 3.55424,2.07071c0.41691,0.29506 0.73381,0.52827 0.72854,1.02345c-0.00527,0.49518 -0.38773,0.64787 -0.74902,0.90029c-1.25915,0.87981 -2.09265,1.6832 -3.1722,2.3204c-0.35985,0.2124 -0.65393,0.28131 -1.10037,0.28801c-0.44644,0.00671 -0.80634,-0.01925 -1.21729,-0.25321c-0.41094,-0.23396 -2.29939,-1.18012 -3.63333,-2.09361c-0.4661,-0.31916 -0.9194,-0.44786 -1.02346,-0.99722z" data-paper-data="{&quot;origRot&quot;:0,&quot;origPos&quot;:null}"/><path d="M183.71675,225.99576c-0.10405,-0.54933 0.37168,-0.75186 0.67191,-1.01144c0.90072,-0.77875 2.67352,-1.74524 3.41078,-2.12054c0.45873,-0.23351 0.61744,-0.43809 1.27981,-0.4695c0.66237,-0.03142 0.86062,0.10653 1.25032,0.34265c1.33305,0.80762 2.30349,1.18554 3.55424,2.07071c0.41691,0.29506 0.73379,0.52826 0.72853,1.02345c-0.00527,0.49518 -0.38774,0.64787 -0.74901,0.90029c-1.25915,0.87981 -2.09265,1.68321 -3.1722,2.3204c-0.35985,0.2124 -0.65393,0.28131 -1.10036,0.28801c-0.44644,0.00671 -0.80636,-0.01926 -1.21731,-0.25322c-0.41094,-0.23396 -2.29936,-1.18012 -3.63331,-2.09361c-0.4661,-0.31916 -0.91942,-0.44785 -1.02346,-0.9972z" data-paper-data="{&quot;origRot&quot;:0,&quot;origPos&quot;:null}"/><path d="M191.1813,230.00531c-0.10405,-0.54933 0.37168,-0.75186 0.67191,-1.01145c0.90072,-0.77875 2.67352,-1.74523 3.41079,-2.12054c0.45873,-0.23351 0.61745,-0.4381 1.27981,-0.4695c0.66237,-0.03142 0.86062,0.10654 1.25033,0.34265c1.33305,0.80762 2.30348,1.18555 3.55423,2.0707c0.41691,0.29506 0.73381,0.52826 0.72854,1.02344c-0.00527,0.49518 -0.38774,0.64786 -0.74901,0.90028c-1.25915,0.87981 -2.09265,1.6832 -3.1722,2.3204c-0.35985,0.2124 -0.65393,0.2813 -1.10036,0.28801c-0.44644,0.00671 -0.80634,-0.01925 -1.2173,-0.25321c-0.41094,-0.23396 -2.29937,-1.18012 -3.63332,-2.09361c-0.4661,-0.31916 -0.91942,-0.44785 -1.02347,-0.9972z" data-paper-data="{&quot;origRot&quot;:0,&quot;origPos&quot;:null}"/><path d="M198.84093,234.29473c-0.10405,-0.54933 0.37168,-0.75185 0.67191,-1.01144c0.90072,-0.77875 2.67352,-1.74524 3.4108,-2.12054c0.45873,-0.23351 0.61744,-0.4381 1.2798,-0.4695c0.66237,-0.03142 0.86062,0.10654 1.25033,0.34265c1.33305,0.80762 2.30349,1.18555 3.55424,2.0707c0.41691,0.29506 0.73381,0.52827 0.72854,1.02345c-0.00527,0.49518 -0.38774,0.64787 -0.74901,0.90029c-1.25915,0.87981 -2.09265,1.6832 -3.1722,2.3204c-0.35985,0.2124 -0.65393,0.28131 -1.10036,0.28802c-0.44644,0.00671 -0.80634,-0.01925 -1.2173,-0.25322c-0.41094,-0.23396 -2.2994,-1.18012 -3.63333,-2.09363c-0.4661,-0.31916 -0.9194,-0.44785 -1.02345,-0.99721z" data-paper-data="{&quot;origRot&quot;:0,&quot;origPos&quot;:null}"/><g data-paper-data="{&quot;origPos&quot;:null}"><path d="M191.61368,204.0188c-0.10405,-0.54933 0.37168,-0.75186 0.67191,-1.01145c0.90072,-0.77875 2.67352,-1.74525 3.41079,-2.12054c0.45873,-0.23351 0.61744,-0.43809 1.2798,-0.46951c0.66237,-0.03142 0.86062,0.10654 1.25033,0.34265c1.33305,0.80762 2.30349,1.18555 3.55424,2.0707c0.41691,0.29506 0.73381,0.52827 0.72854,1.02345c-0.00527,0.49518 -0.38774,0.64787 -0.74901,0.90029c-1.25915,0.87981 -2.09265,1.68319 -3.1722,2.32041c-0.35985,0.2124 -0.65392,0.28131 -1.10036,0.28802c-0.44644,0.00671 -0.80636,-0.01925 -1.21731,-0.25321c-0.41094,-0.23396 -2.29936,-1.18012 -3.63331,-2.09363c-0.4661,-0.31916 -0.91942,-0.44786 -1.02347,-0.99721z" data-paper-data="{&quot;origRot&quot;:0,&quot;origPos&quot;:null}"/></g><g data-paper-data="{&quot;origPos&quot;:null}"><path d="M199.36791,208.30626c-0.10405,-0.54933 0.37168,-0.75186 0.67191,-1.01145c0.90072,-0.77875 2.67352,-1.74525 3.41079,-2.12053c0.45873,-0.23351 0.61742,-0.43808 1.27979,-0.46951c0.66237,-0.03142 0.86062,0.10653 1.25032,0.34265c1.33305,0.80762 2.30349,1.18554 3.55423,2.07071c0.41691,0.29506 0.73381,0.52827 0.72854,1.02345c-0.00527,0.49518 -0.38774,0.64786 -0.74901,0.90027c-1.25915,0.87981 -2.09267,1.68322 -3.17221,2.3204c-0.35985,0.2124 -0.65393,0.2813 -1.10037,0.288c-0.44644,0.00671 -0.80634,-0.01925 -1.2173,-0.25321c-0.41094,-0.23396 -2.29937,-1.18012 -3.6333,-2.09363c-0.4661,-0.31916 -0.91942,-0.44785 -1.02347,-0.99721z" data-paper-data="{&quot;origRot&quot;:0,&quot;origPos&quot;:null}"/></g><g data-paper-data="{&quot;origPos&quot;:null}"><path d="M207.12213,212.59371c-0.10405,-0.54933 0.37168,-0.75185 0.67191,-1.01144c0.90072,-0.77875 2.67352,-1.74524 3.41079,-2.12054c0.45873,-0.23351 0.61744,-0.43809 1.2798,-0.46951c0.66237,-0.03142 0.86062,0.10654 1.25033,0.34265c1.33305,0.80762 2.30349,1.18555 3.55423,2.0707c0.41691,0.29506 0.73381,0.52826 0.72854,1.02344c-0.00527,0.49518 -0.38773,0.64788 -0.74902,0.90031c-1.25915,0.87981 -2.09266,1.6832 -3.17221,2.3204c-0.35985,0.2124 -0.65393,0.2813 -1.10037,0.288c-0.44644,0.00671 -0.80635,-0.01925 -1.21729,-0.25321c-0.41094,-0.23396 -2.29937,-1.18012 -3.63331,-2.09363c-0.4661,-0.31916 -0.9194,-0.44785 -1.02346,-0.99721z" data-paper-data="{&quot;origRot&quot;:0,&quot;origPos&quot;:null}"/></g><g data-paper-data="{&quot;origPos&quot;:null}"><path d="M214.58667,216.60328c-0.10405,-0.54933 0.37168,-0.75185 0.67191,-1.01145c0.90072,-0.77875 2.67353,-1.74525 3.41079,-2.12054c0.45873,-0.23351 0.61742,-0.43809 1.27979,-0.46952c0.66237,-0.03142 0.86062,0.10654 1.25033,0.34265c1.33305,0.80762 2.30348,1.18554 3.55423,2.0707c0.41691,0.29506 0.73381,0.52827 0.72854,1.02345c-0.00527,0.49518 -0.38774,0.64787 -0.74901,0.90029c-1.25915,0.87981 -2.09266,1.6832 -3.17221,2.3204c-0.35985,0.2124 -0.65393,0.28131 -1.10037,0.28801c-0.44644,0.00671 -0.80634,-0.01926 -1.2173,-0.25322c-0.41094,-0.23396 -2.29937,-1.18012 -3.6333,-2.09363c-0.4661,-0.31916 -0.91942,-0.44783 -1.02346,-0.99719z" data-paper-data="{&quot;origRot&quot;:0,&quot;origPos&quot;:null}"/></g><g data-paper-data="{&quot;origPos&quot;:null}"><path d="M222.24629,220.89269c-0.10405,-0.54933 0.37168,-0.75186 0.67191,-1.01144c0.90072,-0.77875 2.67352,-1.74525 3.4108,-2.12053c0.45873,-0.23351 0.61742,-0.4381 1.2798,-0.46953c0.66237,-0.03142 0.86062,0.10654 1.25032,0.34266c1.33305,0.80762 2.30349,1.18554 3.55423,2.07071c0.41691,0.29506 0.73381,0.52825 0.72854,1.02344c-0.00527,0.49518 -0.38774,0.64788 -0.74901,0.9003c-1.25915,0.87981 -2.09266,1.6832 -3.17221,2.32039c-0.35985,0.2124 -0.65392,0.2813 -1.10037,0.28801c-0.44644,0.00671 -0.80634,-0.01925 -1.2173,-0.25321c-0.41094,-0.23396 -2.29937,-1.18012 -3.6333,-2.09361c-0.4661,-0.31916 -0.91941,-0.44786 -1.02346,-0.99721z" data-paper-data="{&quot;origRot&quot;:0,&quot;origPos&quot;:null}"/></g><g data-paper-data="{&quot;origPos&quot;:null}"><path d="M229.71672,225.18603c-0.10405,-0.54933 0.37168,-0.75184 0.67192,-1.01143c0.90072,-0.77875 2.67352,-1.74526 3.41079,-2.12055c0.45873,-0.23351 0.61742,-0.43809 1.27979,-0.46952c0.66237,-0.03142 0.86062,0.10653 1.25035,0.34265c1.33305,0.80762 2.30349,1.18554 3.55423,2.07071c0.41691,0.29506 0.73381,0.52826 0.72854,1.02345c-0.00527,0.49518 -0.38774,0.64787 -0.74902,0.90029c-1.25915,0.87981 -2.09266,1.6832 -3.1722,2.3204c-0.35985,0.2124 -0.65392,0.28131 -1.10036,0.28802c-0.44644,0.00671 -0.80636,-0.01925 -1.21731,-0.25322c-0.41094,-0.23396 -2.29937,-1.18012 -3.63331,-2.09363c-0.4661,-0.31916 -0.91941,-0.44786 -1.02346,-0.99722z" data-paper-data="{&quot;origRot&quot;:0,&quot;origPos&quot;:null}"/></g><g data-paper-data="{&quot;origPos&quot;:null}"><path d="M237.46897,229.37888c-0.10405,-0.54933 0.37168,-0.75185 0.67191,-1.01144c0.90072,-0.77875 2.67352,-1.74526 3.41079,-2.12054c0.45873,-0.23351 0.61742,-0.4381 1.2798,-0.46951c0.66237,-0.03142 0.86062,0.10654 1.25033,0.34265c1.33305,0.80762 2.30348,1.18554 3.55423,2.07071c0.41691,0.29506 0.73379,0.52826 0.72853,1.02345c-0.00527,0.49518 -0.38774,0.64787 -0.749,0.90029c-1.25915,0.87981 -2.09267,1.6832 -3.17221,2.3204c-0.35985,0.2124 -0.65393,0.28131 -1.10036,0.28802c-0.44644,0.00671 -0.80634,-0.01925 -1.2173,-0.25321c-0.41094,-0.23396 -2.29939,-1.18012 -3.63332,-2.09361c-0.4661,-0.31916 -0.91941,-0.44786 -1.02347,-0.99721z" data-paper-data="{&quot;origRot&quot;:0,&quot;origPos&quot;:null}"/></g><g data-paper-data="{&quot;origPos&quot;:null}"><path d="M244.83698,233.2958c-0.10405,-0.54933 0.37168,-0.75186 0.67191,-1.01145c0.90072,-0.77875 2.67352,-1.74524 3.41079,-2.12052c0.45873,-0.23351 0.61742,-0.43809 1.27979,-0.46951c0.66237,-0.03142 0.86062,0.10654 1.25035,0.34265c1.33305,0.80762 2.30348,1.18555 3.55423,2.0707c0.41691,0.29506 0.73382,0.52827 0.72855,1.02345c-0.00527,0.49518 -0.38774,0.64787 -0.74901,0.90029c-1.25915,0.87981 -2.09266,1.68322 -3.17221,2.3204c-0.35985,0.2124 -0.65392,0.2813 -1.10036,0.288c-0.44644,0.00671 -0.80636,-0.01925 -1.21731,-0.25322c-0.41094,-0.23396 -2.29937,-1.18012 -3.6333,-2.09361c-0.4661,-0.31916 -0.91941,-0.44785 -1.02346,-0.99721z" data-paper-data="{&quot;origRot&quot;:0,&quot;origPos&quot;:null}"/></g><g data-paper-data="{&quot;origPos&quot;:null}"><path d="M252.78039,237.57934c-0.10405,-0.54933 0.37168,-0.75184 0.67191,-1.01143c0.90072,-0.77875 2.67352,-1.74525 3.41079,-2.12054c0.45873,-0.23351 0.61742,-0.43808 1.27979,-0.46951c0.66237,-0.03142 0.86062,0.10654 1.25034,0.34265c1.33305,0.80762 2.30348,1.18555 3.55422,2.0707c0.41691,0.29506 0.73383,0.52827 0.72855,1.02345c-0.00527,0.49518 -0.38774,0.64787 -0.74901,0.90029c-1.25915,0.87981 -2.09266,1.6832 -3.17221,2.3204c-0.35985,0.2124 -0.65393,0.2813 -1.10037,0.288c-0.44644,0.00671 -0.80634,-0.01925 -1.2173,-0.25321c-0.41095,-0.23396 -2.29937,-1.18012 -3.63331,-2.09361c-0.4661,-0.31916 -0.91941,-0.44786 -1.02346,-0.99722z" data-paper-data="{&quot;origRot&quot;:0,&quot;origPos&quot;:null}"/></g><g data-paper-data="{&quot;origPos&quot;:null}"><path d="M260.30818,241.9236c-0.10406,-0.54933 0.37168,-0.75186 0.67192,-1.01145c0.90073,-0.77875 2.67351,-1.74524 3.41079,-2.12052c0.45872,-0.23351 0.61742,-0.4381 1.27979,-0.46952c0.66237,-0.03142 0.86062,0.10653 1.25034,0.34265c1.33306,0.80762 2.30348,1.18555 3.55422,2.07071c0.4169,0.29506 0.73382,0.52825 0.72855,1.02345c-0.00527,0.49518 -0.38774,0.64787 -0.74901,0.90029c-1.25915,0.87981 -2.09267,1.6832 -3.17221,2.3204c-0.35985,0.2124 -0.65392,0.28131 -1.10037,0.28801c-0.44642,0.00671 -0.80635,-0.01926 -1.2173,-0.25323c-0.41095,-0.23396 -2.29937,-1.18012 -3.63331,-2.09361c-0.4661,-0.31916 -0.9194,-0.44785 -1.02345,-0.9972z" data-paper-data="{&quot;origRot&quot;:0,&quot;origPos&quot;:null}"/></g><g data-paper-data="{&quot;origPos&quot;:null}"><path d="M267.43549,246.0773c-0.10406,-0.54933 0.37168,-0.75186 0.67192,-1.01144c0.90073,-0.77875 2.67353,-1.74526 3.4108,-2.12054c0.45872,-0.23351 0.61742,-0.43809 1.27979,-0.46952c0.66237,-0.03142 0.86061,0.10654 1.25033,0.34266c1.33306,0.80762 2.30349,1.18554 3.55423,2.07071c0.4169,0.29506 0.73383,0.52826 0.72854,1.02345c-0.00527,0.49518 -0.38774,0.64787 -0.749,0.90029c-1.25915,0.87981 -2.09268,1.6832 -3.17221,2.3204c-0.35985,0.2124 -0.65393,0.2813 -1.10035,0.28801c-0.44642,0.00671 -0.80635,-0.01924 -1.2173,-0.2532c-0.41095,-0.23396 -2.29937,-1.18013 -3.6333,-2.09361c-0.4661,-0.31916 -0.91942,-0.44786 -1.02347,-0.99721z" data-paper-data="{&quot;origRot&quot;:0,&quot;origPos&quot;:null}"/></g><g data-paper-data="{&quot;origPos&quot;:null}"><path d="M275.28039,250.17359c-0.10406,-0.54933 0.37168,-0.75186 0.67192,-1.01144c0.90073,-0.77875 2.67352,-1.74524 3.41079,-2.12054c0.45874,-0.23351 0.61743,-0.4381 1.2798,-0.46952c0.66237,-0.03142 0.86062,0.10653 1.25035,0.34265c1.33306,0.80762 2.30348,1.18554 3.55423,2.07071c0.41691,0.29506 0.73381,0.52827 0.72854,1.02345c-0.00527,0.49518 -0.38773,0.64787 -0.74902,0.90029c-1.25915,0.87981 -2.09266,1.6832 -3.1722,2.3204c-0.35985,0.2124 -0.65393,0.28131 -1.10036,0.28801c-0.44642,0.00671 -0.80634,-0.01926 -1.21729,-0.25322c-0.41095,-0.23396 -2.29937,-1.18012 -3.63331,-2.09362c-0.4661,-0.31916 -0.91942,-0.44785 -1.02347,-0.99721z" data-paper-data="{&quot;origRot&quot;:0,&quot;origPos&quot;:null}"/></g><g data-paper-data="{&quot;origPos&quot;:null}"><path d="M199.272,217.3933c-0.10405,-0.54933 0.37168,-0.75186 0.67191,-1.01144c0.90072,-0.77875 2.67352,-1.74525 3.41079,-2.12053c0.45873,-0.23351 0.61742,-0.4381 1.27979,-0.46952c0.66237,-0.03142 0.86062,0.10653 1.25033,0.34264c1.33305,0.80762 2.30348,1.18554 3.55423,2.07071c0.41691,0.29506 0.7338,0.52827 0.72854,1.02345c-0.00527,0.49518 -0.38774,0.64786 -0.74901,0.90027c-1.25915,0.87981 -2.09267,1.68322 -3.17221,2.32041c-0.35985,0.2124 -0.65393,0.28129 -1.10036,0.288c-0.44644,0.00671 -0.80635,-0.01924 -1.2173,-0.2532c-0.41094,-0.23396 -2.29939,-1.18012 -3.63331,-2.09363c-0.4661,-0.31916 -0.91942,-0.44785 -1.02347,-0.9972z" data-paper-data="{&quot;origRot&quot;:0,&quot;origPos&quot;:null}"/></g><g data-paper-data="{&quot;origPos&quot;:null}"><path d="M207.02621,221.68075c-0.10405,-0.54933 0.37168,-0.75185 0.67192,-1.01143c0.90072,-0.77875 2.67352,-1.74524 3.41079,-2.12055c0.45873,-0.23351 0.61745,-0.4381 1.27981,-0.46948c0.66237,-0.03142 0.86062,0.10653 1.25033,0.34264c1.33305,0.80762 2.30348,1.18554 3.55423,2.07071c0.41691,0.29506 0.7338,0.52827 0.72853,1.02345c-0.00527,0.49518 -0.38774,0.64787 -0.749,0.90029c-1.25915,0.87981 -2.09266,1.6832 -3.1722,2.3204c-0.35985,0.2124 -0.65393,0.28131 -1.10035,0.28801c-0.44644,0.00671 -0.80636,-0.01925 -1.2173,-0.25321c-0.41094,-0.23396 -2.29937,-1.18012 -3.63332,-2.09363c-0.4661,-0.31916 -0.9194,-0.44785 -1.02346,-0.9972z" data-paper-data="{&quot;origRot&quot;:0,&quot;origPos&quot;:null}"/></g><g data-paper-data="{&quot;origPos&quot;:null}"><path d="M214.78042,225.96824c-0.10405,-0.54933 0.37168,-0.75186 0.67192,-1.01144c0.90072,-0.77875 2.67352,-1.74523 3.41079,-2.12054c0.45873,-0.23351 0.61743,-0.4381 1.2798,-0.4695c0.66237,-0.03142 0.86062,0.10653 1.25035,0.34265c1.33305,0.80762 2.30349,1.18554 3.55423,2.07071c0.41691,0.29506 0.73382,0.52826 0.72855,1.02345c-0.00527,0.49518 -0.38775,0.64787 -0.74901,0.90029c-1.25915,0.87981 -2.09265,1.6832 -3.1722,2.3204c-0.35985,0.2124 -0.65393,0.2813 -1.10037,0.28801c-0.44644,0.00671 -0.80634,-0.01925 -1.21729,-0.25322c-0.41094,-0.23396 -2.2994,-1.18012 -3.63334,-2.09361c-0.4661,-0.31916 -0.9194,-0.44785 -1.02345,-0.9972z" data-paper-data="{&quot;origRot&quot;:0,&quot;origPos&quot;:null}"/></g><g data-paper-data="{&quot;origPos&quot;:null}"><path d="M222.24498,229.97775c-0.10405,-0.54933 0.37169,-0.75185 0.67193,-1.01145c0.90072,-0.77875 2.67352,-1.74525 3.41078,-2.12055c0.45873,-0.23351 0.61745,-0.43808 1.27981,-0.46948c0.66237,-0.03142 0.86062,0.10654 1.25035,0.34266c1.33305,0.80762 2.30348,1.18555 3.55423,2.07071c0.41691,0.29506 0.73381,0.52827 0.72854,1.02345c-0.00527,0.49518 -0.38774,0.64786 -0.749,0.90027c-1.25915,0.87981 -2.09266,1.6832 -3.17221,2.3204c-0.35985,0.2124 -0.65392,0.2813 -1.10035,0.28801c-0.44644,0.00671 -0.80637,-0.01924 -1.21731,-0.2532c-0.41094,-0.23396 -2.29936,-1.18012 -3.63331,-2.09361c-0.4661,-0.31916 -0.91942,-0.44786 -1.02347,-0.99722z" data-paper-data="{&quot;origRot&quot;:0,&quot;origPos&quot;:null}"/></g><g data-paper-data="{&quot;origPos&quot;:null}"><path d="M229.90462,234.2672c-0.10405,-0.54933 0.37167,-0.75184 0.67191,-1.01143c0.90072,-0.77875 2.67352,-1.74524 3.4108,-2.12054c0.45873,-0.23351 0.61744,-0.43809 1.27981,-0.4695c0.66237,-0.03142 0.86062,0.10655 1.25034,0.34265c1.33305,0.80762 2.30349,1.18554 3.55423,2.0707c0.41691,0.29506 0.73381,0.52827 0.72854,1.02345c-0.00527,0.49518 -0.38774,0.64787 -0.74901,0.90029c-1.25915,0.87981 -2.09266,1.6832 -3.1722,2.3204c-0.35985,0.2124 -0.65392,0.28131 -1.10037,0.28802c-0.44644,0.00671 -0.80634,-0.01926 -1.2173,-0.25322c-0.41094,-0.23396 -2.29937,-1.18012 -3.63332,-2.09362c-0.4661,-0.31916 -0.91942,-0.44785 -1.02347,-0.99721z" data-paper-data="{&quot;origRot&quot;:0,&quot;origPos&quot;:null}"/></g><g data-paper-data="{&quot;origPos&quot;:null}"><path d="M237.37503,238.56051c-0.10405,-0.54933 0.37169,-0.75186 0.67192,-1.01144c0.90072,-0.77875 2.67352,-1.74525 3.41079,-2.12055c0.45873,-0.23351 0.61744,-0.4381 1.2798,-0.4695c0.66237,-0.03142 0.86061,0.10653 1.25033,0.34266c1.33305,0.80762 2.30349,1.18555 3.55424,2.0707c0.41691,0.29506 0.73381,0.52827 0.72854,1.02345c-0.00527,0.49518 -0.38774,0.64787 -0.74901,0.90029c-1.25915,0.87981 -2.09265,1.68322 -3.17219,2.3204c-0.35985,0.2124 -0.65393,0.2813 -1.10036,0.288c-0.44644,0.00671 -0.80634,-0.01925 -1.2173,-0.25322c-0.41094,-0.23396 -2.29939,-1.18012 -3.63332,-2.09363c-0.4661,-0.31916 -0.9194,-0.44786 -1.02346,-0.9972z" data-paper-data="{&quot;origRot&quot;:0,&quot;origPos&quot;:null}"/></g><g data-paper-data="{&quot;origPos&quot;:null}"><path d="M245.1273,242.75338c-0.10405,-0.54933 0.37168,-0.75185 0.67192,-1.01143c0.90072,-0.77875 2.67352,-1.74525 3.41078,-2.12055c0.45873,-0.23351 0.61744,-0.4381 1.27981,-0.46952c0.66237,-0.03142 0.86062,0.10653 1.25035,0.34265c1.33305,0.80762 2.30348,1.18554 3.55423,2.07071c0.41691,0.29506 0.73382,0.52826 0.72855,1.02345c-0.00527,0.49518 -0.38774,0.64787 -0.74902,0.90029c-1.25915,0.87981 -2.09265,1.6832 -3.1722,2.3204c-0.35985,0.2124 -0.65392,0.28129 -1.10036,0.288c-0.44644,0.00671 -0.80634,-0.01925 -1.2173,-0.25322c-0.41094,-0.23396 -2.29938,-1.18012 -3.63332,-2.09361c-0.4661,-0.31916 -0.91941,-0.44785 -1.02347,-0.9972z" data-paper-data="{&quot;origRot&quot;:0,&quot;origPos&quot;:null}"/></g><g data-paper-data="{&quot;origPos&quot;:null}"><path d="M252.49529,246.67031c-0.10405,-0.54933 0.37168,-0.75184 0.67191,-1.01143c0.90072,-0.77875 2.67352,-1.74524 3.41079,-2.12054c0.45873,-0.23351 0.61744,-0.4381 1.27979,-0.46952c0.66237,-0.03142 0.86062,0.10653 1.25032,0.34264c1.33305,0.80762 2.30349,1.18554 3.55423,2.07071c0.41691,0.29506 0.73381,0.52827 0.72854,1.02345c-0.00527,0.49518 -0.38774,0.64787 -0.74901,0.90029c-1.25915,0.87981 -2.09267,1.6832 -3.17221,2.32041c-0.35985,0.2124 -0.65392,0.28131 -1.10035,0.28801c-0.44644,0.00671 -0.80636,-0.01926 -1.21731,-0.25323c-0.41095,-0.23396 -2.29936,-1.18012 -3.63331,-2.09363c-0.4661,-0.31916 -0.91941,-0.44786 -1.02347,-0.99721z" data-paper-data="{&quot;origRot&quot;:0,&quot;origPos&quot;:null}"/></g><path d="M168.20833,217.42084c-0.10405,-0.54933 0.37168,-0.75186 0.67192,-1.01144c0.90073,-0.77875 2.67352,-1.74525 3.41079,-2.12053c0.45872,-0.23351 0.61742,-0.43809 1.2798,-0.46951c0.66238,-0.03142 0.86062,0.10653 1.25035,0.34264c1.33305,0.80762 2.30348,1.18555 3.55423,2.07071c0.41691,0.29506 0.73381,0.52826 0.72854,1.02344c-0.00527,0.49518 -0.38774,0.64787 -0.74901,0.90028c-1.25915,0.87981 -2.09267,1.68322 -3.17222,2.3204c-0.35985,0.2124 -0.65392,0.2813 -1.10035,0.288c-0.44644,0.00671 -0.80634,-0.01925 -1.2173,-0.25321c-0.41094,-0.23396 -2.29936,-1.18012 -3.63331,-2.09363c-0.4661,-0.31916 -0.91941,-0.44785 -1.02347,-0.9972z" data-paper-data="{&quot;origRot&quot;:0,&quot;origPos&quot;:null}"/><path d="M206.31136,238.58807c-0.10405,-0.54933 0.37168,-0.75186 0.67191,-1.01144c0.90072,-0.77875 2.67352,-1.74526 3.41079,-2.12056c0.45873,-0.23351 0.61743,-0.43808 1.2798,-0.46949c0.66237,-0.03142 0.86063,0.10653 1.25034,0.34265c1.33305,0.80762 2.30348,1.18555 3.55423,2.0707c0.41691,0.29506 0.7338,0.52826 0.72854,1.02344c-0.00527,0.49518 -0.38774,0.64788 -0.74901,0.90031c-1.25915,0.87981 -2.09265,1.68322 -3.1722,2.3204c-0.35985,0.2124 -0.65392,0.2813 -1.10036,0.288c-0.44644,0.00671 -0.80636,-0.01926 -1.2173,-0.25322c-0.41094,-0.23396 -2.29937,-1.18012 -3.63332,-2.09363c-0.4661,-0.31916 -0.9194,-0.44786 -1.02345,-0.9972z" data-paper-data="{&quot;origRot&quot;:0,&quot;origPos&quot;:null}"/><path d="M214.06361,242.78093c-0.10405,-0.54933 0.37169,-0.75185 0.67192,-1.01144c0.90072,-0.77875 2.67352,-1.74525 3.41079,-2.12054c0.45873,-0.23351 0.61744,-0.4381 1.2798,-0.46951c0.66237,-0.03142 0.86062,0.10653 1.25033,0.34265c1.33305,0.80762 2.30349,1.18554 3.55424,2.0707c0.41691,0.29506 0.73381,0.52826 0.72854,1.02345c-0.00527,0.49518 -0.38774,0.64787 -0.74901,0.9003c-1.25915,0.87981 -2.09265,1.6832 -3.1722,2.3204c-0.35985,0.2124 -0.65393,0.28129 -1.10036,0.288c-0.44644,0.00671 -0.80634,-0.01925 -1.2173,-0.25321c-0.41094,-0.23396 -2.29937,-1.18012 -3.63332,-2.09361c-0.4661,-0.31916 -0.9194,-0.44786 -1.02346,-0.99722z" data-paper-data="{&quot;origRot&quot;:0,&quot;origPos&quot;:null}"/><path d="M221.43162,246.69784c-0.10405,-0.54933 0.37168,-0.75184 0.67192,-1.01143c0.90072,-0.77875 2.67352,-1.74525 3.41079,-2.12054c0.45873,-0.23351 0.61742,-0.43809 1.27979,-0.46952c0.66237,-0.03142 0.86062,0.10654 1.25033,0.34264c1.33305,0.80762 2.30349,1.18554 3.55424,2.07071c0.41691,0.29506 0.73381,0.52827 0.72854,1.02345c-0.00527,0.49518 -0.38774,0.64787 -0.74901,0.90029c-1.25915,0.87981 -2.09266,1.68322 -3.1722,2.32041c-0.35985,0.2124 -0.65393,0.28131 -1.10037,0.28802c-0.44644,0.00671 -0.80634,-0.01926 -1.2173,-0.25322c-0.41094,-0.23396 -2.29937,-1.18012 -3.63331,-2.09363c-0.4661,-0.31916 -0.91942,-0.44785 -1.02346,-0.9972z" data-paper-data="{&quot;origRot&quot;:0,&quot;origPos&quot;:null}"/><path d="M229.37502,250.98139c-0.10405,-0.54933 0.37168,-0.75186 0.67191,-1.01145c0.90072,-0.77875 2.67352,-1.74525 3.41079,-2.12055c0.45873,-0.23351 0.61743,-0.43808 1.2798,-0.46951c0.66237,-0.03142 0.86062,0.10654 1.25035,0.34266c1.33305,0.80762 2.30348,1.18554 3.55423,2.0707c0.41691,0.29506 0.73382,0.52826 0.72856,1.02345c-0.00527,0.49518 -0.38773,0.64787 -0.749,0.90029c-1.25915,0.87981 -2.09266,1.68319 -3.1722,2.3204c-0.35985,0.2124 -0.65392,0.28131 -1.10036,0.28802c-0.44644,0.00671 -0.80634,-0.01924 -1.21729,-0.2532c-0.41094,-0.23396 -2.29937,-1.18012 -3.63331,-2.09363c-0.4661,-0.31916 -0.91941,-0.44785 -1.02346,-0.99721z" data-paper-data="{&quot;origRot&quot;:0,&quot;origPos&quot;:null}"/><path d="M236.56949,255.65899c-0.10405,-0.54933 0.37168,-0.75184 0.67192,-1.01143c0.90072,-0.77875 2.67352,-1.74524 3.41078,-2.12055c0.45873,-0.23351 0.61744,-0.4381 1.27981,-0.4695c0.66237,-0.03142 0.86062,0.10654 1.25035,0.34265c1.33305,0.80762 2.30348,1.18555 3.55422,2.0707c0.41691,0.29506 0.73381,0.52827 0.72854,1.02345c-0.00527,0.49518 -0.38774,0.64787 -0.749,0.90029c-1.25915,0.8798 -2.09265,1.6832 -3.1722,2.3204c-0.35985,0.2124 -0.65393,0.28131 -1.10037,0.28801c-0.44644,0.00671 -0.80634,-0.01926 -1.2173,-0.25323c-0.41094,-0.23396 -2.29937,-1.18012 -3.63331,-2.09361c-0.4661,-0.31916 -0.9194,-0.44785 -1.02346,-0.99721z" data-paper-data="{&quot;origRot&quot;:0,&quot;origPos&quot;:null}"/><path d="M244.03013,259.47934c-0.10405,-0.54933 0.37168,-0.75186 0.67191,-1.01144c0.90072,-0.77875 2.67352,-1.74525 3.41079,-2.12055c0.45873,-0.23351 0.61744,-0.4381 1.2798,-0.46951c0.66237,-0.03142 0.86062,0.10653 1.25033,0.34264c1.33305,0.80762 2.30349,1.18554 3.55424,2.0707c0.41691,0.29506 0.73381,0.52826 0.72854,1.02345c-0.00527,0.49518 -0.38774,0.64787 -0.74901,0.9003c-1.25915,0.8798 -2.09266,1.68319 -3.1722,2.32041c-0.35985,0.2124 -0.65392,0.28131 -1.10036,0.28802c-0.44644,0.00671 -0.80636,-0.01925 -1.21731,-0.25322c-0.41094,-0.23396 -2.29937,-1.18012 -3.63331,-2.09361c-0.4661,-0.31916 -0.91941,-0.44786 -1.02346,-0.99722z" data-paper-data="{&quot;origRot&quot;:0,&quot;origPos&quot;:null}"/><path d="M251.87503,263.57563c-0.10405,-0.54933 0.37168,-0.75184 0.67191,-1.01142c0.90072,-0.77875 2.67352,-1.74525 3.41079,-2.12056c0.45873,-0.23351 0.61743,-0.43809 1.2798,-0.46952c0.66237,-0.03142 0.86061,0.10654 1.25034,0.34267c1.33305,0.80762 2.30349,1.18556 3.55423,2.0707c0.41691,0.29506 0.73382,0.52826 0.72855,1.02344c-0.00527,0.49518 -0.38774,0.64789 -0.74901,0.9003c-1.25915,0.8798 -2.09265,1.6832 -3.17219,2.3204c-0.35985,0.2124 -0.65393,0.2813 -1.10037,0.28801c-0.44644,0.00671 -0.80635,-0.01924 -1.2173,-0.2532c-0.41095,-0.23396 -2.29937,-1.18012 -3.63331,-2.09363c-0.4661,-0.31916 -0.91942,-0.44785 -1.02346,-0.9972z" data-paper-data="{&quot;origRot&quot;:0,&quot;origPos&quot;:null}"/><g data-paper-data="{&quot;origPos&quot;:null}"><path d="M187.00003,218.87747c-0.10405,-0.54933 0.37168,-0.75185 0.67192,-1.01144c0.90072,-0.77875 2.67352,-1.74526 3.41079,-2.12054c0.45873,-0.23351 0.61742,-0.43808 1.27979,-0.46951c0.66237,-0.03142 0.86062,0.10653 1.25033,0.34265c1.33305,0.80762 2.30351,1.18554 3.55424,2.07071c0.41691,0.29506 0.73379,0.52827 0.72853,1.02345c-0.00527,0.49518 -0.38773,0.64786 -0.74901,0.90027c-1.25915,0.87981 -2.09267,1.68322 -3.17221,2.3204c-0.35985,0.2124 -0.65393,0.2813 -1.10037,0.288c-0.44644,0.00671 -0.80634,-0.01925 -1.2173,-0.25321c-0.41094,-0.23396 -2.29936,-1.18012 -3.63331,-2.09363c-0.4661,-0.31916 -0.91941,-0.44786 -1.02346,-0.99721z" data-paper-data="{&quot;origRot&quot;:0,&quot;origPos&quot;:null}"/></g><g data-paper-data="{&quot;origPos&quot;:null}"><path d="M194.75424,223.1649c-0.10405,-0.54933 0.37168,-0.75184 0.67191,-1.01143c0.90072,-0.77875 2.67352,-1.74525 3.41079,-2.12055c0.45873,-0.23351 0.61744,-0.43809 1.2798,-0.4695c0.66237,-0.03142 0.86064,0.10654 1.25034,0.34265c1.33305,0.80762 2.30348,1.18554 3.55422,2.07071c0.41691,0.29506 0.73381,0.52827 0.72854,1.02345c-0.00527,0.49518 -0.38774,0.64787 -0.74901,0.90029c-1.25915,0.87981 -2.09265,1.6832 -3.1722,2.3204c-0.35985,0.2124 -0.65392,0.28131 -1.10036,0.28802c-0.44644,0.00671 -0.80636,-0.01926 -1.21731,-0.25322c-0.41094,-0.23396 -2.29936,-1.18012 -3.63331,-2.09363c-0.4661,-0.31916 -0.91941,-0.44785 -1.02347,-0.9972z" data-paper-data="{&quot;origRot&quot;:0,&quot;origPos&quot;:null}"/></g><g data-paper-data="{&quot;origPos&quot;:null}"><path d="M202.50847,227.4524c-0.10405,-0.54933 0.37167,-0.75185 0.67191,-1.01144c0.90072,-0.77875 2.67352,-1.74525 3.4108,-2.12055c0.45873,-0.23351 0.61743,-0.43809 1.2798,-0.4695c0.66237,-0.03142 0.86063,0.10653 1.25033,0.34265c1.33305,0.80762 2.30349,1.18554 3.55424,2.07071c0.41691,0.29506 0.73381,0.52826 0.72854,1.02345c-0.00527,0.49518 -0.38774,0.64787 -0.74901,0.90029c-1.25915,0.87981 -2.09265,1.6832 -3.17219,2.32039c-0.35985,0.2124 -0.65393,0.28131 -1.10037,0.28802c-0.44644,0.00671 -0.80634,-0.01926 -1.2173,-0.25322c-0.41094,-0.23396 -2.29937,-1.18012 -3.63331,-2.09363c-0.4661,-0.31916 -0.91942,-0.44786 -1.02347,-0.99721z" data-paper-data="{&quot;origRot&quot;:0,&quot;origPos&quot;:null}"/></g><g data-paper-data="{&quot;origPos&quot;:null}"><path d="M209.97302,231.46192c-0.10405,-0.54933 0.37168,-0.75186 0.67192,-1.01144c0.90072,-0.77875 2.67352,-1.74524 3.41078,-2.12054c0.45873,-0.23351 0.61745,-0.43808 1.27981,-0.46949c0.66237,-0.03142 0.86062,0.10653 1.25033,0.34264c1.33305,0.80762 2.30349,1.18554 3.55423,2.07071c0.41691,0.29506 0.73379,0.52826 0.72853,1.02345c-0.00527,0.49518 -0.38773,0.64787 -0.749,0.90029c-1.25915,0.87981 -2.09266,1.6832 -3.1722,2.3204c-0.35985,0.2124 -0.65393,0.28131 -1.10037,0.28801c-0.44644,0.00671 -0.80634,-0.01925 -1.21728,-0.25321c-0.41094,-0.23396 -2.2994,-1.18012 -3.63334,-2.0936c-0.4661,-0.31916 -0.9194,-0.44786 -1.02345,-0.99721z" data-paper-data="{&quot;origRot&quot;:0,&quot;origPos&quot;:null}"/></g><g data-paper-data="{&quot;origPos&quot;:null}"><path d="M217.63264,235.75135c-0.10405,-0.54933 0.37168,-0.75186 0.67191,-1.01145c0.90072,-0.77875 2.67352,-1.74524 3.41079,-2.12055c0.45873,-0.23351 0.61744,-0.4381 1.2798,-0.4695c0.66237,-0.03142 0.86062,0.10655 1.25033,0.34266c1.33305,0.80762 2.30349,1.18554 3.55424,2.0707c0.41691,0.29506 0.73381,0.52827 0.72854,1.02345c-0.00527,0.49518 -0.38773,0.64787 -0.74901,0.90029c-1.25915,0.87981 -2.09264,1.68319 -3.17219,2.3204c-0.35985,0.2124 -0.65393,0.28131 -1.10037,0.28801c-0.44644,0.00671 -0.80634,-0.01926 -1.2173,-0.25322c-0.41094,-0.23396 -2.29938,-1.18012 -3.63332,-2.09362c-0.4661,-0.31916 -0.9194,-0.44785 -1.02346,-0.99721z" data-paper-data="{&quot;origRot&quot;:0,&quot;origPos&quot;:null}"/></g><g data-paper-data="{&quot;origPos&quot;:null}"><path d="M225.10307,240.04469c-0.10405,-0.54933 0.37168,-0.75185 0.67191,-1.01145c0.90072,-0.77875 2.67352,-1.74525 3.4108,-2.12055c0.45873,-0.23351 0.61743,-0.43808 1.2798,-0.46951c0.66237,-0.03142 0.86062,0.10654 1.25033,0.34266c1.33305,0.80762 2.30348,1.18554 3.55423,2.0707c0.41691,0.29506 0.7338,0.52827 0.72854,1.02345c-0.00527,0.49518 -0.38774,0.64787 -0.74901,0.90029c-1.25915,0.87981 -2.09265,1.6832 -3.1722,2.3204c-0.35985,0.2124 -0.65392,0.28131 -1.10036,0.28802c-0.44644,0.00671 -0.80635,-0.01926 -1.2173,-0.25322c-0.41094,-0.23396 -2.29937,-1.18012 -3.63332,-2.09363c-0.4661,-0.31916 -0.91942,-0.44786 -1.02347,-0.9972z" data-paper-data="{&quot;origRot&quot;:0,&quot;origPos&quot;:null}"/></g><g data-paper-data="{&quot;origPos&quot;:null}"><path d="M232.85532,244.23756c-0.10405,-0.54933 0.37168,-0.75186 0.67191,-1.01145c0.90072,-0.77875 2.67352,-1.74524 3.41079,-2.12052c0.45873,-0.23351 0.61743,-0.43809 1.2798,-0.46952c0.66237,-0.03142 0.86062,0.10653 1.25035,0.34265c1.33305,0.80762 2.30349,1.18554 3.55423,2.07071c0.41691,0.29506 0.73381,0.52826 0.72854,1.02345c-0.00527,0.49518 -0.38774,0.64787 -0.74901,0.90029c-1.25915,0.87981 -2.09265,1.6832 -3.17219,2.32039c-0.35985,0.2124 -0.65393,0.28131 -1.10037,0.28802c-0.44644,0.00671 -0.80634,-0.01925 -1.2173,-0.25322c-0.41094,-0.23396 -2.29937,-1.18012 -3.63331,-2.09361c-0.4661,-0.31916 -0.91941,-0.44786 -1.02346,-0.99722z" data-paper-data="{&quot;origRot&quot;:0,&quot;origPos&quot;:null}"/></g><g data-paper-data="{&quot;origPos&quot;:null}"><path d="M240.22332,248.15448c-0.10405,-0.54933 0.37167,-0.75185 0.67191,-1.01144c0.90072,-0.77875 2.67352,-1.74524 3.4108,-2.12054c0.45873,-0.23351 0.61742,-0.43809 1.2798,-0.46952c0.66237,-0.03142 0.86062,0.10653 1.25033,0.34265c1.33305,0.80762 2.30348,1.18554 3.55423,2.07071c0.41691,0.29506 0.73381,0.52827 0.72854,1.02345c-0.00527,0.49518 -0.38773,0.64787 -0.74901,0.90029c-1.25915,0.87981 -2.09267,1.68319 -3.17221,2.32041c-0.35985,0.2124 -0.65392,0.28131 -1.10036,0.28802c-0.44644,0.00671 -0.80636,-0.01925 -1.21731,-0.25322c-0.41094,-0.23396 -2.29937,-1.18012 -3.6333,-2.09361c-0.4661,-0.31916 -0.91941,-0.44786 -1.02346,-0.99722z" data-paper-data="{&quot;origRot&quot;:0,&quot;origPos&quot;:null}"/></g><g data-paper-data="{&quot;origPos&quot;:null}"><path d="M189.29341,238.34496c-0.10671,-0.56331 0.38112,-0.77097 0.689,-1.03716c0.92365,-0.79854 2.74152,-1.78963 3.49754,-2.17446c0.47038,-0.23945 0.63314,-0.44923 1.31234,-0.48143c0.67923,-0.03222 0.88249,0.10925 1.28213,0.35135c1.36694,0.82817 28.69002,16.125 29.97257,17.03267c0.42752,0.30256 0.75249,0.54168 0.74708,1.04948c-0.00541,0.5078 -0.39761,0.66434 -0.76806,0.92318c-1.29118,0.90217 -2.14588,1.72602 -3.25286,2.37943c-0.369,0.2178 -0.67057,0.28844 -1.12834,0.29532c-0.45779,0.00688 -0.82684,-0.01974 -1.24824,-0.25964c-0.42139,-0.23991 -28.68581,-16.11945 -30.05366,-17.05616c-0.47795,-0.32729 -0.9428,-0.45925 -1.04949,-1.02256z" data-paper-data="{&quot;origRot&quot;:0,&quot;origPos&quot;:null}"/></g><g data-paper-data="{&quot;origPos&quot;:null}"><path d="M176.50705,231.01309c-0.10671,-0.5633 0.38111,-0.77096 0.689,-1.03717c0.92365,-0.79854 2.74151,-1.78963 3.49752,-2.17447c0.47039,-0.23945 0.63314,-0.44924 1.31235,-0.48144c0.67922,-0.03222 0.88247,0.10924 1.28211,0.35136c1.36694,0.82817 7.06226,3.59609 8.3448,4.50375c0.42752,0.30256 0.75248,0.54167 0.74707,1.04948c-0.00541,0.50778 -0.3976,0.66436 -0.76805,0.92318c-1.29118,0.90217 -2.14588,1.72601 -3.25286,2.37942c-0.369,0.2178 -0.67056,0.28845 -1.12834,0.29533c-0.45779,0.00688 -0.82683,-0.01974 -1.24824,-0.25965c-0.42139,-0.2399 -7.05802,-3.5905 -8.42588,-4.52724c-0.47795,-0.32729 -0.9428,-0.45926 -1.04949,-1.02257z" data-paper-data="{&quot;origRot&quot;:0,&quot;origPos&quot;:null}"/></g><g data-paper-data="{&quot;origPos&quot;:null}"><path d="M161.23446,222.67324c-0.10671,-0.5633 0.38112,-0.77096 0.689,-1.03717c0.92365,-0.79854 2.74151,-1.78962 3.49753,-2.17446c0.47039,-0.23945 0.63314,-0.44923 1.31234,-0.48144c0.67922,-0.03222 0.88248,0.10925 1.28212,0.35136c1.36694,0.82817 9.3824,5.3056 10.66495,6.21325c0.42752,0.30256 0.75249,0.54168 0.74708,1.04948c-0.00541,0.50778 -0.39761,0.66435 -0.76805,0.92318c-1.29118,0.90217 -2.14587,1.72602 -3.25285,2.37942c-0.369,0.2178 -0.67056,0.28845 -1.12835,0.29533c-0.45777,0.00688 -0.82683,-0.01974 -1.24824,-0.25964c-0.42139,-0.2399 -9.37816,-5.30003 -10.74603,-6.23676c-0.47794,-0.32729 -0.9428,-0.45925 -1.04949,-1.02256z" data-paper-data="{&quot;origRot&quot;:0,&quot;origPos&quot;:null}"/></g><g data-paper-data="{&quot;origPos&quot;:null}"><path d="M183.79265,208.67362c-0.10671,-0.5633 0.38112,-0.77098 0.689,-1.03717c0.92365,-0.79854 2.7415,-1.78962 3.49752,-2.17446c0.47039,-0.23945 0.63315,-0.44923 1.31234,-0.48144c0.67922,-0.03222 0.88248,0.10923 1.28212,0.35136c1.36694,0.82817 9.3824,5.30562 10.66495,6.21327c0.42752,0.30256 0.7525,0.54167 0.74708,1.04947c-0.00541,0.50778 -0.39762,0.66436 -0.76806,0.92318c-1.29118,0.90217 -2.14587,1.72601 -3.25285,2.37943c-0.369,0.2178 -0.67056,0.28845 -1.12834,0.29533c-0.45779,0.00688 -0.82683,-0.01976 -1.24824,-0.25965c-0.42139,-0.2399 -9.37817,-5.30002 -10.74604,-6.23676c-0.47795,-0.32729 -0.94279,-0.45925 -1.04948,-1.02255z" data-paper-data="{&quot;origRot&quot;:0,&quot;origPos&quot;:null}"/></g><g data-paper-data="{&quot;origPos&quot;:null}"><path d="M175.95732,213.00072c-0.09486,-0.5008 0.33883,-0.68543 0.61255,-0.92208c0.82116,-0.70994 2.43733,-1.59105 3.10946,-1.93319c0.41821,-0.21287 0.56288,-0.39939 1.16673,-0.42802c0.60386,-0.02864 0.78459,0.09712 1.13987,0.31238c1.21527,0.73628 6.27867,3.19707 7.41889,4.00401c0.38009,0.26898 0.66897,0.48158 0.66418,0.93303c-0.00481,0.45144 -0.35349,0.59065 -0.68285,0.82075c-1.1479,0.80205 -1.90778,1.53449 -2.89193,2.11541c-0.32806,0.19362 -0.59615,0.25645 -1.00313,0.26256c-0.40699,0.00611 -0.73511,-0.01756 -1.10976,-0.23086c-0.37463,-0.21328 -6.27487,-3.1921 -7.49096,-4.02489c-0.42493,-0.29099 -0.83819,-0.40829 -0.93305,-0.90911z" data-paper-data="{&quot;origRot&quot;:0,&quot;origPos&quot;:null}"/></g><g data-paper-data="{&quot;origPos&quot;:null}"><path d="M245.22885,268.57336c-0.10405,-0.54933 0.37168,-0.75186 0.67192,-1.01144c0.90072,-0.77875 2.67352,-1.74526 3.41079,-2.12055c0.45873,-0.23351 0.61742,-0.43809 1.27979,-0.46951c0.66237,-0.03142 0.86063,0.10654 1.25034,0.34265c1.33305,0.80762 2.30349,1.18554 3.55423,2.0707c0.41691,0.29506 0.7338,0.52826 0.72853,1.02345c-0.00527,0.49518 -0.38774,0.64788 -0.74901,0.90028c-1.25915,0.8798 -2.09266,1.6832 -3.17221,2.32041c-0.35985,0.21238 -0.65392,0.2813 -1.10036,0.28801c-0.44644,0.00671 -0.80634,-0.01925 -1.2173,-0.25322c-0.41094,-0.23396 -2.29937,-1.18012 -3.63331,-2.09361c-0.4661,-0.31919 -0.91941,-0.44786 -1.02345,-0.99721z" data-paper-data="{&quot;origRot&quot;:0,&quot;origPos&quot;:null}"/></g><g data-paper-data="{&quot;origPos&quot;:null}"><path d="M237.23252,264.34497c-0.10405,-0.54933 0.37167,-0.75186 0.67191,-1.01144c0.90072,-0.77875 2.67353,-1.74524 3.4108,-2.12054c0.45873,-0.23351 0.61742,-0.43809 1.27979,-0.4695c0.66237,-0.03142 0.86062,0.10653 1.25033,0.34265c1.33305,0.80762 2.30349,1.18554 3.55424,2.0707c0.41691,0.29506 0.73381,0.52826 0.72854,1.02345c-0.00527,0.49518 -0.38774,0.64787 -0.74901,0.90029c-1.25915,0.8798 -2.09267,1.6832 -3.17221,2.3204c-0.35985,0.2124 -0.65393,0.2813 -1.10037,0.28801c-0.44644,0.00671 -0.80634,-0.01925 -1.2173,-0.25322c-0.41094,-0.23396 -2.29939,-1.18012 -3.63331,-2.09361c-0.4661,-0.31916 -0.91941,-0.44785 -1.02346,-0.9972z" data-paper-data="{&quot;origRot&quot;:0,&quot;origPos&quot;:null}"/></g><g data-paper-data="{&quot;origPos&quot;:null}"><path d="M223.80785,257.62762c-0.10671,-0.56329 0.38111,-0.77096 0.689,-1.03716c0.92365,-0.79854 2.7415,-1.78962 3.49752,-2.17446c0.47039,-0.23945 0.63314,-0.44923 1.31234,-0.48144c0.67922,-0.03222 0.88249,0.10923 1.28212,0.35137c1.36694,0.82817 7.06225,3.59608 8.3448,4.50374c0.42752,0.30256 0.75249,0.54167 0.74708,1.04949c-0.00541,0.50778 -0.39761,0.66436 -0.76806,0.92318c-1.29118,0.90217 -2.14588,1.72601 -3.25286,2.37942c-0.369,0.2178 -0.67056,0.28845 -1.12835,0.29534c-0.45779,0.00688 -0.82683,-0.01977 -1.24824,-0.25965c-0.42139,-0.23991 -7.05801,-3.59051 -8.42588,-4.52722c-0.47795,-0.32729 -0.9428,-0.45925 -1.04949,-1.02255z" data-paper-data="{&quot;origRot&quot;:0,&quot;origPos&quot;:null}"/></g><g data-paper-data="{&quot;origPos&quot;:null}"><path d="M280.40564,257.29335c-0.11158,-0.58896 0.39849,-0.8061 0.72039,-1.08441c0.96573,-0.83494 0.26066,-0.3098 1.05112,-0.71216c0.49183,-0.25036 0.66197,-0.4697 1.37212,-0.50338c0.71015,-0.03368 0.9227,0.11422 1.34054,0.36737c1.42922,0.86589 2.46969,1.27109 3.81067,2.22009c0.447,0.31634 0.78675,0.56635 0.7811,1.09728c-0.00565,0.53092 -0.41572,0.69461 -0.80304,0.96525c-1.35001,0.94326 -1.4964,1.22809 -1.97505,1.23525c-0.47866,0.00717 -0.86453,-0.02064 -1.30513,-0.27148c-0.44061,-0.25085 -2.46528,-1.26528 -3.89547,-2.24468c-0.49973,-0.3422 -0.98576,-0.48017 -1.0973,-1.06915z" data-paper-data="{&quot;origRot&quot;:0,&quot;origPos&quot;:null}"/></g><g data-paper-data="{&quot;origPos&quot;:null}"><path d="M293.59594,257.72346c-0.11158,-0.58896 0.39848,-0.80612 0.72039,-1.08443c0.96573,-0.83494 0.26066,-0.3098 1.05112,-0.71216c0.49183,-0.25036 0.66199,-0.4697 1.37213,-0.50338c0.71015,-0.03368 0.92272,0.11422 1.34055,0.36738c1.42922,0.86589 2.46969,1.27109 3.81067,2.22009c0.447,0.31634 0.78675,0.56636 0.78109,1.09729c-0.00565,0.53092 -0.41571,0.69461 -0.80307,0.96526c-1.35001,0.94326 -1.49641,1.22807 -1.97505,1.23525c-0.47866,0.00717 -0.86453,-0.02065 -1.30513,-0.27148c-0.44059,-0.25085 -2.46528,-1.26527 -3.89546,-2.24466c-0.49973,-0.3422 -0.98576,-0.48016 -1.0973,-1.06915z" data-paper-data="{&quot;origRot&quot;:0,&quot;origPos&quot;:null}"/></g><g data-paper-data="{&quot;origPos&quot;:null}"><path d="M301.68377,262.12568c-0.11158,-0.58896 0.39848,-0.80612 0.72039,-1.08443c0.96573,-0.83493 0.26066,-0.3098 1.05111,-0.71216c0.49183,-0.25036 0.66197,-0.4697 1.37212,-0.50338c0.71017,-0.03368 0.92273,0.11421 1.34055,0.36737c1.42924,0.86589 2.46969,1.27109 3.81068,2.2201c0.447,0.31634 0.78677,0.56636 0.78109,1.09729c-0.00565,0.53092 -0.4157,0.69462 -0.80304,0.96526c-1.35001,0.94326 -1.49642,1.22807 -1.97505,1.23523c-0.47866,0.00717 -0.86453,-0.02063 -1.30513,-0.27148c-0.44059,-0.25085 -2.46528,-1.26528 -3.89547,-2.24467c-0.49973,-0.3422 -0.98575,-0.48015 -1.09729,-1.06914z" data-paper-data="{&quot;origRot&quot;:0,&quot;origPos&quot;:null}"/></g><g data-paper-data="{&quot;origPos&quot;:null}"><path d="M287.96097,261.44298c-0.11158,-0.58896 0.39848,-0.8061 0.72039,-1.08442c0.96573,-0.83493 0.26065,-0.3098 1.05111,-0.71217c0.49183,-0.25036 0.66198,-0.4697 1.37213,-0.50338c0.71015,-0.03368 0.92271,0.11421 1.34054,0.36737c1.42922,0.86589 2.46969,1.27109 3.81067,2.2201c0.447,0.31634 0.78677,0.56638 0.78109,1.0973c-0.00565,0.53092 -0.41571,0.69461 -0.80307,0.96525c-1.35001,0.94326 -1.49641,1.22807 -1.97505,1.23525c-0.47866,0.00717 -0.86453,-0.02064 -1.30512,-0.27148c-0.44059,-0.25085 -2.46528,-1.26528 -3.89547,-2.24467c-0.49973,-0.3422 -0.98576,-0.48016 -1.0973,-1.06915z" data-paper-data="{&quot;origRot&quot;:0,&quot;origPos&quot;:null}"/></g><g data-paper-data="{&quot;origPos&quot;:null}"><path d="M295.78524,265.85067c-0.11158,-0.58896 0.39848,-0.80612 0.72039,-1.08443c0.96573,-0.83493 0.26065,-0.30979 1.05111,-0.71215c0.49183,-0.25036 0.66199,-0.4697 1.37214,-0.50339c0.71015,-0.03368 0.92271,0.11422 1.34055,0.36737c1.42922,0.86589 2.46969,1.27109 3.81066,2.2201c0.447,0.31634 0.78678,0.56637 0.78111,1.09728c-0.00565,0.53092 -0.4157,0.69462 -0.80304,0.96526c-1.35001,0.94326 -1.49641,1.22806 -1.97505,1.23524c-0.47866,0.00717 -0.86453,-0.02064 -1.30514,-0.27149c-0.44059,-0.25084 -2.46528,-1.26527 -3.89547,-2.24466c-0.49973,-0.3422 -0.98576,-0.48016 -1.0973,-1.06915z" data-paper-data="{&quot;origRot&quot;:0,&quot;origPos&quot;:null}"/></g><g data-paper-data="{&quot;origPos&quot;:null}"><path d="M285.59415,253.23158c-0.11158,-0.58896 0.3985,-0.8061 0.72039,-1.08441c0.96573,-0.83494 0.26066,-0.30979 1.05113,-0.71216c0.49183,-0.25036 0.66197,-0.46971 1.37212,-0.50339c0.71015,-0.03368 0.92272,0.11421 1.34055,0.36737c1.42922,0.86589 2.46968,1.27109 3.81065,2.2201c0.447,0.31634 0.78677,0.56637 0.7811,1.09729c-0.00565,0.53092 -0.41571,0.69461 -0.80306,0.96525c-1.35001,0.94326 -1.49641,1.22809 -1.97504,1.23525c-0.47866,0.00717 -0.86451,-0.02064 -1.30512,-0.27148c-0.44059,-0.25085 -2.46528,-1.26528 -3.89547,-2.24468c-0.49973,-0.3422 -0.98577,-0.48016 -1.09731,-1.06914z" data-paper-data="{&quot;origRot&quot;:0,&quot;origPos&quot;:null}"/></g><g data-paper-data="{&quot;origPos&quot;:null}"><path d="M253.40815,273.14946c-0.10405,-0.54933 0.37168,-0.75186 0.67192,-1.01145c0.90072,-0.77874 2.67352,-1.74525 3.41079,-2.12052c0.45873,-0.23351 0.61742,-0.43809 1.27979,-0.4695c0.66237,-0.03143 0.86062,0.10653 1.25035,0.34265c1.33305,0.80762 2.30348,1.18554 3.55423,2.0707c0.41691,0.29506 0.73381,0.52826 0.72854,1.02345c-0.00527,0.4952 -0.38774,0.64787 -0.749,0.90029c-1.25915,0.8798 -2.09267,1.6832 -3.17222,2.3204c-0.35985,0.21238 -0.65392,0.28131 -1.10035,0.28802c-0.44644,0.00671 -0.80635,-0.01925 -1.2173,-0.25322c-0.41095,-0.23396 -2.29937,-1.18012 -3.6333,-2.09361c-0.4661,-0.31919 -0.91941,-0.44785 -1.02345,-0.99721z" data-paper-data="{&quot;origRot&quot;:0,&quot;origPos&quot;:null}"/></g><g data-paper-data="{&quot;origPos&quot;:null}"><path d="M260.88473,277.7401c-0.10406,-0.54933 0.37168,-0.75183 0.67192,-1.01142c0.90073,-0.77875 2.67352,-1.74526 3.41078,-2.12054c0.45872,-0.23351 0.61742,-0.43809 1.27979,-0.46952c0.66237,-0.03142 0.86061,0.10653 1.25033,0.34264c1.33306,0.80762 2.30348,1.18555 3.55423,2.0707c0.4169,0.29506 0.73381,0.52827 0.72854,1.02345c-0.00527,0.4952 -0.38774,0.64786 -0.74901,0.90028c-1.25915,0.8798 -2.09267,1.6832 -3.17221,2.3204c-0.35985,0.21238 -0.65393,0.2813 -1.10036,0.28801c-0.44642,0.00671 -0.80634,-0.01924 -1.21729,-0.2532c-0.41095,-0.23396 -2.29937,-1.18012 -3.63331,-2.09361c-0.4661,-0.31919 -0.9194,-0.44785 -1.02346,-0.9972z" data-paper-data="{&quot;origRot&quot;:0,&quot;origPos&quot;:null}"/></g><g data-paper-data="{&quot;origPos&quot;:null}"><path d="M268.96708,281.87881c-0.10406,-0.54933 0.37168,-0.75185 0.67191,-1.01144c0.90073,-0.77874 2.67352,-1.74526 3.4108,-2.12054c0.45872,-0.23351 0.61742,-0.43809 1.27979,-0.46952c0.66237,-0.03143 0.86062,0.10653 1.25034,0.34265c1.33306,0.80762 2.30349,1.18555 3.55424,2.07071c0.4169,0.29506 0.73382,0.52825 0.72854,1.02344c-0.00527,0.4952 -0.38774,0.64787 -0.74901,0.9003c-1.25915,0.8798 -2.09267,1.6832 -3.17221,2.3204c-0.35985,0.21238 -0.65393,0.2813 -1.10035,0.28801c-0.44642,0.00671 -0.80635,-0.01925 -1.2173,-0.25322c-0.41095,-0.23396 -2.29937,-1.18012 -3.6333,-2.09361c-0.4661,-0.31919 -0.91942,-0.44784 -1.02346,-0.9972z" data-paper-data="{&quot;origRot&quot;:0,&quot;origPos&quot;:null}"/></g><g data-paper-data="{&quot;origPos&quot;:null}"><path d="M268.8641,272.65396c-0.10406,-0.54933 0.37167,-0.75186 0.67192,-1.01144c0.90073,-0.77875 2.67353,-1.74525 3.41079,-2.12054c0.45872,-0.23351 0.61742,-0.43809 1.27979,-0.46951c0.66237,-0.03142 0.86061,0.10654 1.25032,0.34265c1.33306,0.80762 2.3035,1.18555 3.55424,2.07071c0.4169,0.29506 0.73383,0.52826 0.72854,1.02345c-0.00527,0.4952 -0.38774,0.64787 -0.74902,0.9003c-1.25915,0.8798 -2.09266,1.68319 -3.17221,2.32039c-0.35985,0.21238 -0.65393,0.28131 -1.10036,0.28802c-0.44642,0.00671 -0.80634,-0.01925 -1.2173,-0.25322c-0.41095,-0.23396 -2.29937,-1.18012 -3.6333,-2.09361c-0.4661,-0.31919 -0.91942,-0.44785 -1.02346,-0.99721z" data-paper-data="{&quot;origRot&quot;:0,&quot;origPos&quot;:null}"/></g><g data-paper-data="{&quot;origPos&quot;:null}"><g data-paper-data="{&quot;origPos&quot;:null,&quot;index&quot;:null}"><path d="M278.12555,255.38436c-0.08123,0.55318 -0.52884,0.70049 -0.98134,1.03868c-1.29501,0.96789 -9.92817,6.02758 -10.32909,6.27834c-0.40092,0.25076 -0.75946,0.29157 -1.20578,0.30334c-0.44632,0.01177 -0.74301,-0.04492 -1.11133,-0.24226c-1.10497,-0.592 -1.97098,-1.36025 -3.26545,-2.18721c-0.37138,-0.23725 -0.75987,-0.37399 -0.78562,-0.86854c-0.02574,-0.49455 0.28124,-0.74066 0.68559,-1.05271c1.21306,-0.93612 8.95254,-5.39011 10.25104,-6.25217c0.37963,-0.25204 0.57198,-0.39807 1.23511,-0.39408c0.6631,0.004 0.83011,0.20183 1.29812,0.41619c0.75216,0.34448 2.5634,1.23683 3.49559,1.97765c0.31072,0.24695 0.79442,0.42962 0.71318,0.98277z" data-paper-data="{&quot;origRot&quot;:0,&quot;origPos&quot;:null}"/></g><g data-paper-data="{&quot;origPos&quot;:null}"><path d="M260.37099,251.03568c-0.10406,-0.54933 0.37168,-0.75186 0.67192,-1.01145c0.90073,-0.77875 2.67352,-1.74524 3.41079,-2.12054c0.45874,-0.23351 0.61742,-0.43808 1.2798,-0.46951c0.66237,-0.03142 0.86062,0.10654 1.25035,0.34266c1.33306,0.80762 1.32111,3.25631 2.57185,4.14148c0.4169,0.29506 -1.65287,-0.85768 -1.65814,-0.3625c-0.00527,0.49518 -0.07607,0.84648 -0.43733,1.09889c-1.25915,0.87981 2.17539,-0.14798 1.09586,0.48923c-0.35985,0.2124 0.47334,0.25798 0.02692,0.26469c-0.13959,0.0021 -0.51006,-0.07132 -0.62926,-0.14397c-0.35764,-0.21795 -1.36144,1.51405 -1.36144,1.51405c0,0 -3.86392,-1.83234 -5.19786,-2.74584c-0.4661,-0.31916 -0.91942,-0.44785 -1.02347,-0.99721z" data-paper-data="{&quot;origRot&quot;:0,&quot;origPos&quot;:null}"/></g></g></g></g></g></svg>