<svg version="1.1" xmlns="http://www.w3.org/2000/svg" xmlns:xlink="http://www.w3.org/1999/xlink" width="562.84915" height="497.48923" viewBox="0,0,562.84915,497.48923"><g transform="translate(217.992,182.77361)"><g data-paper-data="{&quot;isPaintingLayer&quot;:true}" fill-rule="evenodd" stroke="none" stroke-width="1" stroke-linecap="butt" stroke-linejoin="miter" stroke-miterlimit="10" stroke-dasharray="" stroke-dashoffset="0" style="mix-blend-mode: normal"><path d="M-127.753,-177.68c13.398,-5.664 14.217,-5.912 13.439,-4.07c-0.29,0.688 -8.454,21.725 -18.143,46.75c-31.429,81.18 -50.029,127.916 -50.622,127.201c-0.525,-0.635 -7.461,-25.999 -27.871,-101.927c-3.878,-14.424 -7.046,-27.024 -7.042,-28c0.006,-1.338 3.633,-3.289 14.75,-7.935c8.108,-3.388 14.84,-6.065 14.96,-5.949c0.119,0.117 3.609,13.464 7.755,29.661c4.147,16.197 7.667,29.842 7.824,30.322c0.157,0.48 7.578,-17.52 16.491,-40l16.206,-40.873l12.253,-5.18" fill="#fafafa"/><path d="M251.50538,50.39549c70.8314,-20.84984 93.18103,-27.0563 93.34538,-25.92151c0.11854,0.82084 -1.42792,4.81315 -3.43659,8.87192c-2.00966,4.05868 -7.05634,14.54418 -11.21582,23.30102c-4.15949,8.75685 -8.8675,18.29543 -10.4616,21.19689c-1.59409,2.90147 -6.10093,12.00539 -10.01397,20.23105c-3.91304,8.22566 -20.85066,42.92675 -37.63761,77.11368c-16.78694,34.18693 -32.61009,66.49812 -35.16221,71.80267c-14.38528,29.90636 -32.62875,66.37411 -33.62486,67.21549c-0.63419,0.53567 -1.4092,0.67011 -1.72221,0.29954c-0.31292,-0.37157 -5.27631,-24.01646 -11.02869,-52.54478c-5.75338,-28.5284 -11.4898,-56.69812 -12.74803,-62.59951c-1.25823,-5.9014 -2.5441,-12.10618 -2.85705,-13.78838c-0.6826,-3.66822 -4.2493,-22.6625 -6.34597,-33.80173c-0.82845,-4.40305 -1.95257,-10.30017 -2.49606,-13.10568c-1.41538,-7.30052 -6.1057,-34.67665 -8.24694,-48.1348c-1.29465,-8.13834 -1.48268,-11.6495 -0.65043,-12.09424c0.64532,-0.34607 43.08185,-12.96459 94.30267,-28.04166M286.44379,79.37549c13.82603,-4.51975 14.66295,-4.69815 13.73313,-2.92793c-0.34671,0.66124 -10.2472,20.93897 -22.00196,45.06268c-38.13023,78.25637 -60.5864,123.26675 -61.11731,122.50451c-0.46986,-0.67681 -5.25302,-26.53338 -19.21967,-103.90626c-2.65396,-14.69854 -4.75348,-27.51994 -4.66759,-28.49216c0.11825,-1.33278 3.89618,-2.97254 15.36383,-6.66929c8.3637,-2.69568 15.29659,-4.79834 15.40644,-4.67268c0.10876,0.12657 2.46646,13.71936 5.2387,30.20713c2.77323,16.48786 5.13582,30.38011 5.25199,30.87159c0.11617,0.49148 9.02143,-16.82231 19.78937,-38.47511l19.57863,-39.36894l12.64446,-4.13354" fill="#15cbaa"/></g></g></svg>