<svg version="1.1" xmlns="http://www.w3.org/2000/svg" xmlns:xlink="http://www.w3.org/1999/xlink" width="148.84239" height="84.81095" viewBox="0,0,148.84239,84.81095"><defs><linearGradient x1="196.95052" y1="199.86116" x2="196.95052" y2="206.812" gradientUnits="userSpaceOnUse" id="color-1"><stop offset="0" stop-color="#94d60f"/><stop offset="1" stop-color="#0fd0aa"/></linearGradient><linearGradient x1="199.24958" y1="207.62404" x2="210.15986" y2="207.62404" gradientUnits="userSpaceOnUse" id="color-2"><stop offset="0" stop-color="#5b0fd6"/><stop offset="1" stop-color="#d12a0f"/></linearGradient><linearGradient x1="207.00378" y1="211.91151" x2="217.91407" y2="211.91151" gradientUnits="userSpaceOnUse" id="color-3"><stop offset="0" stop-color="#0f46d6"/><stop offset="1" stop-color="#0fd123"/></linearGradient><linearGradient x1="214.46836" y1="215.92106" x2="225.37863" y2="215.92106" gradientUnits="userSpaceOnUse" id="color-4"><stop offset="0" stop-color="#5b0fd6"/><stop offset="1" stop-color="#d12a0f"/></linearGradient><radialGradient cx="227.31421" cy="219.68534" r="5.45515" gradientUnits="userSpaceOnUse" id="color-5"><stop offset="0" stop-color="#94d60f"/><stop offset="1" stop-color="#0fd0aa"/></radialGradient><linearGradient x1="229.59841" y1="224.5038" x2="240.50869" y2="224.5038" gradientUnits="userSpaceOnUse" id="color-6"><stop offset="0" stop-color="#0f46d6"/><stop offset="1" stop-color="#0fd123"/></linearGradient><linearGradient x1="237.35066" y1="228.69667" x2="248.26097" y2="228.69667" gradientUnits="userSpaceOnUse" id="color-7"><stop offset="0" stop-color="#94d60f"/><stop offset="1" stop-color="#0fd0aa"/></linearGradient><linearGradient x1="244.71868" y1="232.61362" x2="255.62897" y2="232.61362" gradientUnits="userSpaceOnUse" id="color-8"><stop offset="0" stop-color="#5b0fd6"/><stop offset="1" stop-color="#d12a0f"/></linearGradient><linearGradient x1="252.66206" y1="236.89716" x2="263.57235" y2="236.89716" gradientUnits="userSpaceOnUse" id="color-9"><stop offset="0" stop-color="#0f46d6"/><stop offset="1" stop-color="#0fd123"/></linearGradient><linearGradient x1="260.18986" y1="241.24139" x2="271.10017" y2="241.24139" gradientUnits="userSpaceOnUse" id="color-10"><stop offset="0" stop-color="#5b0fd6"/><stop offset="1" stop-color="#d12a0f"/></linearGradient><linearGradient x1="267.31718" y1="245.39508" x2="278.22744" y2="245.39508" gradientUnits="userSpaceOnUse" id="color-11"><stop offset="0" stop-color="#94d60f"/><stop offset="1" stop-color="#0fd0aa"/></linearGradient><linearGradient x1="275.16206" y1="249.4914" x2="286.07235" y2="249.4914" gradientUnits="userSpaceOnUse" id="color-12"><stop offset="0" stop-color="#0f46d6"/><stop offset="1" stop-color="#0fd123"/></linearGradient><linearGradient x1="199.15369" y1="216.71111" x2="210.064" y2="216.71111" gradientUnits="userSpaceOnUse" id="color-13"><stop offset="0" stop-color="#5b0fd6"/><stop offset="1" stop-color="#d12a0f"/></linearGradient><linearGradient x1="206.90789" y1="220.99857" x2="217.81817" y2="220.99857" gradientUnits="userSpaceOnUse" id="color-14"><stop offset="0" stop-color="#0f46d6"/><stop offset="1" stop-color="#0fd123"/></linearGradient><linearGradient x1="214.66212" y1="225.28602" x2="225.5724" y2="225.28602" gradientUnits="userSpaceOnUse" id="color-15"><stop offset="0" stop-color="#5b0fd6"/><stop offset="1" stop-color="#d12a0f"/></linearGradient><linearGradient x1="222.12668" y1="229.29556" x2="233.03696" y2="229.29556" gradientUnits="userSpaceOnUse" id="color-16"><stop offset="0" stop-color="#0f46d6"/><stop offset="1" stop-color="#0fd123"/></linearGradient><linearGradient x1="229.78629" y1="233.58501" x2="240.6966" y2="233.58501" gradientUnits="userSpaceOnUse" id="color-17"><stop offset="0" stop-color="#5b0fd6"/><stop offset="1" stop-color="#d12a0f"/></linearGradient><linearGradient x1="237.25671" y1="237.87835" x2="248.16701" y2="237.87835" gradientUnits="userSpaceOnUse" id="color-18"><stop offset="0" stop-color="#0f46d6"/><stop offset="1" stop-color="#0fd123"/></linearGradient><linearGradient x1="245.00896" y1="242.07122" x2="255.91924" y2="242.07122" gradientUnits="userSpaceOnUse" id="color-19"><stop offset="0" stop-color="#5b0fd6"/><stop offset="1" stop-color="#d12a0f"/></linearGradient><linearGradient x1="252.37698" y1="245.98808" x2="263.28724" y2="245.98808" gradientUnits="userSpaceOnUse" id="color-20"><stop offset="0" stop-color="#0f46d6"/><stop offset="1" stop-color="#0fd123"/></linearGradient><linearGradient x1="168.08999" y1="216.73863" x2="179.00027" y2="216.73863" gradientUnits="userSpaceOnUse" id="color-21"><stop offset="0" stop-color="#0f46d6"/><stop offset="1" stop-color="#0fd123"/></linearGradient><linearGradient x1="175.84423" y1="221.0261" x2="186.75454" y2="221.0261" gradientUnits="userSpaceOnUse" id="color-22"><stop offset="0" stop-color="#94d60f"/><stop offset="1" stop-color="#0fd0aa"/></linearGradient><linearGradient x1="183.59844" y1="225.31356" x2="194.50871" y2="225.31356" gradientUnits="userSpaceOnUse" id="color-23"><stop offset="0" stop-color="#5b0fd6"/><stop offset="1" stop-color="#d12a0f"/></linearGradient><linearGradient x1="191.06299" y1="229.32312" x2="201.97327" y2="229.32312" gradientUnits="userSpaceOnUse" id="color-24"><stop offset="0" stop-color="#94d60f"/><stop offset="1" stop-color="#0fd0aa"/></linearGradient><linearGradient x1="198.72261" y1="233.61253" x2="209.63293" y2="233.61253" gradientUnits="userSpaceOnUse" id="color-25"><stop offset="0" stop-color="#5b0fd6"/><stop offset="1" stop-color="#d12a0f"/></linearGradient><linearGradient x1="206.19303" y1="237.90587" x2="217.10331" y2="237.90587" gradientUnits="userSpaceOnUse" id="color-26"><stop offset="0" stop-color="#94d60f"/><stop offset="1" stop-color="#0fd0aa"/></linearGradient><linearGradient x1="213.94529" y1="242.09875" x2="224.85556" y2="242.09875" gradientUnits="userSpaceOnUse" id="color-27"><stop offset="0" stop-color="#5b0fd6"/><stop offset="1" stop-color="#d12a0f"/></linearGradient><linearGradient x1="221.3133" y1="246.01563" x2="232.2236" y2="246.01563" gradientUnits="userSpaceOnUse" id="color-28"><stop offset="0" stop-color="#94d60f"/><stop offset="1" stop-color="#0fd0aa"/></linearGradient><linearGradient x1="229.2567" y1="250.29919" x2="240.16698" y2="250.29919" gradientUnits="userSpaceOnUse" id="color-29"><stop offset="0" stop-color="#5b0fd6"/><stop offset="1" stop-color="#d12a0f"/></linearGradient><radialGradient cx="243.01497" cy="255.91786" r="5.45514" gradientUnits="userSpaceOnUse" id="color-30"><stop offset="0" stop-color="#076451"/><stop offset="1" stop-color="#0ad0a5"/></radialGradient><linearGradient x1="243.91182" y1="258.7971" x2="254.82211" y2="258.7971" gradientUnits="userSpaceOnUse" id="color-31"><stop offset="0" stop-color="#5b0fd6"/><stop offset="1" stop-color="#d12a0f"/></linearGradient><radialGradient cx="255.89765" cy="265.57987" r="5.45514" gradientUnits="userSpaceOnUse" id="color-32"><stop offset="0" stop-color="#076451"/><stop offset="1" stop-color="#0ad0a5"/></radialGradient><linearGradient x1="186.88172" y1="218.19527" x2="197.79201" y2="218.19527" gradientUnits="userSpaceOnUse" id="color-33"><stop offset="0" stop-color="#5b0fd6"/><stop offset="1" stop-color="#d12a0f"/></linearGradient><linearGradient x1="202.39015" y1="226.77017" x2="213.30041" y2="226.77017" gradientUnits="userSpaceOnUse" id="color-34"><stop offset="0" stop-color="#5b0fd6"/><stop offset="1" stop-color="#d12a0f"/></linearGradient><linearGradient x1="209.85471" y1="230.77973" x2="220.765" y2="230.77973" gradientUnits="userSpaceOnUse" id="color-35"><stop offset="0" stop-color="#94d60f"/><stop offset="1" stop-color="#0fd0aa"/></linearGradient><linearGradient x1="217.51432" y1="235.06915" x2="228.42462" y2="235.06915" gradientUnits="userSpaceOnUse" id="color-36"><stop offset="0" stop-color="#5b0fd6"/><stop offset="1" stop-color="#d12a0f"/></linearGradient><linearGradient x1="232.737" y1="243.55536" x2="243.64728" y2="243.55536" gradientUnits="userSpaceOnUse" id="color-37"><stop offset="0" stop-color="#5b0fd6"/><stop offset="1" stop-color="#d12a0f"/></linearGradient><linearGradient x1="240.10501" y1="247.47224" x2="251.01532" y2="247.47224" gradientUnits="userSpaceOnUse" id="color-38"><stop offset="0" stop-color="#94d60f"/><stop offset="1" stop-color="#0fd0aa"/></linearGradient><radialGradient cx="206.78245" cy="245.0481" r="18.29269" gradientUnits="userSpaceOnUse" id="color-39"><stop offset="0" stop-color="#076451"/><stop offset="1" stop-color="#0ad0a5"/></radialGradient><linearGradient x1="177.09566" y1="231.32528" x2="192.05321" y2="231.32528" gradientUnits="userSpaceOnUse" id="color-40"><stop offset="0" stop-color="#0f46d6"/><stop offset="1" stop-color="#0fd123"/></linearGradient><linearGradient x1="161.82305" y1="223.84021" x2="179.10077" y2="223.84021" gradientUnits="userSpaceOnUse" id="color-41"><stop offset="0" stop-color="#0f46d6"/><stop offset="1" stop-color="#0fd123"/></linearGradient><linearGradient x1="184.38124" y1="209.84057" x2="201.65895" y2="209.84057" gradientUnits="userSpaceOnUse" id="color-42"><stop offset="0" stop-color="#0f46d6"/><stop offset="1" stop-color="#0fd123"/></linearGradient><linearGradient x1="176.48059" y1="213.27829" x2="189.7785" y2="213.27829" gradientUnits="userSpaceOnUse" id="color-43"><stop offset="0" stop-color="#0f46d6"/><stop offset="1" stop-color="#0fd123"/></linearGradient><linearGradient x1="245.11054" y1="267.89119" x2="256.02082" y2="267.89119" gradientUnits="userSpaceOnUse" id="color-44"><stop offset="0" stop-color="#94d60f"/><stop offset="1" stop-color="#0fd0aa"/></linearGradient><linearGradient x1="237.1142" y1="263.66283" x2="248.02448" y2="263.66283" gradientUnits="userSpaceOnUse" id="color-45"><stop offset="0" stop-color="#0f46d6"/><stop offset="1" stop-color="#0fd123"/></linearGradient><linearGradient x1="224.39645" y1="257.93978" x2="239.35401" y2="257.93978" gradientUnits="userSpaceOnUse" id="color-46"><stop offset="0" stop-color="#94d60f"/><stop offset="1" stop-color="#0fd0aa"/></linearGradient><radialGradient cx="286.09142" cy="258.33336" r="4.54584" gradientUnits="userSpaceOnUse" id="color-47"><stop offset="0" stop-color="#076451"/><stop offset="1" stop-color="#0ad0a5"/></radialGradient><radialGradient cx="297.76634" cy="257.12561" r="4.54585" gradientUnits="userSpaceOnUse" id="color-48"><stop offset="0" stop-color="#076451"/><stop offset="1" stop-color="#0ad0a5"/></radialGradient><linearGradient x1="301.57377" y1="262.19133" x2="310.66545" y2="262.19133" gradientUnits="userSpaceOnUse" id="color-49"><stop offset="0" stop-color="#0f46d6"/><stop offset="1" stop-color="#0fd123"/></linearGradient><linearGradient x1="287.85097" y1="261.50867" x2="296.94265" y2="261.50867" gradientUnits="userSpaceOnUse" id="color-50"><stop offset="0" stop-color="#0f46d6"/><stop offset="1" stop-color="#0fd123"/></linearGradient><linearGradient x1="295.67528" y1="265.91632" x2="304.76697" y2="265.91632" gradientUnits="userSpaceOnUse" id="color-51"><stop offset="0" stop-color="#94d60f"/><stop offset="1" stop-color="#0fd0aa"/></linearGradient><linearGradient x1="285.48418" y1="253.29726" x2="294.57588" y2="253.29726" gradientUnits="userSpaceOnUse" id="color-52"><stop offset="0" stop-color="#0f46d6"/><stop offset="1" stop-color="#0fd123"/></linearGradient><linearGradient x1="253.28982" y1="272.46725" x2="264.20012" y2="272.46725" gradientUnits="userSpaceOnUse" id="color-53"><stop offset="0" stop-color="#0f46d6"/><stop offset="1" stop-color="#0fd123"/></linearGradient><linearGradient x1="260.7664" y1="277.05792" x2="271.67669" y2="277.05792" gradientUnits="userSpaceOnUse" id="color-54"><stop offset="0" stop-color="#94d60f"/><stop offset="1" stop-color="#0fd0aa"/></linearGradient><linearGradient x1="268.84877" y1="281.19667" x2="279.75906" y2="281.19667" gradientUnits="userSpaceOnUse" id="color-55"><stop offset="0" stop-color="#0f46d6"/><stop offset="1" stop-color="#0fd123"/></linearGradient><radialGradient cx="273.61133" cy="272.82637" r="5.45514" gradientUnits="userSpaceOnUse" id="color-56"><stop offset="0" stop-color="#076451"/><stop offset="1" stop-color="#0ad0a5"/></radialGradient><linearGradient x1="260.52626" y1="256.95144" x2="278.21542" y2="256.95144" gradientUnits="userSpaceOnUse" id="color-57"><stop offset="0" stop-color="#5b0fd6"/><stop offset="1" stop-color="#d12a0f"/></linearGradient><linearGradient x1="260.25267" y1="252.22955" x2="278.10955" y2="252.22955" gradientUnits="userSpaceOnUse" id="color-58"><stop offset="0" stop-color="#5b0fd6"/><stop offset="1" stop-color="#d12a0f"/></linearGradient></defs><g transform="translate(-161.82306,-199.86116)"><g data-paper-data="{&quot;isPaintingLayer&quot;:true}" fill-rule="nonzero" stroke="none" stroke-width="0" stroke-linecap="butt" stroke-linejoin="miter" stroke-miterlimit="10" stroke-dasharray="" stroke-dashoffset="0" style="mix-blend-mode: normal"><path d="M191.50998,203.46709c-0.10405,-0.54933 0.37168,-0.75185 0.67192,-1.01144c0.90072,-0.77875 2.67352,-1.74524 3.41079,-2.12054c0.45873,-0.23351 0.61744,-0.43809 1.27981,-0.46952c0.66237,-0.03142 0.8606,0.10653 1.25033,0.34265c1.33305,0.80762 2.30349,1.18555 3.55423,2.07071c0.41691,0.29506 0.7338,0.52827 0.72854,1.02345c-0.00527,0.49518 -0.38774,0.64787 -0.74901,0.90029c-1.25915,0.87981 -2.09267,1.68322 -3.17221,2.32041c-0.35985,0.2124 -0.65392,0.2813 -1.10036,0.28801c-0.44644,0.00671 -0.80634,-0.01925 -1.2173,-0.25321c-0.41094,-0.23396 -2.29937,-1.18012 -3.63331,-2.09363c-0.4661,-0.31916 -0.91941,-0.44785 -1.02346,-0.9972z" data-paper-data="{&quot;origRot&quot;:0,&quot;origPos&quot;:null}" fill="url(#color-1)"/><path d="M199.26418,207.75455c-0.10405,-0.54933 0.37168,-0.75185 0.67191,-1.01144c0.90072,-0.77875 2.67352,-1.74524 3.41079,-2.12054c0.45873,-0.23351 0.61744,-0.43808 1.27981,-0.46951c0.66237,-0.03142 0.8606,0.10652 1.25033,0.34264c1.33305,0.80762 2.30349,1.18554 3.55423,2.07071c0.41691,0.29506 0.73381,0.52827 0.72854,1.02345c-0.00527,0.49518 -0.38774,0.64787 -0.74901,0.90029c-1.25915,0.87981 -2.09265,1.68323 -3.1722,2.32041c-0.35985,0.2124 -0.65392,0.28131 -1.10036,0.28801c-0.44644,0.00671 -0.80636,-0.01926 -1.21731,-0.25322c-0.41094,-0.23396 -2.29936,-1.18012 -3.63331,-2.09363c-0.4661,-0.31916 -0.91941,-0.44785 -1.02347,-0.9972z" data-paper-data="{&quot;origRot&quot;:0,&quot;origPos&quot;:null}" fill="url(#color-2)"/><path d="M207.01839,212.04203c-0.10405,-0.54933 0.37168,-0.75186 0.67191,-1.01145c0.90072,-0.77875 2.67352,-1.74525 3.41079,-2.12054c0.45873,-0.23351 0.61745,-0.4381 1.27982,-0.46951c0.66237,-0.03142 0.8606,0.10652 1.25033,0.34265c1.33305,0.80762 2.30348,1.18554 3.55423,2.07071c0.41691,0.29506 0.73381,0.52826 0.72854,1.02345c-0.00527,0.49518 -0.38774,0.64787 -0.749,0.90029c-1.25915,0.87981 -2.09266,1.68323 -3.1722,2.32041c-0.35985,0.2124 -0.65393,0.28129 -1.10037,0.288c-0.44644,0.00671 -0.80634,-0.01924 -1.2173,-0.2532c-0.41094,-0.23396 -2.29937,-1.18012 -3.63331,-2.09361c-0.4661,-0.31916 -0.91942,-0.44787 -1.02347,-0.99721z" data-paper-data="{&quot;origRot&quot;:0,&quot;origPos&quot;:null}" fill="url(#color-3)"/><path d="M214.48296,216.05157c-0.10405,-0.54933 0.37168,-0.75186 0.67191,-1.01144c0.90072,-0.77875 2.67352,-1.74526 3.41079,-2.12054c0.45873,-0.23351 0.61744,-0.43809 1.2798,-0.46952c0.66237,-0.03142 0.8606,0.10653 1.25033,0.34266c1.33305,0.80762 2.30349,1.18555 3.55423,2.07071c0.41691,0.29506 0.73381,0.52827 0.72854,1.02345c-0.00527,0.49518 -0.38774,0.64786 -0.74901,0.90027c-1.25915,0.87981 -2.09265,1.68323 -3.1722,2.32042c-0.35985,0.2124 -0.65394,0.28129 -1.10036,0.288c-0.44644,0.00671 -0.80634,-0.01925 -1.2173,-0.25322c-0.41094,-0.23396 -2.29939,-1.18012 -3.63332,-2.09361c-0.4661,-0.31916 -0.9194,-0.44786 -1.02345,-0.99721z" data-paper-data="{&quot;origRot&quot;:0,&quot;origPos&quot;:null}" fill="url(#color-4)"/><path d="M222.14258,220.34099c-0.10405,-0.54933 0.37168,-0.75185 0.67191,-1.01144c0.90072,-0.77875 2.67352,-1.74524 3.41079,-2.12053c0.45873,-0.23351 0.61743,-0.43809 1.2798,-0.46952c0.66237,-0.03142 0.86061,0.10653 1.25035,0.34265c1.33305,0.80762 2.30348,1.18555 3.55423,2.0707c0.41691,0.29506 0.73382,0.52827 0.72855,1.02345c-0.00527,0.49518 -0.38774,0.64787 -0.74902,0.90029c-1.25915,0.87981 -2.09264,1.68323 -3.17219,2.32041c-0.35985,0.2124 -0.65393,0.28131 -1.10037,0.28802c-0.44644,0.00671 -0.80634,-0.01926 -1.2173,-0.25323c-0.41094,-0.23396 -2.29939,-1.18012 -3.63332,-2.09363c-0.4661,-0.31916 -0.91941,-0.44787 -1.02346,-0.9972z" data-paper-data="{&quot;origRot&quot;:0,&quot;origPos&quot;:null}" fill="url(#color-5)"/><path d="M229.61301,224.63431c-0.10405,-0.54933 0.37168,-0.75186 0.67192,-1.01145c0.90072,-0.77875 2.67352,-1.74524 3.41079,-2.12052c0.45873,-0.23351 0.61744,-0.43811 1.27981,-0.46953c0.66237,-0.03142 0.8606,0.10653 1.25033,0.34265c1.33305,0.80762 2.30348,1.18555 3.55423,2.07071c0.41691,0.29506 0.73381,0.52826 0.72854,1.02345c-0.00527,0.49518 -0.38774,0.64787 -0.74901,0.90029c-1.25915,0.87981 -2.09265,1.68322 -3.1722,2.32041c-0.35985,0.2124 -0.65392,0.2813 -1.10037,0.28801c-0.44644,0.00671 -0.80635,-0.01925 -1.2173,-0.25321c-0.41094,-0.23396 -2.29938,-1.18012 -3.63333,-2.09361c-0.4661,-0.31916 -0.91941,-0.44787 -1.02345,-0.9972z" data-paper-data="{&quot;origRot&quot;:0,&quot;origPos&quot;:null}" fill="url(#color-6)"/><path d="M237.36526,228.82718c-0.10405,-0.54933 0.37167,-0.75186 0.67191,-1.01144c0.90072,-0.77875 2.67352,-1.74525 3.4108,-2.12054c0.45873,-0.23351 0.61743,-0.4381 1.2798,-0.46952c0.66237,-0.03142 0.86061,0.10653 1.25035,0.34265c1.33305,0.80762 2.30348,1.18554 3.55423,2.0707c0.41691,0.29506 0.73382,0.52827 0.72855,1.02345c-0.00527,0.49518 -0.38774,0.64787 -0.74901,0.90029c-1.25915,0.87981 -2.09265,1.68323 -3.17219,2.32041c-0.35985,0.2124 -0.65393,0.28131 -1.10037,0.28801c-0.44644,0.00671 -0.80634,-0.01925 -1.2173,-0.25321c-0.41094,-0.23396 -2.29937,-1.18012 -3.63332,-2.09361c-0.4661,-0.31916 -0.91941,-0.44787 -1.02346,-0.99721z" data-paper-data="{&quot;origRot&quot;:0,&quot;origPos&quot;:null}" fill="url(#color-7)"/><path d="M244.73328,232.74412c-0.10405,-0.54933 0.37167,-0.75184 0.67191,-1.01143c0.90072,-0.77875 2.67352,-1.74525 3.4108,-2.12054c0.45873,-0.23351 0.61744,-0.4381 1.2798,-0.46952c0.66237,-0.03142 0.8606,0.10653 1.25033,0.34264c1.33305,0.80762 2.30349,1.18554 3.55424,2.0707c0.41691,0.29506 0.73381,0.52827 0.72854,1.02345c-0.00527,0.49518 -0.38774,0.64787 -0.74901,0.90029c-1.25915,0.87981 -2.09265,1.68323 -3.1722,2.32042c-0.35985,0.2124 -0.65392,0.2813 -1.10036,0.28801c-0.44644,0.00671 -0.80635,-0.01925 -1.2173,-0.25322c-0.41094,-0.23396 -2.29938,-1.18012 -3.63332,-2.09363c-0.4661,-0.31916 -0.91941,-0.44786 -1.02346,-0.99721z" data-paper-data="{&quot;origRot&quot;:0,&quot;origPos&quot;:null}" fill="url(#color-8)"/><path d="M252.67667,237.02765c-0.10405,-0.54933 0.37168,-0.75186 0.67191,-1.01144c0.90072,-0.77875 2.67352,-1.74525 3.41079,-2.12054c0.45873,-0.23351 0.61745,-0.4381 1.27981,-0.4695c0.66237,-0.03142 0.86061,0.10653 1.25034,0.34264c1.33305,0.80762 2.30349,1.18554 3.55423,2.07071c0.41691,0.29506 0.73381,0.52826 0.72854,1.02345c-0.00527,0.49518 -0.38773,0.64787 -0.74901,0.90029c-1.25915,0.87981 -2.09266,1.68323 -3.17221,2.32043c-0.35985,0.2124 -0.65392,0.2813 -1.10035,0.288c-0.44644,0.00671 -0.80636,-0.01926 -1.21731,-0.25323c-0.41095,-0.23396 -2.29937,-1.18012 -3.63332,-2.09363c-0.4661,-0.31916 -0.91941,-0.44785 -1.02347,-0.99719z" data-paper-data="{&quot;origRot&quot;:0,&quot;origPos&quot;:null}" fill="url(#color-9)"/><path d="M260.20447,241.37189c-0.10406,-0.54933 0.37167,-0.75184 0.67192,-1.01143c0.90073,-0.77875 2.67352,-1.74524 3.41079,-2.12054c0.45872,-0.23351 0.61744,-0.43809 1.27981,-0.46952c0.66237,-0.03142 0.86061,0.10653 1.25035,0.34265c1.33306,0.80762 2.30348,1.18555 3.55423,2.0707c0.4169,0.29506 0.73381,0.52827 0.72854,1.02345c-0.00527,0.49518 -0.38776,0.64787 -0.74901,0.90029c-1.25915,0.87981 -2.09267,1.68323 -3.17221,2.32041c-0.35985,0.2124 -0.65393,0.28131 -1.10035,0.28802c-0.44642,0.00671 -0.80635,-0.01926 -1.2173,-0.25322c-0.41095,-0.23396 -2.29937,-1.18012 -3.63331,-2.09363c-0.4661,-0.31916 -0.91942,-0.44787 -1.02346,-0.99721z" data-paper-data="{&quot;origRot&quot;:0,&quot;origPos&quot;:null}" fill="url(#color-10)"/><path d="M267.33178,245.52559c-0.10406,-0.54933 0.37168,-0.75186 0.67191,-1.01145c0.90073,-0.77875 2.67352,-1.74525 3.41078,-2.12054c0.45874,-0.23351 0.61745,-0.4381 1.27981,-0.46951c0.66237,-0.03142 0.86061,0.10653 1.25032,0.34265c1.33306,0.80762 2.30349,1.18555 3.55423,2.0707c0.4169,0.29506 0.73381,0.52826 0.72854,1.02344c-0.00527,0.49518 -0.38775,0.64788 -0.74901,0.90031c-1.25915,0.87981 -2.09266,1.68323 -3.1722,2.32041c-0.35985,0.2124 -0.65392,0.28129 -1.10036,0.288c-0.44642,0.00671 -0.80634,-0.01924 -1.21729,-0.2532c-0.41095,-0.23396 -2.29937,-1.18012 -3.63331,-2.09363c-0.4661,-0.31916 -0.91942,-0.44786 -1.02346,-0.99721z" data-paper-data="{&quot;origRot&quot;:0,&quot;origPos&quot;:null}" fill="url(#color-11)"/><path d="M275.17667,249.62192c-0.10406,-0.54933 0.37168,-0.75186 0.67192,-1.01145c0.90073,-0.77875 2.67352,-1.74524 3.41078,-2.12052c0.45872,-0.23351 0.61745,-0.43811 1.27981,-0.46952c0.66237,-0.03142 0.86062,0.10654 1.25034,0.34265c1.33306,0.80762 2.30349,1.18554 3.55423,2.07068c0.41691,0.29506 0.73381,0.52827 0.72854,1.02345c-0.00527,0.49518 -0.38774,0.64787 -0.74901,0.90029c-1.25915,0.87981 -2.09267,1.68322 -3.17221,2.3204c-0.35985,0.2124 -0.65392,0.28131 -1.10035,0.28801c-0.44642,0.00671 -0.80634,-0.01925 -1.2173,-0.25321c-0.41095,-0.23396 -2.29937,-1.18012 -3.63332,-2.09361c-0.4661,-0.31916 -0.91942,-0.44787 -1.02346,-0.99722z" data-paper-data="{&quot;origRot&quot;:0,&quot;origPos&quot;:null}" fill="url(#color-12)"/><path d="M199.16829,216.8416c-0.10405,-0.54933 0.37167,-0.75184 0.67191,-1.01143c0.90072,-0.77875 2.67352,-1.74525 3.4108,-2.12054c0.45873,-0.23351 0.61743,-0.43809 1.2798,-0.46951c0.66237,-0.03142 0.86061,0.10652 1.25035,0.34265c1.33305,0.80762 2.30349,1.18554 3.55424,2.0707c0.41691,0.29506 0.73381,0.52827 0.72854,1.02345c-0.00527,0.49518 -0.38774,0.64787 -0.74901,0.90029c-1.25915,0.87981 -2.09265,1.68323 -3.17219,2.32041c-0.35985,0.2124 -0.65393,0.28131 -1.10037,0.28802c-0.44644,0.00671 -0.80634,-0.01925 -1.2173,-0.25322c-0.41094,-0.23396 -2.29938,-1.18012 -3.63333,-2.09361c-0.4661,-0.31916 -0.91942,-0.44786 -1.02346,-0.99721z" data-paper-data="{&quot;origRot&quot;:0,&quot;origPos&quot;:null}" fill="url(#color-13)"/><path d="M206.92249,221.12906c-0.10405,-0.54933 0.37168,-0.75186 0.67191,-1.01145c0.24247,-0.20963 2.29704,-1.55361 3.41079,-2.12052c0.45873,-0.23351 0.61745,-0.43809 1.27981,-0.46951c0.66237,-0.03142 0.8606,0.10652 1.25033,0.34265c1.33305,0.80762 2.30348,1.18555 3.55423,2.07071c0.41691,0.29506 0.73381,0.52826 0.72854,1.02345c-0.00527,0.49518 -0.38774,0.64787 -0.749,0.90029c-1.25915,0.87981 -2.09268,1.68318 -3.17222,2.3204c-0.35985,0.2124 -0.65392,0.28131 -1.10035,0.28802c-0.44644,0.00671 -0.80635,-0.01924 -1.2173,-0.2532c-0.41094,-0.23396 -2.29937,-1.18012 -3.6333,-2.09363c-0.4661,-0.31916 -0.91941,-0.44785 -1.02346,-0.99721z" data-paper-data="{&quot;origRot&quot;:0,&quot;origPos&quot;:null}" fill="url(#color-14)"/><path d="M214.67672,225.41653c-0.10405,-0.54933 0.37168,-0.75186 0.67192,-1.01144c0.90072,-0.77875 2.67352,-1.74526 3.41079,-2.12055c0.45873,-0.23351 0.61743,-0.43808 1.2798,-0.46951c0.66237,-0.03142 0.86061,0.10653 1.25032,0.34265c1.33305,0.80762 2.30349,1.18555 3.55424,2.0707c0.41691,0.29506 0.73381,0.52827 0.72854,1.02345c-0.00527,0.49518 -0.38774,0.64787 -0.74901,0.90029c-1.25915,0.87981 -2.09266,1.68322 -3.17221,2.32041c-0.35985,0.2124 -0.65392,0.28131 -1.10037,0.28802c-0.44644,0.00671 -0.80634,-0.01926 -1.2173,-0.25322c-0.41094,-0.23396 -2.29939,-1.18012 -3.63332,-2.09361c-0.4661,-0.31916 -0.9194,-0.44786 -1.02346,-0.99721z" data-paper-data="{&quot;origRot&quot;:0,&quot;origPos&quot;:null}" fill="url(#color-15)"/><path d="M222.14128,229.42607c-0.10405,-0.54933 0.37168,-0.75186 0.67192,-1.01145c0.90072,-0.77875 2.67353,-1.74525 3.4108,-2.12054c0.45873,-0.23351 0.61744,-0.43808 1.2798,-0.46951c0.66237,-0.03142 0.86061,0.10653 1.25032,0.34265c1.33305,0.80762 2.30348,1.18555 3.55423,2.0707c0.41691,0.29506 0.73381,0.52827 0.72854,1.02345c-0.00527,0.49518 -0.38774,0.64787 -0.74901,0.90029c-1.25915,0.87981 -2.09266,1.6832 -3.17221,2.32041c-0.35985,0.2124 -0.65393,0.28131 -1.10037,0.28801c-0.44644,0.00671 -0.80634,-0.01925 -1.2173,-0.25321c-0.41094,-0.23396 -2.29937,-1.18012 -3.6333,-2.09363c-0.4661,-0.31916 -0.91941,-0.44785 -1.02346,-0.99721z" data-paper-data="{&quot;origRot&quot;:0,&quot;origPos&quot;:null}" fill="url(#color-16)"/><path d="M229.80089,233.71551c-0.10405,-0.54933 0.37168,-0.75186 0.67191,-1.01145c0.90072,-0.77875 2.67352,-1.74525 3.41079,-2.12055c0.45873,-0.23351 0.61745,-0.4381 1.27982,-0.4695c0.66237,-0.03142 0.8606,0.10653 1.25033,0.34266c1.33305,0.80762 2.30348,1.18554 3.55423,2.07071c0.41691,0.29506 0.73382,0.52825 0.72856,1.02345c-0.00527,0.49518 -0.38774,0.64787 -0.74901,0.9003c-0.47955,0.33508 -2.35434,1.83767 -3.17219,2.32041c-0.35985,0.2124 -0.65394,0.28129 -1.10037,0.288c-0.44644,0.00671 -0.80633,-0.01924 -1.21729,-0.2532c-0.41094,-0.23396 -2.29937,-1.18012 -3.63332,-2.09363c-0.4661,-0.31916 -0.9194,-0.44785 -1.02346,-0.9972z" data-paper-data="{&quot;origRot&quot;:0,&quot;origPos&quot;:null}" fill="url(#color-17)"/><path d="M237.27131,238.00884c-0.10405,-0.54933 0.37168,-0.75184 0.67191,-1.01143c0.21507,-0.18594 2.26476,-1.53718 3.41079,-2.12054c0.45873,-0.23351 0.61745,-0.4381 1.27981,-0.46951c0.66237,-0.03142 0.8606,0.10652 1.25033,0.34264c1.33305,0.80762 2.30349,1.18555 3.55423,2.07072c0.41691,0.29506 0.73382,0.52827 0.72856,1.02345c-0.00527,0.49518 -0.38774,0.64787 -0.74901,0.90028c-1.25915,0.87981 -2.09265,1.68322 -3.1722,2.32041c-0.35985,0.2124 -0.65392,0.28131 -1.10036,0.28802c-0.44644,0.00671 -0.80634,-0.01925 -1.2173,-0.25322c-0.41094,-0.23396 -2.29936,-1.18012 -3.63331,-2.09361c-0.4661,-0.31916 -0.91941,-0.44786 -1.02346,-0.99722z" data-paper-data="{&quot;origRot&quot;:0,&quot;origPos&quot;:null}" fill="url(#color-18)"/><path d="M245.02356,242.2017c-0.10405,-0.54933 0.37168,-0.75184 0.67193,-1.01142c0.90072,-0.77875 2.67352,-1.74526 3.41078,-2.12055c0.45873,-0.23351 0.61745,-0.43809 1.27981,-0.4695c0.66237,-0.03142 0.8606,0.10652 1.25033,0.34264c1.33305,0.80762 2.30348,1.18555 3.55422,2.07072c0.41691,0.29506 0.73381,0.52827 0.72854,1.02345c-0.00527,0.49518 -0.38774,0.64787 -0.749,0.90029c-1.25915,0.87981 -2.09267,1.68322 -3.17221,2.3204c-0.35985,0.2124 -0.65392,0.28131 -1.10036,0.28802c-0.44644,0.00671 -0.80635,-0.01925 -1.2173,-0.25321c-0.41094,-0.23396 -2.29937,-1.18012 -3.6333,-2.09361c-0.4661,-0.31916 -0.91941,-0.44787 -1.02347,-0.99722z" data-paper-data="{&quot;origRot&quot;:0,&quot;origPos&quot;:null}" fill="url(#color-19)"/><path d="M252.39158,246.1186c-0.10405,-0.54933 0.37168,-0.75186 0.67191,-1.01145c0.90072,-0.77875 2.67352,-1.74525 3.41079,-2.12055c0.45873,-0.23351 0.61744,-0.43808 1.27981,-0.46951c0.66237,-0.03142 0.8606,0.10653 1.25032,0.34265c1.33305,0.80762 2.30349,1.18555 3.55423,2.07071c0.41691,0.29506 0.73379,0.52827 0.72853,1.02345c-0.00527,0.49518 -0.38774,0.64787 -0.749,0.90029c-1.25915,0.87981 -2.09266,1.68322 -3.17221,2.32041c-0.35985,0.2124 -0.65392,0.28131 -1.10035,0.28801c-0.44644,0.00671 -0.80636,-0.01925 -1.21731,-0.25321c-0.41095,-0.23396 -2.29936,-1.18013 -3.63331,-2.09361c-0.4661,-0.31916 -0.91942,-0.44786 -1.02347,-0.99721z" data-paper-data="{&quot;origRot&quot;:0,&quot;origPos&quot;:null}" fill="url(#color-20)"/><path d="M168.10459,216.86914c-0.10405,-0.54933 0.37169,-0.75184 0.67192,-1.01143c0.90073,-0.77875 2.67352,-1.74525 3.41079,-2.12054c0.45872,-0.23351 0.61744,-0.43809 1.27981,-0.46952c0.66238,-0.03142 0.8606,0.10653 1.25033,0.34265c1.33305,0.80762 2.30349,1.18554 3.55423,2.0707c0.41691,0.29506 0.73381,0.52827 0.72854,1.02345c-0.00527,0.49518 -0.38773,0.64787 -0.749,0.90029c-1.25915,0.87981 -2.09266,1.68322 -3.1722,2.32041c-0.35985,0.2124 -0.65392,0.28131 -1.10036,0.28801c-0.44644,0.00671 -0.80636,-0.01926 -1.21731,-0.25323c-0.41094,-0.23396 -2.29937,-1.18012 -3.63332,-2.09362c-0.4661,-0.31916 -0.91942,-0.44786 -1.02347,-0.99721z" data-paper-data="{&quot;origRot&quot;:0,&quot;origPos&quot;:null}" fill="url(#color-21)"/><path d="M175.85883,221.15662c-0.10405,-0.54933 0.37168,-0.75186 0.67192,-1.01145c0.90072,-0.77875 2.67352,-1.74524 3.41079,-2.12052c0.45873,-0.23351 0.61743,-0.4381 1.2798,-0.46953c0.66237,-0.03142 0.86061,0.10652 1.25035,0.34265c1.33305,0.80762 2.30348,1.18555 3.55423,2.07071c0.41691,0.29506 0.73382,0.52825 0.72855,1.02345c-0.00527,0.49518 -0.38774,0.64787 -0.74901,0.90029c-1.25915,0.87981 -2.09266,1.6832 -3.17221,2.32041c-0.35985,0.2124 -0.65392,0.2813 -1.10036,0.288c-0.44644,0.00671 -0.80634,-0.01925 -1.2173,-0.25321c-0.41094,-0.23396 -2.29937,-1.18012 -3.63331,-2.09363c-0.4661,-0.31916 -0.91941,-0.44786 -1.02346,-0.99721z" data-paper-data="{&quot;origRot&quot;:0,&quot;origPos&quot;:null}" fill="url(#color-22)"/><path d="M183.61304,225.44408c-0.10405,-0.54933 0.37168,-0.75186 0.67191,-1.01145c0.90072,-0.77875 2.67352,-1.74525 3.41079,-2.12054c0.45873,-0.23351 0.61744,-0.43809 1.2798,-0.46952c0.66237,-0.03142 0.86061,0.10654 1.25032,0.34266c1.33305,0.80762 2.30349,1.18555 3.55424,2.0707c0.41691,0.29506 0.73381,0.52827 0.72854,1.02345c-0.00527,0.49518 -0.38774,0.64787 -0.74902,0.90029c-1.25915,0.87981 -2.09266,1.6832 -3.1722,2.32041c-0.35985,0.2124 -0.65392,0.2813 -1.10036,0.28801c-0.44644,0.00671 -0.80634,-0.01925 -1.21729,-0.25321c-0.41094,-0.23396 -2.29937,-1.18012 -3.63331,-2.09362c-0.4661,-0.31916 -0.91942,-0.44785 -1.02347,-0.99721z" data-paper-data="{&quot;origRot&quot;:0,&quot;origPos&quot;:null}" fill="url(#color-23)"/><path d="M191.07759,229.45361c-0.10405,-0.54933 0.37168,-0.75186 0.67191,-1.01145c0.90072,-0.77875 2.67352,-1.74524 3.41079,-2.12052c0.45873,-0.23351 0.61745,-0.4381 1.27982,-0.46951c0.66237,-0.03142 0.86061,0.10653 1.25032,0.34265c1.33305,0.80762 2.30348,1.18555 3.55423,2.0707c0.41691,0.29506 0.73381,0.52826 0.72854,1.02344c-0.00527,0.49518 -0.38774,0.64788 -0.74901,0.90031c-1.25915,0.87981 -2.09267,1.68319 -3.17221,2.32041c-0.35985,0.2124 -0.65392,0.2813 -1.10035,0.288c-0.44644,0.00671 -0.80637,-0.01924 -1.21731,-0.2532c-0.41094,-0.23396 -2.29937,-1.18012 -3.63331,-2.09363c-0.4661,-0.31916 -0.9194,-0.44785 -1.02346,-0.99721z" data-paper-data="{&quot;origRot&quot;:0,&quot;origPos&quot;:null}" fill="url(#color-24)"/><path d="M198.73721,233.74303c-0.10405,-0.54933 0.37168,-0.75186 0.67191,-1.01144c0.90072,-0.77875 2.67352,-1.74526 3.41079,-2.12055c0.45873,-0.23351 0.61743,-0.43809 1.2798,-0.46949c0.66237,-0.03142 0.86061,0.10652 1.25035,0.34264c1.33305,0.80762 2.30349,1.18554 3.55424,2.0707c0.41691,0.29506 0.73382,0.52826 0.72856,1.02345c-0.00527,0.49518 -0.38774,0.64788 -0.74901,0.9003c-1.25915,0.87981 -2.09265,1.68319 -3.1722,2.32041c-0.35985,0.2124 -0.65392,0.28129 -1.10036,0.288c-0.44644,0.00671 -0.80634,-0.01924 -1.21729,-0.2532c-0.41094,-0.23396 -2.2994,-1.18012 -3.63333,-2.09363c-0.4661,-0.31916 -0.9194,-0.44785 -1.02345,-0.99721z" data-paper-data="{&quot;origRot&quot;:0,&quot;origPos&quot;:null}" fill="url(#color-25)"/><path d="M206.20763,238.03638c-0.10405,-0.54933 0.37168,-0.75184 0.67191,-1.01143c0.90072,-0.77875 2.67352,-1.74525 3.41079,-2.12054c0.45873,-0.23351 0.61744,-0.43809 1.2798,-0.46952c0.66237,-0.03142 0.8606,0.10653 1.25033,0.34264c1.33305,0.80762 2.30349,1.18555 3.55424,2.07071c0.41691,0.29506 0.73382,0.52827 0.72854,1.02345c-0.00527,0.49518 -0.38773,0.64788 -0.74901,0.90029c-1.25915,0.87981 -2.09266,1.68322 -3.1722,2.32041c-0.35985,0.2124 -0.65394,0.28131 -1.10036,0.28801c-0.44644,0.00671 -0.80634,-0.01926 -1.21729,-0.25323c-0.41094,-0.23396 -2.29936,-1.18011 -3.63331,-2.09361c-0.4661,-0.31916 -0.91942,-0.44786 -1.02346,-0.99722z" data-paper-data="{&quot;origRot&quot;:0,&quot;origPos&quot;:null}" fill="url(#color-26)"/><path d="M213.95989,242.22922c-0.10405,-0.54933 0.37168,-0.75184 0.67191,-1.01142c0.90072,-0.77875 2.67352,-1.74526 3.41079,-2.12055c0.45873,-0.23351 0.61745,-0.4381 1.27981,-0.4695c0.66237,-0.03142 0.8606,0.10654 1.25033,0.34265c1.33305,0.80762 2.30348,1.18555 3.55423,2.07071c0.41691,0.29506 0.73379,0.52827 0.72853,1.02345c-0.00527,0.49518 -0.38774,0.64787 -0.74901,0.90029c-1.25915,0.87981 -2.09266,1.68323 -3.1722,2.32041c-0.35985,0.2124 -0.65392,0.28131 -1.10037,0.28802c-0.44644,0.00671 -0.80634,-0.01926 -1.2173,-0.25322c-0.41094,-0.23396 -2.29937,-1.18012 -3.6333,-2.09361c-0.4661,-0.31916 -0.91941,-0.44787 -1.02346,-0.99721z" data-paper-data="{&quot;origRot&quot;:0,&quot;origPos&quot;:null}" fill="url(#color-27)"/><path d="M221.3279,246.14616c-0.10405,-0.54933 0.37168,-0.75186 0.67192,-1.01145c0.90072,-0.77875 2.67352,-1.74524 3.41079,-2.12054c0.45873,-0.23351 0.61743,-0.4381 1.2798,-0.46953c0.66237,-0.03142 0.86061,0.10654 1.25035,0.34265c1.33305,0.80762 2.30348,1.18555 3.55423,2.07071c0.41691,0.29506 0.73381,0.52826 0.72854,1.02345c-0.00527,0.49518 -0.38774,0.64787 -0.74901,0.90029c-1.25915,0.87981 -2.09266,1.68322 -3.1722,2.32041c-0.35985,0.2124 -0.65392,0.28131 -1.10036,0.28801c-0.44644,0.00671 -0.80634,-0.01926 -1.21729,-0.25322c-0.41094,-0.23396 -2.29937,-1.18012 -3.63332,-2.09361c-0.4661,-0.31916 -0.9194,-0.44786 -1.02346,-0.99721z" data-paper-data="{&quot;origRot&quot;:0,&quot;origPos&quot;:null}" fill="url(#color-28)"/><path d="M229.2713,250.42969c-0.10405,-0.54933 0.37168,-0.75185 0.67191,-1.01144c0.90072,-0.77875 2.67352,-1.74524 3.41079,-2.12054c0.45873,-0.23351 0.61744,-0.4381 1.27981,-0.46953c0.66237,-0.03142 0.8606,0.10653 1.25032,0.34266c1.33305,0.80762 2.30349,1.18555 3.55424,2.07072c0.41691,0.29506 0.73381,0.52827 0.72854,1.02345c-0.00527,0.49518 -0.38774,0.64787 -0.74901,0.90029c-1.25915,0.87981 -2.09266,1.6832 -3.1722,2.32041c-0.35985,0.2124 -0.65392,0.28131 -1.10037,0.28802c-0.44644,0.00671 -0.80634,-0.01925 -1.2173,-0.25321c-0.41094,-0.23396 -2.29937,-1.18012 -3.63332,-2.09363c-0.4661,-0.31916 -0.91941,-0.44785 -1.02346,-0.99721z" data-paper-data="{&quot;origRot&quot;:0,&quot;origPos&quot;:null}" fill="url(#color-29)"/><path d="M236.46577,255.10727c-0.10405,-0.54933 0.37168,-0.75186 0.67192,-1.01144c0.90072,-0.77875 2.67352,-1.74526 3.41078,-2.12055c0.45873,-0.23351 0.61745,-0.43809 1.27981,-0.4695c0.66237,-0.03142 0.86061,0.10652 1.25034,0.34265c1.33305,0.80762 2.30348,1.18555 3.55423,2.07071c0.41691,0.29506 0.73379,0.52826 0.72853,1.02345c-0.00527,0.49518 -0.38773,0.64787 -0.749,0.90029c-1.25915,0.8798 -2.09266,1.68319 -3.17221,2.32041c-0.35985,0.2124 -0.65393,0.28131 -1.10037,0.28802c-0.44644,0.00671 -0.80634,-0.01925 -1.2173,-0.25321c-0.41094,-0.23396 -2.29937,-1.18012 -3.63331,-2.09362c-0.4661,-0.31916 -0.91941,-0.44785 -1.02345,-0.99721z" data-paper-data="{&quot;origRot&quot;:0,&quot;origPos&quot;:null}" fill="url(#color-30)"/><path d="M243.92642,258.92762c-0.10405,-0.54933 0.37168,-0.75186 0.67191,-1.01145c0.90072,-0.77875 2.67352,-1.74524 3.41079,-2.12054c0.45873,-0.23351 0.61744,-0.4381 1.27981,-0.46951c0.66237,-0.03142 0.8606,0.10652 1.25034,0.34265c1.33305,0.80762 2.30349,1.18555 3.55423,2.0707c0.41691,0.29506 0.73381,0.52827 0.72854,1.02345c-0.00527,0.49518 -0.38774,0.64787 -0.74901,0.90027c-1.25915,0.8798 -2.09266,1.68323 -3.17221,2.32042c-0.35985,0.2124 -0.65392,0.2813 -1.10036,0.288c-0.44644,0.00671 -0.80636,-0.01925 -1.21731,-0.25321c-0.41094,-0.23396 -2.29937,-1.18012 -3.63331,-2.09362c-0.4661,-0.31916 -0.9194,-0.44786 -1.02345,-0.99721z" data-paper-data="{&quot;origRot&quot;:0,&quot;origPos&quot;:null}" fill="url(#color-31)"/><path d="M251.77132,263.02396c-0.10405,-0.54933 0.37168,-0.75186 0.67191,-1.01145c0.90072,-0.77875 2.67352,-1.74525 3.41079,-2.12054c0.45873,-0.23351 0.61743,-0.43808 1.2798,-0.46949c0.66237,-0.03142 0.8606,0.10652 1.25034,0.34265c1.33305,0.80762 2.30349,1.18556 3.55424,2.07071c0.41691,0.29506 0.73381,0.52826 0.72854,1.02345c-0.00527,0.49518 -0.38774,0.64788 -0.74901,0.90029c-1.25915,0.8798 -2.09266,1.68322 -3.17221,2.32041c-0.35985,0.2124 -0.65393,0.2813 -1.10036,0.288c-0.44644,0.00671 -0.80636,-0.01924 -1.2173,-0.2532c-0.41095,-0.23396 -2.29938,-1.18012 -3.63331,-2.09363c-0.4661,-0.31916 -0.91941,-0.44785 -1.02346,-0.99721z" data-paper-data="{&quot;origRot&quot;:0,&quot;origPos&quot;:null}" fill="url(#color-32)"/><path d="M186.89632,218.32577c-0.10405,-0.54933 0.37168,-0.75185 0.67191,-1.01143c0.90072,-0.77875 2.67352,-1.74525 3.41079,-2.12054c0.45873,-0.23351 0.61743,-0.4381 1.2798,-0.46952c0.66237,-0.03142 0.8606,0.10652 1.25034,0.34265c1.33305,0.80762 2.30349,1.18554 3.55423,2.07071c0.41691,0.29506 0.73382,0.52827 0.72855,1.02345c-0.00527,0.49518 -0.38773,0.64787 -0.74902,0.90029c-1.25915,0.87981 -2.09264,1.68323 -3.17219,2.32041c-0.35985,0.2124 -0.65393,0.28131 -1.10037,0.28801c-0.44644,0.00671 -0.80634,-0.01926 -1.2173,-0.25323c-0.41094,-0.23396 -2.29938,-1.18012 -3.63332,-2.09363c-0.4661,-0.31916 -0.9194,-0.44786 -1.02346,-0.9972z" data-paper-data="{&quot;origRot&quot;:0,&quot;origPos&quot;:null}" fill="url(#color-33)"/><path d="M194.65053,222.61324c-0.10405,-0.54933 0.37168,-0.75186 0.67191,-1.01144c0.90072,-0.77875 2.67352,-1.74524 3.41079,-2.12052c0.45873,-0.23351 0.61745,-0.4381 1.27981,-0.46952c0.66237,-0.03142 0.8606,0.10652 1.25033,0.34265c1.33305,0.80762 2.30348,1.18554 3.55423,2.07071c0.41691,0.29506 0.73379,0.52826 0.72853,1.02345c-0.00527,0.49518 -0.38774,0.64787 -0.749,0.90029c-1.25915,0.87981 -2.09267,1.68321 -3.17221,2.32041c-0.35985,0.2124 -0.65393,0.28131 -1.10036,0.28801c-0.44644,0.00671 -0.80635,-0.01926 -1.2173,-0.25323c-0.41094,-0.23396 -2.29937,-1.18012 -3.6333,-2.09363c-0.4661,-0.31916 -0.91942,-0.44785 -1.02347,-0.99719z" data-paper-data="{&quot;origRot&quot;:0,&quot;origPos&quot;:null}" fill="#4f65db"/><path d="M202.40475,226.90068c-0.10405,-0.54933 0.37167,-0.75185 0.6719,-1.01143c0.90072,-0.77875 2.67353,-1.74524 3.4108,-2.12054c0.45873,-0.23351 0.61744,-0.4381 1.2798,-0.46953c0.66237,-0.03142 0.8606,0.10653 1.25032,0.34265c1.33305,0.80762 2.30349,1.18554 3.55423,2.0707c0.41691,0.29506 0.7338,0.52827 0.72854,1.02345c-0.00527,0.49518 -0.38774,0.64787 -0.74901,0.90029c-1.25915,0.87981 -2.09266,1.68322 -3.17221,2.32042c-0.35985,0.2124 -0.65393,0.2813 -1.10037,0.28801c-0.44644,0.00671 -0.80634,-0.01926 -1.2173,-0.25322c-0.41094,-0.23396 -2.29936,-1.18012 -3.6333,-2.09362c-0.4661,-0.31916 -0.91941,-0.44785 -1.02346,-0.9972z" data-paper-data="{&quot;origRot&quot;:0,&quot;origPos&quot;:null}" fill="url(#color-34)"/><path d="M209.86931,230.91025c-0.10405,-0.54933 0.37168,-0.75186 0.67191,-1.01145c0.90072,-0.77875 2.67352,-1.74524 3.41079,-2.12054c0.45873,-0.23351 0.61746,-0.4381 1.27982,-0.46953c0.66237,-0.03142 0.86061,0.10654 1.25033,0.34266c1.33305,0.80762 2.30348,1.18554 3.55423,2.0707c0.41691,0.29506 0.73381,0.52827 0.72854,1.02345c-0.00527,0.49518 -0.38774,0.64787 -0.74901,0.90029c-1.25915,0.87981 -2.09267,1.68319 -3.17221,2.32041c-0.35985,0.2124 -0.65392,0.28131 -1.10036,0.28802c-0.44644,0.00671 -0.80634,-0.01924 -1.2173,-0.2532c-0.41094,-0.23396 -2.29936,-1.18012 -3.6333,-2.09361c-0.4661,-0.31916 -0.91942,-0.44786 -1.02347,-0.99722z" data-paper-data="{&quot;origRot&quot;:0,&quot;origPos&quot;:null}" fill="url(#color-35)"/><path d="M217.52892,235.19965c-0.10405,-0.54933 0.37167,-0.75185 0.67191,-1.01145c0.90072,-0.77875 2.67352,-1.74525 3.4108,-2.12054c0.45873,-0.23351 0.61744,-0.4381 1.2798,-0.4695c0.66237,-0.03142 0.8606,0.10653 1.25033,0.34265c1.33305,0.80762 2.30349,1.18554 3.55423,2.07071c0.41691,0.29506 0.73382,0.52826 0.72856,1.02345c-0.00527,0.49518 -0.38774,0.64787 -0.74902,0.90029c-1.25915,0.87981 -2.09264,1.6832 -3.17219,2.32042c-0.35985,0.2124 -0.65394,0.28129 -1.10037,0.288c-0.44644,0.00671 -0.80633,-0.01925 -1.21729,-0.25321c-0.41094,-0.23396 -2.29937,-1.18012 -3.63331,-2.09362c-0.4661,-0.31916 -0.91942,-0.44785 -1.02347,-0.99721z" data-paper-data="{&quot;origRot&quot;:0,&quot;origPos&quot;:null}" fill="url(#color-36)"/><path d="M224.99935,239.493c-0.10405,-0.54933 0.37168,-0.75183 0.67191,-1.01142c0.90072,-0.77875 2.67352,-1.74526 3.41079,-2.12055c0.45873,-0.23351 0.61743,-0.43809 1.2798,-0.46952c0.66237,-0.03142 0.86061,0.10653 1.25035,0.34265c1.33305,0.80762 2.30349,1.18555 3.55424,2.07071c0.41691,0.29506 0.73382,0.52827 0.72854,1.02345c-0.00527,0.49518 -0.38774,0.64788 -0.74901,0.90028c-1.25915,0.87981 -2.09265,1.68323 -3.17219,2.32041c-0.35985,0.2124 -0.65395,0.2813 -1.10036,0.28801c-0.44644,0.00671 -0.80633,-0.01925 -1.21728,-0.25322c-0.41094,-0.23396 -2.2994,-1.18012 -3.63333,-2.09363c-0.4661,-0.31916 -0.91941,-0.44785 -1.02346,-0.99721z" data-paper-data="{&quot;origRot&quot;:0,&quot;origPos&quot;:null}" fill="#4fdb7d"/><path d="M232.7516,243.68586c-0.10405,-0.54933 0.37168,-0.75185 0.67191,-1.01143c0.90072,-0.77875 2.67352,-1.74525 3.41079,-2.12055c0.45873,-0.23351 0.61744,-0.4381 1.27981,-0.46952c0.66237,-0.03142 0.8606,0.10653 1.25033,0.34265c1.33305,0.80762 2.3035,1.18555 3.55424,2.07071c0.41691,0.29506 0.73379,0.52827 0.72853,1.02345c-0.00527,0.49518 -0.38774,0.64787 -0.74901,0.90029c-1.25915,0.87981 -2.09267,1.68323 -3.17221,2.32042c-0.35985,0.2124 -0.65392,0.2813 -1.10036,0.28801c-0.44644,0.00671 -0.80634,-0.01925 -1.21729,-0.25321c-0.41094,-0.23396 -2.29936,-1.18012 -3.63331,-2.09361c-0.4661,-0.31916 -0.91942,-0.44786 -1.02347,-0.9972z" data-paper-data="{&quot;origRot&quot;:0,&quot;origPos&quot;:null}" fill="url(#color-37)"/><path d="M240.11961,247.60277c-0.10405,-0.54933 0.37168,-0.75186 0.67192,-1.01144c0.90072,-0.77875 2.67352,-1.74524 3.41079,-2.12055c0.45873,-0.23351 0.61743,-0.4381 1.2798,-0.46953c0.66237,-0.03142 0.86061,0.10653 1.25035,0.34265c1.33305,0.80762 2.30348,1.18555 3.55423,2.07071c0.41691,0.29506 0.73382,0.52827 0.72855,1.02345c-0.00527,0.49518 -0.38774,0.64787 -0.74901,0.90029c-1.25915,0.87981 -2.09265,1.68323 -3.17219,2.32041c-0.35985,0.2124 -0.65394,0.28131 -1.10037,0.28801c-0.44644,0.00671 -0.80634,-0.01926 -1.21729,-0.25323c-0.41094,-0.23396 -2.29937,-1.18012 -3.63332,-2.09361c-0.4661,-0.31916 -0.91941,-0.44787 -1.02345,-0.99721z" data-paper-data="{&quot;origRot&quot;:0,&quot;origPos&quot;:null}" fill="url(#color-38)"/><path d="M189.89661,237.78237c-0.10405,-0.54933 0.37167,-0.75186 0.67191,-1.01144c0.90072,-0.77875 2.67353,-1.74525 3.4108,-2.12054c0.45873,-0.23351 0.61743,-0.43809 1.2798,-0.46952c0.66237,-0.03142 0.86061,0.10654 1.25035,0.34265c1.33305,0.80762 27.97856,15.72512 29.22931,16.61028c0.41691,0.29506 0.73381,0.52827 0.72854,1.02345c-0.00527,0.49518 -0.38774,0.64787 -0.74901,0.90029c-1.25915,0.87981 -2.09264,1.6832 -3.17219,2.32041c-0.35985,0.2124 -0.65393,0.2813 -1.10037,0.28801c-0.44644,0.00671 -0.80634,-0.01925 -1.2173,-0.25321c-0.41094,-0.23396 -27.97445,-15.71969 -29.30839,-16.63319c-0.4661,-0.31916 -0.91941,-0.44786 -1.02346,-0.99721z" data-paper-data="{&quot;origRot&quot;:0,&quot;origPos&quot;:null}" fill="url(#color-39)"/><path d="M177.11027,230.45047c-0.10405,-0.54933 0.37167,-0.75185 0.67191,-1.01145c0.90072,-0.77875 2.67353,-1.74525 3.4108,-2.12054c0.45873,-0.23351 0.61743,-0.43809 1.2798,-0.4695c0.66237,-0.03141 0.8606,0.10652 1.25032,0.34265c1.33305,0.80761 6.35077,3.19619 7.60151,4.08135c0.41691,0.29506 0.73381,0.52827 0.72854,1.02345c-0.00527,0.49518 -0.38774,0.64788 -0.74901,0.90028c-1.25915,0.87982 -2.09266,1.68323 -3.17221,2.32041c-0.35985,0.2124 -0.65392,0.2813 -1.10036,0.288c-0.44644,0.00671 -0.80635,-0.01926 -1.2173,-0.25321c-0.41094,-0.23396 -6.34667,-3.19076 -7.68059,-4.10427c-0.4661,-0.3192 -0.91942,-0.44785 -1.02346,-0.99721z" data-paper-data="{&quot;origRot&quot;:0,&quot;origPos&quot;:null}" fill="url(#color-40)"/><path d="M161.83766,222.11063c-0.10405,-0.54933 0.37168,-0.75186 0.67191,-1.01145c0.90073,-0.77875 2.67353,-1.74524 3.41079,-2.12054c0.45872,-0.23351 0.61744,-0.4381 1.2798,-0.4695c0.66238,-0.03141 0.86061,0.10653 1.25034,0.34266c1.33305,0.80761 8.67092,4.9057 9.92167,5.79087c0.41691,0.29506 0.73381,0.52827 0.72854,1.02345c-0.00527,0.49518 -0.38774,0.64787 -0.74901,0.90028c-1.25915,0.87982 -2.09266,1.68322 -3.17221,2.32041c-0.35985,0.2124 -0.65392,0.2813 -1.10036,0.28801c-0.44644,0.00671 -0.80636,-0.01926 -1.21731,-0.25321c-0.41094,-0.23396 -8.66681,-4.90029 -10.00074,-5.81379c-0.4661,-0.3192 -0.91942,-0.44786 -1.02346,-0.99721z" data-paper-data="{&quot;origRot&quot;:0,&quot;origPos&quot;:null}" fill="url(#color-41)"/><path d="M184.39584,208.11101c-0.10405,-0.54933 0.37167,-0.75186 0.67191,-1.01145c0.90072,-0.77875 2.67352,-1.74524 3.4108,-2.12054c0.45873,-0.23351 0.61744,-0.4381 1.2798,-0.46952c0.66237,-0.03141 0.86061,0.10654 1.25032,0.34266c2.33694,1.4158 8.4918,4.77895 9.92168,5.79087c0.41691,0.29506 0.73379,0.52826 0.72853,1.02344c-0.00527,0.49518 -0.38774,0.64787 -0.749,0.90028c-1.25915,0.87982 -2.09266,1.68322 -3.17221,2.32041c-0.35985,0.2124 -0.65392,0.2813 -1.10036,0.28801c-0.44644,0.00671 -0.80634,-0.01927 -1.2173,-0.25321c-0.41094,-0.23396 -8.66682,-4.90029 -10.00075,-5.81379c-0.4661,-0.3192 -0.91941,-0.44786 -1.02346,-0.99721z" data-paper-data="{&quot;origRot&quot;:0,&quot;origPos&quot;:null}" fill="url(#color-42)"/><path d="M176.49358,212.50052c-0.09251,-0.48837 0.33043,-0.66842 0.59736,-0.89921c0.80078,-0.69233 2.37687,-1.55159 3.03233,-1.88523c0.40781,-0.20761 0.54891,-0.3895 1.1378,-0.41742c0.58889,-0.02794 0.76512,0.0947 1.11159,0.30462c1.18514,0.718 5.64612,2.84156 6.75808,3.6285c0.37063,0.26233 0.65238,0.46965 0.6477,0.90989c-0.00468,0.44024 -0.34471,0.576 -0.6659,0.80039c-1.11946,0.78218 -1.86046,1.49645 -2.82022,2.06295c-0.31993,0.18883 -0.58137,0.2501 -0.97827,0.25606c-0.39689,0.00596 -0.71686,-0.01712 -1.08223,-0.2251c-0.36536,-0.208 -5.64246,-2.83674 -6.82839,-3.64888c-0.41438,-0.28378 -0.8174,-0.39817 -0.9099,-0.88656z" data-paper-data="{&quot;origRot&quot;:0,&quot;origPos&quot;:null}" fill="url(#color-43)"/><path d="M245.12514,268.02169c-0.10405,-0.54933 0.37168,-0.75184 0.67191,-1.01143c0.90072,-0.77875 2.67352,-1.74525 3.41079,-2.12054c0.45873,-0.23351 0.61744,-0.43809 1.2798,-0.46952c0.66237,-0.03142 0.8606,0.10652 1.25033,0.34265c1.33305,0.80762 2.30348,1.18554 3.55423,2.0707c0.41691,0.29506 0.73382,0.52826 0.72855,1.02345c-0.00527,0.49518 -0.38776,0.64787 -0.74901,0.9003c-1.25915,0.8798 -2.09266,1.68322 -3.17221,2.32041c-0.35985,0.21238 -0.65393,0.2813 -1.10037,0.28801c-0.44644,0.00671 -0.80634,-0.01925 -1.2173,-0.25322c-0.41094,-0.23396 -2.29938,-1.18012 -3.63332,-2.09361c-0.4661,-0.31916 -0.91941,-0.44787 -1.02347,-0.99721z" data-paper-data="{&quot;origRot&quot;:0,&quot;origPos&quot;:null}" fill="url(#color-44)"/><path d="M237.1288,263.7933c-0.10405,-0.54933 0.37168,-0.75184 0.67192,-1.01142c0.90072,-0.77875 2.67352,-1.74525 3.41079,-2.12054c0.45873,-0.23351 0.61744,-0.43809 1.27981,-0.46952c0.66237,-0.03142 0.8606,0.10652 1.25033,0.34265c1.33305,0.80762 2.30349,1.18555 3.55424,2.07071c0.41691,0.29506 0.7338,0.52826 0.72853,1.02345c-0.00527,0.49518 -0.38775,0.64787 -0.74901,0.9003c-1.25915,0.8798 -2.09266,1.68322 -3.17221,2.32041c-0.35985,0.2124 -0.65393,0.28131 -1.10037,0.28802c-0.44644,0.00671 -0.80634,-0.01925 -1.2173,-0.25322c-0.41094,-0.23396 -2.29937,-1.18012 -3.63332,-2.09363c-0.4661,-0.31916 -0.91942,-0.44786 -1.02346,-0.99721z" data-paper-data="{&quot;origRot&quot;:0,&quot;origPos&quot;:null}" fill="url(#color-45)"/><path d="M224.41105,257.06498c-0.10405,-0.54933 0.37168,-0.75186 0.67191,-1.01144c0.90072,-0.77875 2.67352,-1.74525 3.41079,-2.12055c0.45873,-0.23351 0.61744,-0.43809 1.27981,-0.46952c0.66237,-0.03141 0.86062,0.10653 1.25032,0.34265c1.33305,0.80761 6.35077,3.19619 7.60152,4.08135c0.41691,0.29506 0.73381,0.52825 0.72854,1.02345c-0.00527,0.49518 -0.38774,0.64788 -0.74901,0.90028c-1.25915,0.87982 -2.09266,1.68323 -3.17221,2.32041c-0.35985,0.2124 -0.65393,0.28131 -1.10037,0.28801c-0.44644,0.00671 -0.80634,-0.01926 -1.2173,-0.2532c-0.41094,-0.23396 -6.34667,-3.19077 -7.6806,-4.10427c-0.4661,-0.31919 -0.91941,-0.44786 -1.02347,-0.99721z" data-paper-data="{&quot;origRot&quot;:0,&quot;origPos&quot;:null}" fill="url(#color-46)"/><path d="M280.31129,256.71826c-0.11158,-0.58896 0.39849,-0.8061 0.72039,-1.08441c0.96573,-0.83494 0.26065,-0.30979 1.05111,-0.71216c0.49183,-0.25036 0.66198,-0.4697 1.37212,-0.50338c0.71015,-0.03368 0.9227,0.11421 1.34055,0.36737c1.42922,0.86589 2.46968,1.2711 3.81066,2.2201c0.447,0.31634 0.78676,0.56636 0.78111,1.09727c-0.00565,0.53092 -0.41571,0.69461 -0.80307,0.96525c-1.35001,0.94326 -1.49641,1.22806 -1.97505,1.23524c-0.47866,0.00717 -0.86453,-0.02064 -1.30512,-0.27147c-0.44061,-0.25085 -2.46528,-1.26527 -3.89547,-2.24466c-0.49973,-0.3422 -0.98576,-0.48018 -1.0973,-1.06916z" data-paper-data="{&quot;origRot&quot;:0,&quot;origPos&quot;:null}" fill="url(#color-47)"/><path d="M293.50164,257.14833c-0.11158,-0.58896 0.39849,-0.80611 0.72039,-1.08442c0.96573,-0.83494 0.26065,-0.3098 1.05111,-0.71216c0.49183,-0.25036 0.66199,-0.4697 1.37213,-0.50338c0.71015,-0.03368 0.92271,0.11422 1.34055,0.36738c1.42922,0.86589 2.46969,1.27109 3.81066,2.22009c0.447,0.31634 0.78677,0.56636 0.78112,1.09729c-0.00565,0.53092 -0.41571,0.6946 -0.80304,0.96524c-1.35001,0.94326 -1.49642,1.22808 -1.97506,1.23526c-0.47866,0.00717 -0.86453,-0.02064 -1.30513,-0.27148c-0.44059,-0.25085 -2.46527,-1.26527 -3.89546,-2.24466c-0.49973,-0.3422 -0.98577,-0.48019 -1.09731,-1.06916z" data-paper-data="{&quot;origRot&quot;:0,&quot;origPos&quot;:null}" fill="url(#color-48)"/><path d="M301.58943,261.55057c-0.11158,-0.58896 0.39848,-0.8061 0.72039,-1.08442c0.96573,-0.83493 0.26065,-0.3098 1.05111,-0.71217c0.49183,-0.25036 0.66199,-0.4697 1.37213,-0.50338c0.71017,-0.03368 0.92271,0.1142 1.34054,0.36736c1.42924,0.86589 2.4697,1.2711 3.81067,2.2201c0.447,0.31634 0.78676,0.56637 0.78111,1.09729c-0.00565,0.53092 -0.41571,0.6946 -0.80304,0.96524c-1.35001,0.94326 -1.49641,1.22809 -1.97507,1.23526c-0.47866,0.00717 -0.86452,-0.02065 -1.30512,-0.27149c-0.44059,-0.25085 -2.46528,-1.26527 -3.89547,-2.24467c-0.49973,-0.3422 -0.98576,-0.48016 -1.0973,-1.06916z" data-paper-data="{&quot;origRot&quot;:0,&quot;origPos&quot;:null}" fill="url(#color-49)"/><path d="M287.86663,260.86789c-0.11158,-0.58896 0.39848,-0.80611 0.72039,-1.08442c0.96573,-0.83493 0.26065,-0.3098 1.05111,-0.71216c0.49183,-0.25036 0.66198,-0.4697 1.37213,-0.50338c0.71015,-0.03368 0.92271,0.11421 1.34055,0.36737c1.42922,0.86589 2.46969,1.2711 3.81066,2.22011c0.447,0.31634 0.78677,0.56636 0.78111,1.0973c-0.00565,0.53092 -0.41571,0.69461 -0.80303,0.96526c-1.35001,0.94326 -1.49642,1.22809 -1.97508,1.23525c-0.47866,0.00717 -0.86453,-0.02065 -1.30513,-0.27148c-0.44059,-0.25085 -2.46529,-1.26528 -3.89547,-2.24468c-0.49973,-0.3422 -0.98576,-0.48016 -1.0973,-1.06915z" data-paper-data="{&quot;origRot&quot;:0,&quot;origPos&quot;:null}" fill="url(#color-50)"/><path d="M295.69094,265.27556c-0.11158,-0.58896 0.39848,-0.8061 0.72039,-1.08442c0.96573,-0.83493 0.26065,-0.3098 1.05111,-0.71216c0.49183,-0.25036 0.66199,-0.4697 1.37214,-0.50338c0.71015,-0.03368 0.92271,0.11421 1.34054,0.36736c1.42922,0.86589 2.46969,1.27109 3.81067,2.22009c0.447,0.31634 0.78677,0.56637 0.78111,1.0973c-0.00565,0.53092 -0.4157,0.6946 -0.80304,0.96524c-1.35001,0.94326 -1.49642,1.22807 -1.97506,1.23525c-0.47866,0.00719 -0.86453,-0.02065 -1.30513,-0.27149c-0.44059,-0.25084 -2.46528,-1.26527 -3.89546,-2.24467c-0.49973,-0.3422 -0.98575,-0.48017 -1.0973,-1.06916z" data-paper-data="{&quot;origRot&quot;:0,&quot;origPos&quot;:null}" fill="url(#color-51)"/><path d="M285.49984,252.6565c-0.11158,-0.58896 0.39848,-0.80611 0.72039,-1.08442c0.96573,-0.83494 0.26065,-0.3098 1.05112,-0.71216c0.49183,-0.25036 0.66198,-0.4697 1.37214,-0.50338c0.71015,-0.03368 0.92271,0.11421 1.34055,0.36736c1.42922,0.86589 2.46968,1.27109 3.81066,2.22009c0.447,0.31634 0.78678,0.56637 0.78111,1.09729c-0.00565,0.53092 -0.41571,0.69461 -0.80304,0.96525c-1.35001,0.94326 -1.49642,1.22809 -1.97506,1.23525c-0.47866,0.00717 -0.86453,-0.02065 -1.30513,-0.27147c-0.44059,-0.25085 -2.46527,-1.26528 -3.89546,-2.24468c-0.49973,-0.3422 -0.98576,-0.48017 -1.0973,-1.06916z" data-paper-data="{&quot;origRot&quot;:0,&quot;origPos&quot;:null}" fill="url(#color-52)"/><path d="M253.30442,272.59774c-0.10405,-0.54933 0.37168,-0.75186 0.67192,-1.01144c0.90072,-0.77874 2.67352,-1.74525 3.41078,-2.12053c0.45873,-0.23351 0.61744,-0.43809 1.27981,-0.46952c0.66237,-0.03142 0.86061,0.10653 1.25035,0.34265c1.33305,0.80762 2.30348,1.18554 3.55423,2.0707c0.41691,0.29506 0.73383,0.52826 0.72854,1.02345c-0.00527,0.4952 -0.38776,0.64787 -0.74901,0.90029c-1.25915,0.8798 -2.09267,1.68322 -3.17221,2.32042c-0.35985,0.21238 -0.65392,0.2813 -1.10035,0.28801c-0.44644,0.00671 -0.80636,-0.01925 -1.21731,-0.25322c-0.41095,-0.23396 -2.29937,-1.18012 -3.63331,-2.09361c-0.4661,-0.31919 -0.91941,-0.44786 -1.02346,-0.9972z" data-paper-data="{&quot;origRot&quot;:0,&quot;origPos&quot;:null}" fill="url(#color-53)"/><path d="M260.781,277.18843c-0.10406,-0.54933 0.37169,-0.75186 0.67192,-1.01145c0.90073,-0.77875 2.67352,-1.74525 3.41078,-2.12054c0.45872,-0.23351 0.61745,-0.43809 1.27981,-0.4695c0.66237,-0.03143 0.86061,0.10652 1.25035,0.34265c1.33306,0.80762 2.30348,1.18554 3.55422,2.0707c0.4169,0.29506 0.73381,0.52827 0.72854,1.02345c-0.00527,0.4952 -0.38775,0.64787 -0.74901,0.90029c-1.25915,0.8798 -2.09267,1.68322 -3.17221,2.32041c-0.35985,0.21238 -0.65392,0.2813 -1.10035,0.28801c-0.44642,0.00671 -0.80635,-0.01925 -1.2173,-0.25321c-0.41095,-0.23396 -2.29937,-1.18012 -3.63332,-2.0936c-0.4661,-0.31919 -0.91942,-0.44787 -1.02347,-0.99722z" data-paper-data="{&quot;origRot&quot;:0,&quot;origPos&quot;:null}" fill="url(#color-54)"/><path d="M268.86338,281.32714c-0.10406,-0.54933 0.37167,-0.75186 0.67191,-1.01144c0.90073,-0.77874 2.67353,-1.74525 3.41079,-2.12052c0.45872,-0.23351 0.61744,-0.43809 1.27981,-0.4695c0.66237,-0.03143 0.8606,0.10652 1.25032,0.34264c1.33306,0.80762 2.3035,1.18556 3.55425,2.07071c0.4169,0.29506 0.73381,0.52825 0.72853,1.02345c-0.00527,0.4952 -0.38775,0.64787 -0.74901,0.9003c-1.25915,0.8798 -2.09266,1.68321 -3.17221,2.32041c-0.35985,0.21238 -0.65393,0.28131 -1.10037,0.28802c-0.44642,0.00671 -0.80634,-0.01925 -1.21729,-0.25322c-0.41095,-0.23396 -2.29937,-1.18012 -3.63333,-2.09361c-0.4661,-0.31919 -0.91941,-0.44787 -1.02345,-0.99721z" data-paper-data="{&quot;origRot&quot;:0,&quot;origPos&quot;:null}" fill="url(#color-55)"/><path d="M268.76039,272.10222c-0.10406,-0.54933 0.37167,-0.75184 0.67191,-1.01142c0.90073,-0.77875 2.67353,-1.74525 3.41079,-2.12054c0.45872,-0.23351 0.61744,-0.4381 1.2798,-0.46952c0.66237,-0.03142 0.86061,0.10652 1.25035,0.34265c1.33306,0.80762 2.30349,1.18555 3.55422,2.0707c0.4169,0.29506 0.73381,0.52827 0.72854,1.02345c-0.00527,0.4952 -0.38775,0.64786 -0.74901,0.90027c-1.25915,0.8798 -2.09266,1.68323 -3.17221,2.32042c-0.35985,0.21238 -0.65393,0.2813 -1.10037,0.28801c-0.44642,0.00671 -0.80634,-0.01925 -1.2173,-0.25322c-0.41095,-0.23396 -2.29937,-1.18012 -3.63331,-2.09361c-0.4661,-0.31919 -0.91942,-0.44786 -1.02347,-0.9972z" data-paper-data="{&quot;origRot&quot;:0,&quot;origPos&quot;:null}" fill="url(#color-56)"/><g data-paper-data="{&quot;origPos&quot;:null}"><g data-paper-data="{&quot;origPos&quot;:null,&quot;index&quot;:null}" fill="url(#color-57)"><path d="M278.20637,254.82887c-0.08123,0.55319 -0.52885,0.70049 -0.98135,1.03868c-1.29501,0.96789 -9.92818,6.02757 -10.3291,6.27832c-0.40092,0.25076 -0.75945,0.29158 -1.20577,0.30335c-0.44632,0.01177 -0.74301,-0.04493 -1.11133,-0.24226c-1.10497,-0.592 -1.97099,-1.36026 -3.26546,-2.18722c-0.37138,-0.23725 -0.75986,-0.37397 -0.7856,-0.86852c-0.02574,-0.49455 0.28124,-0.74066 0.68559,-1.05271c1.21306,-0.93612 8.95254,-5.39012 10.25104,-6.25217c0.37963,-0.25204 0.57197,-0.39805 1.23507,-0.39406c0.6631,0.00399 0.83013,0.20183 1.29814,0.41616c0.75216,0.34448 2.5634,1.23684 3.49559,1.97767c0.31072,0.24695 0.79442,0.42962 0.71317,0.98277z" data-paper-data="{&quot;origRot&quot;:0,&quot;origPos&quot;:null}"/></g><g data-paper-data="{&quot;origPos&quot;:null}" fill="url(#color-58)"><path d="M260.26728,250.484c-0.10406,-0.54933 0.37167,-0.75186 0.67191,-1.01145c0.90073,-0.77875 2.67353,-1.74525 3.41079,-2.12055c0.45874,-0.23351 0.61743,-0.4381 1.2798,-0.4695c0.66237,-0.03142 0.86062,0.10654 1.25032,0.34266c1.34421,0.81438 7.9581,4.02333 10.50084,5.82283c0.4169,0.29506 0.73383,0.52827 0.72854,1.02345c-0.00527,0.49518 -0.38775,0.64787 -0.74901,0.90027c-1.25915,0.87981 -2.09267,1.68323 -3.1722,2.32041c-0.35985,0.2124 -0.65392,0.2813 -1.10036,0.28801c-0.44642,0.00671 -0.80633,-0.01925 -1.21729,-0.25322c-0.41095,-0.23396 -9.24602,-4.93225 -10.57996,-5.84573c-0.4661,-0.31916 -0.9194,-0.44785 -1.02345,-0.99721z" data-paper-data="{&quot;origRot&quot;:0,&quot;origPos&quot;:null}"/></g></g></g></g></svg>