<svg version="1.1" xmlns="http://www.w3.org/2000/svg" xmlns:xlink="http://www.w3.org/1999/xlink" width="170.6998" height="96.9572" viewBox="0,0,170.6998,96.9572"><g transform="translate(-154.23702,-197.13782)"><g data-paper-data="{&quot;isPaintingLayer&quot;:true}" fill-rule="nonzero" stroke-linejoin="miter" stroke-miterlimit="10" stroke-dasharray="" stroke-dashoffset="0" style="mix-blend-mode: normal"><path d="M318.15581,203.54112c0,0 13.74076,13.07405 -1.14634,31.68293c-16.33393,20.41741 -37.85366,7.31707 -37.85366,7.31707" data-paper-data="{&quot;origPos&quot;:null}" fill="none" stroke="#000000" stroke-width="2" stroke-linecap="round"/><path d="M155.41954,222.05421c1.99502,-1.30491 23.32997,-12.20056 37.47582,-21.40773c1.26264,-0.82181 2.10529,-1.17308 3.60125,-1.41037c1.49596,-0.23728 2.24659,-0.01714 2.99884,0.36354c47.91544,24.24802 118.05063,64.66886 121.38852,66.55665c1.11264,0.62925 1.40508,1.49779 1.29167,2.69922c-0.11341,1.20142 -0.73635,1.85363 -1.78148,2.48949c-14.76278,8.98143 -35.8009,20.77376 -37.85372,21.92508c-0.68427,0.38376 -1.44624,0.7875 -2.45979,0.82208c-1.01355,0.03457 -2.00461,-0.24909 -2.7301,-0.64505c0,0 -118.28068,-65.20267 -120.66531,-66.52872c-0.79488,-0.44201 -2.2003,-1.32061 -2.40992,-2.17943c-0.20963,-0.85882 0.47921,-2.24981 1.1442,-2.68476z" data-paper-data="{&quot;origRot&quot;:0,&quot;origPos&quot;:null}" fill="#0ccca3" stroke="none" stroke-width="0" stroke-linecap="butt"/><path d="M155.41954,220.05421c1.99502,-1.30491 23.32997,-12.20056 37.47582,-21.40773c1.26264,-0.82181 2.10529,-1.17308 3.60125,-1.41037c1.49596,-0.23728 2.24659,-0.01714 2.99884,0.36354c47.91544,24.24802 118.05063,64.66886 121.38852,66.55665c1.11264,0.62925 1.40508,1.49779 1.29167,2.69922c-0.11341,1.20142 -0.73635,1.85363 -1.78148,2.48949c-14.76278,8.98143 -35.8009,20.77376 -37.85372,21.92508c-0.68427,0.38376 -1.44624,0.7875 -2.45979,0.82208c-1.01355,0.03457 -2.00461,-0.24909 -2.7301,-0.64505c0,0 -118.28068,-65.20267 -120.66531,-66.52872c-0.79488,-0.44201 -2.2003,-1.32061 -2.40992,-2.17943c-0.20963,-0.85882 0.47921,-2.24981 1.1442,-2.68476z" data-paper-data="{&quot;origRot&quot;:0,&quot;origPos&quot;:null}" fill="#044738" stroke="none" stroke-width="0" stroke-linecap="butt"/></g></g></svg>