<svg version="1.1" xmlns="http://www.w3.org/2000/svg" xmlns:xlink="http://www.w3.org/1999/xlink" width="173.06519" height="157.79394" viewBox="0,0,173.06519,157.79394"><defs><linearGradient x1="203.6104" y1="135.03418" x2="376.17559" y2="135.03418" gradientUnits="userSpaceOnUse" id="color-1"><stop offset="0" stop-color="#1d937a"/><stop offset="1" stop-color="#000000"/></linearGradient></defs><g transform="translate(-203.6104,-56.13721)"><g data-paper-data="{&quot;isPaintingLayer&quot;:true}" stroke="none" stroke-linecap="butt" stroke-linejoin="miter" stroke-miterlimit="10" stroke-dasharray="" stroke-dashoffset="0" style="mix-blend-mode: normal"><path d="M204.1104,147.44663l29.5414,-91.30942l143.02379,59.83781l-41.79336,97.95613z" data-paper-data="{&quot;origPos&quot;:null}" fill="#ab3e3e" fill-rule="nonzero" stroke-width="0"/><path d="M203.6104,147.44663l29.5414,-91.30942l143.02379,59.83781l-41.79336,97.95613z" data-paper-data="{&quot;origPos&quot;:null}" fill="url(#color-1)" fill-rule="nonzero" stroke-width="0"/><g fill-rule="evenodd" stroke-width="1"><path d="M272.47911,104.98018c0.04739,0.02113 0.09492,0.04232 0.14231,0.06345c-0.06885,0.08363 -0.11638,0.06244 -0.14231,-0.06345z" fill="#2caa7c" opacity="0.008"/><path d="M294.47355,114.95693c0.02115,-0.04744 0.0423,-0.09487 0.06345,-0.14231c4.74358,2.11491 9.48731,4.22989 14.23089,6.34481c-0.06345,0.14231 -0.1269,0.28462 -0.19034,0.42693c-0.14094,-0.00454 -0.23077,0.06914 -0.2692,0.22117c-0.14094,-0.00454 -0.23077,0.06914 -0.26921,0.22117c-0.2301,-0.02189 -0.38847,0.0781 -0.47496,0.30003c-0.14094,-0.00454 -0.23077,0.06914 -0.2692,0.22117c-0.14094,-0.00454 -0.23077,0.06914 -0.26921,0.22117c-0.09492,-0.04232 -0.16345,-0.01601 -0.20576,0.07886c-0.14094,-0.00454 -0.23077,0.06914 -0.26921,0.22117c-0.14094,-0.00454 -0.23077,0.06914 -0.2692,0.22117c-0.16346,-0.01602 -0.30068,0.03654 -0.41151,0.15772c-1.59456,-0.7676 -3.2285,-1.43921 -4.90195,-2.01492c-0.02085,0.09421 0.00539,0.16277 0.07886,0.20576c0.16446,0.42701 0.2535,0.86477 0.26741,1.3134c-0.01659,0.32114 0.00939,0.64548 0.07796,0.97304c-2.22614,-2.7113 -4.31629,-5.54818 -6.27072,-8.51078c-0.17221,-0.21486 -0.38829,-0.36806 -0.6481,-0.45955z" fill="#090a09" opacity="0.766"/><path d="M281.8715,109.16775c0.85385,0.38069 1.70771,0.76138 2.56156,1.14207c-0.2153,0.01685 -0.4473,0.02715 -0.69613,0.03083c-0.0907,0.46477 0.0067,0.56506 0.29232,0.30093c0.07842,0.24998 0.02817,0.4266 -0.15091,0.52981c0.33724,0.26409 0.29494,0.35896 -0.1269,0.28462c0.29893,0.23368 0.34607,0.51059 0.14141,0.83073c0.03896,0.28492 -0.04302,0.5327 -0.24608,0.74327c-0.19907,-0.18562 -0.35156,-0.48106 -0.45775,-0.88647c-0.24806,0.17374 -0.49611,0.34746 -0.74417,0.5212c0.03646,-0.53022 -0.17675,-0.88118 -0.63949,-1.0528c0.07377,0.08975 0.1474,0.17946 0.22117,0.26921c-0.14958,0.04775 -0.24998,0.14514 -0.30093,0.29232c-0.18919,-0.59614 -0.37825,-1.19222 -0.56744,-1.78836c0.13223,-0.41979 0.14854,-0.83901 0.04894,-1.25766c0.23504,0.06896 0.45646,0.08238 0.66441,0.04033z" fill="#16a391" opacity="0.769"/><path d="M284.43306,110.30981c0.56923,0.25379 1.13847,0.50758 1.70771,0.76138c-0.1573,0.06087 -0.33134,0.06858 -0.5221,0.02312c0.29103,0.36774 0.44875,0.77925 0.47317,1.23454c-0.29199,0.22942 -0.29238,0.48514 -0.0009,0.76729c-0.03251,0.32776 -0.14883,0.58865 -0.34896,0.7827c-0.10288,0.03943 -0.20576,0.07886 -0.30863,0.11829c-0.24867,-0.79104 -0.45705,-0.77021 -0.62498,0.06255c-0.16992,-0.40291 -0.40689,-0.76446 -0.71065,-1.08453c0.11607,-0.00511 0.232,-0.0103 0.34807,-0.01541c-0.15512,-0.25588 -0.33948,-0.48023 -0.55293,-0.67301c0.20466,-0.32015 0.15753,-0.59705 -0.14141,-0.83073c0.42184,0.07434 0.46414,-0.02053 0.1269,-0.28462c0.17908,-0.10321 0.22934,-0.27983 0.15091,-0.52981c-0.28563,0.26413 -0.38302,0.16384 -0.29232,-0.30093c0.24884,-0.00368 0.48083,-0.01397 0.69613,-0.03083z" fill="#0d8b74" opacity="0.769"/><path d="M286.42539,111.19809c0.61662,0.27492 1.23339,0.5499 1.85002,0.82482c0.32165,0.2669 0.64818,0.55465 0.97985,0.86336c0.04788,0.90774 0.30522,1.7333 0.7723,2.47679c-0.17952,0.14742 -0.38527,0.22628 -0.61727,0.23658c-0.32182,0.08397 -0.64351,0.16803 -0.96534,0.252c-0.16649,-1.30865 -0.44447,-2.59834 -0.83395,-3.86905c-0.44322,-0.22841 -0.83843,-0.4899 -1.18561,-0.7845z" fill="#03674d" opacity="0.769"/><path d="M288.2754,112.02291c2.08725,0.93059 4.17435,1.86112 6.26159,2.79171c-0.02115,0.04744 -0.0423,0.09487 -0.06345,0.14231c-0.28959,-0.07864 -0.56911,-0.08953 -0.83844,-0.03262c-0.32522,-0.1024 -0.6259,-0.06586 -0.90189,0.10968c-0.58151,-0.0445 -1.13533,0.04977 -1.66147,0.28282c-0.34807,0.01541 -0.69613,0.03083 -1.0442,0.04624c-0.46708,-0.7435 -0.72442,-1.56905 -0.7723,-2.47679c-0.33167,-0.30871 -0.6582,-0.59645 -0.97985,-0.86336z" fill="#015039" opacity="0.769"/><path d="M294.47355,114.95693c0.2598,0.09149 0.47588,0.24469 0.6481,0.45955c1.95442,2.96261 4.04457,5.79948 6.27072,8.51078c-0.06857,-0.32756 -0.09456,-0.65191 -0.07796,-0.97304c0.39498,1.0311 0.72075,2.08619 0.97716,3.16522c-0.17838,0.05533 -0.33674,0.15532 -0.47496,0.30003c-1.0638,-1.13002 -1.95619,-2.38087 -2.67716,-3.75256c-0.08978,0.05482 -0.18208,0.07053 -0.27691,0.04714c-1.00405,-0.78345 -2.14761,-1.40703 -3.43083,-1.87082c0.60288,0.10103 1.19327,0.30738 1.77116,0.61907c0.55649,0.30342 1.14687,0.50978 1.77115,0.61907c-1.74893,-2.48987 -3.52861,-4.87559 -5.3389,-7.15705c0.26933,-0.05691 0.54885,-0.04602 0.83844,0.03262z" fill="#101814" opacity="0.769"/><path d="M308.71985,121.64981c0.02824,-0.11346 0.09431,-0.19774 0.19805,-0.25289c0.03904,0.17722 -0.02703,0.26149 -0.19805,0.25289z" fill="#2caa7c" opacity="0.008"/><path d="M272.36763,105.61286c-0.1207,-0.12147 -0.10217,-0.22694 0.05574,-0.31634c0.02832,0.11403 0.00978,0.2195 -0.05574,0.31634z" fill="#e4f7ef" opacity="0.004"/><path d="M308.57755,121.58636c0.04739,0.02113 0.09492,0.04232 0.14231,0.06345c-0.03844,0.15203 -0.12827,0.22571 -0.2692,0.22117c0.0423,-0.09487 0.0846,-0.18974 0.1269,-0.28462z" fill="#2caa7c" opacity="0.008"/><path d="M272.36763,105.61286c0.04739,0.02113 0.09492,0.04232 0.14231,0.06345c-0.06885,0.08363 -0.11638,0.06244 -0.14231,-0.06345z" fill="#2caa7c" opacity="0.008"/><path d="M286.14077,111.07119c0.09492,0.04232 0.1897,0.08458 0.28462,0.1269c0.34718,0.29459 0.74239,0.55609 1.18561,0.7845c0.38948,1.27072 0.66746,2.5604 0.83395,3.86905c-0.02115,0.04743 -0.0423,0.09488 -0.06345,0.14231c-0.39037,0.11029 -0.78073,0.22057 -1.1711,0.33085c-0.19062,-0.61974 -0.33489,-1.25273 -0.43284,-1.89895c-0.06854,0.0263 -0.13722,0.05256 -0.20576,0.07886c-0.05745,-0.50861 -0.21765,-0.97809 -0.48087,-1.40858c-0.29148,-0.28215 -0.29109,-0.53787 0.0009,-0.76729c-0.02442,-0.45529 -0.18214,-0.86681 -0.47317,-1.23454c0.19076,0.04546 0.36479,0.03775 0.5221,-0.02312z" fill="#05775b" opacity="0.769"/><path d="M293.63511,114.92431c1.81029,2.28147 3.58997,4.66718 5.3389,7.15705c-0.62428,-0.10929 -1.21466,-0.31565 -1.77115,-0.61907c0.07425,-0.11641 0.06916,-0.23241 -0.01541,-0.34807c-1.49566,-2.03861 -2.9804,-4.06535 -4.45422,-6.08023c0.27599,-0.17554 0.57667,-0.21208 0.90189,-0.10968z" fill="#15221d" opacity="0.769"/><path d="M308.30834,121.80753c0.04739,0.02113 0.09492,0.04232 0.14231,0.06345c-0.06885,0.08363 -0.11638,0.06244 -0.14231,-0.06345z" fill="#2caa7c" opacity="0.008"/><path d="M272.52535,106.02437c-0.13722,0.05255 -0.13722,0.05255 0,0z" fill="#2caa7c" opacity="0.008"/><path d="M308.03914,122.0287c0.1474,0.17945 0.1474,0.17945 0,0z" fill="#2caa7c" opacity="0.008"/><path d="M272.47732,106.51475c-0.01032,-0.23206 -0.01032,-0.23206 0,0z" fill="#2caa7c" opacity="0.008"/><path d="M292.73322,115.034c1.47382,2.01488 2.95856,4.04163 4.45422,6.08023c0.08457,0.11565 0.08966,0.23166 0.01541,0.34807c-0.57788,-0.31169 -1.16827,-0.51804 -1.77116,-0.61907c-0.71154,-0.31724 -1.42309,-0.63448 -2.13463,-0.95172c0.6902,0.1669 1.38609,0.39186 2.0875,0.67481c-0.31086,-0.19546 -0.62185,-0.39099 -0.93271,-0.58645c-1.09062,-1.58336 -2.21722,-3.13767 -3.3801,-4.66305c0.52613,-0.23305 1.07995,-0.32732 1.66147,-0.28282z" fill="#1b3028" opacity="0.769"/><path d="M307.76993,122.24987c0.1474,0.17945 0.1474,0.17945 0,0z" fill="#2caa7c" opacity="0.008"/><path d="M272.47732,106.51475c0.04739,0.02113 0.09492,0.04232 0.14231,0.06345c-0.0423,0.09487 -0.0846,0.18974 -0.1269,0.28462c-0.09758,-0.1018 -0.10281,-0.21786 -0.01541,-0.34806z" fill="#aeddc8" opacity="0.004"/><path d="M307.56417,122.32873c0.04739,0.02113 0.09492,0.04232 0.14231,0.06345c-0.03844,0.15203 -0.12827,0.22571 -0.2692,0.22117c0.0423,-0.09488 0.08459,-0.18974 0.1269,-0.28462z" fill="#2caa7c" opacity="0.008"/><path d="M272.49273,106.86281c0.04739,0.02113 0.09492,0.04232 0.14231,0.06345c-0.06884,0.08362 -0.11638,0.06243 -0.14231,-0.06345z" fill="#2caa7c" opacity="0.008"/><path d="M279.78131,110.7948c-0.00558,0.33775 -0.06132,0.65409 -0.16722,0.94903c-1.08943,0.56437 -2.15529,1.16963 -3.19784,1.8156c-0.15967,-0.00575 -0.29936,-0.01117 -0.41922,-0.01631c-0.27888,-0.52239 -0.48922,-1.0711 -0.63089,-1.64606c1.13894,-0.51625 2.25232,-1.10031 3.34015,-1.75215c0.20888,-0.03688 0.41725,-0.05772 0.62498,-0.06255c0.09316,0.27739 0.24317,0.51487 0.45005,0.71244z" fill="#28d3c9" opacity="0.769"/><path d="M280.70041,109.4986c0.15263,0.29551 0.30512,0.59096 0.45775,0.88648c0.18919,0.59614 0.37825,1.19222 0.56744,1.78836c-0.0744,0.30118 -0.00102,0.64665 0.22027,1.03649c-0.11607,0.00511 -0.232,0.0103 -0.34807,0.01541c0.17373,0.51948 0.27857,1.04959 0.31455,1.59031c-1.18586,-0.52871 -2.37186,-1.05749 -3.55772,-1.5862c0.59475,0.12463 1.19571,0.30727 1.80288,0.54791c-0.07377,-0.08975 -0.1474,-0.17946 -0.22117,-0.26921c0.20576,-0.07886 0.41151,-0.15772 0.61727,-0.23658c-0.14673,-0.35045 -0.07794,-0.63254 0.20666,-0.84615c-0.14114,-0.46861 -0.27771,-0.92755 -0.40972,-1.37685c0.14883,-0.25614 0.14922,-0.51186 0.0009,-0.76729c0.20013,-0.19405 0.31645,-0.45495 0.34896,-0.7827z" fill="#18c1aa" opacity="0.769"/><path d="M307.29497,122.5499c0.04739,0.02113 0.09492,0.04232 0.14231,0.06345c-0.06884,0.08362 -0.11638,0.06243 -0.14231,-0.06345z" fill="#2caa7c" opacity="0.008"/><path d="M307.02576,122.77107c0.1474,0.17945 0.1474,0.17945 0,0z" fill="#2caa7c" opacity="0.008"/><path d="M306.82001,122.84993c0.04739,0.02113 0.09492,0.04232 0.14231,0.06345c-0.03844,0.15203 -0.12827,0.22571 -0.2692,0.22117c0.0423,-0.09488 0.0846,-0.18974 0.1269,-0.28462z" fill="#2caa7c" opacity="0.008"/><path d="M272.60242,107.76471c0.04739,0.02113 0.09492,0.04232 0.14231,0.06345c-0.06884,0.08362 -0.11638,0.06243 -0.14231,-0.06345z" fill="#2caa7c" opacity="0.008"/><path d="M291.07175,115.31682c1.16287,1.52538 2.28947,3.07969 3.3801,4.66305c0.31086,0.19546 0.62185,0.39099 0.93271,0.58645c-0.70141,-0.28295 -1.39729,-0.50791 -2.0875,-0.67481c-0.02115,0.04743 -0.0423,0.09488 -0.06345,0.14231c-0.13822,0.14471 -0.29658,0.2447 -0.47496,0.30003c-1.00348,-1.22706 -1.97759,-2.48593 -2.92235,-3.77658c-0.24425,-0.29091 -0.38616,-0.61008 -0.42603,-0.95763c0.232,-0.0103 0.43776,-0.08916 0.61727,-0.23658c0.34807,-0.01541 0.69613,-0.03083 1.0442,-0.04624z" fill="#28473a" opacity="0.769"/><path d="M306.5508,123.0711c0.04739,0.02113 0.09492,0.04232 0.14231,0.06345c-0.06884,0.08362 -0.11638,0.06243 -0.14231,-0.06345z" fill="#2caa7c" opacity="0.008"/><path d="M254.4177,100.33948c0.02115,-0.04743 0.0423,-0.09488 0.06345,-0.14231c22.55859,10.11454 22.53743,10.16199 -0.06345,0.14231z" fill="#fcfdfd" opacity="0.009"/><path d="M306.2816,123.29227c3.9955,1.75296 7.96958,3.55322 11.92222,5.40079c-4.06152,-1.66917 -8.0356,-3.46943 -11.92222,-5.40079z" fill="#fafcfb" opacity="0.009"/><path d="M318.39327,129.03342c0.27639,-0.06663 0.5242,0.01542 0.74327,0.24609c-0.26384,-0.03344 -0.51165,-0.11549 -0.74327,-0.24609z" fill="#f5fbf9" opacity="0.013"/><path d="M289.41028,115.59964c0.03987,0.34755 0.18178,0.66672 0.42603,0.95763c0.94476,1.29065 1.91887,2.54952 2.92235,3.77658c-0.26921,0.22117 -0.53841,0.44234 -0.80762,0.66351c-1.02707,-1.76416 -2.21701,-3.43201 -3.56954,-5.00341c0.02115,-0.04743 0.0423,-0.09488 0.06345,-0.14231c0.32182,-0.08397 0.64351,-0.16803 0.96534,-0.252z" fill="#2f5545" opacity="0.769"/><path d="M305.87008,123.44999c-0.02115,0.04743 -0.0423,0.09488 -0.06345,0.14231c-1.57007,-0.75595 -3.15661,-1.40645 -4.75964,-1.95148c-0.07347,-0.04299 -0.09971,-0.11155 -0.07886,-0.20576c1.67345,0.57571 3.30739,1.24732 4.90195,2.01492z" fill="#bec0bf" opacity="0.933"/><path d="M319.68946,129.95252c0.17499,-0.10512 0.32786,-0.06538 0.45865,0.11919c-0.16554,0.00856 -0.31843,-0.03117 -0.45865,-0.11919z" fill="#fdfdfd" opacity="0.01"/><path d="M320.19525,130.34862c0.12153,-0.12068 0.22689,-0.10214 0.31634,0.05574c-0.11399,0.02839 -0.21949,0.00979 -0.31634,-0.05574z" fill="#fdfdfd" opacity="0.012"/><path d="M320.7799,130.95048c0.12153,-0.12068 0.22688,-0.10214 0.31634,0.05574c-0.11399,0.02839 -0.21949,0.00979 -0.31634,-0.05574z" fill="#fdfdfd" opacity="0.012"/><path d="M288.3815,115.99395c1.35253,1.5714 2.54247,3.23925 3.56954,5.00341c-0.2734,0.13416 -0.52145,0.30788 -0.74417,0.5212c-0.17735,-0.10807 -0.36458,-0.13467 -0.56153,-0.07976c-1.08077,-1.62687 -2.22057,-3.21549 -3.41953,-4.76593c-0.08457,-0.11565 -0.08966,-0.23166 -0.01541,-0.34807c0.39037,-0.11029 0.78073,-0.22057 1.1711,-0.33085z" fill="#366251" opacity="0.769"/><path d="M321.20682,131.14082c0.1474,0.17945 0.1474,0.17945 0,0z" fill="#fdfefd" opacity="0.016"/><path d="M321.42799,131.41002c0.1474,0.17945 0.1474,0.17945 0,0z" fill="#fdfefd" opacity="0.016"/><path d="M321.64916,131.67923c0.1474,0.17945 0.1474,0.17945 0,0z" fill="#fdfefd" opacity="0.016"/><path d="M278.35463,113.22946c1.18586,0.52871 2.37186,1.05749 3.55772,1.5862c0.71232,0.26308 1.35532,0.60664 1.92888,1.03058c-1.80696,-0.8617 -3.63074,-1.61797 -5.47119,-2.26872c-0.09758,-0.1018 -0.1028,-0.21787 -0.01541,-0.34807z" fill="#c1ede3" opacity="0.918"/><path d="M287.2104,116.3248c-0.07425,0.11641 -0.06916,0.23241 0.01541,0.34807c1.19896,1.55044 2.33875,3.13906 3.41953,4.76593c0.19695,-0.05491 0.38418,-0.02831 0.56153,0.07976c-0.41071,0.27798 -0.81699,0.55177 -1.21913,0.82123c-1.42796,-1.73856 -2.78645,-3.53842 -4.07533,-5.39951c0.43839,-0.2069 0.87105,-0.41205 1.29799,-0.61547z" fill="#3f735f" opacity="0.769"/><path d="M293.23362,120.03382c0.02115,-0.04743 0.0423,-0.09488 0.06345,-0.14231c0.71154,0.31724 1.42309,0.63448 2.13463,0.95172c1.28322,0.46379 2.42678,1.08737 3.43083,1.87082c-0.04739,-0.02113 -0.09492,-0.04232 -0.14231,-0.06345c-1.76166,-0.95526 -3.59053,-1.82752 -5.4866,-2.61678z" fill="#c0c5c3" opacity="0.929"/><path d="M285.91241,116.94027c1.28888,1.8611 2.64737,3.66096 4.07533,5.39951c-0.44999,0.43074 -0.94609,0.7782 -1.48833,1.0424c0.14883,-0.25614 0.14922,-0.51186 0.0009,-0.76729c-1.31272,-1.66949 -2.53948,-3.38218 -3.68013,-5.13802c0.08969,-0.07375 0.17952,-0.14742 0.2692,-0.22117c0.24247,-0.17154 0.51677,-0.27672 0.82303,-0.31545z" fill="#45826a" opacity="0.769"/><path d="M301.81659,126.41947c-0.02115,0.04743 -0.0423,0.09488 -0.06345,0.14231c-0.14094,-0.00454 -0.23077,0.06914 -0.26921,0.22117c-0.16346,-0.01602 -0.30068,0.03654 -0.41151,0.15772c-1.09908,-1.08266 -2.08377,-2.31779 -2.95407,-3.70542c0.13198,-0.16861 0.26412,-0.33718 0.3961,-0.50579c0.09492,0.04232 0.16346,0.01602 0.20576,-0.07886c0.04739,0.02113 0.09492,0.04232 0.14231,0.06345c0.09483,0.02339 0.18713,0.00769 0.27691,-0.04714c0.72097,1.37169 1.61336,2.62254 2.67716,3.75256z" fill="#172822" opacity="0.769"/><path d="M255.37765,104.69121c-0.13718,0.05258 -0.13718,0.05258 0,0z" fill="#fdfefd" opacity="0.016"/><path d="M255.25075,104.97583c0.14744,0.17947 0.14744,0.17947 0,0z" fill="#fcfdfc" opacity="0.008"/><path d="M298.11836,123.23525c0.8703,1.38763 1.85499,2.62277 2.95407,3.70542c-0.02115,0.04743 -0.0423,0.09488 -0.06345,0.14231c-0.14094,-0.00454 -0.23077,0.06914 -0.26921,0.22117c-0.14094,-0.00454 -0.23077,0.06914 -0.26921,0.22117c-0.2301,-0.02188 -0.38847,0.07811 -0.47496,0.30003c-0.14094,-0.00454 -0.23077,0.06914 -0.2692,0.22117c-0.14094,-0.00454 -0.23077,0.06914 -0.26921,0.22117c-0.16346,-0.01602 -0.30068,0.03654 -0.41151,0.15772c0.00165,-0.25165 0.04943,-0.48624 0.14321,-0.70384c-0.71613,-0.94481 -1.43212,-1.88955 -2.14825,-2.83436c-0.13255,-0.36428 -0.09,-0.71494 0.12779,-1.0519c0.27221,-0.28493 0.5888,-0.48497 0.94992,-0.60006z" fill="#223d32" opacity="0.769"/><path d="M278.41628,114.62173c0.08345,0.83333 0.16675,1.66658 0.2502,2.49991c-0.09483,-0.02339 -0.18713,-0.00769 -0.27691,0.04714c-0.02347,-0.26762 -0.15782,-0.41282 -0.40291,-0.43553c0.02624,0.06856 0.05262,0.1372 0.07886,0.20576c-0.44934,0.24257 -0.92939,0.42659 -1.4403,0.55203c0.02624,0.06856 0.05262,0.1372 0.07886,0.20576c-0.65503,0.26809 -1.13548,0.70784 -1.4412,1.31931c0.4447,-0.95418 0.7729,-1.94516 0.98434,-2.97308c0.25251,-0.70297 0.78035,-1.12159 1.5835,-1.25586c-0.02624,-0.06856 -0.05262,-0.1372 -0.07886,-0.20576c0.30586,-0.22112 0.41397,-0.14448 0.32405,0.22977c0.09767,-0.11269 0.21112,-0.17584 0.34036,-0.18945z" fill="#1ac8aa" opacity="0.769"/><path d="M301.75315,126.56178c0.1474,0.17945 0.1474,0.17945 0,0z" fill="#2caa7c" opacity="0.008"/><path d="M323.03604,136.2213c0.02824,-0.11346 0.09431,-0.19775 0.19805,-0.25289c0.03904,0.17722 -0.02702,0.26149 -0.19805,0.25289z" fill="#f5fbf9" opacity="0.016"/><path d="M301.48394,126.78295c0.1474,0.17945 0.1474,0.17945 0,0z" fill="#2caa7c" opacity="0.008"/><path d="M301.21474,127.00412c0.1474,0.17945 0.1474,0.17945 0,0z" fill="#2caa7c" opacity="0.008"/><path d="M301.00898,127.08298c0.04739,0.02113 0.09492,0.04232 0.14231,0.06345c-0.06884,0.08362 -0.11638,0.06243 -0.14231,-0.06345z" fill="#2caa7c" opacity="0.008"/><path d="M297.16843,123.83531c-0.21779,0.33697 -0.26034,0.68762 -0.12779,1.0519c0.71613,0.94481 1.43212,1.88955 2.14825,2.83436c-0.09378,0.2176 -0.14156,0.45219 -0.14321,0.70384c-0.02115,0.04743 -0.0423,0.09488 -0.06345,0.14231c-0.14094,-0.00454 -0.23077,0.06914 -0.2692,0.22117c-0.2301,-0.02188 -0.38847,0.07811 -0.47496,0.30003c-0.04739,-0.02113 -0.09492,-0.04232 -0.14231,-0.06345c-0.85523,-1.04109 -1.68195,-2.1205 -2.48,-3.23817c-0.17428,-0.20717 -0.24256,-0.43665 -0.20486,-0.68842c0.59019,-0.42531 1.17613,-0.84646 1.75754,-1.26357z" fill="#2d5142" opacity="0.769"/><path d="M300.73977,127.30415c0.1474,0.17945 0.1474,0.17945 0,0z" fill="#2caa7c" opacity="0.008"/><path d="M323.22458,137.32894c-0.08459,0.18974 -0.1692,0.3795 -0.25379,0.56924c-0.04739,-0.02113 -0.09492,-0.04232 -0.14231,-0.06345c0.06331,-0.24456 0.19545,-0.41312 0.3961,-0.50579z" fill="#f8fcfa" opacity="0.013"/><path d="M300.47057,127.52532c0.1474,0.17945 0.1474,0.17945 0,0z" fill="#2caa7c" opacity="0.008"/><path d="M256.29135,107.99873c-0.02115,0.04743 -0.0423,0.09488 -0.06345,0.14231c-0.06482,-0.11101 -0.04367,-0.15846 0.06345,-0.14231z" fill="#fcfdfc" opacity="0.008"/><path d="M278.66648,117.12163c0.09319,0.52451 0.13993,1.05714 0.14051,1.59802c-1.55408,0.70927 -3.07897,1.45104 -4.57469,2.22532c-0.04739,-0.02113 -0.09492,-0.04232 -0.14231,-0.06345c0.39101,-0.62179 0.78188,-1.24364 1.17289,-1.86543c0.30572,-0.61147 0.78616,-1.05122 1.4412,-1.31931c-0.02624,-0.06856 -0.05262,-0.1372 -0.07886,-0.20576c0.51091,-0.12543 0.99096,-0.30946 1.4403,-0.55203c-0.02624,-0.06856 -0.05262,-0.1372 -0.07886,-0.20576c0.24509,0.02271 0.37944,0.16791 0.40291,0.43553c0.08978,-0.05482 0.18208,-0.07053 0.27691,-0.04714z" fill="#15c39a" opacity="0.769"/><path d="M256.2279,108.14104c3.7109,1.62608 7.40036,3.29943 11.06837,5.0201c-3.77688,-1.5423 -7.46634,-3.21566 -11.06837,-5.0201z" fill="#fdfdfd" opacity="0.016"/><path d="M300.20136,127.74649c0.1474,0.17945 0.1474,0.17945 0,0z" fill="#2caa7c" opacity="0.008"/><path d="M299.99561,127.82535c0.04739,0.02113 0.09492,0.04232 0.14231,0.06345c-0.06884,0.08362 -0.11638,0.06243 -0.14231,-0.06345z" fill="#2caa7c" opacity="0.008"/><path d="M299.7264,128.04652c0.1474,0.17945 0.1474,0.17945 0,0z" fill="#2caa7c" opacity="0.008"/><path d="M295.4109,125.09888c-0.0377,0.25178 0.03058,0.48126 0.20486,0.68842c0.79806,1.11767 1.62477,2.19708 2.48,3.23817c-0.0423,0.09488 -0.0846,0.18974 -0.1269,0.28462c-0.14094,-0.00454 -0.23077,0.06914 -0.2692,0.22117c-0.2301,-0.02188 -0.38847,0.07811 -0.47496,0.30003c-0.09492,-0.04232 -0.16346,-0.01602 -0.20576,0.07886c-0.93465,-1.06462 -1.79818,-2.18887 -2.59059,-3.37277c-0.10315,-0.22971 -0.11348,-0.46177 -0.03083,-0.69613c0.3166,-0.29073 0.65434,-0.5382 1.01337,-0.74237z" fill="#366352" opacity="0.769"/><path d="M299.4572,128.26769c0.1474,0.17945 0.1474,0.17945 0,0z" fill="#2caa7c" opacity="0.008"/><path d="M315.25349,135.31042c-0.13722,0.05256 -0.13722,0.05256 0,0z" fill="#fdfefd" opacity="0.016"/><path d="M268.65502,114.70522c-0.02824,0.11346 -0.09431,0.19774 -0.19805,0.25289c-0.03904,-0.17722 0.02702,-0.26149 0.19805,-0.25289z" fill="#fcfdfc" opacity="0.008"/><path d="M299.18799,128.48886c0.1474,0.17945 0.1474,0.17945 0,0z" fill="#2caa7c" opacity="0.008"/><path d="M298.98224,128.56772c0.04739,0.02113 0.09492,0.04232 0.14231,0.06345c-0.06884,0.08362 -0.11638,0.06243 -0.14231,-0.06345z" fill="#2caa7c" opacity="0.008"/><path d="M315.2689,135.65849c-0.02824,0.11346 -0.0943,0.19774 -0.19805,0.25289c-0.03904,-0.17722 0.02702,-0.26149 0.19805,-0.25289z" fill="#edf9f4" opacity="0.004"/><path d="M298.71303,128.78889c0.1474,0.17945 0.1474,0.17945 0,0z" fill="#2caa7c" opacity="0.008"/><path d="M294.39752,125.84125c-0.08265,0.23436 -0.07233,0.46643 0.03083,0.69613c0.79241,1.1839 1.65594,2.30815 2.59059,3.37277c-0.02115,0.04743 -0.0423,0.09488 -0.06345,0.14231c-0.14094,-0.00454 -0.23077,0.06914 -0.2692,0.22117c-0.2301,-0.02188 -0.38847,0.07811 -0.47496,0.30003c-0.14094,-0.00454 -0.23077,0.06914 -0.26921,0.22117c-0.04739,-0.02113 -0.09492,-0.04232 -0.14231,-0.06345c-0.73988,-1.15977 -1.53487,-2.31034 -2.38483,-3.45163c-0.10315,-0.22971 -0.11348,-0.46177 -0.03083,-0.69613c0.3166,-0.29073 0.65434,-0.5382 1.01337,-0.74237z" fill="#3f735f" opacity="0.769"/><path d="M298.44382,129.01006c0.1474,0.17945 0.1474,0.17945 0,0z" fill="#2caa7c" opacity="0.008"/><path d="M278.80699,118.71966c0.16134,1.00452 0.27612,2.0224 0.34447,3.05373c-0.5001,0.78115 -1.04934,1.50299 -1.64785,2.16546c-0.08078,-0.0549 -0.13079,-0.13406 -0.15001,-0.23748c-1.02406,0.60488 -1.9079,1.12062 -2.65172,1.54729c-0.08393,-0.32181 -0.16806,-0.64353 -0.25199,-0.96534c0.10236,-0.32524 0.06582,-0.62592 -0.10969,-0.90189c0.08742,-0.13026 0.08214,-0.24623 -0.01541,-0.34807c0.10236,-0.32524 0.06579,-0.62586 -0.10969,-0.90189c0.08211,-0.24539 0.07193,-0.47739 -0.03083,-0.69613c0.0423,-0.09488 0.01606,-0.16344 -0.07886,-0.20576c0.0423,-0.09488 0.0846,-0.18974 0.1269,-0.28462c1.49572,-0.77427 3.02061,-1.51604 4.57469,-2.22532z" fill="#07be86" opacity="0.769"/><path d="M298.23807,129.08892c0.04739,0.02113 0.09492,0.04232 0.14231,0.06345c-0.06884,0.08362 -0.11638,0.06243 -0.14231,-0.06345z" fill="#2caa7c" opacity="0.008"/><path d="M297.96886,129.31009c0.1474,0.17945 0.1474,0.17945 0,0z" fill="#2caa7c" opacity="0.008"/><path d="M297.69966,129.53126c0.1474,0.17945 0.1474,0.17945 0,0z" fill="#2caa7c" opacity="0.008"/><path d="M293.38415,126.58362c-0.08265,0.23436 -0.07233,0.46643 0.03083,0.69613c0.84997,1.14129 1.64496,2.29186 2.38483,3.45163c-0.0423,0.09488 -0.08459,0.18974 -0.1269,0.28462c-0.2301,-0.02188 -0.38847,0.07811 -0.47496,0.30003c-0.14094,-0.00454 -0.23077,0.06914 -0.26921,0.22117c-0.16346,-0.01602 -0.30068,0.03654 -0.41151,0.15772c-0.66215,-1.1539 -1.42032,-2.25962 -2.27425,-3.31703c-0.11365,-0.20464 -0.15831,-0.42358 -0.1337,-0.6567c-0.08978,0.05482 -0.18208,0.07053 -0.27691,0.04714c0.44039,-0.51253 0.95766,-0.90744 1.55178,-1.18471z" fill="#48876e" opacity="0.769"/><path d="M297.43045,129.75243c0.1474,0.17945 0.1474,0.17945 0,0z" fill="#2caa7c" opacity="0.008"/><path d="M297.2247,129.83129c0.04739,0.02113 0.09492,0.04232 0.14231,0.06345c-0.06884,0.08362 -0.11638,0.06243 -0.14231,-0.06345z" fill="#2caa7c" opacity="0.008"/><path d="M314.36521,137.30275c0.1207,0.12147 0.10217,0.22693 -0.05574,0.31634c-0.02832,-0.11403 -0.00978,-0.2195 0.05574,-0.31634z" fill="#f5fbf9" opacity="0.016"/><path d="M296.95549,130.05246c0.1474,0.17945 0.1474,0.17945 0,0z" fill="#2caa7c" opacity="0.008"/><path d="M321.43263,140.96553c0.04739,0.02113 0.09492,0.04232 0.14231,0.06345c-0.08459,0.18974 -0.1692,0.37949 -0.25379,0.56923c-0.06518,-0.21119 -0.02811,-0.42213 0.11148,-0.63268z" fill="#f4fbf8" opacity="0.016"/><path d="M294.51723,131.69492c-0.02115,0.04743 -0.0423,0.09488 -0.06345,0.14231c-0.14094,-0.00454 -0.23074,0.06909 -0.26921,0.22117c-0.14095,-0.0045 -0.23074,0.06909 -0.26921,0.22117c-0.04739,-0.02113 -0.09492,-0.04232 -0.14231,-0.06345c-0.9845,-1.18046 -1.87689,-2.43131 -2.67716,-3.75256c-0.08978,0.05482 -0.18208,0.07053 -0.27691,0.04714c0.25915,-0.30307 0.54951,-0.57169 0.87106,-0.80582c0.04739,0.02113 0.09492,0.04232 0.14231,0.06345c0.09483,0.02339 0.18713,0.00769 0.27691,-0.04714c-0.02461,0.23312 0.02005,0.45206 0.1337,0.6567c0.85392,1.05741 1.6121,2.16313 2.27425,3.31703z" fill="#509579" opacity="0.769"/><path d="M296.68629,130.27363c0.1474,0.17945 0.1474,0.17945 0,0z" fill="#2caa7c" opacity="0.008"/><path d="M296.41708,130.4948c0.1474,0.17945 0.1474,0.17945 0,0z" fill="#2caa7c" opacity="0.008"/><path d="M296.21132,130.57366c0.04739,0.02113 0.09492,0.04232 0.14231,0.06345c-0.06884,0.08362 -0.11638,0.06243 -0.14231,-0.06345z" fill="#2caa7c" opacity="0.008"/><path d="M320.97308,141.61362c0.1207,0.12147 0.10217,0.22693 -0.05574,0.31634c-0.02832,-0.11403 -0.00978,-0.2195 0.05574,-0.31634z" fill="#fdfefd" opacity="0.016"/><path d="M295.94212,130.79483c0.1474,0.17945 0.1474,0.17945 0,0z" fill="#2caa7c" opacity="0.008"/><path d="M253.47061,112.02962c0.14744,0.17947 0.14744,0.17947 0,0z" fill="#fdfefd" opacity="0.016"/><path d="M320.64042,141.9771c0.1474,0.17945 0.1051,0.27432 -0.1269,0.28462c0.0423,-0.09488 0.08459,-0.18974 0.1269,-0.28462z" fill="#fdfdfd" opacity="0.012"/><path d="M273.96309,121.16614c0.04739,0.02113 0.09492,0.04232 0.14231,0.06345c0.09492,0.04232 0.12116,0.11088 0.07886,0.20576c-0.08459,0.18974 -0.22182,0.2423 -0.41151,0.15772c0.06345,-0.14231 0.1269,-0.28462 0.19034,-0.42693z" fill="#70c19e" opacity="0.008"/><path d="M295.67292,131.016c0.1474,0.17945 0.1474,0.17945 0,0z" fill="#2caa7c" opacity="0.008"/><path d="M273.63044,121.52962c0.04739,0.02113 0.09492,0.04232 0.14231,0.06345c-0.03844,0.15203 -0.12827,0.22571 -0.26921,0.22117c0.0423,-0.09488 0.0846,-0.18974 0.1269,-0.28462z" fill="#fdfdfd" opacity="0.012"/><path d="M293.77307,132.21612c-0.14334,0.08809 -0.25418,0.20927 -0.33265,0.36348c-0.14095,-0.0045 -0.23074,0.06909 -0.26921,0.22117c-0.14095,-0.0045 -0.23074,0.06909 -0.26921,0.22117c-0.09492,-0.04232 -0.16344,-0.01606 -0.20576,0.07886c-0.09492,-0.04232 -0.16344,-0.01606 -0.20576,0.07886c-0.90897,-1.2347 -1.80135,-2.48556 -2.67716,-3.75256c-0.15662,0.08038 -0.3176,0.12234 -0.48267,0.126c0.44651,-0.42753 0.94262,-0.77499 1.48833,-1.0424c0.09483,0.02339 0.18713,0.00769 0.27691,-0.04714c0.80027,1.32125 1.69265,2.5721 2.67716,3.75256z" fill="#58a788" opacity="0.769"/><path d="M295.40371,131.23717c0.1474,0.17945 0.1474,0.17945 0,0z" fill="#2caa7c" opacity="0.008"/><path d="M320.37122,142.19827c0.04739,0.02113 0.09492,0.04232 0.14231,0.06345c-0.21659,0.35837 -0.26412,0.33717 -0.14231,-0.06345z" fill="#f5fbf9" opacity="0.016"/><path d="M295.19795,131.31603c0.04739,0.02113 0.09492,0.04232 0.14231,0.06345c-0.06884,0.08362 -0.11638,0.06243 -0.14231,-0.06345z" fill="#2caa7c" opacity="0.008"/><path d="M273.36124,121.75079c0.04739,0.02113 0.09492,0.04232 0.14231,0.06345c-0.03844,0.15203 -0.12827,0.22571 -0.26921,0.22117c0.0423,-0.09488 0.0846,-0.18974 0.1269,-0.28462z" fill="#fdfdfd" opacity="0.012"/><path d="M274.21509,122.13148c-0.13722,0.05256 -0.13722,0.05256 0,0z" fill="#2caa7c" opacity="0.008"/><path d="M299.56149,133.7733c-0.10507,-0.1749 -0.06539,-0.3278 0.11919,-0.45865c0.00859,0.16555 -0.03124,0.3184 -0.11919,0.45865z" fill="#f7fbf9" opacity="0.008"/><path d="M320.03857,142.56175c0.1474,0.17945 0.1474,0.17945 0,0z" fill="#fdfefd" opacity="0.016"/><path d="M252.82072,113.10465c-0.10514,-0.17493 -0.0654,-0.32781 0.11919,-0.45865c0.00856,0.16554 -0.03117,0.31843 -0.11919,0.45865z" fill="#f7fbfa" opacity="0.012"/><path d="M277.50361,123.93885c-0.14804,0.33205 -0.29611,0.66416 -0.44414,0.99616c-0.31587,0.33463 -0.5536,0.74043 -0.71334,1.21733c-0.43329,0.71661 -0.8665,1.43343 -1.29979,2.15004c-0.07379,-0.08971 -0.14738,-0.1795 -0.22117,-0.26921c0.08742,-0.13026 0.08214,-0.24622 -0.01541,-0.34806c0.10236,-0.32524 0.06582,-0.62592 -0.10968,-0.90189c0.09722,-0.43961 0.05555,-0.8562 -0.1251,-1.24996c0.04232,-0.09492 0.08458,-0.1897 0.1269,-0.28462c0.74382,-0.42667 1.62766,-0.94241 2.65172,-1.54729c0.01923,0.10342 0.06923,0.18258 0.15001,0.23748z" fill="#10c886" opacity="0.769"/><path d="M294.92875,131.5372c0.1474,0.17945 0.1474,0.17945 0,0z" fill="#2caa7c" opacity="0.008"/><path d="M274.0882,122.4161c0.1474,0.17945 0.1474,0.17945 0,0z" fill="#2caa7c" opacity="0.008"/><path d="M319.76936,142.78292c0.1474,0.17945 0.1474,0.17945 0,0z" fill="#fdfefd" opacity="0.016"/><path d="M273.09203,121.97196c0.04739,0.02113 0.09492,0.04232 0.14231,0.06345c-0.03844,0.15203 -0.12827,0.22571 -0.2692,0.22117c0.0423,-0.09488 0.08459,-0.18974 0.1269,-0.28462z" fill="#edf9f4" opacity="0.004"/><path d="M294.65954,131.75837c0.1474,0.17945 0.1474,0.17945 0,0z" fill="#2caa7c" opacity="0.008"/><path d="M252.47265,113.12006c0.1207,0.12147 0.10214,0.22689 -0.05574,0.31634c-0.02839,-0.11399 -0.00979,-0.21949 0.05574,-0.31634z" fill="#fdfdfd" opacity="0.012"/><path d="M272.82283,122.19313c0.04739,0.02113 0.09492,0.04232 0.14231,0.06345c-0.06884,0.08361 -0.11637,0.06242 -0.14231,-0.06345z" fill="#fdfefd" opacity="0.016"/><path d="M294.45378,131.83723c0.04739,0.02113 0.09492,0.04232 0.14231,0.06345c-0.06884,0.08361 -0.11637,0.06242 -0.14231,-0.06345z" fill="#2caa7c" opacity="0.008"/><path d="M319.5636,142.86178c0.04739,0.02113 0.09492,0.04232 0.14231,0.06345c-0.03844,0.15203 -0.12825,0.22567 -0.2692,0.22117c0.0423,-0.09488 0.08459,-0.18974 0.1269,-0.28462z" fill="#edf9f4" opacity="0.004"/><path d="M274.32478,123.03337c-0.13724,0.0526 -0.13724,0.0526 0,0z" fill="#2caa7c" opacity="0.008"/><path d="M319.2944,143.08295c0.04739,0.02113 0.09492,0.04232 0.14231,0.06345c-0.06884,0.08361 -0.11637,0.06242 -0.14231,-0.06345z" fill="#fdfefd" opacity="0.016"/><path d="M272.61707,122.27199c0.04739,0.02113 0.09492,0.04232 0.14231,0.06345c-0.03846,0.15208 -0.12825,0.22567 -0.26921,0.22117c0.04232,-0.09492 0.08458,-0.1897 0.1269,-0.28462z" fill="#edf9f4" opacity="0.004"/><path d="M294.18458,132.0584c0.14738,0.1795 0.14738,0.1795 0,0z" fill="#2caa7c" opacity="0.008"/><path d="M272.34787,122.49316c0.04739,0.02113 0.09492,0.04232 0.14231,0.06345c-0.06884,0.08361 -0.11637,0.06242 -0.14231,-0.06345z" fill="#fdfefd" opacity="0.016"/><path d="M274.34019,123.38143c-0.13724,0.0526 -0.13724,0.0526 0,0z" fill="#2caa7c" opacity="0.008"/><path d="M279.15146,121.77339c0.32295,2.55522 0.59941,5.12363 0.82946,7.70548c-1.02835,-1.28912 -2.02868,-2.61659 -3.00121,-3.98233c-0.05497,-0.19698 -0.02831,-0.38418 0.07976,-0.56153c0.14802,-0.33201 0.29609,-0.66411 0.44414,-0.99616c0.59851,-0.66247 1.14775,-1.38431 1.64785,-2.16546z" fill="#4cc696" opacity="0.769"/><path d="M319.08864,143.16181c0.04739,0.02113 0.09492,0.04232 0.14231,0.06345c-0.03846,0.15208 -0.12825,0.22567 -0.26921,0.22117c0.04232,-0.09492 0.08458,-0.1897 0.1269,-0.28462z" fill="#edf9f4" opacity="0.004"/><path d="M272.14211,122.57202c0.04739,0.02113 0.09492,0.04232 0.14231,0.06345c-0.06884,0.08361 -0.11637,0.06242 -0.14231,-0.06345z" fill="#fdfefd" opacity="0.016"/><path d="M293.91537,132.27957c0.14738,0.1795 0.14738,0.1795 0,0z" fill="#2caa7c" opacity="0.008"/><path d="M318.81944,143.38298c0.04739,0.02113 0.09492,0.04232 0.14231,0.06345c-0.06884,0.08361 -0.11637,0.06242 -0.14231,-0.06345z" fill="#fdfefd" opacity="0.016"/><path d="M274.21329,123.66605c0.14738,0.1795 0.14738,0.1795 0,0z" fill="#2caa7c" opacity="0.008"/><path d="M292.49049,133.17966c-0.02113,0.04739 -0.04232,0.09492 -0.06345,0.14231c-0.14095,-0.0045 -0.23074,0.06908 -0.2692,0.22117c-0.14095,-0.0045 -0.23074,0.06909 -0.2692,0.22117c-0.09492,-0.04232 -0.16344,-0.01606 -0.20576,0.07886c-0.14095,-0.0045 -0.23074,0.06909 -0.26921,0.22117c-0.14095,-0.0045 -0.23074,0.06908 -0.2692,0.22117c-0.04739,-0.02113 -0.09492,-0.04232 -0.14231,-0.06345c-0.80447,-1.26898 -1.67309,-2.50923 -2.606,-3.72084c-0.12023,0.00832 -0.23628,0.01339 -0.34806,0.01541c0.35106,-0.4392 0.77849,-0.76043 1.28258,-0.96354c0.16506,-0.00365 0.32605,-0.04561 0.48267,-0.126c0.8758,1.267 1.76819,2.51786 2.67716,3.75256z" fill="#64bc99" opacity="0.769"/><path d="M318.61368,143.46184c0.04739,0.02113 0.09492,0.04232 0.14231,0.06345c-0.06884,0.08361 -0.11637,0.06242 -0.14231,-0.06345z" fill="#fdfefd" opacity="0.016"/><path d="M271.93635,122.65088c0.04739,0.02113 0.09492,0.04232 0.14231,0.06345c-0.03846,0.15208 -0.12825,0.22567 -0.2692,0.22117c0.04232,-0.09492 0.08458,-0.1897 0.1269,-0.28462z" fill="#edf9f4" opacity="0.004"/><path d="M293.64617,132.50074c0.14738,0.1795 0.14738,0.1795 0,0z" fill="#2caa7c" opacity="0.008"/><path d="M298.50009,135.00604c-0.10505,-0.17495 -0.06537,-0.32786 0.11919,-0.45865c0.00859,0.16555 -0.03124,0.31839 -0.11919,0.45865z" fill="#f7fbf9" opacity="0.008"/><path d="M318.40792,143.5407c0.04739,0.02113 0.09492,0.04232 0.14231,0.06345c-0.06884,0.08361 -0.11637,0.06242 -0.14231,-0.06345z" fill="#fdfefd" opacity="0.016"/><path d="M251.75931,114.33739c-0.10512,-0.17499 -0.06538,-0.32786 0.11919,-0.45865c0.00856,0.16554 -0.03117,0.31842 -0.11919,0.45865z" fill="#f7fcfa" opacity="0.016"/><path d="M271.80946,122.9355c-0.13724,0.0526 -0.13724,0.0526 0,0z" fill="#e4f7ef" opacity="0.004"/><path d="M318.20217,143.61956c0.04739,0.02113 0.09492,0.04232 0.14231,0.06345c-0.06884,0.08361 -0.11637,0.06242 -0.14231,-0.06345z" fill="#fdfefd" opacity="0.016"/><path d="M271.6037,123.01436c-0.13724,0.0526 -0.13724,0.0526 0,0z" fill="#fcfdfc" opacity="0.008"/><path d="M274.44988,124.28332c-0.13724,0.0526 -0.13724,0.0526 0,0z" fill="#2caa7c" opacity="0.008"/><path d="M293.44041,132.5796c0.04739,0.02113 0.09492,0.04232 0.14231,0.06345c-0.03846,0.15208 -0.12825,0.22567 -0.26921,0.22117c0.04232,-0.09492 0.08458,-0.1897 0.1269,-0.28462z" fill="#aeddc8" opacity="0.004"/><path d="M317.99641,143.69842c0.04739,0.02113 0.09492,0.04232 0.14231,0.06345c-0.06884,0.08361 -0.11637,0.06242 -0.14231,-0.06345z" fill="#fdfefd" opacity="0.016"/><path d="M271.39794,123.09322c-0.13724,0.0526 -0.13724,0.0526 0,0z" fill="#fcfdfc" opacity="0.008"/><path d="M293.17121,132.80077c0.04739,0.02113 0.09492,0.04232 0.14231,0.06345c-0.06884,0.08361 -0.11637,0.06242 -0.14231,-0.06345z" fill="#2caa7c" opacity="0.008"/><path d="M317.79065,143.77729c0.04739,0.02113 0.09492,0.04232 0.14231,0.06345c-0.06884,0.08361 -0.11637,0.06242 -0.14231,-0.06345z" fill="#fdfefd" opacity="0.016"/><path d="M271.19219,123.17208c-0.13724,0.0526 -0.13724,0.0526 0,0z" fill="#fcfdfc" opacity="0.008"/><path d="M317.5849,143.85615c0.04739,0.02113 0.09492,0.04232 0.14231,0.06345c-0.06884,0.08361 -0.11637,0.06242 -0.14231,-0.06345z" fill="#fdfefd" opacity="0.016"/><path d="M270.98643,123.25094c-0.13724,0.0526 -0.13724,0.0526 0,0z" fill="#e4f7ef" opacity="0.004"/><path d="M292.902,133.02194c0.14738,0.1795 0.14738,0.1795 0,0z" fill="#2caa7c" opacity="0.008"/><path d="M317.37914,143.93501c0.04739,0.02113 0.09492,0.04232 0.14231,0.06345c-0.06884,0.08361 -0.11637,0.06242 -0.14231,-0.06345z" fill="#fdfefd" opacity="0.016"/><path d="M270.49605,123.20291c0.14738,0.1795 0.14738,0.1795 0,0z" fill="#fdfefd" opacity="0.016"/><path d="M317.17338,144.01387c0.04739,0.02113 0.09492,0.04232 0.14231,0.06345c-0.06884,0.08361 -0.11637,0.06242 -0.14231,-0.06345z" fill="#fdfefd" opacity="0.016"/><path d="M270.29029,123.28177c0.04739,0.02113 0.09492,0.04232 0.14231,0.06345c-0.06884,0.08361 -0.11637,0.06242 -0.14231,-0.06345z" fill="#fdfefd" opacity="0.016"/><path d="M292.69624,133.1008c0.04739,0.02113 0.09492,0.04232 0.14231,0.06345c-0.03846,0.15208 -0.12825,0.22567 -0.26921,0.22117c0.04232,-0.09492 0.08458,-0.1897 0.1269,-0.28462z" fill="#74c4a1" opacity="0.008"/><path d="M297.77133,135.87531c-0.10505,-0.17495 -0.06536,-0.32786 0.11919,-0.45865c0.00859,0.16555 -0.03124,0.31839 -0.11919,0.45865z" fill="#f7fbf9" opacity="0.008"/><path d="M317.10993,144.15618c-0.13724,0.0526 -0.13724,0.0526 0,0z" fill="#fcfdfc" opacity="0.008"/><path d="M270.08454,123.36063c0.04739,0.02113 0.09492,0.04232 0.14231,0.06345c-0.06884,0.08361 -0.11637,0.06242 -0.14231,-0.06345z" fill="#fdfefd" opacity="0.016"/><path d="M291.00215,134.22206c-0.14334,0.08809 -0.25418,0.20928 -0.33265,0.36348c-0.14095,-0.0045 -0.23074,0.06909 -0.26921,0.22117c-0.14095,-0.0045 -0.23074,0.06908 -0.2692,0.22117c-0.2301,-0.0219 -0.38846,0.07809 -0.47496,0.30003c-0.14095,-0.0045 -0.23074,0.06909 -0.26921,0.22117c-0.14095,-0.0045 -0.23074,0.06908 -0.2692,0.22117c-0.09492,-0.04232 -0.16344,-0.01606 -0.20576,0.07886c-0.14095,-0.0045 -0.23074,0.06909 -0.26921,0.22117c-0.14095,-0.0045 -0.23074,0.06909 -0.26921,0.22117c-0.2301,-0.0219 -0.38846,0.07809 -0.47496,0.30003c-0.04739,-0.02113 -0.09492,-0.04232 -0.14231,-0.06345c-1.0159,-1.05378 -1.92684,-2.19912 -2.7329,-3.43622c-0.22806,0.11856 -0.37037,0.05511 -0.42693,-0.19034c1.1297,-0.83876 2.28031,-1.63373 3.45163,-2.38483c0.11179,-0.00202 0.22784,-0.00709 0.34806,-0.01541c0.93292,1.2116 1.80154,2.45186 2.606,3.72084z" fill="#69d0a8" opacity="0.769"/><path d="M316.61956,144.10814c0.14738,0.1795 0.14738,0.1795 0,0z" fill="#fdfefd" opacity="0.016"/><path d="M269.67303,123.51835c0.02113,-0.04739 0.04232,-0.09492 0.06345,-0.14231c0.09492,0.04232 0.1897,0.08458 0.28462,0.1269c-0.10184,0.09756 -0.21781,0.10283 -0.34806,0.01541z" fill="#edf9f4" opacity="0.004"/><path d="M274.57498,125.53327c-0.13724,0.0526 -0.13724,0.0526 0,0z" fill="#2caa7c" opacity="0.008"/><path d="M292.42704,133.32197c0.04739,0.02113 0.09492,0.04232 0.14231,0.06345c-0.03846,0.15208 -0.12825,0.22567 -0.2692,0.22117c0.04232,-0.09492 0.08458,-0.1897 0.1269,-0.28462z" fill="#aeddc8" opacity="0.004"/><path d="M316.4138,144.187c0.04739,0.02113 0.09492,0.04232 0.14231,0.06345c-0.06884,0.08361 -0.11637,0.06242 -0.14231,-0.06345z" fill="#fdfefd" opacity="0.016"/><path d="M269.53072,123.4549c0.04739,0.02113 0.09492,0.04232 0.14231,0.06345c-0.06884,0.08361 -0.11637,0.06242 -0.14231,-0.06345z" fill="#fdfefd" opacity="0.016"/><path d="M292.15783,133.54314c0.04739,0.02113 0.09492,0.04232 0.14231,0.06345c-0.06884,0.08361 -0.11637,0.06242 -0.14231,-0.06345z" fill="#2caa7c" opacity="0.008"/><path d="M297.42327,135.89072c0.12068,0.12153 0.10219,0.22691 -0.05574,0.31634c-0.02834,-0.11397 -0.00979,-0.21949 0.05574,-0.31634z" fill="#fcfdfc" opacity="0.008"/><path d="M316.00229,144.34473c0.02113,-0.04739 0.04232,-0.09492 0.06345,-0.14231c0.09492,0.04232 0.1897,0.08458 0.28462,0.1269c-0.10184,0.09756 -0.21781,0.10283 -0.34806,0.01541z" fill="#edf9f4" opacity="0.004"/><path d="M250.6979,115.57014c-0.10512,-0.17499 -0.06538,-0.32787 0.11919,-0.45865c0.00856,0.16554 -0.03117,0.31843 -0.11919,0.45865z" fill="#f7fcfa" opacity="0.016"/><path d="M269.18265,123.47032c0.14738,0.1795 0.14738,0.1795 0,0z" fill="#fdfefd" opacity="0.016"/><path d="M316.00229,144.34473c-0.13724,0.0526 -0.13724,0.0526 0,0z" fill="#fdfefd" opacity="0.016"/><path d="M268.77113,123.62804c0.02113,-0.04739 0.04232,-0.09492 0.06345,-0.14231c0.09492,0.04232 0.1897,0.08458 0.28462,0.1269c-0.10184,0.09756 -0.21781,0.10283 -0.34807,0.01541z" fill="#fdfdfd" opacity="0.012"/><path d="M291.88863,133.76431c0.14738,0.1795 0.14738,0.1795 0,0z" fill="#2caa7c" opacity="0.008"/><path d="M315.51191,144.29669c0.14738,0.1795 0.14738,0.1795 0,0z" fill="#fdfefd" opacity="0.016"/><path d="M268.42307,123.64345c0.02113,-0.04739 0.04232,-0.09492 0.06345,-0.14231c0.09492,0.04232 0.1897,0.08458 0.28462,0.1269c-0.10184,0.09756 -0.21781,0.10283 -0.34806,0.01541z" fill="#fdfdfd" opacity="0.012"/><path d="M277.05947,124.93501c-0.10807,0.17735 -0.13473,0.36455 -0.07976,0.56153c0.97252,1.36574 1.97286,2.69321 3.00121,3.98233c0.16164,1.55063 0.32334,3.10112 0.48498,4.65175c-0.12927,0.01368 -0.24268,0.07673 -0.34036,0.18944c-1.37379,-2.16732 -2.85043,-4.27575 -4.4302,-6.32542c0.12079,-0.63979 0.33779,-1.25392 0.65079,-1.84231c0.15974,-0.47691 0.39747,-0.88271 0.71334,-1.21733z" fill="#33ba84" opacity="0.769"/><path d="M291.68287,133.84317c0.04739,0.02113 0.09492,0.04232 0.14231,0.06345c-0.03846,0.15208 -0.12825,0.22567 -0.26921,0.22117c0.04232,-0.09492 0.08458,-0.1897 0.1269,-0.28462z" fill="#e4f7ef" opacity="0.004"/><path d="M315.16385,144.3121c0.14738,0.1795 0.14738,0.1795 0,0z" fill="#fdfefd" opacity="0.016"/><path d="M268.075,123.65886c0.02113,-0.04739 0.04232,-0.09492 0.06345,-0.14231c0.09492,0.04232 0.1897,0.08458 0.28462,0.1269c-0.10184,0.09756 -0.21781,0.10283 -0.34807,0.01541z" fill="#fdfdfd" opacity="0.012"/><path d="M314.61002,144.40638c0.02113,-0.04739 0.04232,-0.09492 0.06345,-0.14231c0.35841,0.21661 0.33722,0.26414 -0.06345,0.14231z" fill="#f5fbf9" opacity="0.016"/><path d="M268.075,123.65886c-0.12153,0.12068 -0.2269,0.10218 -0.31634,-0.05574c0.11397,-0.02834 0.21949,-0.00979 0.31634,0.05574z" fill="#edf9f4" opacity="0.004"/><path d="M314.32541,144.27948c0.09492,0.04232 0.1897,0.08458 0.28462,0.1269c-0.1795,0.14738 -0.27427,0.10512 -0.28462,-0.1269z" fill="#fdfdfd" opacity="0.012"/><path d="M267.30001,123.48393c0.11348,0.02825 0.1978,0.09433 0.25289,0.19805c-0.17725,0.03903 -0.26143,-0.027 -0.25289,-0.19805z" fill="#fdfdfd" opacity="0.012"/><path d="M274.70008,126.78323c-0.13724,0.0526 -0.13724,0.0526 0,0z" fill="#2caa7c" opacity="0.008"/><path d="M291.41367,134.06434c0.04739,0.02113 0.09492,0.04232 0.14231,0.06345c-0.03846,0.15208 -0.12825,0.22567 -0.2692,0.22117c0.04232,-0.09492 0.08458,-0.1897 0.1269,-0.28462z" fill="#aeddc8" opacity="0.004"/><path d="M313.77158,144.37375c0.02113,-0.04739 0.04232,-0.09492 0.06345,-0.14231c0.35841,0.21661 0.33722,0.26414 -0.06345,0.14231z" fill="#fdfefd" opacity="0.016"/><path d="M266.74619,123.5782c0.12153,-0.12068 0.2269,-0.10218 0.31634,0.05574c-0.11397,0.02834 -0.21949,0.00979 -0.31634,-0.05574z" fill="#fdfdfd" opacity="0.012"/><path d="M291.14446,134.28551c0.04739,0.02113 0.09492,0.04232 0.14231,0.06345c-0.06884,0.08361 -0.11637,0.06242 -0.14231,-0.06345z" fill="#2caa7c" opacity="0.008"/><path d="M296.70993,137.10805c-0.10505,-0.17495 -0.06537,-0.32786 0.11919,-0.45865c0.00859,0.16555 -0.03124,0.3184 -0.11919,0.45865z" fill="#f7fbf9" opacity="0.008"/><path d="M313.77158,144.37375c-0.17495,0.10505 -0.32786,0.06537 -0.45865,-0.11919c0.16555,-0.00859 0.31839,0.03124 0.45865,0.11919z" fill="#f7fcfa" opacity="0.016"/><path d="M265.9712,123.40327c0.02113,-0.04739 0.04232,-0.09492 0.06345,-0.14231c0.7378,0.38576 0.71661,0.43329 -0.06345,0.14231z" fill="#f4fbf8" opacity="0.016"/><path d="M274.57318,127.06785c0.14738,0.1795 0.14738,0.1795 0,0z" fill="#2caa7c" opacity="0.008"/><path d="M312.64852,144.21423c0.17495,-0.10505 0.32786,-0.06536 0.45865,0.11919c-0.16555,0.00859 -0.3184,-0.03124 -0.45865,-0.11919z" fill="#f7fcfa" opacity="0.016"/><path d="M265.25965,123.08603c0.23723,0.10577 0.47432,0.21147 0.71155,0.31724c-0.32181,0.08393 -0.55889,-0.02177 -0.71155,-0.31724z" fill="#f5fbf9" opacity="0.013"/><path d="M290.87526,134.50668c0.14738,0.1795 0.14738,0.1795 0,0z" fill="#2caa7c" opacity="0.008"/><path d="M311.73122,143.97586c0.2764,-0.06664 0.52422,0.01536 0.74327,0.24609c-0.26388,-0.03337 -0.51164,-0.11552 -0.74327,-0.24609z" fill="#f5fbf9" opacity="0.013"/><path d="M263.99428,122.86307c0.37446,-0.02565 0.71707,0.09861 1.02789,0.37298c-0.36027,-0.07584 -0.70281,-0.20024 -1.02789,-0.37298z" fill="#f7fcfa" opacity="0.014"/><path d="M296.36186,137.12347c0.12068,0.12153 0.10218,0.2269 -0.05574,0.31634c-0.02834,-0.11397 -0.00979,-0.21949 0.05574,-0.31634z" fill="#fcfdfc" opacity="0.008"/><path d="M310.24469,143.48369c0.47124,0.01596 0.90876,0.18254 1.3125,0.49988c-0.45596,-0.11833 -0.89348,-0.28491 -1.3125,-0.49988z" fill="#f8fcfa" opacity="0.012"/><path d="M249.63649,116.80288c-0.10512,-0.17499 -0.06538,-0.32786 0.11919,-0.45865c0.00856,0.16554 -0.03117,0.31842 -0.11919,0.45865z" fill="#f7fcfa" opacity="0.016"/><path d="M257.24232,120.02332c2.08886,0.73325 4.13916,1.61905 6.15101,2.65711c-2.07094,-0.83803 -4.12129,-1.72368 -6.15101,-2.65711z" fill="#e5f7f0" opacity="0.004"/><path d="M274.80976,127.68512c-0.13724,0.0526 -0.13724,0.0526 0,0z" fill="#2caa7c" opacity="0.008"/><path d="M290.6695,134.58554c0.04739,0.02113 0.09492,0.04232 0.14231,0.06345c-0.03846,0.15208 -0.12825,0.22567 -0.26921,0.22117c0.04232,-0.09492 0.08458,-0.1897 0.1269,-0.28462z" fill="#aeddc8" opacity="0.004"/><path d="M303.84078,140.62852c0.14738,0.1795 0.10512,0.27427 -0.1269,0.28462c0.04232,-0.09492 0.08458,-0.1897 0.1269,-0.28462z" fill="#fdfdfd" opacity="0.012"/><path d="M257.10001,119.95987c0.04743,0.02115 0.09488,0.0423 0.14231,0.06345c-0.06888,0.08359 -0.11633,0.06243 -0.14231,-0.06345z" fill="#fdfefd" opacity="0.016"/><path d="M290.4003,134.80671c0.04739,0.02113 0.09492,0.04232 0.14231,0.06345c-0.06884,0.08361 -0.11637,0.06242 -0.14231,-0.06345z" fill="#2caa7c" opacity="0.008"/><path d="M274.82518,128.03318c-0.13724,0.0526 -0.13724,0.0526 0,0z" fill="#2caa7c" opacity="0.008"/><path d="M303.57158,140.84969c0.04739,0.02113 0.09492,0.04232 0.14231,0.06345c-0.03846,0.15208 -0.12825,0.22567 -0.26921,0.22117c0.04232,-0.09492 0.08458,-0.1897 0.1269,-0.28462z" fill="#fdfdfd" opacity="0.012"/><path d="M256.8308,120.18104c0.14742,0.17952 0.14742,0.17952 0,0z" fill="#fdfefd" opacity="0.016"/><path d="M290.13109,135.02788c0.14738,0.1795 0.14738,0.1795 0,0z" fill="#2caa7c" opacity="0.008"/><path d="M274.69828,128.3178c0.14738,0.1795 0.14738,0.1795 0,0z" fill="#2caa7c" opacity="0.008"/><path d="M256.5616,120.40221c0.14742,0.17952 0.14742,0.17952 0,0z" fill="#fdfefd" opacity="0.016"/><path d="M289.86189,135.24905c0.14738,0.1795 0.14738,0.1795 0,0z" fill="#2caa7c" opacity="0.008"/><path d="M303.30237,141.07086c0.04739,0.02113 0.09492,0.04232 0.14231,0.06345c-0.03846,0.15208 -0.12825,0.22567 -0.26921,0.22117c0.04232,-0.09492 0.08458,-0.1897 0.1269,-0.28462z" fill="#edf9f4" opacity="0.004"/><path d="M295.64852,138.3408c-0.10505,-0.17495 -0.06536,-0.32786 0.11919,-0.45865c0.00859,0.16555 -0.03124,0.3184 -0.11919,0.45865z" fill="#f7fbf9" opacity="0.008"/><path d="M248.90774,117.67215c-0.10512,-0.17499 -0.06538,-0.32787 0.11919,-0.45865c0.00856,0.16554 -0.03117,0.31843 -0.11919,0.45865z" fill="#f7fcfa" opacity="0.016"/><path d="M256.29239,120.62338c0.14742,0.17952 0.14742,0.17952 0,0z" fill="#fdfefd" opacity="0.016"/><path d="M274.93486,128.93507c-0.13724,0.0526 -0.13724,0.0526 0,0z" fill="#2caa7c" opacity="0.008"/><path d="M289.65613,135.32791c0.04739,0.02113 0.09492,0.04232 0.14231,0.06345c-0.03846,0.15208 -0.12825,0.22567 -0.26921,0.22117c0.04232,-0.09492 0.08458,-0.1897 0.1269,-0.28462z" fill="#aeddc8" opacity="0.004"/><path d="M303.03317,141.29203c0.04739,0.02113 0.09492,0.04232 0.14231,0.06345c-0.03846,0.15208 -0.12825,0.22567 -0.26921,0.22117c0.04232,-0.09492 0.08458,-0.1897 0.1269,-0.28462z" fill="#edf9f4" opacity="0.004"/><path d="M289.38692,135.54908c0.04739,0.02113 0.09492,0.04232 0.14231,0.06345c-0.06884,0.08361 -0.11637,0.06242 -0.14231,-0.06345z" fill="#2caa7c" opacity="0.008"/><path d="M256.02319,120.84455c0.14742,0.17952 0.14742,0.17952 0,0z" fill="#fdfefd" opacity="0.016"/><path d="M295.30045,138.35621c0.12068,0.12153 0.10219,0.2269 -0.05574,0.31634c-0.02834,-0.11397 -0.00979,-0.21949 0.05574,-0.31634z" fill="#fcfdfc" opacity="0.008"/><path d="M302.76396,141.5132c0.04739,0.02113 0.09492,0.04232 0.14231,0.06345c-0.03846,0.15208 -0.12825,0.22567 -0.2692,0.22117c0.04232,-0.09492 0.08458,-0.1897 0.1269,-0.28462z" fill="#edf9f4" opacity="0.004"/><path d="M248.55968,117.68756c0.12068,0.12153 0.10214,0.22689 -0.05574,0.31634c-0.02839,-0.11399 -0.00979,-0.21949 0.05574,-0.31634z" fill="#fdfdfd" opacity="0.012"/><path d="M289.11772,135.77025c0.14738,0.1795 0.14738,0.1795 0,0z" fill="#2caa7c" opacity="0.008"/><path d="M255.75398,121.06572c0.14742,0.17952 0.14742,0.17952 0,0z" fill="#fdfefd" opacity="0.016"/><path d="M302.49476,141.73437c0.04739,0.02113 0.09492,0.04232 0.14231,0.06345c-0.03846,0.15208 -0.12825,0.22567 -0.26921,0.22117c0.04232,-0.09492 0.08458,-0.1897 0.1269,-0.28462z" fill="#edf9f4" opacity="0.004"/><path d="M288.91196,135.84911c0.04739,0.02113 0.09492,0.04232 0.14231,0.06345c-0.03846,0.15208 -0.12825,0.22567 -0.26921,0.22117c0.04232,-0.09492 0.08458,-0.1897 0.1269,-0.28462z" fill="#74c4a1" opacity="0.008"/><path d="M255.48478,121.28689c0.14742,0.17952 0.14742,0.17952 0,0z" fill="#fdfefd" opacity="0.016"/><path d="M302.22555,141.95554c0.04739,0.02113 0.09492,0.04232 0.14231,0.06345c-0.03846,0.15208 -0.12825,0.22567 -0.26921,0.22117c0.04232,-0.09492 0.08458,-0.1897 0.1269,-0.28462z" fill="#edf9f4" opacity="0.004"/><path d="M275.05996,130.18503c-0.13724,0.0526 -0.13724,0.0526 0,0z" fill="#2caa7c" opacity="0.008"/><path d="M288.64276,136.07028c0.04739,0.02113 0.09492,0.04232 0.14231,0.06345c-0.03846,0.15208 -0.12825,0.22567 -0.26921,0.22117c0.04232,-0.09492 0.08458,-0.1897 0.1269,-0.28462z" fill="#aeddc8" opacity="0.004"/><path d="M255.21557,121.50806c0.14742,0.17952 0.14742,0.17952 0,0z" fill="#fdfefd" opacity="0.016"/><path d="M288.37355,136.29145c0.04739,0.02113 0.09492,0.04232 0.14231,0.06345c-0.06884,0.08361 -0.11637,0.06242 -0.14231,-0.06345z" fill="#2caa7c" opacity="0.008"/><path d="M301.95635,142.17671c0.04739,0.02113 0.09492,0.04232 0.14231,0.06345c-0.03846,0.15208 -0.12825,0.22567 -0.2692,0.22117c0.04232,-0.09492 0.08458,-0.1897 0.1269,-0.28462z" fill="#edf9f4" opacity="0.004"/><path d="M274.93306,130.46965c0.14738,0.1795 0.14738,0.1795 0,0z" fill="#2caa7c" opacity="0.008"/><path d="M294.58711,139.57354c-0.10505,-0.17495 -0.06536,-0.32786 0.11919,-0.45865c0.00859,0.16555 -0.03124,0.31839 -0.11919,0.45865z" fill="#f7fbfa" opacity="0.012"/><path d="M247.84633,118.90489c-0.10511,-0.17498 -0.06538,-0.32787 0.11919,-0.45865c0.00855,0.16554 -0.03117,0.31842 -0.11919,0.45865z" fill="#f7fcfa" opacity="0.016"/><path d="M254.94637,121.72923c0.14742,0.17952 0.14742,0.17952 0,0z" fill="#fdfefd" opacity="0.016"/><path d="M288.10435,136.51262c0.14738,0.1795 0.14738,0.1795 0,0z" fill="#2caa7c" opacity="0.008"/><path d="M301.68714,142.39788c0.04739,0.02113 0.09492,0.04232 0.14231,0.06345c-0.03846,0.15208 -0.12825,0.22567 -0.2692,0.22117c0.04232,-0.09492 0.08458,-0.1897 0.1269,-0.28462z" fill="#edf9f4" opacity="0.004"/><path d="M254.67716,121.9504c0.14742,0.17952 0.14742,0.17952 0,0z" fill="#fdfefd" opacity="0.016"/><path d="M287.89859,136.59148c0.04739,0.02113 0.09492,0.04232 0.14231,0.06345c-0.03846,0.15208 -0.12825,0.22567 -0.26921,0.22117c0.04232,-0.09492 0.08458,-0.1897 0.1269,-0.28462z" fill="#aeddc8" opacity="0.004"/><path d="M294.23904,139.58896c0.12068,0.12153 0.10218,0.2269 -0.05574,0.31634c-0.02834,-0.11397 -0.00979,-0.21949 0.05574,-0.31634z" fill="#fcfdfc" opacity="0.008"/><path d="M301.41794,142.61905c0.04739,0.02113 0.09492,0.04232 0.14231,0.06345c-0.03846,0.15208 -0.12825,0.22567 -0.26921,0.22117c0.04232,-0.09492 0.08458,-0.1897 0.1269,-0.28462z" fill="#edf9f4" opacity="0.004"/><path d="M247.49827,118.9203c0.12068,0.12153 0.10214,0.22689 -0.05574,0.31634c-0.02839,-0.11399 -0.00979,-0.21949 0.05574,-0.31634z" fill="#fdfdfd" opacity="0.012"/><path d="M254.40796,122.17157c0.14742,0.17952 0.14742,0.17952 0,0z" fill="#fdfefd" opacity="0.016"/><path d="M275.18506,131.43498c-0.13724,0.0526 -0.13724,0.0526 0,0z" fill="#2caa7c" opacity="0.008"/><path d="M287.62939,136.81265c0.04739,0.02113 0.09492,0.04232 0.14231,0.06345c-0.03846,0.15208 -0.12825,0.22567 -0.26921,0.22117c0.04232,-0.09492 0.08458,-0.1897 0.1269,-0.28462z" fill="#aeddc8" opacity="0.004"/><path d="M301.14873,142.84022c0.04739,0.02113 0.09492,0.04232 0.14231,0.06345c-0.03846,0.15208 -0.12825,0.22567 -0.26921,0.22117c0.04232,-0.09492 0.08458,-0.1897 0.1269,-0.28462z" fill="#edf9f4" opacity="0.004"/><path d="M287.36018,137.03383c0.04739,0.02113 0.09492,0.04232 0.14231,0.06345c-0.06884,0.08361 -0.11637,0.06242 -0.14231,-0.06345z" fill="#2caa7c" opacity="0.008"/><path d="M254.13875,122.39274c0.14742,0.17952 0.14742,0.17952 0,0z" fill="#fdfefd" opacity="0.016"/><path d="M275.05816,131.7196c0.14738,0.1795 0.14738,0.1795 0,0z" fill="#2caa7c" opacity="0.008"/><path d="M282.42022,140.46106c-0.02113,0.04739 -0.04232,0.09492 -0.06345,0.14231c-0.14095,-0.0045 -0.23074,0.06909 -0.26921,0.22117c-0.14095,-0.0045 -0.23074,0.06909 -0.26921,0.22117c-0.14095,-0.0045 -0.23074,0.06908 -0.2692,0.22117c-0.04739,-0.02113 -0.09492,-0.04232 -0.14231,-0.06345c-1.72053,-2.58992 -3.50794,-5.14961 -5.36202,-7.67915c-0.17751,0.01742 -0.33837,0.05948 -0.48267,0.126c-0.04739,-0.02113 -0.09492,-0.04232 -0.14231,-0.06345c0.10236,-0.32524 0.06582,-0.62592 -0.10969,-0.90189c0.08742,-0.13026 0.08214,-0.24623 -0.01541,-0.34807c0.05726,-0.27881 0.06819,-0.55816 0.03262,-0.83844c0.1443,-0.06651 0.30516,-0.10858 0.48267,-0.126c2.23026,3.02463 4.43361,6.05415 6.61018,9.08862z" fill="#1ab878" opacity="0.769"/><path d="M300.87953,143.06139c0.04739,0.02113 0.09492,0.04232 0.14231,0.06345c-0.03846,0.15208 -0.12825,0.22567 -0.26921,0.22117c0.04232,-0.09492 0.08458,-0.1897 0.1269,-0.28462z" fill="#edf9f4" opacity="0.004"/><path d="M287.09097,137.255c0.14738,0.1795 0.14738,0.1795 0,0z" fill="#2caa7c" opacity="0.008"/><path d="M253.86955,122.61391c0.14742,0.17952 0.14742,0.17952 0,0z" fill="#fdfefd" opacity="0.016"/><path d="M300.61032,143.28256c0.04739,0.02113 0.09492,0.04232 0.14231,0.06345c-0.03846,0.15208 -0.12825,0.22567 -0.2692,0.22117c0.04232,-0.09492 0.08458,-0.1897 0.1269,-0.28462z" fill="#edf9f4" opacity="0.004"/><path d="M275.29475,132.33687c-0.13724,0.0526 -0.13724,0.0526 0,0z" fill="#2caa7c" opacity="0.008"/><path d="M286.88522,137.33385c0.04739,0.02113 0.09492,0.04232 0.14231,0.06345c-0.03846,0.15208 -0.12825,0.22567 -0.26921,0.22117c0.04232,-0.09492 0.08458,-0.1897 0.1269,-0.28462z" fill="#aeddc8" opacity="0.004"/><path d="M293.5257,140.80629c-0.10505,-0.17495 -0.06537,-0.32786 0.11919,-0.45865c0.00859,0.16555 -0.03124,0.3184 -0.11919,0.45865z" fill="#f7fcfa" opacity="0.016"/><path d="M246.78493,120.13764c-0.10511,-0.17498 -0.06538,-0.32787 0.11919,-0.45865c0.00855,0.16554 -0.03118,0.31842 -0.11919,0.45865z" fill="#f7fcfa" opacity="0.016"/><path d="M253.60034,122.83508c0.14742,0.17952 0.14742,0.17952 0,0z" fill="#fdfefd" opacity="0.016"/><path d="M286.61601,137.55502c0.04739,0.02113 0.09492,0.04232 0.14231,0.06345c-0.06884,0.08361 -0.11637,0.06242 -0.14231,-0.06345z" fill="#2caa7c" opacity="0.008"/><path d="M300.34112,143.50373c0.04739,0.02113 0.09492,0.04232 0.14231,0.06345c-0.03846,0.15208 -0.12825,0.22567 -0.26921,0.22117c0.04232,-0.09492 0.08458,-0.1897 0.1269,-0.28462z" fill="#edf9f4" opacity="0.004"/><path d="M275.31016,132.68494c-0.13724,0.0526 -0.13724,0.0526 0,0z" fill="#2caa7c" opacity="0.008"/><path d="M253.33114,123.05625c0.14742,0.17952 0.14742,0.17952 0,0z" fill="#fdfefd" opacity="0.016"/><path d="M286.34681,137.7762c0.14738,0.1795 0.14738,0.1795 0,0z" fill="#2caa7c" opacity="0.008"/><path d="M293.17764,140.8217c0.12068,0.12153 0.10218,0.2269 -0.05574,0.31634c-0.02834,-0.11397 -0.00979,-0.21949 0.05574,-0.31634z" fill="#fdfdfd" opacity="0.012"/><path d="M300.07191,143.7249c0.04739,0.02113 0.09492,0.04232 0.14231,0.06345c-0.03846,0.15208 -0.12825,0.22567 -0.2692,0.22117c0.04232,-0.09492 0.08458,-0.1897 0.1269,-0.28462z" fill="#edf9f4" opacity="0.004"/><path d="M246.43686,120.15305c0.12068,0.12153 0.10214,0.22688 -0.05574,0.31634c-0.02839,-0.11399 -0.00979,-0.21949 0.05574,-0.31634z" fill="#fdfdfd" opacity="0.012"/><path d="M275.18326,132.96956c0.14738,0.1795 0.14738,0.1795 0,0z" fill="#2caa7c" opacity="0.008"/><path d="M253.06193,123.27742c0.14742,0.17952 0.14742,0.17952 0,0z" fill="#fdfefd" opacity="0.016"/><path d="M286.14105,137.85506c0.04739,0.02113 0.09492,0.04232 0.14231,0.06345c-0.03846,0.15208 -0.12825,0.22567 -0.2692,0.22117c0.04232,-0.09492 0.08458,-0.1897 0.1269,-0.28462z" fill="#74c4a1" opacity="0.008"/><path d="M299.80271,143.94607c0.04739,0.02113 0.09492,0.04232 0.14231,0.06345c-0.03846,0.15208 -0.12825,0.22567 -0.2692,0.22117c0.04232,-0.09492 0.08458,-0.1897 0.1269,-0.28462z" fill="#edf9f4" opacity="0.004"/><path d="M252.79273,123.49859c0.14742,0.17952 0.14742,0.17952 0,0z" fill="#fdfefd" opacity="0.016"/><path d="M275.41985,133.58683c-0.13724,0.0526 -0.13724,0.0526 0,0z" fill="#2caa7c" opacity="0.008"/><path d="M285.87185,138.07622c0.04739,0.02113 0.09492,0.04232 0.14231,0.06345c-0.03846,0.15208 -0.12825,0.22567 -0.26921,0.22117c0.04232,-0.09492 0.08458,-0.1897 0.1269,-0.28462z" fill="#aeddc8" opacity="0.004"/><path d="M299.5335,144.16724c0.04739,0.02113 0.09492,0.04232 0.14231,0.06345c-0.03846,0.15208 -0.12825,0.22567 -0.26921,0.22117c0.04232,-0.09492 0.08458,-0.1897 0.1269,-0.28462z" fill="#edf9f4" opacity="0.004"/><path d="M285.60264,138.2974c0.04739,0.02113 0.09492,0.04232 0.14231,0.06345c-0.06884,0.08361 -0.11637,0.06242 -0.14231,-0.06345z" fill="#2caa7c" opacity="0.008"/><path d="M252.52352,123.71976c0.14742,0.17952 0.14742,0.17952 0,0z" fill="#fdfefd" opacity="0.016"/><path d="M299.2643,144.38841c0.04739,0.02113 0.09492,0.04232 0.14231,0.06345c-0.03846,0.15208 -0.12825,0.22567 -0.26921,0.22117c0.04232,-0.09492 0.08458,-0.1897 0.1269,-0.28462z" fill="#edf9f4" opacity="0.004"/><path d="M285.33344,138.51857c0.14738,0.1795 0.14738,0.1795 0,0z" fill="#2caa7c" opacity="0.008"/><path d="M292.46429,142.03903c-0.10505,-0.17495 -0.06536,-0.32786 0.11919,-0.45865c0.00859,0.16555 -0.03124,0.3184 -0.11919,0.45865z" fill="#f7fcfa" opacity="0.016"/><path d="M298.99509,144.60958c0.04739,0.02113 0.09492,0.04232 0.14231,0.06345c-0.06884,0.08361 -0.11637,0.06242 -0.14231,-0.06345z" fill="#fcfdfc" opacity="0.008"/><path d="M245.72352,121.37038c-0.10511,-0.17498 -0.06538,-0.32787 0.11919,-0.45865c0.00855,0.16554 -0.03117,0.31842 -0.11919,0.45865z" fill="#f7fcfa" opacity="0.016"/><path d="M298.78934,144.68844c0.04739,0.02113 0.09492,0.04232 0.14231,0.06345c-0.06884,0.08361 -0.11637,0.06242 -0.14231,-0.06345z" fill="#e4f7ef" opacity="0.004"/><path d="M251.90625,123.95634c0.14742,0.17952 0.14742,0.17952 0,0z" fill="#e4f7ef" opacity="0.004"/><path d="M285.12768,138.59743c0.04739,0.02113 0.09492,0.04232 0.14231,0.06345c-0.03846,0.15208 -0.12825,0.22567 -0.2692,0.22117c0.04232,-0.09492 0.08458,-0.1897 0.1269,-0.28462z" fill="#74c4a1" opacity="0.008"/><path d="M298.58358,144.7673c0.04739,0.02113 0.09492,0.04232 0.14231,0.06345c-0.06884,0.08361 -0.11637,0.06242 -0.14231,-0.06345z" fill="#fcfdfc" opacity="0.008"/><path d="M251.49474,124.11406c0.02113,-0.04739 0.04232,-0.09492 0.06345,-0.14231c0.09488,0.0423 0.18974,0.0846 0.28462,0.1269c-0.1018,0.09758 -0.21787,0.10281 -0.34807,0.01541z" fill="#fdfdfd" opacity="0.012"/><path d="M292.11623,142.05445c0.12068,0.12153 0.10219,0.22691 -0.05574,0.31634c-0.02834,-0.11397 -0.00979,-0.21949 0.05574,-0.31634z" fill="#fdfdfd" opacity="0.012"/><path d="M298.02976,144.86157c0.02113,-0.04739 0.04232,-0.09492 0.06345,-0.14231c0.35841,0.21661 0.33722,0.26414 -0.06345,0.14231z" fill="#f5fbf9" opacity="0.016"/><path d="M245.37545,121.38579c0.12068,0.12153 0.10214,0.22689 -0.05574,0.31634c-0.02839,-0.11399 -0.00979,-0.21949 0.05574,-0.31634z" fill="#fdfdfd" opacity="0.012"/><path d="M251.49474,124.11406c-0.12147,0.1207 -0.22693,0.10217 -0.31634,-0.05574c0.11403,-0.02832 0.2195,-0.00978 0.31634,0.05574z" fill="#edf9f4" opacity="0.004"/><path d="M275.54495,134.83678c-0.13724,0.0526 -0.13724,0.0526 0,0z" fill="#2caa7c" opacity="0.008"/><path d="M284.85847,138.81859c0.04739,0.02113 0.09492,0.04232 0.14231,0.06345c-0.03846,0.15208 -0.12825,0.22567 -0.26921,0.22117c0.04232,-0.09492 0.08458,-0.1897 0.1269,-0.28462z" fill="#aeddc8" opacity="0.004"/><path d="M297.68169,144.87699c0.02113,-0.04739 0.04232,-0.09492 0.06345,-0.14231c0.09492,0.04232 0.1897,0.08458 0.28462,0.1269c-0.10184,0.09756 -0.21781,0.10283 -0.34807,0.01541z" fill="#fdfdfd" opacity="0.012"/><path d="M250.6563,124.08144c0.02113,-0.04739 0.04232,-0.09492 0.06345,-0.14231c0.35837,0.21659 0.33717,0.26412 -0.06345,0.14231z" fill="#fdfdfd" opacity="0.012"/><path d="M284.58927,139.03976c0.04739,0.02113 0.09492,0.04232 0.14231,0.06345c-0.06884,0.08361 -0.11637,0.06242 -0.14231,-0.06345z" fill="#2caa7c" opacity="0.008"/><path d="M297.19131,144.82895c0.02113,-0.04739 0.04232,-0.09492 0.06345,-0.14231c0.14231,0.06345 0.28462,0.1269 0.42693,0.19034c-0.15825,0.08366 -0.32169,0.0676 -0.49038,-0.04804z" fill="#f1faf6" opacity="0.016"/><path d="M250.6563,124.08144c-0.12147,0.1207 -0.22693,0.10217 -0.31634,-0.05574c0.11403,-0.02832 0.2195,-0.00978 0.31634,0.05574z" fill="#edf9f4" opacity="0.004"/><path d="M275.41805,135.1214c0.14738,0.1795 0.14738,0.1795 0,0z" fill="#2caa7c" opacity="0.008"/><path d="M296.84325,144.84436c0.02113,-0.04739 0.04232,-0.09492 0.06345,-0.14231c0.09492,0.04232 0.1897,0.08458 0.28462,0.1269c-0.10184,0.09756 -0.21781,0.10283 -0.34806,0.01541z" fill="#fdfdfd" opacity="0.012"/><path d="M249.81785,124.04882c0.02113,-0.04739 0.04232,-0.09492 0.06345,-0.14231c0.35837,0.21659 0.33717,0.26412 -0.06345,0.14231z" fill="#fcfdfc" opacity="0.008"/><path d="M284.32006,139.26094c0.14738,0.1795 0.14738,0.1795 0,0z" fill="#2caa7c" opacity="0.008"/><path d="M296.84325,144.84436c-0.12153,0.12068 -0.2269,0.10218 -0.31634,-0.05574c0.11397,-0.02834 0.21949,-0.00979 0.31634,0.05574z" fill="#edf9f4" opacity="0.004"/><path d="M249.53324,123.92192c0.09488,0.0423 0.18974,0.08459 0.28462,0.1269c-0.17945,0.1474 -0.27432,0.1051 -0.28462,-0.1269z" fill="#edf9f4" opacity="0.004"/><path d="M284.11431,139.3398c0.04739,0.02113 0.09492,0.04232 0.14231,0.06345c-0.03846,0.15208 -0.12825,0.22567 -0.26921,0.22117c0.04232,-0.09492 0.08458,-0.1897 0.1269,-0.28462z" fill="#2caa7c" opacity="0.008"/><path d="M296.00481,144.81174c0.02113,-0.04739 0.04232,-0.09492 0.06345,-0.14231c0.35841,0.21661 0.33722,0.26414 -0.06345,0.14231z" fill="#fdfdfd" opacity="0.012"/><path d="M248.97941,124.01619c0.02113,-0.04739 0.04232,-0.09492 0.06345,-0.14231c0.35837,0.21659 0.33717,0.26412 -0.06345,0.14231z" fill="#fcfdfc" opacity="0.008"/><path d="M275.65463,135.73867c-0.13724,0.0526 -0.13724,0.0526 0,0z" fill="#2caa7c" opacity="0.008"/><path d="M296.00481,144.81174c-0.12153,0.12068 -0.2269,0.10219 -0.31634,-0.05574c0.11397,-0.02834 0.21949,-0.00979 0.31634,0.05574z" fill="#edf9f4" opacity="0.004"/><path d="M248.6948,123.8893c0.09488,0.0423 0.18974,0.0846 0.28462,0.1269c-0.17945,0.1474 -0.27432,0.1051 -0.28462,-0.1269z" fill="#edf9f4" opacity="0.004"/><path d="M283.8451,139.56097c0.04739,0.02113 0.09492,0.04232 0.14231,0.06345c-0.06884,0.08361 -0.11637,0.06242 -0.14231,-0.06345z" fill="#2caa7c" opacity="0.008"/><path d="M291.40289,143.27178c-0.10505,-0.17495 -0.06537,-0.32786 0.11919,-0.45865c0.00859,0.16555 -0.03124,0.31839 -0.11919,0.45865z" fill="#f7fcfa" opacity="0.016"/><path d="M295.16637,144.77912c0.02113,-0.04739 0.04232,-0.09492 0.06345,-0.14231c0.35841,0.21661 0.33722,0.26413 -0.06345,0.14231z" fill="#fdfdfd" opacity="0.012"/><path d="M244.71015,122.11275c0.08366,0.15825 0.06765,0.32171 -0.04803,0.49037c-0.04744,-0.02115 -0.09487,-0.0423 -0.14231,-0.06345c0.06345,-0.14231 0.1269,-0.28462 0.19034,-0.42693z" fill="#f7fcfa" opacity="0.016"/><path d="M248.14097,123.98357c0.02113,-0.04739 0.04232,-0.09492 0.06345,-0.14231c0.35837,0.21659 0.33717,0.26412 -0.06345,0.14231z" fill="#f5fbf8" opacity="0.008"/><path d="M275.67005,136.08674c-0.13724,0.0526 -0.13724,0.0526 0,0z" fill="#2caa7c" opacity="0.008"/><path d="M294.88175,144.65222c0.09492,0.04232 0.1897,0.08458 0.28462,0.1269c-0.1795,0.14738 -0.27427,0.10512 -0.28462,-0.1269z" fill="#edf9f4" opacity="0.004"/><path d="M247.79291,123.99898c0.02113,-0.04739 0.04232,-0.09492 0.06345,-0.14231c0.09488,0.0423 0.18974,0.0846 0.28462,0.1269c-0.1018,0.09758 -0.21787,0.10281 -0.34807,0.01541z" fill="#fdfdfd" opacity="0.012"/><path d="M283.5759,139.78214c0.14738,0.1795 0.14738,0.1795 0,0z" fill="#2caa7c" opacity="0.008"/><path d="M294.32793,144.7465c0.02113,-0.04739 0.04232,-0.09492 0.06345,-0.14231c0.35841,0.21661 0.33722,0.26414 -0.06345,0.14231z" fill="#fdfdfd" opacity="0.012"/><path d="M247.30253,123.95095c0.02113,-0.04739 0.04232,-0.09492 0.06345,-0.14231c0.14231,0.06345 0.28462,0.1269 0.42693,0.19034c-0.15825,0.08366 -0.32169,0.0676 -0.49038,-0.04804z" fill="#f1faf6" opacity="0.016"/><path d="M275.62201,136.57711c-0.01034,-0.23202 -0.01034,-0.23202 0,0z" fill="#2caa7c" opacity="0.008"/><path d="M294.04331,144.6196c0.09492,0.04232 0.1897,0.08458 0.28462,0.1269c-0.1795,0.14738 -0.27427,0.10512 -0.28462,-0.1269z" fill="#fdfdfd" opacity="0.012"/><path d="M246.95447,123.96636c0.02113,-0.04739 0.04232,-0.09492 0.06345,-0.14231c0.09488,0.0423 0.18974,0.08459 0.28462,0.1269c-0.1018,0.09758 -0.21786,0.10281 -0.34806,0.01541z" fill="#fdfdfd" opacity="0.012"/><path d="M283.30669,140.00331c0.14738,0.1795 0.14738,0.1795 0,0z" fill="#2caa7c" opacity="0.008"/><path d="M293.48949,144.71387c0.02113,-0.04739 0.04232,-0.09492 0.06345,-0.14231c0.35841,0.21661 0.33722,0.26414 -0.06345,0.14231z" fill="#f5fbf9" opacity="0.016"/><path d="M246.95447,123.96636c-0.12147,0.1207 -0.22693,0.10217 -0.31634,-0.05574c0.11403,-0.02832 0.2195,-0.00978 0.31634,0.05574z" fill="#edf9f4" opacity="0.004"/><path d="M275.62201,136.57711c0.04739,0.02113 0.09492,0.04232 0.14231,0.06345c-0.04232,0.09492 -0.08458,0.1897 -0.1269,0.28462c-0.09756,-0.10184 -0.10283,-0.21781 -0.01541,-0.34807z" fill="#aeddc8" opacity="0.004"/><path d="M283.10093,140.08217c0.04739,0.02113 0.09492,0.04232 0.14231,0.06345c-0.03846,0.15208 -0.12825,0.22567 -0.26921,0.22117c0.04232,-0.09492 0.08458,-0.1897 0.1269,-0.28462z" fill="#2caa7c" opacity="0.008"/><path d="M293.14142,144.72929c0.02113,-0.04739 0.04232,-0.09492 0.06345,-0.14231c0.09492,0.04232 0.1897,0.08458 0.28462,0.1269c-0.10184,0.09756 -0.21781,0.10283 -0.34806,0.01541z" fill="#fdfdfd" opacity="0.012"/><path d="M246.11602,123.93374c0.02113,-0.04739 0.04232,-0.09492 0.06345,-0.14231c0.35837,0.21659 0.33717,0.26412 -0.06345,0.14231z" fill="#fdfdfd" opacity="0.012"/><path d="M275.63742,136.92518c0.04739,0.02113 0.09492,0.04232 0.14231,0.06345c-0.06884,0.08361 -0.11637,0.06242 -0.14231,-0.06345z" fill="#2caa7c" opacity="0.008"/><path d="M292.65105,144.68125c0.02113,-0.04739 0.04232,-0.09492 0.06345,-0.14231c0.14231,0.06345 0.28462,0.1269 0.42693,0.19034c-0.15825,0.08366 -0.32169,0.0676 -0.49038,-0.04804z" fill="#f1faf6" opacity="0.016"/><path d="M246.11602,123.93374c-0.12147,0.1207 -0.22693,0.10217 -0.31634,-0.05574c0.11403,-0.02832 0.2195,-0.00978 0.31634,0.05574z" fill="#edf9f4" opacity="0.004"/><path d="M282.83173,140.30334c0.04739,0.02113 0.09492,0.04232 0.14231,0.06345c-0.06884,0.08361 -0.11637,0.06242 -0.14231,-0.06345z" fill="#2caa7c" opacity="0.008"/><path d="M290.67413,144.14104c-0.10505,-0.17495 -0.06537,-0.32786 0.11919,-0.45865c0.00859,0.16555 -0.03124,0.31839 -0.11919,0.45865z" fill="#f7fbfa" opacity="0.012"/><path d="M292.30298,144.69666c0.02113,-0.04739 0.04232,-0.09492 0.06345,-0.14231c0.09492,0.04232 0.1897,0.08458 0.28462,0.1269c-0.10184,0.09756 -0.21781,0.10283 -0.34807,0.01541z" fill="#fdfdfd" opacity="0.012"/><path d="M245.27759,123.90112c0.02113,-0.04739 0.04232,-0.09492 0.06345,-0.14231c0.35837,0.21659 0.33717,0.26412 -0.06345,0.14231z" fill="#fdfefd" opacity="0.016"/><path d="M292.30298,144.69666c-0.12153,0.12068 -0.2269,0.10219 -0.31634,-0.05574c0.11397,-0.02834 0.21949,-0.00979 0.31634,0.05574z" fill="#edf9f4" opacity="0.004"/><path d="M244.99297,123.77422c0.09487,0.0423 0.18975,0.0846 0.28462,0.1269c-0.17945,0.1474 -0.27432,0.1051 -0.28462,-0.1269z" fill="#edf9f4" opacity="0.004"/><path d="M282.56253,140.52451c0.14738,0.1795 0.14738,0.1795 0,0z" fill="#2caa7c" opacity="0.008"/><path d="M291.46454,144.66404c0.02113,-0.04739 0.04232,-0.09492 0.06345,-0.14231c0.35841,0.21661 0.33722,0.26414 -0.06345,0.14231z" fill="#fdfdfd" opacity="0.012"/><path d="M244.43915,123.86849c0.02113,-0.04739 0.04232,-0.09492 0.06345,-0.14231c0.35836,0.21658 0.33717,0.26412 -0.06345,0.14231z" fill="#fdfdfd" opacity="0.012"/><path d="M275.87401,137.54245c-0.04232,0.09492 -0.08458,0.1897 -0.1269,0.28462c-0.14738,-0.1795 -0.10512,-0.27427 0.1269,-0.28462z" fill="#74c4a1" opacity="0.008"/><path d="M282.35677,140.60337c0.04739,0.02113 0.09492,0.04232 0.14231,0.06345c-0.03846,0.15208 -0.12825,0.22567 -0.26921,0.22117c0.04232,-0.09492 0.08458,-0.1897 0.1269,-0.28462z" fill="#2caa7c" opacity="0.008"/><path d="M291.46454,144.66404c-0.12153,0.12068 -0.22691,0.10219 -0.31634,-0.05574c0.11397,-0.02834 0.21949,-0.00979 0.31634,0.05574z" fill="#edf9f4" opacity="0.004"/><path d="M244.15453,123.7416c0.09487,0.0423 0.18975,0.0846 0.28462,0.1269c-0.17945,0.1474 -0.27432,0.1051 -0.28462,-0.1269z" fill="#fdfdfd" opacity="0.012"/><path d="M290.68955,144.48911c0.11348,0.02825 0.1978,0.09433 0.25289,0.19805c-0.17725,0.03903 -0.26143,-0.02699 -0.25289,-0.19805z" fill="#f5fbf9" opacity="0.016"/><path d="M275.74711,137.82707c0.04739,0.02113 0.09492,0.04232 0.14231,0.06345c-0.04232,0.09492 -0.08458,0.1897 -0.1269,0.28462c-0.09756,-0.10184 -0.10283,-0.21781 -0.01541,-0.34807z" fill="#aeddc8" opacity="0.004"/><path d="M279.85506,142.38814c-0.02113,0.04739 -0.04232,0.09492 -0.06345,0.14231c-0.2301,-0.0219 -0.38846,0.07809 -0.47496,0.30003c-0.14095,-0.0045 -0.23074,0.06909 -0.26921,0.22117c-0.14095,-0.0045 -0.23074,0.06909 -0.2692,0.22117c-0.09492,-0.04232 -0.16344,-0.01606 -0.20576,0.07886c-0.14095,-0.0045 -0.23074,0.06908 -0.2692,0.22117c-0.14095,-0.0045 -0.23074,0.06909 -0.26921,0.22117c-0.2301,-0.0219 -0.38847,0.07809 -0.47496,0.30003c-0.14095,-0.0045 -0.23074,0.06908 -0.2692,0.22117c-0.09492,-0.04232 -0.16344,-0.01606 -0.20576,0.07886c-0.1897,-0.08458 -0.37954,-0.16922 -0.56924,-0.25379c0.08742,-0.13026 0.08214,-0.24622 -0.01541,-0.34806c0.0359,-0.31393 -0.00064,-0.61461 -0.10968,-0.90189c0.08742,-0.13026 0.08214,-0.24622 -0.01541,-0.34806c0.08742,-0.13026 0.08214,-0.24623 -0.01541,-0.34807c0.01529,-0.1996 -0.01618,-0.38423 -0.09427,-0.55382c0.08742,-0.13026 0.08214,-0.24623 -0.01541,-0.34807c0.10727,-0.21267 0.0758,-0.3973 -0.09427,-0.55382c0.08742,-0.13026 0.08214,-0.24623 -0.01541,-0.34807c0.08742,-0.13026 0.08214,-0.24623 -0.01541,-0.34807c0.10727,-0.21267 0.0758,-0.3973 -0.09427,-0.55382c0.08742,-0.13026 0.08214,-0.24623 -0.01541,-0.34807c0.08742,-0.13026 0.08214,-0.24623 -0.01541,-0.34807c0.01529,-0.1996 -0.01618,-0.38423 -0.09427,-0.55382c0.08742,-0.13026 0.08214,-0.24623 -0.01541,-0.34807c0.08742,-0.13026 0.08214,-0.24623 -0.01541,-0.34807c0.02113,-0.04739 0.04232,-0.09492 0.06345,-0.14231c0.12927,-0.01368 0.24268,-0.07673 0.34036,-0.18944c1.13949,1.77029 2.33191,3.4961 3.57725,5.17745z" fill="#2fd794" opacity="0.769"/><path d="M282.08756,140.82454c0.04739,0.02113 0.09492,0.04232 0.14231,0.06345c-0.03846,0.15208 -0.12825,0.22567 -0.26921,0.22117c0.04232,-0.09492 0.08458,-0.1897 0.1269,-0.28462z" fill="#2caa7c" opacity="0.008"/><path d="M275.76252,138.17513c0.04739,0.02113 0.09492,0.04232 0.14231,0.06345c-0.06884,0.08361 -0.11637,0.06242 -0.14231,-0.06345z" fill="#2caa7c" opacity="0.008"/><path d="M281.81836,141.04571c0.04739,0.02113 0.09492,0.04232 0.14231,0.06345c-0.06884,0.08361 -0.11637,0.06242 -0.14231,-0.06345z" fill="#2caa7c" opacity="0.008"/><path d="M281.54915,141.26688c0.14738,0.1795 0.14738,0.1795 0,0z" fill="#2caa7c" opacity="0.008"/><path d="M275.9991,138.7924c-0.04232,0.09492 -0.08458,0.1897 -0.1269,0.28462c-0.14738,-0.1795 -0.10512,-0.27427 0.1269,-0.28462z" fill="#74c4a1" opacity="0.008"/><path d="M281.3434,141.34574c0.04739,0.02113 0.09492,0.04232 0.14231,0.06345c-0.03846,0.15208 -0.12825,0.22567 -0.26921,0.22117c0.04232,-0.09492 0.08458,-0.1897 0.1269,-0.28462z" fill="#2caa7c" opacity="0.008"/><path d="M275.87221,139.07702c0.04739,0.02113 0.09492,0.04232 0.14231,0.06345c-0.04232,0.09492 -0.08458,0.1897 -0.1269,0.28462c-0.09756,-0.10184 -0.10283,-0.21781 -0.01541,-0.34807z" fill="#aeddc8" opacity="0.004"/><path d="M281.07419,141.56691c0.04739,0.02113 0.09492,0.04232 0.14231,0.06345c-0.03846,0.15208 -0.12825,0.22567 -0.26921,0.22117c0.04232,-0.09492 0.08458,-0.1897 0.1269,-0.28462z" fill="#2caa7c" opacity="0.008"/><path d="M275.88762,139.42509c0.04739,0.02113 0.09492,0.04232 0.14231,0.06345c-0.06884,0.08361 -0.11637,0.06242 -0.14231,-0.06345z" fill="#2caa7c" opacity="0.008"/><path d="M280.80498,141.78808c0.04739,0.02113 0.09492,0.04232 0.14231,0.06345c-0.06884,0.08361 -0.11637,0.06242 -0.14231,-0.06345z" fill="#2caa7c" opacity="0.008"/><path d="M275.9819,139.97891c-0.01034,-0.23202 -0.01034,-0.23202 0,0z" fill="#2caa7c" opacity="0.008"/><path d="M280.53578,142.00925c0.14738,0.1795 0.14738,0.1795 0,0z" fill="#2caa7c" opacity="0.008"/><path d="M275.9819,139.97891c0.04739,0.02113 0.09492,0.04232 0.14231,0.06345c-0.04232,0.09492 -0.08458,0.1897 -0.1269,0.28462c-0.09756,-0.10184 -0.10283,-0.21781 -0.01541,-0.34807z" fill="#aeddc8" opacity="0.004"/><path d="M280.33002,142.08811c0.04739,0.02113 0.09492,0.04232 0.14231,0.06345c-0.03846,0.15208 -0.12825,0.22567 -0.26921,0.22117c0.04232,-0.09492 0.08458,-0.1897 0.1269,-0.28462z" fill="#2caa7c" opacity="0.008"/><path d="M275.99731,140.32697c0.04739,0.02113 0.09492,0.04232 0.14231,0.06345c-0.06884,0.08361 -0.11637,0.06242 -0.14231,-0.06345z" fill="#2caa7c" opacity="0.008"/><path d="M280.06082,142.30928c0.04739,0.02113 0.09492,0.04232 0.14231,0.06345c-0.06884,0.08361 -0.11637,0.06242 -0.14231,-0.06345z" fill="#2caa7c" opacity="0.008"/><path d="M276.15503,140.73849c-0.13724,0.0526 -0.13724,0.0526 0,0z" fill="#2caa7c" opacity="0.008"/><path d="M279.79161,142.53045c0.14738,0.1795 0.14738,0.1795 0,0z" fill="#2caa7c" opacity="0.008"/><path d="M276.10699,141.22886c-0.01034,-0.23202 -0.01034,-0.23202 0,0z" fill="#2caa7c" opacity="0.008"/><path d="M279.52241,142.75162c0.14738,0.1795 0.14738,0.1795 0,0z" fill="#2caa7c" opacity="0.008"/><path d="M276.10699,141.22886c0.04739,0.02113 0.09492,0.04232 0.14231,0.06345c-0.04232,0.09492 -0.08458,0.1897 -0.1269,0.28462c-0.09756,-0.10184 -0.10283,-0.21781 -0.01541,-0.34807z" fill="#aeddc8" opacity="0.004"/><path d="M276.12241,141.57693c0.04739,0.02113 0.09492,0.04232 0.14231,0.06345c-0.06884,0.08361 -0.11637,0.06242 -0.14231,-0.06345z" fill="#2caa7c" opacity="0.008"/><path d="M279.31665,142.83048c0.04739,0.02113 0.09492,0.04232 0.14231,0.06345c-0.03846,0.15208 -0.12825,0.22567 -0.26921,0.22117c0.04232,-0.09492 0.08458,-0.1897 0.1269,-0.28462z" fill="#aeddc8" opacity="0.004"/><path d="M279.04745,143.05165c0.04739,0.02113 0.09492,0.04232 0.14231,0.06345c-0.06884,0.08361 -0.11637,0.06242 -0.14231,-0.06345z" fill="#2caa7c" opacity="0.008"/><path d="M278.77824,143.27282c0.14738,0.1795 0.14738,0.1795 0,0z" fill="#2caa7c" opacity="0.008"/><path d="M276.35899,142.1942c-0.04232,0.09492 -0.08458,0.1897 -0.1269,0.28462c-0.14738,-0.1795 -0.10512,-0.27427 0.1269,-0.28462z" fill="#74c4a1" opacity="0.008"/><path d="M278.57248,143.35168c0.04739,0.02113 0.09492,0.04232 0.14231,0.06345c-0.03846,0.15208 -0.12825,0.22567 -0.2692,0.22117c0.04232,-0.09492 0.08458,-0.1897 0.1269,-0.28462z" fill="#74c4a1" opacity="0.008"/><path d="M276.23209,142.47882c0.04739,0.02113 0.09492,0.04232 0.14231,0.06345c-0.04232,0.09492 -0.08458,0.1897 -0.1269,0.28462c-0.09756,-0.10184 -0.10283,-0.21781 -0.01541,-0.34806z" fill="#aeddc8" opacity="0.004"/><path d="M276.24751,142.82688c0.04739,0.02113 0.09492,0.04232 0.14231,0.06345c-0.06884,0.08361 -0.11637,0.06242 -0.14231,-0.06345z" fill="#2caa7c" opacity="0.008"/><path d="M278.30328,143.57285c0.04739,0.02113 0.09492,0.04232 0.14231,0.06345c-0.03846,0.15208 -0.12825,0.22567 -0.26921,0.22117c0.04232,-0.09492 0.08458,-0.1897 0.1269,-0.28462z" fill="#aeddc8" opacity="0.004"/><path d="M278.03407,143.79402c0.04739,0.02113 0.09492,0.04232 0.14231,0.06345c-0.06884,0.08361 -0.11637,0.06242 -0.14231,-0.06345z" fill="#2caa7c" opacity="0.008"/><path d="M277.76487,144.01519c0.14738,0.1795 0.14738,0.1795 0,0z" fill="#2caa7c" opacity="0.008"/><path d="M277.55911,144.09405c0.04739,0.02113 0.09492,0.04232 0.14231,0.06345c-0.03846,0.15208 -0.12825,0.22567 -0.2692,0.22117c0.04232,-0.09492 0.08458,-0.1897 0.1269,-0.28462z" fill="#e4f7ef" opacity="0.004"/><path d="M276.4995,143.79222c-0.13724,0.0526 -0.13724,0.0526 0,0z" fill="#2caa7c" opacity="0.008"/><path d="M277.28991,144.31522c0.04739,0.02113 0.09492,0.04232 0.14231,0.06345c-0.02113,0.04739 -0.04232,0.09492 -0.06345,0.14231c-0.02626,-0.06852 -0.0526,-0.13724 -0.07886,-0.20576z" fill="#2caa7c" opacity="0.008"/></g></g></g></svg>