<svg version="1.1" xmlns="http://www.w3.org/2000/svg" xmlns:xlink="http://www.w3.org/1999/xlink" width="66.32896" height="105.11916" viewBox="0,0,66.32896,105.11916"><g transform="translate(-200.11654,-137.10585)"><g data-paper-data="{&quot;isPaintingLayer&quot;:true}" stroke-linejoin="miter" stroke-miterlimit="10" stroke-dasharray="" stroke-dashoffset="0" style="mix-blend-mode: normal"><g><g fill-rule="evenodd" stroke="none" stroke-width="1" stroke-linecap="butt"><path d="M257.61128,159.87096c0,-0.33978 0,-0.67956 0,-1.01933c-0.71999,0.01087 -1.17291,-0.3289 -1.35911,-1.01933c-0.04281,-1.00846 -0.55248,-1.68802 -1.529,-2.03867c-0.31939,-0.82974 -0.71557,-1.62244 -1.18922,-2.37844c-3.20105,-2.64109 -6.37219,-5.24617 -9.51377,-7.81489c7.4024,-3.02164 14.87751,-5.85301 22.42533,-8.49444c-2.42397,7.84683 -5.36883,15.43508 -8.83422,22.7651z" fill="#090909" opacity="0.79"/><path d="M243.6804,145.6003c0.11315,0 0.22663,0 0.33978,0c3.14158,2.56872 6.31273,5.17379 9.51377,7.81489c0.47365,0.75601 0.86983,1.54871 1.18922,2.37844c0.97652,0.35065 1.48619,1.03021 1.529,2.03867c-3.88604,-3.02742 -7.84988,-6.02901 -11.89222,-9.00411c-0.5236,-0.46584 -0.97686,-0.9755 -1.35911,-1.529c0.48996,-0.44851 0.71625,-1.01458 0.67956,-1.69889z" fill="#0f1714" opacity="0.769"/><path d="M243.6804,145.6003c0.0367,0.68431 -0.1896,1.25038 -0.67956,1.69889c-0.95919,0.50695 -1.5256,1.29999 -1.69889,2.37844c-1.16102,0.71081 -1.95372,1.73015 -2.37844,3.058c-0.11315,0 -0.22663,0 -0.33978,0c-1.1651,-1.08763 -1.95814,-2.44674 -2.37844,-4.07733c2.46747,-1.01288 4.95939,-2.03221 7.47511,-3.058z" fill="#014832" opacity="0.682"/><path d="M243.00084,147.29918c0.38225,0.5535 0.83551,1.06316 1.35911,1.529c4.04233,2.97509 8.00618,5.97669 11.89222,9.00411c0.1862,0.69043 0.63912,1.03021 1.35911,1.01933c0,0.33978 0,0.67956 0,1.01933c-0.16309,0.99997 -0.50287,1.90615 -1.01933,2.71822c0.04349,-0.73222 -0.1264,-1.41178 -0.50967,-2.03867c-1.13248,-0.90619 -2.2653,-1.81203 -3.39778,-2.71822c-0.16411,-0.32211 -0.22052,-0.66189 -0.16989,-1.01933c0,-0.22663 0,-0.45292 0,-0.67956c-0.1563,-0.32007 -0.60922,-0.5467 -1.35911,-0.67956c-0.54296,0.33468 -1.10937,0.39108 -1.69889,0.16989c-2.66522,-2.06721 -5.38344,-4.04947 -8.15466,-5.94611c0.17329,-1.07845 0.7397,-1.8715 1.69889,-2.37844z" fill="#14201b" opacity="0.769"/><path d="M236.20529,148.65829c0.4203,1.63059 1.21335,2.9897 2.37844,4.07733c-0.80391,1.36591 -1.59662,2.72502 -2.37844,4.07733c-0.64965,0.7329 -1.21606,1.52594 -1.69889,2.37844c-0.36016,-2.72128 -1.09646,-5.32635 -2.20855,-7.81489c-0.73358,-0.23683 -1.46988,-0.12334 -2.20855,0.33978c-0.27114,-0.15528 -0.38429,-0.38191 -0.33978,-0.67956c2.12395,-0.8593 4.2761,-1.652 6.45578,-2.37844z" fill="#03634a" opacity="0.768"/><path d="M241.30195,149.67763c2.77123,1.89664 5.48945,3.8789 8.15466,5.94611c0.58951,0.2212 1.15592,0.16479 1.69889,-0.16989c0.74989,0.13285 1.20281,0.35948 1.35911,0.67956c-1.0336,0.07917 -1.93945,0.41895 -2.71822,1.01933c-1.04448,0.2725 -2.06381,0.61228 -3.058,1.01933c-0.42064,-0.10533 -0.42064,-0.27522 0,-0.50967c-1.12976,0.18008 -2.14909,-0.1597 -3.058,-1.01933c-1.65845,-1.26635 -3.24386,-2.56906 -4.75689,-3.90744c0.42472,-1.32785 1.21742,-2.34718 2.37844,-3.058z" fill="#1b3028" opacity="0.769"/><path d="M229.06996,151.37652c-0.00374,0.51544 -0.23003,0.91196 -0.67956,1.18922c0.99725,0.78455 1.33703,1.74748 1.01933,2.88811c0.10023,1.15898 0.10023,2.29146 0,3.39778c-0.77096,0.17159 -1.22422,0.62451 -1.35911,1.35911c0.02209,0.14882 -0.03432,0.26231 -0.16989,0.33978c-0.26231,-0.45836 -0.65883,-0.74139 -1.18922,-0.84944c0.22799,-0.33502 0.22799,-0.73154 0,-1.18922c-0.24702,-1.60783 -0.69994,-3.24997 -1.35911,-4.92678c0.65441,-0.14339 0.99419,-0.53991 1.01933,-1.18922c0.90449,-0.33944 1.81034,-0.67922 2.71822,-1.01933z" fill="#0e8e77" opacity="0.768"/><path d="M229.74951,151.03674c-0.04451,0.29765 0.06864,0.52428 0.33978,0.67956c0.73868,-0.46312 1.47497,-0.5766 2.20855,-0.33978c1.11209,2.48853 1.84839,5.09361 2.20855,7.81489c-0.22663,0.56641 -0.45292,1.13248 -0.67956,1.69889c-0.53481,0.50423 -0.98773,1.07064 -1.35911,1.69889c0.03568,-1.42265 -0.24736,-2.78176 -0.84944,-4.07733c-0.11315,0.11315 -0.22663,0.22663 -0.33978,0.33978c-0.54636,-1.20825 -1.16917,-2.34073 -1.86878,-3.39778c0.31769,-1.14063 -0.02209,-2.10356 -1.01933,-2.88811c0.44953,-0.27726 0.67582,-0.67378 0.67956,-1.18922c0.22663,-0.11315 0.45292,-0.22663 0.67956,-0.33978z" fill="#05775b" opacity="0.769"/><path d="M226.35174,152.39585c-0.02514,0.64932 -0.36492,1.04584 -1.01933,1.18922c0.65917,1.6768 1.11209,3.31895 1.35911,4.92678c-0.2511,-0.04451 -0.47773,0.01223 -0.67956,0.16989c0.35813,0.47161 0.41453,0.98128 0.16989,1.529c-0.22663,-0.45292 -0.45292,-0.45292 -0.67956,0c-0.28949,-0.3639 -0.57253,-0.70368 -0.84944,-1.01933c-0.15392,-0.32551 -0.38021,-0.60888 -0.67956,-0.84944c0.81241,-0.23479 0.81241,-0.57456 0,-1.01933c0.18416,-0.99453 -0.04247,-1.95712 -0.67956,-2.88811c0.21304,-0.31158 0.32653,-0.65135 0.33978,-1.01933c0.90449,-0.33944 1.81034,-0.67922 2.71822,-1.01933z" fill="#139c8a" opacity="0.769"/><path d="M223.63351,153.41518c-0.01325,0.36798 -0.12674,0.70776 -0.33978,1.01933c0.63708,0.93099 0.86371,1.89358 0.67956,2.88811c0.81241,0.44477 0.81241,0.78455 0,1.01933c0.29934,0.24056 0.52564,0.52394 0.67956,0.84944c0,0.45292 0,0.90619 0,1.35911c-0.49811,0.28779 -0.78149,0.74072 -0.84944,1.35911c-0.22663,-0.67956 -0.45292,-1.35911 -0.67956,-2.03867c-0.72101,0.24464 -0.8909,0.64116 -0.50967,1.18922c-0.19231,0.33808 -0.41895,0.62111 -0.67956,0.84944c-0.28711,-1.03394 -0.62689,-2.05328 -1.01933,-3.058c0.23886,-1.11413 0.12572,-2.24661 -0.33978,-3.39778c0.47773,-0.16071 0.70436,-0.50049 0.67956,-1.01933c0.76484,-0.40603 1.55788,-0.74581 2.37844,-1.01933z" fill="#1aae9f" opacity="0.768"/><path d="M238.58373,152.73563c0.11315,0 0.22663,0 0.33978,0c1.51303,1.33838 3.09843,2.64109 4.75689,3.90744c0.90891,0.85964 1.92824,1.19942 3.058,1.01933c-0.42064,0.23445 -0.42064,0.40434 0,0.50967c-0.33978,0.22663 -0.67956,0.45292 -1.01933,0.67956c-0.83823,0.08664 -1.51779,0.42642 -2.03867,1.01933c-0.3989,0.34453 -0.62519,0.79746 -0.67956,1.35911c-0.46651,0.05335 -0.91978,-0.0034 -1.35911,-0.16989c-1.87557,-1.3693 -3.68761,-2.78516 -5.43644,-4.24722c0.78183,-1.35232 1.57453,-2.71143 2.37844,-4.07733z" fill="#27463a" opacity="0.769"/><path d="M233.48707,185.69406c0.20658,-0.96055 0.54636,-1.8664 1.01933,-2.71822c0.50015,-1.5008 1.06622,-2.97305 1.69889,-4.41711c0.52156,-1.33804 0.97448,-2.69716 1.35911,-4.07733c0.64762,-1.18345 1.21369,-2.42941 1.69889,-3.73755c0.13353,-0.60616 0.35982,-1.17223 0.67956,-1.69889c0.38701,-1.16136 0.83993,-2.29384 1.35911,-3.39778c0.50015,-1.5008 1.06622,-2.97305 1.69889,-4.41711c0.05436,-0.56165 0.28066,-1.01458 0.67956,-1.35911c0.83823,-0.08664 1.51779,-0.42642 2.03867,-1.01933c0.33978,-0.22663 0.67956,-0.45292 1.01933,-0.67956c0.99419,-0.40705 2.01352,-0.74683 3.058,-1.01933c0.70504,-0.06728 1.38459,-0.12402 2.03867,-0.16989c-2.08827,2.64347 -4.29683,5.1918 -6.62566,7.645c-2.78822,7.40206 -5.67633,14.76402 -8.66433,22.08555c-0.87323,0.40841 -1.72267,0.86134 -2.54833,1.35911c-0.62077,-0.59121 -0.56403,-1.15762 0.16989,-1.69889c-0.11756,-0.40637 -0.28745,-0.40637 -0.50967,0c-0.15766,-0.20183 -0.2144,-0.42846 -0.16989,-0.67956z" fill="#f5f6f6" opacity="0.999"/><path d="M252.51462,156.1334c0,0.22663 0,0.45292 0,0.67956c-0.74038,1.2582 -1.30645,2.61731 -1.69889,4.07733c-0.85624,1.71826 -1.5358,3.53063 -2.03867,5.43644c-0.53175,0.68261 -0.87153,1.47565 -1.01933,2.37844c-0.96701,1.94013 -1.76005,3.9788 -2.37844,6.116c-0.51646,0.81207 -0.85624,1.71826 -1.01933,2.71822c-0.27624,0.59835 -0.61602,1.16476 -1.01933,1.69889c-0.15222,-0.66766 -0.492,-0.78081 -1.01933,-0.33978c-1.57589,2.42533 -3.21837,4.80378 -4.92678,7.13533c-2.71211,5.98382 -5.09055,12.09982 -7.13533,18.34799c-2.36383,-10.07849 -4.91217,-20.10193 -7.645,-30.07032c0.51884,-0.54704 0.97176,-0.4339 1.35911,0.33978c1.24257,5.48265 2.77157,10.86235 4.587,16.13944c1.33397,-0.71048 2.52319,-1.61666 3.56767,-2.71822c-0.11756,-0.40637 -0.28745,-0.40637 -0.50967,0c-0.05674,-0.22663 -0.11315,-0.45292 -0.16989,-0.67956c0.36424,-1.24121 0.36424,-2.48717 0,-3.73755c0.49947,1.17189 0.89565,2.41786 1.18922,3.73755c0.25721,-0.6167 0.54025,-1.18277 0.84944,-1.69889c-0.04451,0.2511 0.01223,0.47773 0.16989,0.67956c0.22221,-0.40637 0.3921,-0.40637 0.50967,0c-0.73392,0.54127 -0.79066,1.10768 -0.16989,1.69889c0.82566,-0.49777 1.6751,-0.9507 2.54833,-1.35911c2.988,-7.32153 5.87612,-14.68349 8.66433,-22.08555c2.32884,-2.45319 4.53739,-5.00153 6.62566,-7.645c-0.65407,0.04587 -1.33363,0.10261 -2.03867,0.16989c0.77877,-0.60039 1.68462,-0.94016 2.71822,-1.01933z" fill="#eeefee"/><path d="M212.76063,157.83229c0.01325,0.36798 0.12674,0.70776 0.33978,1.01933c-0.48622,1.06214 -0.93915,2.13822 -1.35911,3.22789c0.31565,1.34824 0.76892,2.76375 1.35911,4.24722c-0.10499,1.14063 -0.21814,2.27345 -0.33978,3.39778c-0.46651,0.05335 -0.91978,-0.0034 -1.35911,-0.16989c-0.67718,-0.67922 -1.47022,-1.18888 -2.37844,-1.529c-0.3323,0.16207 -0.61534,0.38837 -0.84944,0.67956c-0.11315,-0.11315 -0.22663,-0.22663 -0.33978,-0.33978c-0.1281,0.48996 -0.41113,0.82974 -0.84944,1.01933c-0.05063,-0.35745 0.00578,-0.69722 0.16989,-1.01933c0.76518,-1.28912 1.61462,-2.53474 2.54833,-3.73755c-0.07101,-0.19911 -0.1845,-0.369 -0.33978,-0.50967c0.49064,-0.58 0.94356,-1.20281 1.35911,-1.86878c-0.07101,-0.19911 -0.1845,-0.369 -0.33978,-0.50967c0.67956,-1.33974 1.47226,-2.64211 2.37844,-3.90744z" fill="#22a5ac" opacity="0.881"/><path d="M221.25507,154.43452c0.0248,0.51884 -0.20183,0.85862 -0.67956,1.01933c-0.57049,0.13319 -1.1369,0.30308 -1.69889,0.50967c0.40026,0.32857 0.85318,0.49845 1.35911,0.50967c-0.47841,0.25245 -0.93133,0.53583 -1.35911,0.84944c-1.52628,0.46855 -3.11168,1.09171 -4.75689,1.86878c0.06184,1.9561 0.34487,3.88162 0.84944,5.77622c0.22663,2.03867 0.22663,4.07733 0,6.116c-0.81818,1.31698 -1.66763,2.56294 -2.54833,3.73755c-0.82056,0.04315 -1.6136,0.09955 -2.37844,0.16989c-0.92318,-1.3727 -1.77262,-2.78856 -2.54833,-4.24722c-0.17431,0.34895 -0.34419,0.68873 -0.50967,1.01933c-0.33978,0 -0.67956,0 -1.01933,0c0,-0.22663 0,-0.45292 0,-0.67956c0.48418,-0.48316 0.82396,-1.04957 1.01933,-1.69889c0.43831,-0.1896 0.72135,-0.52937 0.84944,-1.01933c0.11315,0.11315 0.22663,0.22663 0.33978,0.33978c0.23411,-0.29119 0.51714,-0.51748 0.84944,-0.67956c0.90823,0.34012 1.70127,0.84978 2.37844,1.529c0.43933,0.16649 0.8926,0.22323 1.35911,0.16989c0.12164,-1.12432 0.23479,-2.25714 0.33978,-3.39778c-0.59019,-1.48347 -1.04346,-2.89898 -1.35911,-4.24722c0.41997,-1.08967 0.87289,-2.16574 1.35911,-3.22789c-0.21304,-0.31158 -0.32653,-0.65135 -0.33978,-1.01933c0,-0.22663 0.11315,-0.33978 0.33978,-0.33978c0.1913,-0.16393 0.38749,-0.32005 0.58857,-0.46836c0.50889,-0.10506 0.97618,-0.32392 1.37409,-0.62879c0.45572,-0.04877 0.88448,-0.18765 1.26813,-0.39845c0.3227,-0.07042 0.62826,-0.1867 0.90951,-0.34167c0.09224,0.04615 0.1845,0.0923 0.27681,0.13838c1.2164,-0.55214 2.46203,-1.0054 3.73755,-1.35911z" fill="#22adb0" opacity="0.918"/><path d="M252.51462,156.81296c-0.05063,0.35745 0.00578,0.69722 0.16989,1.01933c1.13248,0.90619 2.2653,1.81203 3.39778,2.71822c0.38327,0.62689 0.55316,1.30645 0.50967,2.03867c-0.19197,1.37168 -0.64524,2.61731 -1.35911,3.73755c-0.48996,-1.57929 -1.50929,-2.71177 -3.058,-3.39778c-0.73732,-0.50729 -1.19058,-1.18684 -1.35911,-2.03867c0.39244,-1.46002 0.95851,-2.81914 1.69889,-4.07733z" fill="#1d3129" opacity="0.768"/><path d="M245.71906,158.85163c-0.52088,0.59291 -1.20043,0.93269 -2.03867,1.01933c0.52088,-0.59291 1.20043,-0.93269 2.03867,-1.01933z" fill="#b4bcb9" opacity="0.941"/><path d="M213.10041,157.49251c-0.22663,0 -0.33978,0.11315 -0.33978,0.33978c-0.90619,1.26533 -1.69889,2.5677 -2.37844,3.90744c0.15528,0.14067 0.26876,0.31056 0.33978,0.50967c-0.41555,0.66596 -0.86847,1.28878 -1.35911,1.86878c0.15528,0.14067 0.26876,0.31056 0.33978,0.50967c-0.93371,1.20281 -1.78315,2.44844 -2.54833,3.73755c-0.16411,0.32211 -0.22052,0.66189 -0.16989,1.01933c-0.19537,0.64932 -0.53515,1.21572 -1.01933,1.69889c-0.12224,-0.07427 -0.24824,-0.13646 -0.37802,-0.18658c-0.01858,-0.10779 -0.04224,-0.21383 -0.07072,-0.31789c-0.04505,-0.70627 -0.30588,-1.35388 -0.71729,-1.87761c0.02887,-0.99921 -0.03549,-2.01734 -0.19308,-3.05437c0.72373,-1.84771 1.74306,-3.4902 3.058,-4.92678c-0.42676,-0.14169 -0.65339,-0.42472 -0.67956,-0.84944c0.33556,-0.40742 0.69239,-0.78462 1.0705,-1.13161c0.25007,-0.04503 0.49063,-0.11743 0.71848,-0.21398c0.48836,-0.07677 0.94218,-0.25756 1.33807,-0.51899c0.30161,-0.07774 0.587,-0.19586 0.85007,-0.34825c0.41142,-0.11398 0.81024,-0.21726 1.18596,-0.28507c0.24598,-0.0444 0.48114,-0.1201 0.70356,-0.2222c0.09176,0.10561 0.17489,0.2195 0.24936,0.34166z" fill="#1f9ba5" opacity="0.758"/><path d="M229.40974,155.45385c0.6996,1.05705 1.32241,2.18953 1.86878,3.39778c0.11315,-0.11315 0.22663,-0.22663 0.33978,-0.33978c0.60209,1.29557 0.88512,2.65468 0.84944,4.07733c-0.2494,0.41045 -0.36254,0.86338 -0.33978,1.35911c-0.51238,0.57117 -0.85216,1.25072 -1.01933,2.03867c-0.59665,0.59427 -1.04957,1.27383 -1.35911,2.03867c-0.41793,-1.69243 -0.98434,-3.33458 -1.69889,-4.92678c0.44749,-0.99793 0.44749,-1.96052 0,-2.88811c0.13489,-0.7346 0.58816,-1.18752 1.35911,-1.35911c0.10023,-1.10632 0.10023,-2.2388 0,-3.39778z" fill="#068d6a" opacity="0.769"/><path d="M206.98441,159.87096c0.02616,0.42472 0.25279,0.70776 0.67956,0.84944c-1.31494,1.43658 -2.33427,3.07907 -3.058,4.92678c-0.25449,-0.35031 -0.48079,-0.74683 -0.67956,-1.18922c0.26503,-0.36458 0.20828,-0.7611 -0.16989,-1.18922c-0.22663,-0.67956 -0.22663,-1.35911 0,-2.03867c1.06011,-0.50185 2.13584,-0.95512 3.22789,-1.35911z" fill="#0c9fb9" opacity="0.489"/><path d="M236.20529,156.81296c1.74884,1.46206 3.56087,2.87792 5.43644,4.24722c0.43933,0.16649 0.8926,0.22323 1.35911,0.16989c-0.63267,1.44406 -1.19874,2.91631 -1.69889,4.41711c-0.53005,-0.00646 -1.03972,-0.1196 -1.529,-0.33978c-2.0458,-1.42809 -4.02772,-2.90034 -5.94611,-4.41711c0.22663,-0.56641 0.45292,-1.13248 0.67956,-1.69889c0.48282,-0.8525 1.04923,-1.64554 1.69889,-2.37844z" fill="#325b4b" opacity="0.769"/><path d="M220.91529,158.85163c0.39244,1.00472 0.73222,2.02406 1.01933,3.058c0.84537,1.42843 1.072,2.84428 0.67956,4.24722c0.56403,0.50559 0.90381,1.1284 1.01933,1.86878c-1.2582,0.74038 -2.61731,1.30645 -4.07733,1.69889c-0.14882,0.02209 -0.26231,-0.03432 -0.33978,-0.16989c0.74038,-0.15018 0.96667,-0.48996 0.67956,-1.01933c0.23241,-0.57524 0.57219,-1.08491 1.01933,-1.529c-0.20455,-1.8015 -0.65781,-3.50039 -1.35911,-5.09667c-0.19265,-0.83891 -0.19265,-1.63161 0,-2.37844c-0.05436,-0.57728 0.00204,-1.14369 0.16989,-1.69889c0.25789,0.53107 0.65441,0.87085 1.18922,1.01933z" fill="#1ac1ab" opacity="0.769"/><path d="M226.69151,158.51185c0.22799,0.45768 0.22799,0.8542 0,1.18922c0.53039,0.10805 0.92691,0.39108 1.18922,0.84944c0.13557,-0.07747 0.19197,-0.19096 0.16989,-0.33978c0.44749,0.92759 0.44749,1.89018 0,2.88811c0.71455,1.5922 1.28096,3.23434 1.69889,4.92678c0,0.22663 0,0.45292 0,0.67956c-0.51442,0.63335 -0.96735,1.3129 -1.35911,2.03867c-0.34759,-1.38901 -0.80086,-2.74812 -1.35911,-4.07733c-0.31158,0.21304 -0.65135,0.32653 -1.01933,0.33978c-0.2511,0.04451 -0.47773,-0.01223 -0.67956,-0.16989c0.04315,-1.61225 0.04315,-3.31113 0,-5.09667c-0.50049,-0.24124 -0.72712,-0.63742 -0.67956,-1.18922c0,-0.45292 0,-0.90619 0,-1.35911c0.27692,0.31565 0.55995,0.65543 0.84944,1.01933c0.22663,-0.45292 0.45292,-0.45292 0.67956,0c0.24464,-0.54772 0.18824,-1.05739 -0.16989,-1.529c0.20183,-0.15766 0.42846,-0.2144 0.67956,-0.16989z" fill="#11a483" opacity="0.769"/><path d="M224.65285,160.55051c-0.04757,0.5518 0.17906,0.94798 0.67956,1.18922c0.04315,1.78553 0.04315,3.48442 0,5.09667c0.20183,0.15766 0.42846,0.2144 0.67956,0.16989c-0.73018,0.41997 -1.52288,0.75974 -2.37844,1.01933c-0.11552,-0.74038 -0.4553,-1.36319 -1.01933,-1.86878c0.39244,-1.40294 0.16581,-2.8188 -0.67956,-4.24722c0.26061,-0.22833 0.48724,-0.51137 0.67956,-0.84944c-0.38123,-0.54806 -0.21134,-0.94458 0.50967,-1.18922c0.22663,0.67956 0.45292,1.35911 0.67956,2.03867c0.06796,-0.6184 0.35133,-1.07132 0.84944,-1.35911z" fill="#14b499" opacity="0.769"/><path d="M233.82684,160.89029c1.91838,1.51677 3.90031,2.98902 5.94611,4.41711c0.48928,0.22018 0.99895,0.33332 1.529,0.33978c-0.51918,1.10394 -0.9721,2.23642 -1.35911,3.39778c-2.68866,-1.55346 -5.29374,-3.25235 -7.81489,-5.09667c-0.02277,-0.49574 0.09038,-0.94866 0.33978,-1.35911c0.37138,-0.62825 0.8243,-1.19466 1.35911,-1.69889z" fill="#396957" opacity="0.769"/><path d="M219.55618,159.53118c-0.19265,0.74683 -0.19265,1.53953 0,2.37844c-0.73222,-0.04349 -1.41178,0.1264 -2.03867,0.50967c0.96463,2.03119 0.85148,4.01311 -0.33978,5.94611c0.11484,0.73222 0.11484,1.52526 0,2.37844c0,0.56641 0,1.13248 0,1.69889c-0.29731,0.70266 -0.69349,1.38222 -1.18922,2.03867c-0.22663,-0.22663 -0.45292,-0.45292 -0.67956,-0.67956c-0.64965,0.7329 -1.21606,1.52594 -1.69889,2.37844c-0.11315,-0.11315 -0.22663,-0.22663 -0.33978,-0.33978c-0.3656,0.87629 -0.98841,1.4427 -1.86878,1.69889c-0.08902,-0.50219 0.02412,-0.95512 0.33978,-1.35911c2.09745,-1.58031 3.62645,-3.61897 4.587,-6.116c-0.08189,-2.9598 -0.36492,-5.90466 -0.84944,-8.83422c1.11957,-0.61058 2.08216,-1.40328 2.88811,-2.37844c0.37817,0.27352 0.77435,0.50015 1.18922,0.67956z" fill="#23c6be" opacity="0.794"/><path d="M220.57552,155.45385c0.4655,1.15117 0.57864,2.28365 0.33978,3.39778c-0.53481,-0.14848 -0.93133,-0.48826 -1.18922,-1.01933c-0.16785,0.5552 -0.22425,1.12161 -0.16989,1.69889c-0.41487,-0.1794 -0.81105,-0.40603 -1.18922,-0.67956c-0.80595,0.97516 -1.76854,1.76786 -2.88811,2.37844c0.48452,2.92956 0.76756,5.87442 0.84944,8.83422c-0.96055,2.49703 -2.48955,4.53569 -4.587,6.116c-0.31565,0.404 -0.4288,0.85692 -0.33978,1.35911c-2.53984,-1.11787 -4.01209,-3.04339 -4.41711,-5.77622c0.16547,-0.3306 0.33536,-0.67038 0.50967,-1.01933c0.77571,1.45867 1.62516,2.87452 2.54833,4.24722c0.76484,-0.07033 1.55788,-0.12674 2.37844,-0.16989c0.8807,-1.17461 1.73015,-2.42058 2.54833,-3.73755c0.22663,-2.03867 0.22663,-4.07733 0,-6.116c-0.50457,-1.8946 -0.7876,-3.82012 -0.84944,-5.77622c1.6452,-0.77707 3.23061,-1.40022 4.75689,-1.86878c0.42778,-0.31361 0.8807,-0.59699 1.35911,-0.84944c-0.50593,-0.01121 -0.95885,-0.1811 -1.35911,-0.50967c0.56199,-0.20658 1.1284,-0.37647 1.69889,-0.50967z" fill="#22bbb8" opacity="0.844"/><path d="M232.12796,163.94829c2.52115,1.84431 5.12623,3.5432 7.81489,5.09667c-0.31973,0.52666 -0.54602,1.09272 -0.67956,1.69889c-0.46651,0.05335 -0.91978,-0.0034 -1.35911,-0.16989c-2.22486,-1.60409 -4.49016,-3.13309 -6.79555,-4.587c0.16717,-0.78794 0.50695,-1.4675 1.01933,-2.03867z" fill="#407560" opacity="0.769"/><path d="M250.81573,160.89029c0.16853,0.85182 0.62179,1.53138 1.35911,2.03867c1.54871,0.68601 2.56804,1.81849 3.058,3.39778c-0.20421,1.17835 -0.54398,2.31083 -1.01933,3.39778c-2.07536,-0.71761 -3.88774,-1.85009 -5.43644,-3.39778c0.50287,-1.90581 1.18243,-3.71819 2.03867,-5.43644z" fill="#29483c" opacity="0.769"/><path d="M219.55618,161.90962c0.7013,1.59628 1.15456,3.29516 1.35911,5.09667c-0.44715,0.44409 -0.78693,0.95376 -1.01933,1.529c0.28711,0.52937 0.06082,0.86915 -0.67956,1.01933c0.07747,0.13557 0.19096,0.19197 0.33978,0.16989c-0.68261,0.53175 -1.47565,0.87153 -2.37844,1.01933c0.11484,-0.85318 0.11484,-1.64622 0,-2.37844c1.19126,-1.933 1.30441,-3.91492 0.33978,-5.94611c0.62689,-0.38327 1.30645,-0.55316 2.03867,-0.50967z" fill="#1fcdbc" opacity="0.782"/><path d="M248.77706,166.32673c1.54871,1.54769 3.36108,2.68017 5.43644,3.39778c-0.46006,0.81309 -0.79984,1.60579 -1.01933,2.37844c-0.57558,0.40298 -1.14199,0.34623 -1.69889,-0.16989c-1.01933,-0.67956 -2.03867,-1.35911 -3.058,-2.03867c-0.44953,-0.27726 -0.67582,-0.67378 -0.67956,-1.18922c0.1478,-0.90279 0.48758,-1.69583 1.01933,-2.37844z" fill="#315848" opacity="0.765"/><path d="M228.3904,170.74384c0.44443,1.32513 0.78421,2.68424 1.01933,4.07733c0.67106,2.23132 1.23747,4.49628 1.69889,6.79555c0.22086,0.65747 0.334,1.33703 0.33978,2.03867c0.36424,1.25038 0.36424,2.49635 0,3.73755c0.05674,0.22663 0.11315,0.45292 0.16989,0.67956c0.22221,-0.40637 0.3921,-0.40637 0.50967,0c-1.04448,1.10156 -2.2337,2.00775 -3.56767,2.71822c-1.81543,-5.27709 -3.34443,-10.65679 -4.587,-16.13944c-0.38735,-0.77367 -0.84027,-0.88682 -1.35911,-0.33978c2.73283,9.9684 5.28116,19.99184 7.645,30.07032c2.04478,-6.24817 4.42323,-12.36417 7.13533,-18.34799c1.7084,-2.33155 3.35089,-4.71 4.92678,-7.13533c0.52733,-0.44103 0.86711,-0.32789 1.01933,0.33978c-0.33706,1.12908 -0.67684,2.26156 -1.01933,3.39778c-0.62723,1.03292 -1.08015,2.1654 -1.35911,3.39778c-0.71387,1.12025 -1.16714,2.36587 -1.35911,3.73755c-0.56437,1.34008 -1.13078,2.69919 -1.69889,4.07733c-1.03326,2.30369 -1.93945,4.68214 -2.71822,7.13533c-0.80561,1.61904 -1.48517,3.31793 -2.03867,5.09667c-0.76008,1.37066 -1.32649,2.84326 -1.69889,4.41711c-0.7611,1.65064 -1.49706,3.34953 -2.20855,5.09667c-0.13013,-0.18892 -0.30002,-0.30206 -0.50967,-0.33978c-0.62077,-3.21871 -1.41381,-6.3902 -2.37844,-9.51377c-1.59628,-5.80306 -3.18168,-11.57928 -4.75689,-17.32866c-0.5552,-2.5609 -1.23475,-5.05249 -2.03867,-7.47511c-0.38293,-1.82868 -0.83585,-3.64072 -1.35911,-5.43644c-0.28236,-1.07336 -0.62213,-2.09269 -1.01933,-3.058c0,-0.56641 0,-1.13248 0,-1.69889c0.90279,-0.1478 1.69583,-0.48758 2.37844,-1.01933c1.46002,-0.39244 2.81914,-0.95851 4.07733,-1.69889c0.85556,-0.25959 1.64826,-0.59937 2.37844,-1.01933c0.36798,-0.01325 0.70776,-0.12674 1.01933,-0.33978c0.55825,1.32921 1.01152,2.68832 1.35911,4.07733z" fill="#f7f9f8" opacity="0.999"/><path d="M231.10862,165.98696c2.30539,1.45391 4.57069,2.98291 6.79555,4.587c0.43933,0.16649 0.8926,0.22323 1.35911,0.16989c-0.4852,1.30814 -1.05127,2.55411 -1.69889,3.73755c-2.42533,-1.61055 -4.91726,-3.13955 -7.47511,-4.587c-0.28439,-0.34352 -0.39754,-0.74004 -0.33978,-1.18922c0,-0.22663 0,-0.45292 0,-0.67956c0.30954,-0.76484 0.76246,-1.44439 1.35911,-2.03867z" fill="#46826a" opacity="0.769"/><path d="M247.75773,168.70518c0.00374,0.51544 0.23003,0.91196 0.67956,1.18922c1.01933,0.67956 2.03867,1.35911 3.058,2.03867c0.5569,0.51612 1.1233,0.57287 1.69889,0.16989c-0.78115,2.2371 -1.687,4.38891 -2.71822,6.45578c-0.77028,-0.31361 -1.56298,-0.59665 -2.37844,-0.84944c-0.96599,-0.90958 -1.87217,-1.87217 -2.71822,-2.88811c0.6184,-2.1372 1.41144,-4.17587 2.37844,-6.116z" fill="#3c6e5a" opacity="0.754"/><path d="M229.74951,168.70518c-0.05776,0.44919 0.05538,0.84571 0.33978,1.18922c2.55785,1.44745 5.04978,2.97645 7.47511,4.587c-0.38463,1.38018 -0.83755,2.73929 -1.35911,4.07733c-2.16133,-1.22456 -4.25639,-2.58367 -6.28589,-4.07733c-0.13013,0.18892 -0.30002,0.30206 -0.50967,0.33978c-0.23513,-1.39309 -0.5749,-2.7522 -1.01933,-4.07733c0.39176,-0.72577 0.84469,-1.40532 1.35911,-2.03867z" fill="#4f9479" opacity="0.769"/><path d="M245.37929,174.82118c0.84605,1.01594 1.75223,1.97853 2.71822,2.88811c0.81547,0.25279 1.60817,0.53583 2.37844,0.84944c-0.03228,0.77673 -0.25891,1.45629 -0.67956,2.03867c-1.90853,-0.8576 -3.72057,-1.87693 -5.43644,-3.058c0.16309,-0.99997 0.50287,-1.90615 1.01933,-2.71822z" fill="#478069" opacity="0.768"/><path d="M236.20529,178.55873c-0.63267,1.44406 -1.19874,2.91631 -1.69889,4.41711c-0.52394,-0.27216 -1.09001,-0.38531 -1.69889,-0.33978c0,-0.33978 0,-0.67956 0,-1.01933c-0.5518,0.04757 -0.94798,-0.17906 -1.18922,-0.67956c-0.09446,0.31124 -0.26435,0.53753 -0.50967,0.67956c-0.46142,-2.29928 -1.02783,-4.56423 -1.69889,-6.79555c0.20964,-0.03772 0.37953,-0.15086 0.50967,-0.33978c2.02949,1.49366 4.12456,2.85277 6.28589,4.07733z" fill="#59a587" opacity="0.769"/><path d="M219.55618,180.93717c0.80391,2.42261 1.48347,4.9142 2.03867,7.47511c-0.37376,-0.60378 -0.65713,-1.28334 -0.84944,-2.03867c-0.3109,0.28134 -0.53719,0.62111 -0.67956,1.01933c-0.11315,-0.22663 -0.22663,-0.45292 -0.33978,-0.67956c-0.45292,0.67956 -0.90619,1.35911 -1.35911,2.03867c-0.20794,-1.67816 -0.03806,-3.32065 0.50967,-4.92678c-0.28405,-0.84605 -0.51035,-1.69549 -0.67956,-2.54833c-0.90619,0.29425 -1.81203,0.63403 -2.71822,1.01933c-1.58336,3.26798 -1.81,6.66576 -0.67956,10.19333c0.03398,1.49128 -0.53243,2.62376 -1.69889,3.39778c-0.36152,-5.09055 -0.41793,-10.18721 -0.16989,-15.29c0.37987,-0.7696 0.66291,-1.56264 0.84944,-2.37844c1.24121,-0.58714 2.31728,-0.36084 3.22789,0.67956c0.30852,-0.65883 0.81818,-0.99861 1.529,-1.01933c0.14542,1.11617 0.4852,2.1355 1.01933,3.058z" fill="#16c597" opacity="0.955"/><path d="M244.35995,177.5394c1.71588,1.18107 3.52791,2.2004 5.43644,3.058c-0.46889,1.73083 -1.0353,3.42972 -1.69889,5.09667c-0.61432,0.00306 -1.18073,-0.16683 -1.69889,-0.50967c-1.32581,-0.93473 -2.68492,-1.78417 -4.07733,-2.54833c0.3425,-1.13622 0.68227,-2.2687 1.01933,-3.39778c0.40332,-0.53413 0.74309,-1.10054 1.01933,-1.69889z" fill="#4e9378" opacity="0.765"/><path d="M205.96508,171.76318c0.33978,0 0.67956,0 1.01933,0c0.40501,2.73283 1.87727,4.65835 4.41711,5.77622c0.88036,-0.25619 1.50318,-0.8226 1.86878,-1.69889c0.11315,0.11315 0.22663,0.22663 0.33978,0.33978c0.48282,-0.8525 1.04923,-1.64554 1.69889,-2.37844c0.22663,0.22663 0.45292,0.45292 0.67956,0.67956c0.49574,-0.65645 0.89192,-1.33601 1.18922,-2.03867c0.3972,0.96531 0.73698,1.98464 1.01933,3.058c-0.22086,-0.10329 -0.44749,-0.21644 -0.67956,-0.33978c-0.23343,0.60277 -0.51646,1.16917 -0.84944,1.69889c-1.12466,-1.47328 -2.03085,-1.36013 -2.71822,0.33978c-0.11315,-0.11315 -0.22663,-0.22663 -0.33978,-0.33978c-0.24294,1.56468 -1.09239,2.64041 -2.54833,3.22789c0.33128,3.21362 0.67106,6.44151 1.01933,9.68366c-0.00068,1.08253 -0.11383,2.10186 -0.33978,3.058c-2.06789,-6.95253 -3.99341,-13.97472 -5.77622,-21.06622z" fill="#22ccbd" opacity="0.989"/><path d="M234.5064,182.97584c-0.47297,0.85182 -0.81275,1.75767 -1.01933,2.71822c-0.3092,0.51612 -0.59223,1.08219 -0.84944,1.69889c-0.29357,-1.3197 -0.68975,-2.56566 -1.18922,-3.73755c-0.00578,-0.70164 -0.11892,-1.3812 -0.33978,-2.03867c0.24532,-0.14203 0.41521,-0.36832 0.50967,-0.67956c0.24124,0.50049 0.63742,0.72712 1.18922,0.67956c0,0.33978 0,0.67956 0,1.01933c0.60888,-0.04553 1.17495,0.06762 1.69889,0.33978z" fill="#68b999" opacity="0.769"/><path d="M242.32129,182.63606c1.39241,0.76416 2.75152,1.6136 4.07733,2.54833c0.51816,0.34284 1.08457,0.51272 1.69889,0.50967c-0.57694,1.36489 -1.14335,2.724 -1.69889,4.07733c-0.22663,0.11315 -0.45292,0.22663 -0.67956,0.33978c-1.15728,-1.20553 -2.51639,-2.16846 -4.07733,-2.88811c-0.44953,-0.27726 -0.67582,-0.67378 -0.67956,-1.18922c0.27896,-1.23237 0.73188,-2.36485 1.35911,-3.39778z" fill="#5aa889" opacity="0.768"/><path d="M221.59485,188.41228c0.05572,0.91298 -0.00102,1.81917 -0.16989,2.71822c-0.73494,2.50382 -1.35809,4.99541 -1.86878,7.47511c0.03636,-0.63844 -0.13353,-0.75159 -0.50967,-0.33978c-0.36322,0.92012 -0.75974,1.8263 -1.18922,2.71822c0.31565,0.61907 0.08902,1.072 -0.67956,1.35911c-0.19503,0.52971 -0.42132,1.03938 -0.67956,1.529c0.3622,0.3938 0.24906,0.67684 -0.33978,0.84944c-0.28575,-0.17295 -0.45564,0.05335 -0.50967,0.67956c-0.23954,-1.01118 -0.63572,-1.91703 -1.18922,-2.71822c-0.43729,-0.7261 -0.72067,-1.51881 -0.84944,-2.37844c-0.1154,-0.0464 -0.22915,-0.09562 -0.34125,-0.14766c-0.01294,-0.06309 -0.02764,-0.12555 -0.04403,-0.18731c0.0001,-0.01075 0.00015,-0.02151 0.00015,-0.03228c0,-0.69943 -0.21133,-1.3495 -0.57363,-1.88984c0.154,-0.60584 0.19046,-1.21261 0.10932,-1.82024c0,-0.22663 0.11315,-0.33978 0.33978,-0.33978c1.16646,-0.77401 1.73287,-1.90649 1.69889,-3.39778c-1.13044,-3.52757 -0.90381,-6.92535 0.67956,-10.19333c0.90619,-0.38531 1.81203,-0.72509 2.71822,-1.01933c0.16921,0.85284 0.3955,1.70229 0.67956,2.54833c-0.54772,1.60613 -0.71761,3.24861 -0.50967,4.92678c0.45292,-0.67956 0.90619,-1.35911 1.35911,-2.03867c0.11315,0.22663 0.22663,0.45292 0.33978,0.67956c0.14237,-0.39822 0.36866,-0.738 0.67956,-1.01933c0.19231,0.75533 0.47569,1.43488 0.84944,2.03867z" fill="#05c087" opacity="0.806"/><path d="M218.19707,175.50073c0.52326,1.79572 0.97618,3.60776 1.35911,5.43644c-0.53413,-0.9225 -0.87391,-1.94183 -1.01933,-3.058c-0.71081,0.02073 -1.22048,0.3605 -1.529,1.01933c-0.9106,-1.0404 -1.98668,-1.26669 -3.22789,-0.67956c-0.18654,0.81581 -0.46957,1.60885 -0.84944,2.37844c-0.24804,5.10278 -0.19163,10.19945 0.16989,15.29c-0.22663,0 -0.33978,0.11315 -0.33978,0.33978c-0.54398,-1.03632 -0.88376,-2.16914 -1.01933,-3.39778c0.22595,-0.95613 0.3391,-1.97547 0.33978,-3.058c-0.34827,-3.24216 -0.68805,-6.47005 -1.01933,-9.68366c1.45595,-0.58748 2.30539,-1.66321 2.54833,-3.22789c0.11315,0.11315 0.22663,0.22663 0.33978,0.33978c0.68737,-1.69991 1.59356,-1.81305 2.71822,-0.33978c0.33298,-0.52971 0.61602,-1.09612 0.84944,-1.69889c0.23207,0.12334 0.4587,0.23649 0.67956,0.33978z" fill="#1ccaa9"/><path d="M240.96218,186.03384c0.00374,0.51544 0.23003,0.91196 0.67956,1.18922c1.56094,0.71965 2.92005,1.68258 4.07733,2.88811c-0.20047,0.94628 -0.65373,1.73932 -1.35911,2.37844c-1.59492,-0.91026 -3.18066,-1.81611 -4.75689,-2.71822c0.19197,-1.37168 0.64524,-2.61731 1.35911,-3.73755z" fill="#62b796" opacity="0.768"/><path d="M239.60307,189.77139c1.57623,0.90211 3.16197,1.80796 4.75689,2.71822c0.70538,-0.63912 1.15864,-1.43216 1.35911,-2.37844c0.22663,-0.11315 0.45292,-0.22663 0.67956,-0.33978c-0.94016,2.82695 -2.07298,5.54517 -3.39778,8.15466c0.07271,-0.55859 -0.04077,-1.06826 -0.33978,-1.529c-1.54769,-0.92589 -3.13343,-1.77534 -4.75689,-2.54833c0.56811,-1.37814 1.13452,-2.73725 1.69889,-4.07733z" fill="#68c5a0" opacity="0.765"/><path d="M219.55618,198.60561c0,0.45292 0,0.90619 0,1.35911c-0.7577,3.66722 -1.38052,7.40477 -1.86878,11.21266c-0.76144,-2.10968 -1.27111,-4.26149 -1.529,-6.45578c0.58883,-0.17261 0.70198,-0.45564 0.33978,-0.84944c0.25823,-0.48962 0.48452,-0.99929 0.67956,-1.529c0.76858,-0.28711 0.99521,-0.74004 0.67956,-1.35911c0.42948,-0.89192 0.826,-1.7981 1.18922,-2.71822c0.37613,-0.41181 0.54602,-0.29866 0.50967,0.33978z" fill="#0bc985" opacity="0.769"/><path d="M221.59485,188.41228c1.57521,5.74938 3.16061,11.5256 4.75689,17.32866c-1.69923,-2.21229 -3.96419,-3.5714 -6.79555,-4.07733c0,-0.56641 0,-1.13248 0,-1.69889c0,-0.45292 0,-0.90619 0,-1.35911c0.51069,-2.4797 1.13384,-4.97129 1.86878,-7.47511c0.16887,-0.89905 0.22561,-1.80524 0.16989,-2.71822z" fill="#50c798" opacity="0.769"/><path d="M237.90418,193.84873c1.62346,0.77299 3.2092,1.62244 4.75689,2.54833c0.299,0.46074 0.41249,0.97041 0.33978,1.529c-0.62009,1.86368 -1.29965,3.67605 -2.03867,5.43644c-0.45021,-0.4937 -0.73324,-0.38021 -0.84944,0.33978c-1.59797,-0.97244 -3.24046,-1.87863 -4.92678,-2.71822c0.77877,-2.45319 1.68496,-4.83164 2.71822,-7.13533z" fill="#67d1a7" opacity="0.769"/><path d="M235.18596,200.98406c1.68632,0.83959 3.3288,1.74578 4.92678,2.71822c0.1162,-0.71999 0.39924,-0.83347 0.84944,-0.33978c-0.48656,1.91669 -1.16612,3.72906 -2.03867,5.43644c-0.14848,-0.53481 -0.48826,-0.93133 -1.01933,-1.18922c-1.13248,-0.56641 -2.2653,-1.13248 -3.39778,-1.69889c-0.4852,-0.19673 -0.93847,-0.13999 -1.35911,0.16989c0.5535,-1.77874 1.23305,-3.47762 2.03867,-5.09667z" fill="#55c99b" opacity="0.765"/><path d="M219.55618,199.96472c0,0.56641 0,1.13248 0,1.69889c2.83137,0.50593 5.09633,1.86504 6.79555,4.07733c0.96463,3.12358 1.75767,6.29506 2.37844,9.51377c-0.48622,-0.65815 -1.05263,-1.28096 -1.69889,-1.86878c-2.91461,-1.4043 -5.85947,-2.70701 -8.83422,-3.90744c0.06354,1.81611 0.17668,3.62815 0.33978,5.43644c0.74683,2.01352 1.42639,4.05219 2.03867,6.116c0.21406,1.20553 0.55384,2.33801 1.01933,3.39778c0.47943,1.84601 0.93235,3.65805 1.35911,5.43644c0.00272,1.03462 0.11586,2.05396 0.33978,3.058c-1.2283,-3.50651 -2.36078,-6.96103 -3.39778,-10.36322c-0.2511,-0.59971 -0.2511,-1.27926 0,-2.03867c-0.22663,-0.11315 -0.45292,-0.22663 -0.67956,-0.33978c-0.2511,-0.59971 -0.2511,-1.27926 0,-2.03867c-0.96871,-0.59189 -1.19534,-1.38459 -0.67956,-2.37844c-0.39652,-0.16989 -0.67956,-0.45292 -0.84944,-0.84944c-0.90177,-3.8823 -2.09099,-7.90289 -3.56767,-12.06211c0.07747,-0.13557 0.19096,-0.19197 0.33978,-0.16989c0.5535,0.8012 0.94968,1.70704 1.18922,2.71822c0.05402,-0.62621 0.22391,-0.8525 0.50967,-0.67956c0.25789,2.19428 0.76756,4.3461 1.529,6.45578c0.48826,-3.80789 1.11107,-7.54544 1.86878,-11.21266z" fill="#2fba84" opacity="0.768"/><path d="M238.92351,208.79894c-0.37477,1.35809 -0.94084,2.60406 -1.69889,3.73755c-0.22086,0.10329 -0.44749,0.21644 -0.67956,0.33978c-1.47565,-1.24359 -3.17454,-2.03663 -5.09667,-2.37844c0.3724,-1.57385 0.93881,-3.04645 1.69889,-4.41711c0.42064,-0.30988 0.87391,-0.36662 1.35911,-0.16989c1.13248,0.56641 2.2653,1.13248 3.39778,1.69889c0.53107,0.25789 0.87085,0.65441 1.01933,1.18922z" fill="#42c18f" opacity="0.765"/><path d="M228.73018,215.25472c0.20964,0.03772 0.37953,0.15086 0.50967,0.33978c0.71149,-1.74714 1.44745,-3.44603 2.20855,-5.09667c1.92212,0.34182 3.62101,1.13486 5.09667,2.37844c0.23207,-0.12334 0.4587,-0.23649 0.67956,-0.33978c-0.98943,3.7858 -2.34854,7.41021 -4.07733,10.87289c-0.05776,-0.44919 0.05538,-0.84571 0.33978,-1.18922c-4.6801,-1.89936 -9.2671,-3.99477 -13.761,-6.28589c-0.11315,0.11315 -0.22663,0.22663 -0.33978,0.33978c-0.04145,-0.65815 -0.32449,-1.11107 -0.84944,-1.35911c-0.16309,-1.8083 -0.27624,-3.62033 -0.33978,-5.43644c2.97475,1.20043 5.91961,2.50314 8.83422,3.90744c0.64626,0.58782 1.21267,1.21063 1.69889,1.86878z" fill="#25b47b" opacity="0.768"/><path d="M218.53685,214.91494c0.52496,0.24804 0.80799,0.70096 0.84944,1.35911c0.11315,-0.11315 0.22663,-0.22663 0.33978,-0.33978c4.4939,2.29112 9.0809,4.38653 13.761,6.28589c-0.28439,0.34352 -0.39754,0.74004 -0.33978,1.18922c-0.25925,1.23577 -0.71251,2.36825 -1.35911,3.39778c-0.05776,-0.44919 0.05538,-0.84571 0.33978,-1.18922c-0.22663,-0.33978 -0.45292,-0.67956 -0.67956,-1.01933c-3.53777,-1.42605 -7.04869,-2.95505 -10.53311,-4.587c-0.0316,0.33026 -0.14475,0.67004 -0.33978,1.01933c-0.61228,-2.06381 -1.29183,-4.10248 -2.03867,-6.116z" fill="#19b778" opacity="0.766"/><path d="M231.78818,226.80716c-0.25993,1.0771 -0.59971,2.09643 -1.01933,3.058c0.08121,-0.66834 -0.03194,-1.29149 -0.33978,-1.86878c-2.92005,-1.27858 -5.80816,-2.58095 -8.66433,-3.90744c-0.13557,0.07747 -0.19197,0.19096 -0.16989,0.33978c-0.4655,-1.05977 -0.80527,-2.19225 -1.01933,-3.39778c0.19503,-0.34929 0.30818,-0.68907 0.33978,-1.01933c3.48442,1.63195 6.99534,3.16095 10.53311,4.587c0.22663,0.33978 0.45292,0.67956 0.67956,1.01933c-0.28439,0.34352 -0.39754,0.74004 -0.33978,1.18922z" fill="#19c27f" opacity="0.769"/><path d="M230.76885,229.86516c0.05844,0.33706 -0.05504,0.56335 -0.33978,0.67956c-0.56947,0.23207 -0.7961,0.68533 -0.67956,1.35911c-0.46651,0.05335 -0.91978,-0.0034 -1.35911,-0.16989c-1.59356,-1.02341 -3.29245,-1.87285 -5.09667,-2.54833c-0.27114,0.15528 -0.38429,0.38191 -0.33978,0.67956c-0.42676,-1.7784 -0.87968,-3.59043 -1.35911,-5.43644c-0.02209,-0.14882 0.03432,-0.26231 0.16989,-0.33978c2.85617,1.32649 5.74428,2.62886 8.66433,3.90744c0.30784,0.57728 0.42098,1.20043 0.33978,1.86878z" fill="#1ecc86" opacity="0.761"/><path d="M230.42907,230.54471c-0.41929,1.82902 -1.09884,3.52791 -2.03867,5.09667c-0.3391,1.4128 -0.84876,2.77191 -1.529,4.07733c-0.38497,0.58136 -0.89463,0.75125 -1.529,0.50967c-0.95817,-2.46169 -1.63773,-4.89688 -2.03867,-7.30522c-0.22391,-1.00404 -0.33706,-2.02338 -0.33978,-3.058c-0.04451,-0.29765 0.06864,-0.52428 0.33978,-0.67956c1.80422,0.67548 3.50311,1.52492 5.09667,2.54833c0.43933,0.16649 0.8926,0.22323 1.35911,0.16989c-0.11654,-0.67378 0.11009,-1.12704 0.67956,-1.35911z" fill="#34d294" opacity="0.767"/><path d="M228.3904,235.64138c-0.90347,1.06656 -1.46988,2.31253 -1.69889,3.73755c-0.33978,0 -0.67956,0 -1.01933,0c-0.66936,-2.42363 -1.34892,-4.85882 -2.03867,-7.30522c0.11315,-0.16989 0.22663,-0.33978 0.33978,-0.50967c1.46886,0.62009 2.94146,1.1865 4.41711,1.69889c0.45292,0.7927 0.45292,1.58574 0,2.37844z" fill="#36df9c" opacity="0.767"/></g><path d="M223.8164,154.36476l-20.2734,6.95686l6.79555,21.63251l4.30385,19.44627l7.58837,26.43745l3.56595,10.63716" fill="none" fill-rule="nonzero" stroke="#22ccbd" stroke-width="5.5" stroke-linecap="round"/></g></g></g></svg>